<?xml version="1.0" encoding="utf-8"?>
<!-- Generator: Adobe Illustrator 18.1.0, SVG Export Plug-In . SVG Version: 6.00 Build 0)  -->
<svg version="1.1" id="Layer_1" xmlns="http://www.w3.org/2000/svg" xmlns:xlink="http://www.w3.org/1999/xlink" x="0px" y="0px"
	 viewBox="0 0 1280 300" enable-background="new 0 0 1280 300" xml:space="preserve">
<rect fill="#CAFCF9" width="1280" height="300"/>
<g>
	<defs>
		<rect id="SVGID_1_" width="1280" height="300"/>
	</defs>
	<clipPath id="SVGID_2_">
		<use xlink:href="#SVGID_1_"  overflow="visible"/>
	</clipPath>
	<g clip-path="url(#SVGID_2_)">
		<line fill="none" stroke="#818282" stroke-width="2" stroke-miterlimit="10" x1="634.9" y1="-380.1" x2="634.9" y2="-325.3"/>
		<line fill="none" stroke="#818282" stroke-width="2" stroke-miterlimit="10" x1="634.9" y1="-252.9" x2="634.9" y2="-198.1"/>
		<line fill="none" stroke="#818282" stroke-width="2" stroke-miterlimit="10" x1="634.9" y1="-509.8" x2="634.9" y2="-479.9"/>
		<line fill="none" stroke="#818282" stroke-width="2" stroke-miterlimit="10" x1="659.3" y1="-473.1" x2="668.4" y2="-487.4"/>
		<line fill="none" stroke="#818282" stroke-width="2" stroke-miterlimit="10" x1="611" y1="-473.1" x2="601.9" y2="-487.4"/>
		<line fill="none" stroke="#818282" stroke-width="2" stroke-miterlimit="10" x1="611" y1="-385.1" x2="601.9" y2="-370.9"/>
		<line fill="none" stroke="#818282" stroke-width="2" stroke-miterlimit="10" x1="659.3" y1="-385.1" x2="668.4" y2="-370.9"/>
		<line fill="none" stroke="#818282" stroke-width="2" stroke-miterlimit="10" x1="682.7" y1="-430" x2="718.8" y2="-430"/>
		<line fill="none" stroke="#818282" stroke-width="2" stroke-miterlimit="10" x1="555.4" y1="-430" x2="591.6" y2="-430"/>
		<line fill="none" stroke="#818282" stroke-width="2" stroke-miterlimit="10" x1="678.5" y1="-403.4" x2="690.1" y2="-396.4"/>
		<line fill="none" stroke="#818282" stroke-width="2" stroke-miterlimit="10" x1="595.4" y1="-403.4" x2="583.7" y2="-396.4"/>
		<line fill="none" stroke="#818282" stroke-width="2" stroke-miterlimit="10" x1="595.4" y1="-453.7" x2="583.7" y2="-460.8"/>
		<line fill="none" stroke="#818282" stroke-width="2" stroke-miterlimit="10" x1="678.5" y1="-453.7" x2="690.1" y2="-460.8"/>
		<path fill="none" stroke="#818282" stroke-width="2" stroke-miterlimit="10" d="M869.9-226.6c0,0-74.6-27.4-235.1-27.4
			s-232.6,27.4-232.6,27.4v-76.2c0,0,86.9-22.4,234.2-22.4s233.5,22.4,233.5,22.4V-226.6z"/>
		<path fill="none" stroke="#818282" stroke-width="2" stroke-miterlimit="10" d="M872.4-295.3c0,0,34.7,1.2,44.7,8.7v59.9
			c0,0-23.3-11.2-44.7-5"/>
		<path fill="none" stroke="#818282" stroke-width="2" stroke-miterlimit="10" d="M919.6-268.7c0,0,29.9-5.4,58.6,5.2
			c0,0-48,7.1-38.7,9.5c9.4,2.4,38.7,27.3,38.7,27.3s-37.4-20-58.6-6.2"/>
		<path fill="none" stroke="#818282" stroke-width="2" stroke-miterlimit="10" d="M399.6-295.3c0,0-34.7,1.2-44.7,8.7v59.9
			c0,0,23.3-11.2,44.7-5"/>
		<path fill="none" stroke="#818282" stroke-width="2" stroke-miterlimit="10" d="M352.4-268.7c0,0-29.9-5.4-58.6,5.2
			c0,0,48,7.1,38.7,9.5c-9.4,2.4-38.7,27.3-38.7,27.3s37.4-20,58.6-6.2"/>
		<line fill="none" stroke="#818282" stroke-width="2" stroke-miterlimit="10" x1="635.3" y1="554.3" x2="635.3" y2="489.5"/>
		<g>
			<g>
				<path fill="#818282" d="M459.8-264.3c-1.3-2.3-2-3.5-3.4-5.9c-5.6,0.8-8.4,1.2-14,2.1c-0.6,2.6-0.9,4-1.5,6.6
					c-1.6,0.2-2.4,0.4-4,0.6c2.3-9.9,4.7-19.7,7.1-29.5c1.8-0.3,2.7-0.4,4.4-0.6c5.2,8.7,10.3,17.4,15.3,26.2
					C462.2-264.6,461.4-264.5,459.8-264.3z M446.8-287.2c-1.5,6.4-2.3,9.5-3.7,15.9c4.8-0.7,7.2-1.1,12-1.8
					C451.7-278.7,450.1-281.6,446.8-287.2z"/>
				<path fill="#818282" d="M495.7-268.7c-7.5-8.2-11.3-12.3-19.1-20.4c1.1,8.9,1.6,13.4,2.7,22.3c-1.4,0.2-2.1,0.3-3.5,0.4
					c-1.2-9.3-2.3-18.6-3.5-27.9c1.5-0.2,2.2-0.3,3.7-0.5c7.7,7.9,11.5,11.9,18.9,19.9c-1-8.7-1.4-13.1-2.4-21.8
					c1.4-0.2,2.1-0.2,3.6-0.4c1,9.3,2,18.6,3,28C497.7-269,497-268.9,495.7-268.7z"/>
				<path fill="#818282" d="M534.1-272.3c-1.2-2.4-1.8-3.6-3-6.1c-5.6,0.4-8.4,0.7-14.1,1.2c-0.8,2.6-1.2,3.9-1.9,6.5
					c-1.6,0.1-2.4,0.2-4,0.4c2.9-9.7,5.8-19.4,8.9-29c1.8-0.2,2.7-0.2,4.4-0.4c4.6,9,9.2,18,13.6,27.1
					C536.5-272.5,535.7-272.5,534.1-272.3z M522.5-296c-1.9,6.3-2.8,9.4-4.7,15.6c4.8-0.4,7.2-0.6,12-1
					C526.9-287.2,525.5-290.2,522.5-296z"/>
				<path fill="#818282" d="M549.8-273.5c-0.6-9.4-1.2-18.7-1.8-28.1c1.4-0.1,2.2-0.1,3.6-0.2c0.6,10,0.9,15,1.5,24.9
					c5.2-0.3,7.9-0.5,13.1-0.7c0.1,1.2,0.1,1.9,0.2,3.1C559.7-274.1,556.4-273.9,549.8-273.5z"/>
				<path fill="#818282" d="M582.5-275.1c-0.2-4.8-0.3-7.1-0.5-11.9c-4.7-6.3-7.1-9.5-12-15.7c1.7-0.1,2.5-0.1,4.2-0.2
					c3.8,5.1,5.7,7.6,9.4,12.7c3.4-5.4,5-8,8.5-13.4c1.7,0,2.5-0.1,4.2-0.1c-4.4,6.6-6.5,9.9-10.8,16.6c0.2,4.8,0.3,7.1,0.4,11.9
					C584.6-275.2,583.9-275.2,582.5-275.1z"/>
				<path fill="#818282" d="M606.6-279.8c0.8-1.1,1.2-1.6,2.1-2.7c1.9,2.1,4.9,4,8.9,3.9c5,0,6.6-2.7,6.6-4.9c0-7.2-16.9-3-17-13
					c-0.1-4.6,4.1-7.9,9.8-8c4.4,0,7.8,1.4,10.2,3.9c-0.9,1-1.3,1.5-2.1,2.6c-2.2-2.4-5.2-3.3-8.3-3.3c-3.4,0-5.9,1.9-5.8,4.5
					c0.1,6.3,17,2.6,17,13.1c0,4-2.8,8.2-10.4,8.3C612.6-275.4,609-277.2,606.6-279.8z"/>
				<path fill="#818282" d="M648.3-275.9c0.2-10,0.2-15,0.4-25c-3.6-0.1-5.5-0.1-9.1-0.1c0-1.2,0-1.9,0-3.1
					c8.8,0.1,13.1,0.1,21.9,0.4c0,1.2,0,1.9-0.1,3.1c-3.7-0.1-5.5-0.1-9.1-0.2c-0.2,10-0.3,15-0.5,25
					C650.4-275.8,649.7-275.9,648.3-275.9z"/>
				<path fill="#818282" d="M700.3-274c0.6-10,0.9-15,1.4-24.9c-3.6-0.2-5.5-0.3-9.1-0.5c0.1-1.2,0.1-1.9,0.2-3.1
					c8.7,0.4,13.1,0.7,21.9,1.3c-0.1,1.2-0.1,1.9-0.2,3.1c-3.7-0.2-5.5-0.4-9.1-0.6c-0.6,10-0.9,15-1.5,24.9
					C702.4-273.9,701.7-273.9,700.3-274z"/>
				<path fill="#818282" d="M725.8-272.2c0.7-9.3,1.5-18.7,2.2-28c7.5,0.6,11.3,0.9,18.8,1.6c-0.1,1.2-0.2,1.9-0.3,3.1
					c-6.1-0.6-9.1-0.8-15.2-1.3c-0.3,3.6-0.4,5.4-0.7,9c5.9,0.5,8.9,0.7,14.8,1.3c-0.1,1.2-0.2,1.9-0.3,3.1
					c-5.9-0.6-8.9-0.8-14.8-1.3c-0.3,3.9-0.5,5.8-0.8,9.7c6,0.5,9,0.8,15,1.3c-0.1,1.2-0.2,1.9-0.3,3.1
					C736.8-271.3,733.2-271.7,725.8-272.2z"/>
				<path fill="#818282" d="M778.2-267c-0.7-2.6-1-3.9-1.7-6.5c-5.6-0.7-8.4-1-14-1.6c-1.3,2.4-1.9,3.6-3.2,6
					c-1.6-0.2-2.4-0.3-4-0.4c4.7-8.9,9.6-17.9,14.5-26.7c1.8,0.2,2.7,0.3,4.4,0.5c2.8,9.7,5.4,19.5,8,29.3
					C780.6-266.7,779.8-266.8,778.2-267z M771.5-292.5c-3.1,5.8-4.6,8.6-7.7,14.4c4.8,0.5,7.2,0.8,12,1.4
					C774.2-283,773.3-286.2,771.5-292.5z"/>
				<path fill="#818282" d="M818.2-261.4c1.5-9.3,2.2-14,3.6-23.4c-5.3,8.7-7.9,13.1-13.1,21.9c-0.6-0.1-0.9-0.1-1.4-0.2
					c-2.4-9.9-3.7-14.9-6.3-24.8c-1.3,9.4-1.9,14.1-3.2,23.4c-1.4-0.2-2.1-0.3-3.5-0.5c1.3-9.3,2.5-18.6,3.8-27.9
					c2,0.3,3.1,0.4,5.1,0.7c2.4,9.1,3.5,13.6,5.8,22.7c4.8-8.1,7.2-12.1,12-20.1c2,0.3,3.1,0.5,5.1,0.8c-1.5,9.3-2.9,18.5-4.4,27.8
					C820.3-261.1,819.6-261.2,818.2-261.4z"/>
			</g>
		</g>
		<path fill="none" stroke="#818282" stroke-width="2" stroke-miterlimit="10" d="M496.8,537.8c0,0,39.1,17.5,140.3,17.5
			s137.8-17.5,137.8-17.5v58.7c0,0-26.9,17.5-139.4,17.5s-138.7-17.5-138.7-17.5V537.8z"/>
		<path fill="none" stroke="#818282" stroke-width="2" stroke-miterlimit="10" d="M494.3,591.5c0,0-29.7-3.7-39.7-11.2v-44.9
			c0,0,22.9,9.3,39.7,7.5"/>
		<path fill="none" stroke="#818282" stroke-width="2" stroke-miterlimit="10" d="M449.7,537c0,0-29.9-5.4-58.6,5.2
			c0,0,48,7.1,38.7,9.5c-9.4,2.4-31.2,17.3-31.2,17.3s29.9-10,51.1,3.7"/>
		<circle fill="none" stroke="#818282" stroke-width="2" stroke-miterlimit="10" cx="238.1" cy="-115.5" r="33.8"/>
		<circle fill="none" stroke="#818282" stroke-width="2" stroke-miterlimit="10" cx="101.5" cy="144.3" r="7.5"/>
		<circle fill="none" stroke="#818282" stroke-width="2" stroke-miterlimit="10" cx="146.4" cy="156.8" r="7.5"/>
		<circle fill="none" stroke="#818282" stroke-width="2" stroke-miterlimit="10" cx="1039.3" cy="-120.8" r="26.6"/>
		<polyline fill="none" stroke="#818282" stroke-width="2" stroke-miterlimit="10" points="262.4,-139 238.1,-115.5 256.2,-87 		"/>
		<line fill="none" stroke="#818282" stroke-width="2" stroke-miterlimit="10" x1="238.1" y1="-115.5" x2="206.2" y2="-104.1"/>
		<line fill="none" stroke="#818282" stroke-width="2" stroke-miterlimit="10" x1="73.6" y1="166.6" x2="94.1" y2="147.9"/>
		<line fill="none" stroke="#818282" stroke-width="2" stroke-miterlimit="10" x1="109.4" y1="144.4" x2="140.6" y2="153.9"/>
		<circle fill="none" stroke="#818282" stroke-width="2" stroke-miterlimit="10" cx="68.7" cy="172.4" r="7.5"/>
		<rect x="220" y="381.2" fill="none" stroke="#818282" stroke-width="2" stroke-miterlimit="10" width="11.8" height="23.1"/>
		<rect x="242.4" y="353.8" fill="none" stroke="#818282" stroke-width="2" stroke-miterlimit="10" width="11.8" height="50.5"/>
		<rect x="264.9" y="361.3" fill="none" stroke="#818282" stroke-width="2" stroke-miterlimit="10" width="11.8" height="43"/>
		<line fill="none" stroke="#818282" stroke-width="2" stroke-miterlimit="10" x1="215.6" y1="409.9" x2="282.3" y2="409.9"/>
		<polyline fill="none" stroke="#818282" stroke-width="2" stroke-miterlimit="10" points="985.8,413.8 1004.4,378.6 1019.3,410.9 
			1040.7,371.1 1059.1,413.4 		"/>
		<polygon fill="none" stroke="#818282" stroke-width="2" stroke-miterlimit="10" points="1072.6,413.4 1056.3,371.1 1039.9,391 
			1025.7,371.1 1004.4,405.1 988.8,385.2 976,413.4 		"/>
		<rect x="1152.1" y="132.6" fill="none" stroke="#818282" stroke-width="2" stroke-miterlimit="10" width="74.7" height="57.1"/>
		<line fill="none" stroke="#818282" stroke-width="2" stroke-miterlimit="10" x1="1152.1" y1="144.6" x2="1226.8" y2="144.6"/>
		<line fill="none" stroke="#818282" stroke-width="2" stroke-miterlimit="10" x1="1167.7" y1="144.6" x2="1167.7" y2="189.8"/>
		<line fill="none" stroke="#818282" stroke-width="2" stroke-miterlimit="10" x1="1187.4" y1="144.6" x2="1187.4" y2="189.8"/>
		<line fill="none" stroke="#818282" stroke-width="2" stroke-miterlimit="10" x1="1207.1" y1="144.6" x2="1207.1" y2="189.8"/>
		<line fill="none" stroke="#818282" stroke-width="2" stroke-miterlimit="10" x1="1167.7" y1="156.2" x2="1226.8" y2="156.2"/>
		<line fill="none" stroke="#818282" stroke-width="2" stroke-miterlimit="10" x1="1167.7" y1="167.2" x2="1226.8" y2="167.2"/>
		<line fill="none" stroke="#818282" stroke-width="2" stroke-miterlimit="10" x1="1167.7" y1="178.1" x2="1226.8" y2="178.1"/>
		<g>
			<g>
				<path fill="#818282" d="M669.4-416.4l0.2-0.3l0,0l0.2-27.3v0v0v0h0l-4.4-6.4c-0.7-1-2.1-2.3-3.2-2.9l-19.9-11.4
					c-1.1-0.6-2.9-1.2-4.1-1.3l-7.7-0.3v0l0,0l-24,13.7l0,0l0,0l-3.2,6.6c-0.5,1.1-0.9,3-0.9,4.2l0,23.2c0,1.2,0.4,3.1,1,4.2
					l3.3,6.6l0,0l23.7,13.8l0,0v0l0.7,0v0l0,0l7.4-0.5c1.2-0.1,3.1-0.6,4.1-1.3l19.7-11.3c1.1-0.6,2.5-1.9,3.1-2.9L669.4-416.4
					L669.4-416.4L669.4-416.4z M630.4-396.3l-21.1-12l2.7-20l22.8-0.1l11.3,19.9L630.4-396.3z M646.1-452l-11.2,20l-22.9,0
					l-2.9-19.6l21.2-12.2L646.1-452z M648.9-410.4l-11.3-19.9l11.3-19.8l18.6,7.6l0,24.3L648.9-410.4z M669.2-443.9L669.2-443.9
					L669.2-443.9L669.2-443.9z M642.1-463l18.5,10.8c0.9,0.5,1.8,1.1,2.4,1.9l2.6,3.9l-16.7-6.8l-14.6-11.1l4.3,0
					C639.6-464,641.2-463.5,642.1-463z M604.2-419.3l-0.3-21.3c0-1.1,0.4-2.8,0.8-3.7l2.1-3.6l2.6,18l-2.4,17.9l-2-3.5
					C604.6-416.6,604.2-418.3,604.2-419.3z M663.8-410.5c-0.6,0.9-1.8,2.1-2.8,2.6l-18.3,10.3c-0.9,0.5-2.6,1.3-3.6,1.4l-4.4-0.2
					l14.1-11l16.8-7L663.8-410.5z"/>
				<path fill="#818282" d="M664.1-440.1l-12.9-5.1c-0.2-0.1-0.3,0-0.4,0.2c-0.1,0.1,0,0.3,0.2,0.4l10.9,6.3l2,17.4
					c0,0.2,0.1,0.3,0.3,0.3h0c0.2,0,0.3-0.1,0.3-0.3L664.1-440.1z"/>
				<path fill="#818282" d="M615.4-434.8c0,0.1,0.1,0.2,0.3,0.2c0,0,0,0,0,0c0.2,0,0.3-0.2,0.3-0.3l-0.4-14.3l15.2-10.3
					c0.1-0.1,0.2-0.3,0.1-0.4c-0.1-0.1-0.3-0.2-0.4-0.1l-17.4,9.8L615.4-434.8z"/>
				<path fill="#818282" d="M641.3-408.6c-0.1-0.1-0.3-0.2-0.4,0l-10.9,6.8l-16.7-8.1c-0.1-0.1-0.3,0-0.4,0.1
					c-0.1,0.1,0,0.3,0.1,0.4l16.9,9.9l0.2,0.1l11.1-8.7C641.3-408.3,641.4-408.5,641.3-408.6z"/>
			</g>
		</g>
		<line fill="none" stroke="#818282" stroke-width="2" stroke-miterlimit="10" x1="999.3" y1="-82.4" x2="1018.2" y2="-99.8"/>
		<path fill="none" stroke="#818282" stroke-width="2" stroke-miterlimit="10" d="M1057.5-127c0,0,6.4,6.2-1.2,16.9"/>
		<g>
			<g>
				<path fill="none" d="M255.1,148c0,0,161.9-248.4,378.9-248.8S1012.9,146,1012.9,146"/>
				<path fill="#818282" d="M256.1,148.7l-2-1.3c0.4-0.6,41.3-62.9,108.3-124.5C424.2-34,521.5-101.8,634-102c0.2,0,0.3,0,0.5,0
					c112.3,0,209.4,67.2,271.2,123.6c66.9,61.1,107.9,123.1,108.3,123.8l-2,1.3c-0.4-0.6-41.2-62.4-107.9-123.3
					C842.6-32.7,746-99.5,634.5-99.5c-0.2,0-0.3,0-0.5,0C522.3-99.3,425.6-31.9,364,24.6C297.3,86,256.5,148.1,256.1,148.7z"/>
			</g>
			<g>
				<path fill="#818282" d="M651.9,387.4c-6.5,0-13.1-0.1-19.6-0.4c-141.3-6-236.6-65.2-291.7-113.7
					C280.9,220.5,254.3,168.6,254,168l-0.3-0.6l0.4-0.6c0.4-0.6,41.3-61.7,108.3-122C424.2-10.9,521.5-77.4,634-77.6h0.5
					c112.4,0,209.5,65.9,271.3,121.3c66.8,59.9,107.7,120.6,108.1,121.2l0.4,0.6l-0.3,0.6c-0.3,0.6-26.4,56-83.9,110.7
					C877.1,327.2,785.8,387.4,651.9,387.4z M1005.7,176.7c3.2-5.8,5.2-9.7,5.9-11.1c-4.3-6.3-44.2-63.6-107.4-120.2
					C842.7-9.6,746.1-75.2,634.5-75.2H634C522.3-75,425.5-8.8,364,46.6c-63.2,56.9-103.1,114.5-107.5,121
					c3.2,6,29.9,54.6,85.8,103.9c54.8,48.3,149.6,107.1,290.1,113.1c6.5,0.3,13.1,0.4,19.5,0.4c133.1,0,223.9-59.8,276.6-110
					C969.9,235.6,994.9,195.8,1005.7,176.7"/>
			</g>
			<g>
				<path fill="#818282" d="M634.8,247.4c-51,0-92.6-41.5-92.6-92.6c0-51,41.5-92.6,92.6-92.6c51,0,92.6,41.5,92.6,92.6
					C727.3,205.9,685.8,247.4,634.8,247.4z M634.8,64.8c-49.7,0-90.1,40.4-90.1,90.1c0,49.7,40.4,90.1,90.1,90.1
					c49.7,0,90.1-40.4,90.1-90.1C724.9,105.2,684.5,64.8,634.8,64.8z"/>
			</g>
			<g>
				<path fill="#818282" d="M634.8,205.6c-28,0-50.7-22.8-50.7-50.7c0-28,22.8-50.7,50.7-50.7s50.7,22.8,50.7,50.7
					C685.5,182.9,662.8,205.6,634.8,205.6z M634.8,106.6c-26.6,0-48.3,21.7-48.3,48.3s21.7,48.3,48.3,48.3
					c26.6,0,48.3-21.7,48.3-48.3S661.4,106.6,634.8,106.6z"/>
			</g>
			<polygon fill="none" stroke="#818282" stroke-miterlimit="10" points="720.7,154.9 647.9,155.5 720.3,162.8 647.8,156.7 
				719.3,170.6 647.5,157.9 717.4,178.4 647.2,159.1 714.9,185.9 646.8,160.2 711.7,193.2 646.3,161.2 707.8,200.2 645.6,162.3 
				703.3,206.7 644.9,163.2 698.3,212.8 644,164.1 692.7,218.4 643.1,165 686.6,223.4 642.2,165.7 680,227.9 641.1,166.4 
				673.1,231.8 640.1,166.9 665.8,235 639,167.3 658.3,237.5 637.8,167.6 650.5,239.4 636.6,167.9 642.7,240.4 635.4,168 
				634.8,240.8 634.1,168 626.9,240.4 632.9,167.9 619,239.4 631.7,167.6 611.3,237.5 630.6,167.3 603.7,235 629.5,166.9 
				596.4,231.8 628.4,166.4 589.5,227.9 627.4,165.7 583,223.4 626.4,165 576.9,218.4 625.5,164.1 571.3,212.8 624.7,163.2 
				566.2,206.7 623.9,162.3 561.7,200.1 623.3,161.2 557.9,193.2 622.8,160.2 554.7,185.9 622.3,159.1 552.1,178.4 622,157.9 
				550.3,170.6 621.8,156.7 549.2,162.8 621.7,155.5 548.9,154.9 621.7,154.2 549.2,147 621.8,153 550.3,139.1 622,151.8 
				552.1,131.4 622.3,150.7 554.7,123.8 622.8,149.6 557.9,116.5 623.3,148.5 561.7,109.6 623.9,147.5 566.2,103.1 624.7,146.5 
				571.3,97 625.5,145.6 576.9,91.4 626.4,144.8 583,86.3 627.4,144 589.5,81.8 628.4,143.4 596.5,78 629.5,142.9 603.7,74.8 
				630.6,142.4 611.3,72.2 631.7,142.1 619,70.4 632.9,141.9 626.9,69.3 634.1,141.8 634.8,69 635.4,141.8 642.7,69.3 636.6,141.9 
				650.5,70.4 637.8,142.1 658.3,72.2 639,142.4 665.8,74.8 640.1,142.9 673.1,78 641.1,143.4 680.1,81.8 642.2,144 686.6,86.3 
				643.1,144.8 692.7,91.4 644,145.6 698.3,97 644.9,146.5 703.3,103.1 645.6,147.5 707.8,109.6 646.3,148.5 711.7,116.6 
				646.8,149.6 714.9,123.8 647.2,150.7 717.4,131.4 647.5,151.8 719.3,139.1 647.8,153 720.3,147 647.9,154.2 			"/>
			<g>
				<path fill="#818282" d="M520.1,288.8c-105.1,0-171.8-32.8-209.3-60.3c-40.7-29.9-56.7-60.2-56.8-60.5l2.2-1.1
					c0.2,0.3,16,30.2,56.2,59.7c37.2,27.3,103.4,59.7,207.7,59.7c57.6,0,135.2-10.5,178.1-60.5c25.6-29.8,26.7-59.9,26.7-60.2
					l2.4,0.1c0,0.3-1.1,31.2-27.3,61.7C656.5,278.2,578.2,288.8,520.1,288.8z"/>
			</g>
			<g>
				<path fill="#818282" d="M543.2,166.1c-0.1-0.3-8.1-33,16.1-64.3c29.6-38.5,92.3-58.3,186.2-59c105.2-0.8,171.8,32,209.3,59.7
					c40.7,30.1,56.7,60.8,56.8,61.1l-0.7,1.1c-0.2-0.3-17.4-30.6-57.7-60.3c-36.7-27.1-101.8-59.2-203.9-59.2c-1.3,0-2.5,0-3.8,0
					c-91.9,0.7-155.6,20.8-184.3,58.1c-23.4,30.4-15.7,61.9-15.6,62.2L543.2,166.1z"/>
			</g>
			<g>
				<path fill="#818282" d="M632.6,386.9l-0.5-2.4c1.3-0.2,125.5-25.5,136.6-138.4C779,141.7,681.4,77.8,680.4,77.2l1.3-2
					c1,0.6,99.9,65.4,89.4,171.2C759.8,361.1,633.8,386.7,632.6,386.9z"/>
			</g>
			<g>
				<path fill="#818282" d="M587.9,234.4c-1-0.6-102.3-65.4-91.9-171.2C507.3-51.6,633.3-77.2,634.6-77.4L635-75
					c-1.3,0.2-125.5,25.5-136.6,138.4c-10.3,104.3,89.7,168.3,90.7,168.9L587.9,234.4z"/>
			</g>
			<g>
				<path fill="#818282" d="M614.6,249c-98.4,0-165.7-44.1-206.1-83.3c-48.3-46.9-69.5-97.1-69.7-97.6l2.2-0.9
					c0.2,0.5,21.2,50.3,69.2,96.8c44.2,42.9,121.1,91.8,236.2,81l2.6,1.3C638.1,247.4,633.5,249,614.6,249z"/>
			</g>
			<g>
				<path fill="#818282" d="M908.6,293.3c0-0.6-3.8-58.1-40.5-114.8C834.3,126.3,764.7,63.9,625.2,63.9v-2.4
					c62.1,0,115.7,12.2,159.5,36.2c35,19.2,63.8,46,85.5,79.7c37,57.2,40.8,115.3,40.8,115.9L908.6,293.3z"/>
			</g>
		</g>
		<g>
			<path fill="none" d="M255.1,148c0,0,161.9-248.4,378.9-248.8S1012.9,146,1012.9,146"/>
		</g>
		<g>
			<g>
				<path fill="#818282" d="M293,27.4c-5.6-6-5-14.2,0.7-19.6c3.9-3.7,8.2-4,11.8-3L304.1,9c-2.5-0.8-5.5-0.2-7.5,1.8
					c-3.8,3.6-4,9.2-0.1,13.3c3.8,4,9.4,4.3,13.3,0.7c2.1-1.9,2.8-4.9,2.2-7.4l4.3-1.3c0.7,3.7,0.2,8.1-3.7,11.7
					C306.9,33.2,298.6,33.3,293,27.4z"/>
				<path fill="#818282" d="M322.9-0.3c-5.1-6-4.6-14.1,1.4-19.3c6-5.1,14.1-4.4,19.3,1.7c5.1,6,4.6,14.2-1.4,19.3
					C336.1,6.6,328.1,5.8,322.9-0.3z M340-14.8c-3.6-4.2-8.9-5.1-13-1.6c-4.1,3.5-4.1,8.8-0.5,13c3.5,4.2,8.8,5.1,13,1.6
					C343.6-5.2,343.6-10.7,340-14.8z"/>
				<path fill="#818282" d="M380.5-29.8l-22.6-6.7l11.5,15.2l-3.7,2.8l-16.1-21.2l3.8-2.9l22,6.4l-11.2-14.7l3.7-2.8l16.1,21.2
					L380.5-29.8z"/>
				<path fill="#818282" d="M395.6-45.4l0.2-4.5c2.6,0.6,6,0.4,9.1-1.6c3.2-2.1,3.4-4.5,2.3-6c-3.1-4.6-14,6.9-19.5-1.2
					c-2.5-3.7-1.2-8.6,3.7-11.9c3.4-2.3,7-3.1,10.3-2.4l-0.2,4.4c-2.9-0.6-5.8,0.2-8.1,1.8c-2.3,1.5-2.9,3.6-1.9,5.2
					c2.8,4.1,13.9-7.1,19.4,1.1c2.5,3.7,2,8.6-3.9,12.6C402.9-45.2,399-44.7,395.6-45.4z"/>
				<path fill="#818282" d="M421.9-74.2c-4-6.9-2.1-14.7,4.8-18.7c6.9-4,14.7-1.8,18.7,5c4,6.9,2,14.7-4.8,18.7
					C433.7-65.1,425.9-67.3,421.9-74.2z M441.3-85.4c-2.8-4.8-7.8-6.6-12.5-3.9c-4.7,2.7-5.6,8-2.8,12.7c2.8,4.7,7.8,6.6,12.5,3.9
					C443.2-75.4,444.1-80.7,441.3-85.4z"/>
				<path fill="#818282" d="M467.1-84.2l-11.7-23.9l4.2-2.1l9.9,20.2l10.5-5.2l1.8,3.7L467.1-84.2z"/>
				<path fill="#818282" d="M497.3-98.2L487-122.7l4.3-1.8l10.3,24.6L497.3-98.2z"/>
				<path fill="#818282" d="M518.6-106.8l-8.4-25.3l9.4-3.1c7.9-2.6,15,0.8,17.4,8.2c2.5,7.5-1.1,14.4-9,17L518.6-106.8z
					 M532.5-125.4c-1.6-4.8-5.9-7.7-11.5-5.9l-5,1.7l5.8,17.5l5-1.6C532.2-115.6,534.1-120.6,532.5-125.4z"/>
				<path fill="#818282" d="M574.6-122.3l-3-4.6l-11.9,2.6l-0.8,5.4l-5.2,1.1l4.5-28.2l5.7-1.2l15.9,23.8L574.6-122.3z M562-142.1
					l-2,13.4l9.4-2.1L562-142.1z"/>
				<path fill="#818282" d="M598.7-126l-2.5-22.4l-8,0.9l-0.5-4.1l20.7-2.3l0.5,4.1l-8,0.9l2.5,22.4L598.7-126z"/>
				<path fill="#818282" d="M627.7-128.4l0.5-26.6l18.2,0.4l-0.1,4.1l-13.6-0.3l-0.1,6.9l13.3,0.3l-0.1,4.1l-13.3-0.3l-0.2,7.4
					l13.6,0.3l-0.1,4.1L627.7-128.4z"/>
				<path fill="#818282" d="M702.3-120.7c-0.5-0.7-1.2-1.7-1.9-2.7c-2.3,1.3-4.9,1.9-7.9,1.3c-4.6-0.9-7.9-4.2-6.9-9.1
					c0.8-4,3.9-5.6,7.2-6.5c-0.7-2.2-1.1-4.3-0.7-6.1c0.7-3.5,4.2-5.5,8.3-4.7c3.5,0.7,6,3.2,5.4,6.6c-0.8,4-4.4,5-7.9,5.9
					c0.7,1.4,1.4,2.8,1.9,3.8c0.7,1.2,1.3,2.4,2,3.5c1.6-1.6,2.9-3.5,3.7-5l3,2.2c-1.3,1.9-3,4-4.9,5.8c1.2,2,2.5,4,4.1,6.1
					L702.3-120.7z M698.6-126.3c-1-1.7-2-3.3-2.5-4.3c-0.8-1.3-1.5-2.8-2.2-4.3c-1.9,0.8-3.5,1.9-3.9,4.1c-0.6,2.9,1.3,4.9,3.7,5.4
					C695.4-125,697.1-125.4,698.6-126.3z M696.8-138.8c2.7-0.7,4.9-1.5,5.4-3.7c0.3-1.6-0.6-2.8-2.1-3.1c-1.7-0.3-3.4,0.7-3.8,2.6
					C696-141.8,696.2-140.3,696.8-138.8z"/>
				<path fill="#818282" d="M748.8-121.3c2.9-7.7,10.6-10.7,18-7.9c5,1.9,7.1,5.7,7.8,9.4l-4.4,0.5c-0.4-2.5-2.2-5-4.9-6
					c-4.9-1.9-10,0.5-12,5.7c-2,5.2,0.2,10.4,5.1,12.3c2.6,1,5.7,0.4,7.6-1.2l3,3.3c-3,2.3-7.1,3.7-12.1,1.8
					C749.6-106.3,745.8-113.7,748.8-121.3z"/>
				<path fill="#818282" d="M786.8-106c3.5-7.1,11.1-9.9,18.3-6.3c7.1,3.5,9.6,11.2,6.1,18.4c-3.5,7.1-11.2,9.8-18.3,6.3
					C785.7-91.2,783.3-98.9,786.8-106z M806.9-96.1c2.4-4.9,1.1-10.2-3.7-12.5c-4.8-2.4-9.7-0.2-12.2,4.7
					c-2.4,4.9-1.2,10.1,3.7,12.5C799.5-89,804.5-91.2,806.9-96.1z"/>
				<path fill="#818282" d="M836.2-64.2l-2.1-23.5l-9.8,16.3l-4-2.4L834-96.5l4.1,2.5l2.2,22.8l9.5-15.8l4,2.4L840-61.8L836.2-64.2z
					"/>
				<path fill="#818282" d="M862.1-63.4c4.6-6.5,12.5-8,19.1-3.4c6.5,4.6,7.8,12.6,3.2,19.1c-2.2,3.1-5.2,5.1-8.4,5.8l0.4,3.3
					l-4.2,0.4l-0.4-3.5c-2.2-0.3-4.4-1.1-6.4-2.5C858.8-48.9,857.6-56.9,862.1-63.4z M871.3-46.2l-0.6-5l4.2-0.3l0.6,5
					c1.9-0.7,3.6-2,5-4c3.2-4.5,2.7-9.9-1.7-12.9c-4.4-3.1-9.6-1.7-12.7,2.8c-3.1,4.5-2.7,9.8,1.7,12.9
					C868.9-46.9,870.1-46.4,871.3-46.2z"/>
				<path fill="#818282" d="M897.1-34.6l10.1-12.6l3.7,3l-10,12.5c-2.6,3.3-2.5,6.9,0.9,9.7c3.5,2.8,7,2.1,9.7-1.2l10-12.5l3.7,3
					l-10.1,12.6c-4.1,5.1-9.8,6.2-15.9,1.4C893.2-23.7,893-29.5,897.1-34.6z"/>
				<path fill="#818282" d="M922.6,0l17.7-19.9l13.6,12.1l-2.7,3.1l-10.1-9l-4.6,5.1l9.9,8.8l-2.7,3.1l-9.9-8.8L928.8,0l10.1,9
					l-2.7,3.1L922.6,0z"/>
				<path fill="#818282" d="M960,34.8l2.7-11.2l-3.3-3.3l-6.9,7.1l-3.3-3.3l18.6-19.1l8.4,8.2c3.8,3.7,3.9,8.5,0.4,12.1
					c-3.3,3.4-7.3,3.1-10,1.2l-2.6,12.1L960,34.8z M973.1,22c1.8-1.8,1.6-4.3-0.3-6.2l-4.6-4.5l-5.9,6.1l4.6,4.5
					C968.7,23.7,971.3,23.8,973.1,22z"/>
			</g>
		</g>
		<path fill="none" stroke="#818282" stroke-width="2" stroke-miterlimit="10" d="M777.7,591.5c0,0,29.7-3.7,39.7-11.2v-44.9
			c0,0-22.9,9.3-39.7,7.5"/>
		<path fill="none" stroke="#818282" stroke-width="2" stroke-miterlimit="10" d="M822.3,537c0,0,29.9-5.4,58.6,5.2
			c0,0-48,7.1-38.7,9.5c9.4,2.4,31.2,17.3,31.2,17.3s-29.9-10-51.1,3.7"/>
		<g>
			<path fill="none" stroke="#818282" stroke-width="2" stroke-miterlimit="10" d="M402.3-140.5c63.1-31,142.8-57.3,231.7-57.5
				c86.4-0.2,164.1,24.3,226.3,53.8"/>
		</g>
		<g>
			<path fill="none" stroke="#818282" stroke-width="2" stroke-miterlimit="10" d="M482.2-193c46-14.9,97.1-24.8,151.8-24.9
				c55.4-0.1,107.2,9.9,153.7,24.9"/>
		</g>
		<g>
			<path fill="none" stroke="#818282" stroke-width="2" stroke-miterlimit="10" d="M572.9-231.3c19.8-2.7,40.2-4.1,61.1-4.2
				c22,0,43.5,1.5,64.3,4.4"/>
		</g>
		<g>
			<path fill="none" stroke="#818282" stroke-width="2" stroke-miterlimit="10" d="M402.3,430.5c63.1,31,142.8,57.3,231.7,57.5
				c86.4,0.2,164.1-24.3,226.3-53.8"/>
		</g>
		<g>
			<path fill="none" stroke="#818282" stroke-width="2" stroke-miterlimit="10" d="M482.2,483c46,14.9,97.1,24.8,151.8,24.9
				c55.4,0.1,107.2-9.9,153.7-24.9"/>
		</g>
		<g>
			<path fill="none" stroke="#818282" stroke-width="2" stroke-miterlimit="10" d="M572.9,521.3c19.8,2.7,40.2,4.1,61.1,4.2
				c22,0,43.5-1.5,64.3-4.4"/>
		</g>
		<g>
			<path fill="#818282" d="M443.8,418.3l8.2-21.8l9.6,3.6c4.6,1.7,5.9,5.8,4.5,9.5c-1.4,3.7-5.1,5.8-9.7,4.1l-5.8-2.2l-3.1,8.2
				L443.8,418.3z M462.2,408.2c0.8-2.1-0.2-4-2.4-4.9l-5.3-2l-2.6,6.9l5.3,2C459.3,411,461.4,410.2,462.2,408.2z"/>
			<path fill="#818282" d="M486,432.8l3-9.8l-11.6-3.5l-3,9.8l-3.9-1.2l6.8-22.3l3.9,1.2l-2.8,9.1l11.6,3.5l2.8-9.1l3.9,1.2
				l-6.8,22.3L486,432.8z"/>
			<path fill="#818282" d="M501.5,437l5.7-22.6l4,1l-5.7,22.6L501.5,437z"/>
			<path fill="#818282" d="M516.7,440.7l4.8-22.8l4,0.8l-4.1,19.3l10,2.1l-0.7,3.5L516.7,440.7z"/>
			<path fill="#818282" d="M557.3,448.2l-1-4.7l-10.6-1.7l-2.4,4.2l-4.6-0.7l12.7-21.6l5,0.8l5.4,24.4L557.3,448.2z M553.4,428.2
				l-5.9,10.3l8.3,1.3L553.4,428.2z"/>
			<path fill="#818282" d="M571.1,450.1l2.4-23.2l8.6,0.9c7.3,0.8,11.6,6.1,10.9,12.8c-0.7,6.8-6.1,11.1-13.3,10.3L571.1,450.1z
				 M588.8,440.3c0.5-4.4-1.9-8.3-7.1-8.8l-4.6-0.5l-1.7,16l4.5,0.5C585.1,448,588.4,444.7,588.8,440.3z"/>
			<path fill="#818282" d="M601.7,453l1.4-23.3l15.9,0.9l-0.2,3.6l-11.9-0.7l-0.4,6l11.6,0.7l-0.2,3.6l-11.6-0.7l-0.4,6.5l11.9,0.7
				l-0.2,3.6L601.7,453z"/>
			<path fill="#818282" d="M628,454.4l0.4-23.3l4.1,0.1l-0.3,19.7l10.3,0.2l-0.1,3.6L628,454.4z"/>
			<path fill="#818282" d="M652.9,454.5l-0.9-23.3l10.3-0.4c4.9-0.2,7.7,3,7.8,7c0.1,3.9-2.4,7.4-7.3,7.5l-6.2,0.2l0.3,8.7
				L652.9,454.5z M666,438c-0.1-2.2-1.8-3.6-4.1-3.5l-5.6,0.2l0.3,7.4l5.6-0.2C664.5,441.7,666.1,440.2,666,438z"/>
			<path fill="#818282" d="M697.5,451.5l-1-10.1l-12.1,1.2l1,10.1l-4.1,0.4l-2.3-23.2l4.1-0.4l0.9,9.5l12.1-1.2l-0.9-9.5l4.1-0.4
				l2.3,23.2L697.5,451.5z"/>
			<path fill="#818282" d="M713.4,449.4l-3.5-23l4-0.6l3.5,23L713.4,449.4z"/>
			<path fill="#818282" d="M745.3,443.6l-2.6-4.1l-10.5,2.1l-0.8,4.8l-4.5,0.9l4.3-24.7l5-1l13.6,21L745.3,443.6z M734.5,426.2
				l-1.9,11.7l8.2-1.7L734.5,426.2z"/>
			<path fill="#818282" d="M774.7,436l-7.1-22.2l9.8-3.1c4.7-1.5,8.2,0.9,9.4,4.6c1.2,3.8-0.4,7.7-5,9.2l-5.9,1.9l2.7,8.3L774.7,436
				z M782.8,416.7c-0.7-2.1-2.7-3-4.9-2.3l-5.4,1.7l2.2,7l5.4-1.7C782.3,420.6,783.5,418.8,782.8,416.7z"/>
			<path fill="#818282" d="M814.5,421.9l-3.2-3.6l-9.9,3.9l0.1,4.8l-4.3,1.7l-0.1-25l4.7-1.9l17.1,18.3L814.5,421.9z M800.8,406.6
				l0.2,11.9l7.8-3.1L800.8,406.6z"/>
		</g>
		<g>
			<g>
				
					<line fill="none" stroke="#818282" stroke-width="2" stroke-linecap="round" stroke-miterlimit="10" x1="213.2" y1="356.6" x2="213.2" y2="356.6"/>
				
					<line fill="none" stroke="#818282" stroke-width="2" stroke-linecap="round" stroke-miterlimit="10" stroke-dasharray="0,12.8148" x1="206.5" y1="345.7" x2="109.2" y2="187.4"/>
				
					<line fill="none" stroke="#818282" stroke-width="2" stroke-linecap="round" stroke-miterlimit="10" x1="105.8" y1="181.9" x2="105.8" y2="181.9"/>
			</g>
		</g>
		<g>
			<g>
				
					<line fill="none" stroke="#818282" stroke-width="2" stroke-linecap="round" stroke-miterlimit="10" x1="213.2" y1="-63.3" x2="213.2" y2="-63.3"/>
				
					<line fill="none" stroke="#818282" stroke-width="2" stroke-linecap="round" stroke-miterlimit="10" stroke-dasharray="0,12.8148" x1="206.5" y1="-52.4" x2="109.2" y2="105.9"/>
				
					<line fill="none" stroke="#818282" stroke-width="2" stroke-linecap="round" stroke-miterlimit="10" x1="105.8" y1="111.4" x2="105.8" y2="111.4"/>
			</g>
		</g>
		<g>
			<g>
				
					<line fill="none" stroke="#818282" stroke-width="2" stroke-linecap="round" stroke-miterlimit="10" x1="1060.8" y1="-70.4" x2="1060.8" y2="-70.4"/>
				
					<line fill="none" stroke="#818282" stroke-width="2" stroke-linecap="round" stroke-miterlimit="10" stroke-dasharray="0,12.8148" x1="1067.5" y1="-59.5" x2="1164.8" y2="98.8"/>
				
					<line fill="none" stroke="#818282" stroke-width="2" stroke-linecap="round" stroke-miterlimit="10" x1="1168.2" y1="104.2" x2="1168.2" y2="104.2"/>
			</g>
		</g>
		<g>
			<g>
				
					<line fill="none" stroke="#818282" stroke-width="2" stroke-linecap="round" stroke-miterlimit="10" x1="1080.9" y1="356.6" x2="1080.9" y2="356.6"/>
				
					<line fill="none" stroke="#818282" stroke-width="2" stroke-linecap="round" stroke-miterlimit="10" stroke-dasharray="0,12.7553" x1="1087.5" y1="345.7" x2="1164.4" y2="220.8"/>
				
					<line fill="none" stroke="#818282" stroke-width="2" stroke-linecap="round" stroke-miterlimit="10" x1="1167.7" y1="215.3" x2="1167.7" y2="215.3"/>
			</g>
		</g>
		<g>
			<g>
				<path fill="#818282" d="M517.1,580c1.1-5.2,1.6-7.8,2.7-13c3.6,0.7,5.4,1.1,9,1.8c-0.2,0.8-0.2,1.2-0.4,2
					c-2.7-0.5-4.1-0.8-6.8-1.3c-0.3,1.3-0.4,2-0.7,3.4c2.7,0.5,4,0.8,6.7,1.3c-0.2,0.8-0.2,1.2-0.4,2c-2.7-0.5-4-0.8-6.7-1.3
					c-0.3,1.5-0.4,2.2-0.7,3.6c2.7,0.6,4.1,0.8,6.9,1.3c-0.2,0.8-0.2,1.2-0.4,2C522.6,581.2,520.8,580.8,517.1,580z"/>
				<path fill="#818282" d="M531.9,581c0.7-0.6,1-0.9,1.7-1.5c0.7,1.1,2.1,2.3,3.9,2.6c1.9,0.3,2.8-0.5,3-1.4
					c0.5-2.8-7.6-2.4-6.8-7.2c0.4-2.2,2.6-3.5,5.5-3c2,0.4,3.6,1.3,4.6,2.7c-0.6,0.6-1,0.9-1.6,1.5c-0.9-1.2-2.2-1.9-3.6-2.2
					c-1.4-0.2-2.3,0.3-2.5,1.2c-0.4,2.5,7.6,2.3,6.8,7.1c-0.4,2.2-2.3,3.8-5.9,3.2C534.5,583.6,532.9,582.4,531.9,581z"/>
				<path fill="#818282" d="M551.2,586.1c0.7-4.5,1-6.7,1.6-11.1c-1.6-0.2-2.4-0.4-4-0.6c0.1-0.8,0.2-1.2,0.3-2
					c4.1,0.6,6.2,0.9,10.4,1.5c-0.1,0.8-0.2,1.2-0.3,2c-1.6-0.2-2.4-0.3-4-0.6c-0.6,4.5-0.9,6.7-1.6,11.1
					C552.6,586.3,552.1,586.2,551.2,586.1z"/>
				<path fill="#818282" d="M571.6,588.7c-0.3-1.1-0.4-1.6-0.7-2.7c-2.5-0.3-3.7-0.4-6.2-0.7c-0.5,1-0.8,1.5-1.3,2.4
					c-1.1-0.1-1.6-0.2-2.7-0.3c2.8-5,4.2-7.5,6.9-12.5c1.2,0.1,1.7,0.2,2.9,0.3c1.5,5.5,2.3,8.3,3.8,13.8
					C573.2,588.9,572.7,588.8,571.6,588.7z M568.7,577.3c-1.3,2.4-1.9,3.6-3.2,6c1.9,0.2,2.9,0.4,4.9,0.6
					C569.8,581.3,569.4,579.9,568.7,577.3z"/>
				<path fill="#818282" d="M579.5,589.5c0.5-5.3,0.8-7.9,1.3-13.2c2.6,0.3,3.9,0.4,6.6,0.6c2.5,0.2,3.7,1.8,3.5,3.7
					c-0.1,1.7-1.3,2.7-2.6,2.9c1.4,0.3,2.5,1.8,2.4,3.5c-0.2,2.1-1.7,3.5-4.3,3.3C583.6,589.9,582.2,589.8,579.5,589.5z
					 M588.4,580.7c0.1-1-0.5-1.8-1.7-1.9c-1.5-0.1-2.3-0.2-3.8-0.3c-0.1,1.4-0.2,2.1-0.3,3.4c1.5,0.1,2.3,0.2,3.8,0.3
					C587.6,582.4,588.3,581.7,588.4,580.7z M588.2,586.3c0.1-1-0.6-1.9-1.9-2c-1.6-0.1-2.3-0.2-3.9-0.3c-0.1,1.5-0.2,2.2-0.3,3.7
					c1.6,0.1,2.4,0.2,3.9,0.4C587.3,588.1,588.1,587.5,588.2,586.3z"/>
				<path fill="#818282" d="M596.3,590.9c0.4-5.3,0.5-8,0.9-13.3c0.9,0.1,1.4,0.1,2.3,0.2c-0.3,4.5-0.4,6.7-0.7,11.2
					c2.4,0.2,3.6,0.2,6,0.4c0,0.8-0.1,1.2-0.1,2.1C601.3,591.2,599.7,591.1,596.3,590.9z"/>
				<path fill="#818282" d="M610.5,591.7c0.2-5.3,0.3-8,0.6-13.3c0.9,0,1.4,0.1,2.3,0.1c-0.2,5.3-0.3,8-0.5,13.3
					C612,591.7,611.5,591.7,610.5,591.7z"/>
				<path fill="#818282" d="M618.7,590.1c0.6-0.7,0.8-1.1,1.4-1.8c0.9,1,2.4,1.9,4.3,2c2,0,2.7-0.9,2.8-1.8c0-2.8-7.9-1.2-7.7-6.1
					c0.1-2.2,2-3.8,5-3.8c2.1,0,3.8,0.7,5,2c-0.5,0.7-0.8,1-1.4,1.7c-1.1-1.1-2.5-1.6-3.9-1.6c-1.4,0-2.3,0.6-2.3,1.6
					c-0.1,2.5,7.8,1.1,7.8,6c0,2.2-1.7,4.1-5.3,4C621.7,592.3,619.9,591.4,618.7,590.1z"/>
				<path fill="#818282" d="M644.9,592.1c0-2.3-0.1-3.5-0.1-5.8c-2.8,0-4.2,0.1-7.1,0.1c0,2.3,0,3.5,0,5.8c-1,0-1.4,0-2.4,0
					c0-5.3,0-8,0-13.3c0.9,0,1.4,0,2.3,0c0,2.2,0,3.3,0,5.4c2.8,0,4.2,0,7-0.1c0-2.2-0.1-3.3-0.1-5.4c0.9,0,1.4,0,2.3,0
					c0.1,5.3,0.2,8,0.3,13.3C646.4,592.1,645.9,592.1,644.9,592.1z"/>
				<path fill="#818282" d="M654,591.9c-0.2-5.3-0.2-8-0.4-13.3c3.7-0.1,5.5-0.2,9.2-0.4c0,0.8,0.1,1.2,0.1,2.1
					c-2.7,0.1-4.1,0.2-6.8,0.3c0,1.4,0.1,2.1,0.1,3.4c2.7-0.1,4-0.1,6.7-0.3c0,0.8,0.1,1.2,0.1,2.1c-2.7,0.1-4.1,0.2-6.8,0.3
					c0.1,1.5,0.1,2.2,0.1,3.7c2.8-0.1,4.2-0.2,7-0.3c0,0.8,0.1,1.2,0.1,2.1C659.6,591.7,657.7,591.8,654,591.9z"/>
				<path fill="#818282" d="M669.5,591.2c-0.3-5.3-0.5-8-0.8-13.3c2-0.1,3-0.2,5-0.3c4.2-0.3,7.2,2.2,7.5,6.1
					c0.3,3.9-2.3,6.9-6.6,7.2C672.5,591.1,671.5,591.1,669.5,591.2z M678.8,584c-0.2-2.5-1.9-4.5-4.9-4.3c-1.1,0.1-1.6,0.1-2.7,0.2
					c0.2,3.7,0.3,5.5,0.6,9.2c1.1-0.1,1.6-0.1,2.7-0.2C677.4,588.7,679,586.5,678.8,584z"/>
				<path fill="#818282" d="M696.3,589.1c-0.1-0.7-0.1-1.1-0.2-1.8c4.9-4.4,6.7-6.4,6.5-8.3c-0.2-1.4-1.5-1.9-2.7-1.7
					c-1.6,0.2-2.7,0.9-3.4,2c-0.6-0.5-0.9-0.8-1.5-1.4c1-1.6,2.8-2.4,4.7-2.7c2.6-0.3,5,0.9,5.3,3.5c0.3,2.5-1.7,4.9-5,8
					c2.4-0.3,3.6-0.4,6-0.7c0.1,0.8,0.1,1.2,0.2,2C702.2,588.5,700.2,588.7,696.3,589.1z"/>
				<path fill="#818282" d="M711.1,580.7c-0.4-3.3,0.7-7,4.4-7.5c3.7-0.5,5.8,2.7,6.3,6c0.5,3.3-0.6,7.1-4.4,7.6
					C713.6,587.3,711.5,584,711.1,580.7z M719.4,579.5c-0.4-2.5-1.4-4.6-3.6-4.3c-2.2,0.3-2.7,2.6-2.3,5.2c0.3,2.5,1.4,4.7,3.7,4.4
					C719.3,584.4,719.8,582,719.4,579.5z"/>
				<path fill="#818282" d="M727.1,578.3c-0.5-3.3,0.5-7,4.2-7.6c3.7-0.6,5.9,2.5,6.5,5.8c0.6,3.3-0.4,7.1-4.2,7.7
					C729.8,584.9,727.6,581.6,727.1,578.3z M735.4,577c-0.4-2.5-1.6-4.6-3.8-4.2c-2.2,0.4-2.6,2.7-2.2,5.2c0.4,2.5,1.6,4.6,3.8,4.2
					C735.5,581.8,735.9,579.4,735.4,577z"/>
				<path fill="#818282" d="M743.7,578.7c-0.3-1.6,0.9-3.1,2.4-3.9c-1.6-0.2-3.1-0.9-3.4-2.6c-0.5-2.4,1.9-3.9,4.2-4.4
					c2.3-0.5,5,0,5.5,2.4c0.3,1.6-0.7,2.9-2.1,3.7c1.7,0.2,3.4,1.1,3.7,2.7c0.5,2.3-1.7,4.1-4.4,4.6
					C746.8,581.9,744.1,581.1,743.7,578.7z M751.6,576.9c-0.3-1.3-2.3-1.5-3.2-1.5c-0.8,0.3-2.6,1.2-2.4,2.6
					c0.2,1.2,1.6,1.6,3.1,1.3C750.7,579,751.8,578,751.6,576.9z M750.2,571.1c-0.2-1.1-1.4-1.5-2.9-1.2c-1.4,0.3-2.4,1.1-2.2,2.2
					c0.2,1.2,2,1.4,2.9,1.3C748.8,573.1,750.4,572.3,750.2,571.1z"/>
			</g>
		</g>
	</g>
</g>
</svg>
