<?xml version="1.0" encoding="utf-8"?>
<!-- Generator: Adobe Illustrator 18.1.0, SVG Export Plug-In . SVG Version: 6.00 Build 0)  -->
<svg version="1.1" id="Layer_1" xmlns="http://www.w3.org/2000/svg" xmlns:xlink="http://www.w3.org/1999/xlink" x="0px" y="0px"
	 viewBox="0 0 800 355" enable-background="new 0 0 800 355" xml:space="preserve">
<g>
	<polygon fill="#231F20" points="83.3,29.3 78.8,60.3 77.3,60.3 72.8,29.3 68.4,29.3 74,65.6 81.5,65.6 87.1,29.3 	"/>
	<polygon fill="#231F20" points="113.2,23.8 113.2,18.7 92.9,18.7 92.9,69.3 113.2,69.3 113.2,64.1 98.8,64.1 98.8,46.2 110.2,46.2 
		110.2,41 98.8,41 98.8,23.8 	"/>
	<polygon fill="#231F20" points="64.2,11.3 64.2,4.1 37.6,4.1 37.6,69.3 64.2,69.3 64.2,62.1 45.8,62.1 45.8,39.8 60.4,39.8 
		60.4,32.6 45.8,32.6 45.8,11.3 	"/>
	<path fill="#231F20" d="M142.3,69.3h7.7c-0.6-2-0.6-4.1-0.6-6.6v-9.9c0-6.9-1.8-10.8-6-12.5l-0.8-0.3v-1.8l0.7-0.3
		c4-1.9,5.9-5.7,5.9-11.9v-5.1c0-9.5-4.1-13.6-13.8-13.6h-14.1v62h7.7V43h4.7c5.4,0,7.8,2.9,7.8,9.4v10.1
		C141.7,66.7,141.9,68.1,142.3,69.3z M141.6,28.3c0,5.4-2.4,8-7.3,8h-5.2V14.1h6.1c6.4,0,6.4,5.9,6.4,7.8V28.3z"/>
	<polygon fill="#231F20" points="174.7,18.4 168.8,40.8 166.8,40.8 160.9,18.4 155.4,18.4 164.8,49.9 164.8,65.2 170.1,65.2 
		170.1,49.9 179.5,18.4 	"/>
	<polygon fill="#231F20" points="60.7,75.3 30,75.3 30,82.6 41.2,82.6 41.2,141.1 49.5,141.1 49.5,82.6 60.7,82.6 	"/>
	<polygon fill="#231F20" points="90.8,141.1 90.8,91.3 84.9,91.3 84.9,113.7 73.2,113.7 73.2,91.3 67.4,91.3 67.4,141.1 73.2,141.1 
		73.2,118.7 84.9,118.7 84.9,141.1 	"/>
	<rect x="98.6" y="105.6" fill="#231F20" width="7.6" height="35.4"/>
	<polygon fill="#231F20" points="131.8,137 138.2,137 138.2,86.4 133.2,86.4 133.2,118.1 130.9,118.1 122.5,86.4 114.2,86.4 
		114.2,137 119.2,137 119.2,98.5 121.5,98.5 	"/>
	<path fill="#231F20" d="M167.7,104l6,0.6l0.4-4.3c0.6-5.9-0.8-13.2-10.8-14.2c-0.6-0.1-1.2-0.1-1.8-0.1c-8.5,0-11,6.5-11.5,11.9
		l-2.8,29.4c-0.4,4.2,0.3,7.6,2.1,10c1.8,2.4,4.7,3.8,8.7,4.2c0.6,0.1,1.2,0.1,1.8,0.1c0,0,0,0,0,0c8.5,0,11-6.5,11.5-11.9l1.6-16.7
		l-10-1l-0.5,5.6l4,0.4l-1.1,11.6c-0.5,5.1-3.3,6.2-5.7,6.2c-0.3,0-0.5,0-0.8,0c-2.7-0.3-5.7-1.7-5.2-7.3l3-30.6
		c0.5-5.2,3.4-6.3,5.7-6.3c0.3,0,0.5,0,0.8,0c5.1,0.5,5.4,4.8,5.2,7.4L167.7,104z"/>
	<path fill="#231F20" d="M58.4,266.8l0.6,7.7c0.2,2.9,0.4,3.9,0.7,4.8l5.3-0.4c-0.5-1.5-0.6-3-0.7-4.7l-0.6-7.6
		c-0.4-5.1-1.9-7.9-5.1-8.9l-0.8-0.3l-0.1-1.7l0.7-0.4c2.9-1.6,4-4.5,3.7-9.1l-0.3-3.9c-0.5-6.6-3.3-9.4-9.4-9.4c-0.5,0-1,0-1.6,0.1
		l-10.4,0.8l3.4,46.7l5.3-0.4l-1.5-20l3.9-0.3c0.3,0,0.5,0,0.8,0C57.3,259.7,58.2,263.7,58.4,266.8z M47.4,255.5l-1.3-17.5l4.9-0.4
		c0.2,0,0.4,0,0.6,0c3.1,0,4.8,2,5,5.9l0.4,4.8c0.3,4.3-1.5,6.6-5.4,6.8L47.4,255.5z"/>
	<polygon fill="#231F20" points="95.9,231.8 95.9,225.6 72.3,225.6 72.3,283.8 95.9,283.8 95.9,277.6 79.4,277.6 79.4,257.4 
		92.5,257.4 92.5,251.1 79.4,251.1 79.4,231.8 	"/>
	<polygon fill="#231F20" points="103.8,229.1 103.8,279.7 123.4,279.7 123.4,274.6 109.7,274.6 109.7,229.1 	"/>
	<path fill="#231F20" d="M150.8,276.2l1.7,11.7h7.7l-9.9-62h-12.7l-9.9,62h6.8l1.7-11.7H150.8z M142.3,234.8h2.3l5.1,35h-12.6
		L142.3,234.8z"/>
	<polygon fill="#231F20" points="94.2,292.9 38,292.9 38,299.1 60.2,299.1 60.2,351.1 67.3,351.1 67.3,299.1 95.7,299.1 	"/>
	<rect x="87.1" y="308" fill="#231F20" width="8.8" height="34.9"/>
	<polygon fill="#231F20" points="127.7,287.9 119.8,341.6 117.5,341.6 110.4,292.9 102.7,292.9 111.7,351.1 124.7,351.1 
		134.5,287.9 	"/>
	<polygon fill="#231F20" points="147.2,311.3 159,313.1 159.6,309.3 143.3,306.8 137.1,347.9 153.3,350.4 153.9,346.6 142.1,344.8 
		144.4,329.6 153.8,331.1 154.3,327.3 145,325.8 	"/>
	<path fill="#231F20" d="M102.5,80.8c-2.2,0-4,1.8-4,4c0,2.2,1.8,4,4,4s4-1.8,4-4C106.5,82.6,104.7,80.8,102.5,80.8z"/>
</g>
<rect x="40.4" y="147.4" fill="#231F20" width="106.2" height="5.3"/>
<rect x="158.8" y="147.4" fill="#231F20" width="12.3" height="5.3"/>
<rect x="66.1" y="213.6" fill="#231F20" width="105" height="5.3"/>
<rect x="41.6" y="213.6" fill="#231F20" width="11.1" height="5.3"/>
<g>
	<path fill="#231F20" d="M394.8,50.5l-6.6-0.4l-2.6,44.3l-3.7-0.2l2.6-44.3l-6.7-0.4l0.2-3.7l17,1L394.8,50.5z"/>
	<path fill="#231F20" d="M426.6,55l-14.7,45.8l-3.5-1.1l6.8-21.2l-10.6-3.4l-6.8,21.2l-3.5-1.1L409,49.3l3.5,1.1l-6.8,21.1l10.6,3.4
		l6.8-21.1L426.6,55z"/>
	<path fill="#231F20" d="M442.6,67.5l-10,15.6l7.3,4.7l-2,3.1l-7.3-4.7l-10,15.5l10.3,6.6l-2,3.1l-13.4-8.6l26-40.4l12.9,8.3l-2,3.1
		L442.6,67.5z"/>
	<path fill="#231F20" d="M467.9,94.6c1-0.8,2.1-1.3,3.3-1.6c1.2-0.3,2.4-0.3,3.6-0.2c1.2,0.2,2.3,0.6,3.4,1.2c1,0.6,2,1.4,2.7,2.5
		c0.8,1,1.3,2.1,1.6,3.3c0.3,1.2,0.3,2.4,0.2,3.6c-0.2,1.2-0.6,2.3-1.2,3.4c-0.6,1-1.4,2-2.5,2.7l-24.8,18.5c-1,0.8-2.1,1.3-3.3,1.6
		c-1.2,0.3-2.4,0.3-3.6,0.2c-1.2-0.2-2.3-0.6-3.4-1.2c-1-0.6-2-1.4-2.7-2.5c-0.8-1-1.3-2.1-1.6-3.3c-0.3-1.2-0.3-2.4-0.2-3.6
		c0.2-1.2,0.6-2.3,1.2-3.4c0.6-1,1.4-2,2.5-2.7L467.9,94.6z M445.3,116.1c-1.2,0.9-1.9,2.1-2.2,3.7c-0.2,1.5,0.1,2.9,1,4.1
		c0.9,1.2,2.1,1.9,3.7,2.2c1.5,0.2,2.9-0.1,4.1-1l24.8-18.5c1.2-0.9,1.9-2.1,2.2-3.7c0.2-1.5-0.1-2.9-1-4.1
		c-0.9-1.2-2.1-1.9-3.7-2.2c-1.5-0.2-2.9,0.1-4.1,1L445.3,116.1z"/>
	<path fill="#231F20" d="M494.2,119.4l1.6,4.2l-30.3,23.2l0,0.1l34.2-12.6l1.3,3.5l-45.1,16.6l-1.3-3.5l31.9-24.7l0-0.1l-36.1,13.3
		L449,136L494.2,119.4z"/>
	<path fill="#231F20" d="M461.4,173.4l-3.7,0.3l-1.3-15.3l47.9-4.2l0.3,3.7l-44.2,3.9L461.4,173.4z"/>
	<path fill="#231F20" d="M505.7,175.2l-0.4,3.7l-20.9,4.5l0,0.1l19.5,8.8l-0.4,3.7l-24.9-11.4l-22-2.4l0.4-3.7l22,2.4L505.7,175.2z"
		/>
	<path fill="#231F20" d="M475.5,225.8l6.8,3.3c1.4,0.7,2.8,0.7,4.2,0.2c1.5-0.5,2.5-1.4,3.2-2.8c0.7-1.4,0.7-2.8,0.2-4.2
		c-0.5-1.5-1.4-2.5-2.8-3.2l-27.8-13.6c-1.4-0.7-2.8-0.7-4.2-0.2c-1.5,0.5-2.5,1.4-3.2,2.8c-0.7,1.4-0.7,2.8-0.2,4.2
		c0.5,1.5,1.4,2.5,2.8,3.2l5.9,2.9l-1.6,3.3l-5.9-2.9c-1.2-0.6-2.1-1.3-2.9-2.2c-0.8-0.9-1.4-1.9-1.8-3.1c-0.4-1.1-0.6-2.3-0.5-3.5
		c0.1-1.2,0.4-2.4,0.9-3.5c0.6-1.2,1.3-2.1,2.2-2.9c0.9-0.8,1.9-1.4,3.1-1.8s2.3-0.6,3.5-0.5c1.2,0.1,2.4,0.4,3.5,0.9l27.8,13.6
		c1.2,0.6,2.1,1.3,2.9,2.2c0.8,0.9,1.4,1.9,1.8,3.1c0.4,1.1,0.6,2.3,0.5,3.5c-0.1,1.2-0.4,2.4-0.9,3.5c-0.6,1.2-1.3,2.1-2.2,2.9
		c-0.9,0.8-1.9,1.4-3.1,1.8c-1.1,0.4-2.3,0.6-3.5,0.5c-1.2-0.1-2.4-0.4-3.5-0.9l-6.4-3.1L475.5,225.8z"/>
	<path fill="#231F20" d="M473.3,243.4c1,0.9,1.7,1.8,2.2,2.9c0.5,1.1,0.8,2.2,0.9,3.5c0.1,1.2-0.1,2.4-0.5,3.5
		c-0.4,1.1-1,2.2-1.9,3.2c-0.9,1-1.8,1.7-2.9,2.2c-1.1,0.5-2.2,0.8-3.5,0.9c-1.2,0.1-2.4-0.1-3.5-0.5c-1.1-0.4-2.2-1-3.2-1.9
		l-23.2-20.6c-1-0.9-1.7-1.8-2.2-2.9c-0.5-1.1-0.8-2.2-0.9-3.5c-0.1-1.2,0.1-2.4,0.5-3.5c0.4-1.1,1-2.2,1.9-3.2
		c0.9-1,1.8-1.7,2.9-2.2c1.1-0.5,2.2-0.8,3.5-0.9c1.2-0.1,2.4,0.1,3.5,0.5c1.1,0.4,2.2,1,3.2,1.9L473.3,243.4z M447.6,225.6
		c-1.1-1-2.5-1.5-4-1.4c-1.5,0.1-2.8,0.7-3.8,1.8c-1,1.1-1.5,2.5-1.4,4c0.1,1.5,0.7,2.8,1.8,3.8l23.2,20.6c1.1,1,2.5,1.5,4,1.4
		c1.5-0.1,2.8-0.7,3.8-1.8c1-1.1,1.5-2.5,1.4-4c-0.1-1.5-0.7-2.8-1.8-3.8L447.6,225.6z"/>
	<path fill="#231F20" d="M454.3,274.1l-3.8,2.4l-28.9-24.9l-0.1,0.1l19.3,30.9l-3.1,2l-25.5-40.8l3.1-2l30.6,26.2l0.1-0.1
		l-20.4-32.6l3.1-2L454.3,274.1z"/>
	<path fill="#231F20" d="M415.9,274.5c0.6,0.4,1.1,0.8,1.5,1.4c0.4,0.4,0.8,1,1.2,1.6c0.4,0.6,0.7,1.4,1,2.2l0.9,3.1
		c0.4,1.2,0.5,2.5,0.3,3.7c-0.1,1.2-0.5,2.3-1.1,3.4c-0.6,1.1-1.4,2-2.3,2.7c-0.9,0.8-2,1.3-3.3,1.7c-1.2,0.4-2.5,0.5-3.7,0.3
		c-1.2-0.2-2.3-0.5-3.4-1.1c-1.1-0.6-2-1.4-2.7-2.3c-0.8-0.9-1.3-2-1.7-3.3l-1.6-5.8l3.4-1.4l1.8,6.2c0.4,1.5,1.3,2.6,2.7,3.3
		c1.4,0.7,2.8,0.9,4.2,0.5c1.5-0.4,2.6-1.3,3.3-2.7c0.8-1.4,0.9-2.8,0.5-4.2l-0.9-3.1c-0.1-0.5-0.3-0.9-0.6-1.3
		c-0.2-0.4-0.5-0.7-0.8-1c-0.3-0.3-0.6-0.6-0.9-0.8l-14.6-9.8c-0.5-0.4-1-0.9-1.5-1.4c-0.4-0.4-0.8-1-1.3-1.6
		c-0.4-0.7-0.8-1.4-1-2.2l-1.3-4.5c-0.4-1.2-0.5-2.5-0.3-3.7c0.2-1.2,0.5-2.3,1.1-3.4c0.6-1.1,1.4-2,2.3-2.7c0.9-0.8,2-1.3,3.3-1.7
		c1.2-0.4,2.5-0.5,3.7-0.3c1.2,0.1,2.3,0.5,3.4,1.1c1.1,0.6,2,1.4,2.7,2.3c0.8,0.9,1.3,2,1.7,3.3l1.9,6.8l-3.4,1.4l-2.1-7.2
		c-0.4-1.5-1.3-2.6-2.7-3.3c-1.4-0.8-2.8-0.9-4.2-0.5c-1.5,0.4-2.6,1.3-3.3,2.7c-0.8,1.3-0.9,2.8-0.5,4.2l1.3,4.5
		c0.1,0.5,0.3,1,0.6,1.3c0.3,0.4,0.5,0.7,0.8,1c0.3,0.3,0.6,0.6,0.9,0.9L415.9,274.5z"/>
	<path fill="#231F20" d="M375.5,294.9l6.6-0.3l-1.7-44.3l3.7-0.1l1.7,44.3l6.7-0.3l0.1,3.7l-17,0.7L375.5,294.9z"/>
	<path fill="#231F20" d="M354.9,247.2l3.6,0.7l-0.3,12.5l9.6,1.7l4-11.8l3.6,0.7l-15.8,46l-6.2-1.1L354.9,247.2z M366.7,265.6
		l-8.5-1.5l-0.8,28.2l0.1,0L366.7,265.6z"/>
	<path fill="#231F20" d="M332.6,289.8l-4-2l5.9-37.7l-0.1-0.1l-16.1,32.7l-3.3-1.6l21.2-43.2l3.3,1.6l-6.1,39.9l0.1,0.1l16.9-34.5
		l3.3,1.6L332.6,289.8z"/>
	<path fill="#231F20" d="M292.6,259.2l5,4.3l29.1-33.5l2.8,2.4l-29.1,33.5l5.1,4.4l-2.4,2.8L290.2,262L292.6,259.2z"/>
	<path fill="#231F20" d="M315.4,217.3l-39.9,26.8l-2.1-3.1l39.9-26.8L315.4,217.3z"/>
	<path fill="#231F20" d="M282.2,221.1c-0.3,0.6-0.7,1.1-1.2,1.7c-0.4,0.5-0.9,0.9-1.4,1.4c-0.6,0.5-1.3,0.9-2.1,1.2l-3,1.3
		c-1.2,0.5-2.4,0.8-3.6,0.8c-1.2,0-2.4-0.2-3.5-0.7c-1.1-0.5-2.1-1.1-3-1.9c-0.9-0.8-1.6-1.9-2.1-3c-0.5-1.2-0.8-2.4-0.8-3.6
		c0-1.2,0.2-2.4,0.7-3.5c0.5-1.1,1.1-2.1,1.9-3c0.8-0.9,1.9-1.6,3-2.1l5.5-2.3l1.8,3.2l-5.9,2.5c-1.4,0.6-2.4,1.6-3,3
		c-0.6,1.4-0.6,2.8,0,4.2c0.6,1.4,1.6,2.4,3,3c1.4,0.6,2.8,0.6,4.2,0l3-1.3c0.5-0.2,0.9-0.4,1.2-0.7c0.3-0.3,0.6-0.6,0.9-0.9
		c0.3-0.3,0.5-0.6,0.7-1l8-15.7c0.4-0.6,0.8-1.1,1.2-1.7c0.4-0.5,0.9-1,1.5-1.5c0.6-0.5,1.3-0.9,2.1-1.3l4.3-1.8
		c1.2-0.5,2.4-0.8,3.6-0.8c1.2,0,2.4,0.2,3.5,0.7c1.1,0.5,2.1,1.1,3,1.9c0.9,0.8,1.6,1.9,2.1,3c0.5,1.2,0.8,2.4,0.8,3.6
		c0,1.2-0.2,2.4-0.7,3.5c-0.5,1.1-1.1,2.1-1.9,3c-0.8,0.9-1.9,1.6-3,2.1l-6.5,2.8l-1.8-3.2l6.9-2.9c1.4-0.6,2.4-1.6,3-3
		c0.6-1.4,0.6-2.8,0-4.2c-0.6-1.4-1.6-2.4-3-3c-1.4-0.6-2.8-0.6-4.2,0l-4.3,1.8c-0.5,0.2-0.9,0.5-1.3,0.8c-0.4,0.3-0.7,0.6-0.9,0.9
		c-0.3,0.3-0.5,0.7-0.7,1L282.2,221.1z"/>
	<path fill="#231F20" d="M269.1,169.8l-7.5,0.2c-1.5,0-2.8,0.6-3.9,1.7c-1.1,1.1-1.6,2.4-1.5,4c0,1.5,0.6,2.8,1.7,3.9
		c1.1,1.1,2.4,1.6,4,1.5l31-0.9c1.5,0,2.8-0.6,3.9-1.7c1.1-1.1,1.6-2.4,1.5-4c0-1.5-0.6-2.8-1.7-3.9c-1.1-1.1-2.4-1.6-4-1.5
		l-6.6,0.2l-0.1-3.7l6.6-0.2c1.3,0,2.5,0.2,3.6,0.6c1.1,0.4,2.1,1.1,3,1.9s1.6,1.8,2.1,2.9c0.5,1.1,0.8,2.3,0.8,3.6
		c0,1.3-0.2,2.5-0.6,3.6c-0.4,1.1-1.1,2.1-1.9,3c-0.8,0.9-1.8,1.6-2.9,2.1c-1.1,0.5-2.3,0.8-3.6,0.8l-31,0.9c-1.3,0-2.5-0.2-3.6-0.6
		c-1.1-0.4-2.1-1.1-3-1.9c-0.9-0.8-1.6-1.8-2.1-2.9c-0.5-1.1-0.8-2.3-0.8-3.6c0-1.3,0.2-2.5,0.6-3.6c0.4-1.1,1.1-2.1,1.9-3
		c0.8-0.9,1.8-1.6,2.9-2.1c1.1-0.5,2.3-0.8,3.6-0.8l7.1-0.2L269.1,169.8z"/>
	<path fill="#231F20" d="M259,132.8l46.7,11.6l-0.9,3.6l-21.6-5.4l-2.7,10.8l21.6,5.4l-0.9,3.6l-46.7-11.6l0.9-3.6l21.5,5.3
		l2.7-10.8l-21.5-5.3L259,132.8z"/>
	<path fill="#231F20" d="M316.3,124.8l-1.8,3.2l-11.7-4.4l-4.8,8.5l9.8,7.7l-1.8,3.2l-38.3-30l3.1-5.5L316.3,124.8z M295.1,129.8
		l4.2-7.5L273,112.3l-0.1,0.1L295.1,129.8z"/>
	<path fill="#231F20" d="M283.3,89.7l3.2-3.2l33.7,17.9l0.1-0.1l-25.7-25.9l2.6-2.6l33.9,34.1l-2.6,2.6l-35.7-18.8l-0.1,0.1
		l27.1,27.3l-2.6,2.6L283.3,89.7z"/>
	<path fill="#231F20" d="M330.4,81.9l8.1-4.4l12.1,22.3l-3.1,0.9l-0.8-1.4c-0.4,1-0.9,1.9-1.6,2.8c-0.7,0.9-1.6,1.6-2.7,2.1
		c-1.1,0.6-2.3,1-3.5,1.1c-1.2,0.1-2.4,0-3.6-0.3c-1.2-0.3-2.2-0.9-3.2-1.6c-0.9-0.8-1.7-1.7-2.3-2.8l-14.8-27.2
		c-0.6-1.1-1-2.3-1.1-3.5c-0.1-1.2,0-2.4,0.3-3.5c0.3-1.2,0.9-2.2,1.6-3.2c0.8-0.9,1.7-1.7,2.8-2.3c1.1-0.6,2.3-1,3.5-1.1
		c1.2-0.1,2.4,0,3.5,0.3c1.2,0.3,2.2,0.9,3.2,1.6c0.9,0.8,1.7,1.7,2.3,2.8l2.7,5l-3.1,2.1l-2.9-5.4c-0.7-1.3-1.8-2.2-3.3-2.7
		c-1.5-0.4-2.9-0.3-4.2,0.4c-1.3,0.7-2.2,1.8-2.7,3.3c-0.4,1.5-0.3,2.9,0.4,4.2l14.8,27.2c0.7,1.3,1.8,2.2,3.3,2.7
		c1.5,0.4,2.9,0.3,4.2-0.4c1.3-0.7,2.2-1.8,2.7-3.3c0.4-1.5,0.3-2.9-0.4-4.2l-5.9-10.9l-4.9,2.7L330.4,81.9z"/>
	<path fill="#231F20" d="M346.6,54.2l4.5,18l8.4-2.1l0.9,3.6l-8.4,2.1l4.4,17.9l11.9-2.9l0.9,3.6l-15.5,3.8l-11.6-46.7l14.9-3.7
		l0.9,3.6L346.6,54.2z"/>
</g>
<path fill="#231F20" d="M171.6,192.4c1.2-2.9,1.9-6.1,1.9-9.4c0-3.4-0.6-6.5-1.9-9.4c-1.2-2.9-3-5.5-5.2-7.8c-2.2-2.2-4.9-4-7.8-5.2
	c-2.9-1.2-6.1-1.9-9.4-1.9h-8.8c-2.2,0-4.3,0.3-6.2,0.8c-1.9,0.6-3.6,1.2-5,2l-0.1,0c-1.6,0.7-3.1,1.7-4.5,2.8l-37.2,31.3l0,0
	c-1,0.7-2,1.3-3.1,1.9c-1,0.6-2.2,1.1-3.5,1.5c-1.4,0.4-2.8,0.6-4.4,0.6H63.7c-4.5,0-8.4-1.6-11.7-4.9c-3.2-3.2-4.9-7.2-4.9-11.7
	c0-4.5,1.6-8.4,4.9-11.7c3.2-3.2,7.2-4.9,11.7-4.9h40.6l9.7-7.8H63.7c-3.4,0-6.5,0.6-9.4,1.9c-2.9,1.2-5.5,3-7.8,5.2
	c-2.2,2.2-4,4.9-5.2,7.8c-1.2,2.9-1.9,6.1-1.9,9.4c0,3.4,0.6,6.5,1.9,9.4c1.2,2.9,3,5.5,5.2,7.8c2.2,2.2,4.9,4,7.8,5.2
	c2.9,1.2,6.1,1.9,9.4,1.9h12.8c2.2,0,4.3-0.3,6.3-0.9c2-0.6,3.7-1.3,5.1-2.1c1.7-0.9,3.3-1.9,4.8-2.9l37.1-31.2
	c0.9-0.7,1.8-1.4,3-1.9c1-0.6,2.1-1,3.4-1.4c1.3-0.4,2.7-0.5,4.3-0.5h8.8c4.5,0,8.4,1.6,11.7,4.9c3.2,3.2,4.9,7.2,4.9,11.7
	c0,4.5-1.6,8.4-4.9,11.7c-3.2,3.2-7.2,4.9-11.7,4.9h-37.7l-9.7,7.8h47.3c3.4,0,6.5-0.6,9.4-1.9c2.9-1.2,5.5-3,7.8-5.2
	C168.6,198,170.4,195.3,171.6,192.4z"/>
<g>
	<path fill="#231F20" stroke="#231F20" stroke-width="2.4017" d="M426.5,131.4l-11.7-1.2L416,142l1.8-0.2l-0.9-8.6
		c0.2,0.2,0.5,0.5,0.7,0.7c21.2,21.2,21.2,55.7,0,76.8c-18.4,18.4-46.7,20.8-67.8,7.3l0.2,2.2c21.6,13.1,50.2,10.3,68.8-8.3
		c21.9-21.9,21.9-57.5,0-79.4c-0.1-0.1-0.1-0.1-0.2-0.2l7.6,0.8L426.5,131.4z"/>
	<path fill="#231F20" stroke="#231F20" stroke-width="2.4017" d="M342.2,204.1l0.9,8.8c-0.8-0.7-1.5-1.4-2.3-2.1
		c-21.2-21.2-21.2-55.7,0-76.8c18.8-18.8,48-20.9,69.2-6.4l-0.2-2.3c-21.7-14.1-51.2-11.6-70.2,7.4c-21.9,21.9-21.9,57.5,0,79.4
		c0.5,0.5,1,1,1.5,1.4l-7.4-0.7l-0.2,1.8l11.7,1.2l-1.2-11.7L342.2,204.1z"/>
</g>
<g>
	<path fill="#231F20" d="M612.2,174.7h-17.9l-4,38.1h-6.5l14.6-130.4h10.1l15,130.4h-7.2L612.2,174.7z M611.6,169.3l-4.5-42.8
		c-1.4-13-3.3-26.2-3.6-39.4h-0.4c-1.4,13-2,26.4-3.4,39.4l-4.7,42.8H611.6z"/>
	<path fill="#231F20" d="M625.5,95.8c0-9,5.8-14.1,15.3-14.1c9.6,0,14.6,5.1,14.6,14.1v21.5h-7.2V96.9c0-5.2-1.6-9.8-7.4-9.8
		c-5.1,0-8.1,3.1-8.1,8.1V200c0,5.1,3.1,8.1,8.1,8.1c5.8,0,7.4-3.1,7.4-9.8v-22.2h7.2v23.3c0,9-5.1,14.1-14.6,14.1
		c-9.6,0-15.3-5.1-15.3-14.1V95.8z"/>
	<path fill="#231F20" d="M670.5,87.9h-12.8v-5.4h32.9v5.4h-12.8v125h-7.2V87.9z"/>
	<path fill="#231F20" d="M595.2,335.7c0,4.3,1.6,7.9,8.3,7.9c6.1,0,8.8-2.3,8.8-8.3v-22.4c0-6.9-1.3-10.8-3.8-16.8l-15.2-28.7
		c-3.1-5.8-4.7-12.6-4.7-17.7v-19c0-8.5,5.8-13.5,15-13.5c9.8,0,14.8,3.6,14.8,12.1v23.3H612v-22.6c0-5.2-2.7-7.4-7.8-7.4
		c-5.1,0-7.8,3.4-7.8,7.8v20.2c0,4.3,0.9,8.1,2.9,12.5l14.8,28.4c3.1,6.1,5.4,12.5,5.4,19.7v24.6c0,8.3-4.2,13.4-15.5,13.4
		c-11.2,0-15.3-5.1-15.3-13.9V312h6.5V335.7z"/>
	<path fill="#231F20" d="M629.5,218h11.9l7.9,78.6c1.4,13.7,2.7,30.5,3.2,46.4h0.4c0.9-15.7,2-33,3.4-46.4l8.3-78.6h11.9v130.4h-7.2
		v-80.9c0-8.5,0.4-27.6,0.7-44.1h-0.4c-1.6,17.2-3.8,37.9-5.1,51.6l-7.2,73.3h-9l-7.4-72.6c-1.1-11.2-4-37.4-4.7-52.4H636
		c-0.2,17.2,0.7,35.9,0.7,44.1v80.9h-7.2V218z"/>
	<path fill="#231F20" d="M710,310.2h-17.9l-4,38.1h-6.5L696.3,218h10.1l15,130.4h-7.2L710,310.2z M709.5,304.8L705,262
		c-1.4-13-3.3-26.2-3.6-39.4H701c-1.4,13-2,26.4-3.4,39.4l-4.7,42.8H709.5z"/>
	<path fill="#231F20" d="M725.9,218h7.2v125h19v5.4h-26.2V218z"/>
	<path fill="#231F20" d="M759.3,218h7.2v125h19v5.4h-26.2V218z"/>
</g>
<g>
	<rect x="587.9" y="71.1" fill="#231F20" width="102.1" height="1.3"/>
</g>
<g>
	<path fill="#231F20" stroke="#231F20" stroke-width="1.2202" stroke-miterlimit="10" d="M589.2,17.8h-4.4v-1.9h11.3v1.9h-4.4v43.1
		h-2.5V17.8z"/>
	<path fill="#231F20" stroke="#231F20" stroke-width="1.2202" stroke-miterlimit="10" d="M597.7,15.9h2.5v20.9h5.9V15.9h2.5v45h-2.5
		V38.7h-5.9v22.2h-2.5V15.9z"/>
	<path fill="#231F20" stroke="#231F20" stroke-width="1.2202" stroke-miterlimit="10" d="M612.9,15.9h2.5v45h-2.5V15.9z"/>
	<path fill="#231F20" stroke="#231F20" stroke-width="1.2202" stroke-miterlimit="10" d="M619.7,15.9h3.7l4.2,29
		c0.5,3.6,1.2,8.7,2.1,14.1h0.1c-0.3-6.2-0.6-12-0.6-14.5V15.9h2.5v45H628l-4.4-28.7c-0.4-2.4-1.1-8.5-1.7-14.5h-0.1
		c0.1,5.9,0.4,11.6,0.4,13.1v30h-2.5V15.9z"/>
	<path fill="#231F20" stroke="#231F20" stroke-width="1.2202" stroke-miterlimit="10" d="M635.8,15.9h2.5v45h-2.5V15.9z M638.3,37.1
		l6.2-21.2h2.2l-6.2,21.2l6.8,23.8h-2.5L638.3,37.1z"/>
	<path fill="#231F20" stroke="#231F20" stroke-width="1.2202" stroke-miterlimit="10" d="M655.5,15.9h5.4c3.1,0,5.2,1.4,5.2,4.8
		v13.1c0,2.6-1.9,3.7-3.9,3.8v0.1c2.4,0.1,4.2,0.9,4.2,4.2v14.2c0,3.4-2.1,4.8-4.9,4.8h-6V15.9z M660.7,36.9c2.3,0,2.9-1.6,2.9-3.2
		V20.6c0-2-0.6-2.8-3.1-2.8H658v19.1H660.7z M658,38.7V59h2.6c2.5,0,3.4-0.9,3.4-2.7V42c0-2.2-1.1-3.2-3.2-3.2H658z"/>
	<path fill="#231F20" stroke="#231F20" stroke-width="1.2202" stroke-miterlimit="10" d="M670.7,15.9h2.5v45h-2.5V15.9z"/>
	<path fill="#231F20" stroke="#231F20" stroke-width="1.2202" stroke-miterlimit="10" d="M683.4,39.2h5v20.6l-0.3,0.2
		c-1,0.6-2.8,1.2-5.1,1.2c-3.5,0-5.5-1.7-5.5-4.9V20.5c0-3.1,2-4.9,5.5-4.9c3.5,0,5.4,1.7,5.4,4.9v7.3h-2.5v-7c0-2-1.2-3.3-2.9-3.3
		c-1.7,0-3,1.3-3,3.3v35.6c0,1.7,1.3,2.8,3,2.8c1.2,0,2.3-0.4,2.9-0.7V41.1h-2.5V39.2z"/>
</g>
</svg>
