<?xml version="1.0" encoding="utf-8"?>
<!-- Generator: Adobe Illustrator 18.1.0, SVG Export Plug-In . SVG Version: 6.00 Build 0)  -->
<svg version="1.1" id="Layer_1" xmlns="http://www.w3.org/2000/svg" xmlns:xlink="http://www.w3.org/1999/xlink" x="0px" y="0px"
	 viewBox="0 0 800 80" enable-background="new 0 0 800 80" xml:space="preserve">
<g>
	<g>
		<path fill="#F37621" d="M302.3,45c4.7-1.2,8.9-5,8.9-11.7c0-7.3-5.3-12.5-13-12.5h-16.2v39.8h7.1V45.7h5.6l9.4,14.8h8.5L302.3,45z
			 M289.1,27.4h8.5c3.7,0,6.2,2.4,6.2,5.9c0,3.5-2.5,5.9-6.2,5.9h-8.5V27.4z"/>
		<path fill="#F37621" d="M337.6,20.7V48c0,4.1-2.4,6.6-6.2,6.6c-2.3,0-4.3-1-6-3.2l-1-1.3l-4,5.7l0.6,0.7c2.7,3.2,6.2,4.7,10.7,4.7
			c8.1,0,13.1-5,13.1-13.1V20.7H337.6z"/>
		<polygon fill="#F37621" points="393.7,20.7 392.5,20.7 390.6,20.7 377.7,52.1 364.8,20.7 362.8,20.7 361.6,20.7 359.8,20.7 
			359.8,60.5 364.1,60.5 364.1,30.4 376.6,60.5 378.8,60.5 391.3,30.4 391.3,60.5 395.5,60.5 395.5,20.7 		"/>
		<polygon fill="#F37621" points="436.6,24.9 436.6,20.7 411.3,20.7 411.3,60.5 436.6,60.5 436.6,56.3 415.5,56.3 415.5,42.2 
			436.2,42.2 436.2,38 415.5,38 415.5,24.9 		"/>
		<polygon fill="#F37621" points="448,20.7 448,24.9 460.6,24.9 460.6,60.5 464.9,60.5 464.9,24.9 477.5,24.9 477.5,20.7 		"/>
		<path fill="#F37621" d="M506.8,44.2c6-0.9,10-5.5,10-11.7c0-6.9-5-11.8-12.3-11.8h-14.1v39.8h4.3V44.4h7.1l11.3,16.1h5.3
			L506.8,44.2z M494.7,24.9h9.8c4.7,0,7.8,3.1,7.8,7.6c0,4.6-3.1,7.7-7.8,7.7h-9.8V24.9z"/>
		<rect x="531.2" y="20.7" fill="#F37621" width="4.3" height="39.8"/>
		<path fill="#F37621" d="M581.2,51.1l-0.8,1c-2.5,3.1-6.4,5-10.6,5c-8.9,0-15.4-6.9-15.4-16.4c0-9.5,6.5-16.4,15.4-16.4
			c4.2,0,8.1,1.9,10.6,5l0.8,1l3.3-2.9l-0.8-0.9c-3.6-4.1-8.4-6.3-13.9-6.3c-11.3,0-19.9,8.8-19.9,20.5s8.5,20.5,19.9,20.5
			c5.6,0,10.2-2.1,14-6.3l0.9-1L581.2,51.1z"/>
		<path fill="#F37621" d="M609.8,37.6c-5.8-1.7-9.3-3-9.3-6.7c0-3.8,3.6-6.6,8.5-6.6c4.2,0,7.5,1.5,9.7,4.4l0.8,1.1l3.2-3l-0.7-0.9
			c-3-3.7-7.5-5.7-13-5.7c-6.4,0-12.9,3.7-12.9,10.7c0,7.4,6.6,9.2,12.4,10.9c6.4,1.8,10.3,3.3,10.3,8.1c0,1.7-0.7,7.2-9.5,7.2
			c-5.6,0-9.1-3.2-10.6-5.1l-0.8-1l-3.3,2.9l0.7,0.9c3.2,4.1,8.3,6.4,14,6.4c10.3,0,14-6.1,14-11.4
			C623.2,41.5,615.8,39.3,609.8,37.6z"/>
	</g>
	<g>
		<path fill="#F37621" d="M249.4,24.6l-0.1-0.2l-4.7-6.9c-0.8-1.1-2.3-2.6-3.5-3.2L219.7,2.1c-1.2-0.7-3.2-1.3-4.5-1.4L207,0.4h-0.2
			l-0.1,0.1L181,15.2l-0.1,0.1l-0.1,0.1l-3.4,7c-0.6,1.2-1,3.3-1,4.6l0,25c0,1.3,0.5,3.4,1.1,4.6l3.4,7.1l25.7,14.9l0.1,0.1l0.2,0
			l0.7,0l7.9-0.5c1.3-0.1,3.4-0.7,4.5-1.4l21.2-12.2c1.2-0.7,2.7-2.1,3.5-3.2l4.3-6.9l0.1-0.1l0.2-0.2l0-0.2L249.4,24.6z
			 M226.8,14.4L213.1,4l3.6,0c1,0.1,2.4,0.5,3.4,1.1l18,10.5c0.9,0.5,1.7,1,2.3,1.8l2.2,3.3L226.8,14.4z M246,51.8l-19.1,8
			l-11.7-20.5l11.6-20.4l19.2,7.8L246,51.8z M211.2,36.7l-23.6,0l-3-20.2l22-12.6l16.2,12.2L211.2,36.7z M187.6,42.2l23.6-0.1
			l11.7,20.5l-16.2,12.6l-21.8-12.4L187.6,42.2z M242.6,57.7l-1.5,3.4c-0.6,0.9-1.7,2-2.6,2.5l-17.8,10c-1,0.6-2.5,1.2-3.4,1.3
			l-3.8-0.2l13.3-10.3L242.6,57.7z M178.7,29.2c0-1,0.3-2.6,0.8-3.5l1.8-3.1l2.4,16.9l-2.2,16.8l-1.7-2.9c-0.4-0.9-0.8-2.5-0.8-3.5
			L178.7,29.2z"/>
		<path fill="#F37621" d="M227.3,25.3l10.5,6.1l1.9,16.8c0,0.3,0.2,0.5,0.5,0.5h0c0.3,0,0.5-0.2,0.5-0.5l-0.3-18.6l0-0.1l-12.6-5
			c-0.2-0.1-0.5,0-0.6,0.3c0,0.1,0,0.2,0,0.4C227.1,25.2,227.2,25.3,227.3,25.3z"/>
		<path fill="#F37621" d="M191,18l2.3,15.1c0,0.2,0.2,0.4,0.5,0.4l0.1,0c0.3,0,0.4-0.3,0.4-0.5l-0.4-13.8l14.6-10
			c0.2-0.1,0.3-0.4,0.2-0.6c-0.1-0.2-0.4-0.3-0.6-0.2L191.1,18L191,18z"/>
		<path fill="#F37621" d="M217.2,61.1c0-0.1,0-0.3-0.1-0.3c-0.2-0.2-0.5-0.2-0.6-0.1L206,67.2l-16.1-7.8c-0.2-0.1-0.5,0-0.6,0.2
			c-0.1,0.2-0.1,0.5,0.2,0.6l16.4,9.6l0.3,0.2l10.8-8.5C217.1,61.3,217.1,61.2,217.2,61.1z"/>
	</g>
</g>
</svg>
