<?xml version="1.0" encoding="utf-8"?>
<!-- Generator: Adobe Illustrator 18.1.0, SVG Export Plug-In . SVG Version: 6.00 Build 0)  -->
<svg version="1.1" id="Layer_1" xmlns="http://www.w3.org/2000/svg" xmlns:xlink="http://www.w3.org/1999/xlink" x="0px" y="0px"
	 viewBox="0 0 800 100" enable-background="new 0 0 800 100" xml:space="preserve">
<path fill="#4E4E4E" d="M243.7,16.5c18.4,0,33.5,15.1,33.5,33.5s-15.1,33.5-33.5,33.5S210.2,68.4,210.2,50S225.3,16.5,243.7,16.5z"
	/>
<path fill="#CDD729" d="M400.5,16.5c18.4,0,33.5,15.1,33.5,33.5s-15.1,33.5-33.5,33.5S367,68.4,367,50S382.1,16.5,400.5,16.5z"/>
<path fill="#E9D579" d="M557.3,16.5c18.4,0,33.5,15.1,33.5,33.5s-15.1,33.5-33.5,33.5c-18.4,0-33.5-15.1-33.5-33.5
	S538.8,16.5,557.3,16.5z"/>
</svg>
