<?xml version="1.0" encoding="utf-8"?>
<!-- Generator: Adobe Illustrator 18.1.0, SVG Export Plug-In . SVG Version: 6.00 Build 0)  -->
<svg version="1.1" id="Layer_1" xmlns="http://www.w3.org/2000/svg" xmlns:xlink="http://www.w3.org/1999/xlink" x="0px" y="0px"
	 viewBox="0 0 800 210" enable-background="new 0 0 800 210" xml:space="preserve">
<g>
	<g>
		<polygon fill="#4E4E4E" points="186.1,23.4 121.8,62.4 130.4,67.5 186.2,33.7 		"/>
		<polygon fill="#4E4E4E" points="186.5,185 122.1,147.2 131,142.6 186.5,174.8 		"/>
		<polygon fill="#4E4E4E" points="193.6,23.3 259,62.6 249.6,67.7 193.6,33.5 		"/>
		<polygon fill="#4E4E4E" points="259.6,70.2 259.6,139.4 250.8,135.2 250.9,74.6 		"/>
		<polygon fill="#4E4E4E" points="193.9,184.8 257.9,147.3 249.4,142.9 193.9,175.1 		"/>
		<polygon fill="#4E4E4E" points="120.2,139.4 120.3,70.2 129.1,74.5 128.9,135 		"/>
	</g>
	<path fill="#CDD729" d="M189.6,116.1c0,0,0-36.8,41.1-47.1c0,0-35.4-22.5-41.3-22.5c-5.9,0-39.8,22.1-39.8,22.1
		S187.9,74.9,189.6,116.1z"/>
	<path fill="#E9D579" d="M237.4,138.4c-3.1,2-44.2,24.6-44.2,24.6s0.8-42.1,2.6-51.3c7.4-38.9,45.8-37,45.8-37s-0.2,49.6-0.1,54.7
		C241.6,135.6,241.7,135.8,237.4,138.4z"/>
	<path fill="#E9D579" d="M142.1,138.4c3.1,2,44.2,24.6,44.2,24.6s-0.8-42.1-2.6-51.3c-7.4-38.9-45.4-37-45.4-37s-0.2,49.6-0.2,54.7
		C138,135.6,137.8,135.8,142.1,138.4z"/>
</g>
<g>
	<path fill="#4E4E4E" d="M290.5,132.2v-55h21.2c17.1,0,25.6,9.2,25.6,27.5c0,18.3-8.5,27.5-25.6,27.5H290.5z M311.7,121.2
		c9.7,0,14.6-5.5,14.6-16.5c0-11-4.9-16.5-14.6-16.5h-10.2v33H311.7z"/>
	<path fill="#4E4E4E" d="M349,132.2V77.3l40.4,0v10.3h-29.4v11.7h22v10.2h-22v12.5h29.3v10.3H349z"/>
	<path fill="#4E4E4E" d="M408.7,77.2l15.6,40.2l15.9-40.2h11.7L430,132.2h-11l-22-54.9H408.7z"/>
	<path fill="#CDD729" d="M461,132.2V77.2h3.7l34.4,34.4V77.2h11v54.9h-4L472,98.1v34.1H461z"/>
	<path fill="#CDD729" d="M531.7,77.2v31.9c0,4.2,1.2,7.2,3.7,9.2s5.5,2.9,9.2,2.9s6.7-1,9.2-2.9s3.7-5,3.7-9.2V77.2h11V112
		c0,5.6-2.3,10.4-6.8,14.3c-4.5,3.9-10.2,5.9-17,5.9s-12.5-2-17-5.9c-4.5-3.9-6.8-8.7-6.8-14.3V77.2H531.7z"/>
	<path fill="#CDD729" d="M625,77.2v10.3h-18.3v44.7h-11V87.5h-18.3V77.2H625z"/>
	<path fill="#CDD729" d="M662.9,79.1c2.8,1.2,5.4,3.1,7.9,5.5l-7.3,7.3c-2.4-2.9-5.9-4.4-10.3-4.4s-7.2,1-8.4,3.1
		c-1.2,2.1-1.2,3.8,0,5.3s4,2.6,8.4,3.3c4.6,0.5,8.8,2,12.6,4.6s5.7,6.7,5.7,12.3c0,4.4-2,8.2-6.1,11.4c-4,3.2-8.7,4.8-14.1,4.8
		c-5.1,0-9.4-0.7-12.8-2.2s-6.3-3.4-8.8-5.9l7.3-7.3c2.4,2.9,6.6,4.6,12.5,5.1c4.9,0,7.9-1,9.1-3.1c1.2-2.1,1.2-4.1,0-6.2
		c-1.2-2.1-4.3-3.4-9.1-3.8c-4.4-0.5-8.4-1.8-12.1-4s-5.5-6-5.5-11.4c0-4.9,2.1-8.8,6.2-11.7c4.2-2.9,8.4-4.4,12.8-4.4
		C656.1,77.2,660.1,77.9,662.9,79.1z"/>
</g>
</svg>
