<?xml version="1.0" encoding="utf-8"?>
<!-- Generator: Adobe Illustrator 18.1.0, SVG Export Plug-In . SVG Version: 6.00 Build 0)  -->
<svg version="1.1" id="Layer_1" xmlns="http://www.w3.org/2000/svg" xmlns:xlink="http://www.w3.org/1999/xlink" x="0px" y="0px"
	 viewBox="0 0 50 50" enable-background="new 0 0 50 50" xml:space="preserve">
<g>
	<g>
		<polygon fill="#C1C1C1" points="25.5,34.6 14.6,22.6 16.1,21.2 25.5,31.6 34.9,21.2 36.3,22.5 		"/>
	</g>
	<g>
		<path fill="#C1C1C1" d="M25.3,49.6C12,49.6,1.1,38.7,1.1,25.3S12,1.1,25.3,1.1s24.3,10.9,24.3,24.3S38.7,49.6,25.3,49.6z
			 M25.3,3.1C13.1,3.1,3.1,13,3.1,25.3c0,12.3,10,22.3,22.3,22.3c12.3,0,22.3-10,22.3-22.3C47.6,13,37.6,3.1,25.3,3.1z"/>
	</g>
</g>
</svg>
