<?xml version="1.0" encoding="utf-8"?>
<!-- Generator: Adobe Illustrator 18.1.0, SVG Export Plug-In . SVG Version: 6.00 Build 0)  -->
<svg version="1.1" id="Layer_1" xmlns="http://www.w3.org/2000/svg" xmlns:xlink="http://www.w3.org/1999/xlink" x="0px" y="0px"
	 viewBox="0 0 800 140" enable-background="new 0 0 800 140" xml:space="preserve">
<g>
	<g>
		<path fill="#F37621" d="M96.9,114.1c-24,0-43.5-19.5-43.5-43.5c0-24,19.5-43.5,43.5-43.5s43.5,19.5,43.5,43.5
			C140.4,94.5,120.9,114.1,96.9,114.1z M96.9,29.1c-22.9,0-41.5,18.6-41.5,41.5c0,22.9,18.6,41.5,41.5,41.5s41.5-18.6,41.5-41.5
			C138.4,47.7,119.8,29.1,96.9,29.1z"/>
	</g>
	<g>
		<path fill="#F37621" d="M88,112.1c-0.1,0-0.2,0-0.3,0l0.3-1.5c0.4-0.2,0.9-2.5,0.9-4.8c0-1.3,0-2.7,0-4.2c0-2.1,0.1-4.2,0.1-6
			c0-1.1-0.1-2.3-0.4-3.6c-0.1-0.6-0.4-1.2-0.8-1.6c-1.7-1.7-2.9-3.7-4.1-5.6c-0.4-0.6-0.8-1.3-1.2-2c-0.9-1.5-1.9-3.1-2.8-4.6
			c-0.2-0.3-0.5-0.6-0.8-1c-0.2-0.2-0.3-0.4-0.5-0.5c-1.6-1.8-3.1-3.7-4.6-5.5c-0.2-0.2-0.4-0.5-0.6-0.8c-0.1-0.1-0.1-0.2-0.2-0.3
			l-0.1-0.2l0-0.2c0-0.4,0.1-0.7,0.1-1l0-0.2l0.1-0.2c1.3-1.6,3-1.9,4.9-1.1c1.5,0.6,2.6,1.5,3.7,2.8c0.5,0.6,1,1.1,1.4,1.7
			c0.7,0.8,1.4,1.7,2.1,2.5l0.3,0.3c0.3,0.3,0.5,0.6,0.6,0.6c0.1,0,0.5-0.2,0.9-0.5l0.5-0.2c2.5-1.5,2.6-4.3,2.6-5.3l-0.1,0l0-0.6
			c0-0.4,0.1-0.7,0.1-1.1c0.1-0.4,0.1-0.9,0.1-1.2c-0.3-2.7,0-5.4,0.2-8c0.1-1.7,0.3-3.5,0.3-5.3c0-0.8,0.3-1.7,0.5-2.5
			c0.3-1.1,1.4-1.9,2.6-1.9c1.2,0,1.9,0.6,2.2,1.9c0.1,0.6,0.3,1.2,0.3,1.9c0.1,1.6,0.1,3.2,0.2,4.9c0.1,1.6,0.1,3.3,0.2,4.9
			c0,0.4,0,0.8,0,1.3c0,0.8,0,1.6,0.1,2.4l0,0.2c0,0.1,0,0.4,0,0.5c0,0,0,0,0.1,0c0.1,0,0.2,0,0.2,0c0-0.1,0-0.2,0.1-0.3
			c0.2-0.9,0.4-1.8,0.6-2.7c0.3-1.5,0.7-3,1.1-4.5c0.5-1.8,1-3.6,1.6-5.3c0.2-0.7,0.4-1.3,0.6-2l0.1-0.2c0.4-1.3,0.9-2.9,2.8-3.5
			l0.2,0l1.8,0.3l0.1,0.1c1.4,1.1,1.1,2.7,0.9,3.4c-0.1,0.5-0.2,0.9-0.3,1.3c-0.1,0.4-0.2,0.8-0.3,1.3c-0.2,0.7-0.3,1.4-0.4,2
			c-0.1,0.7-0.3,1.4-0.4,2.1c-0.5,2.2-1,4.5-1.6,6.8c0.9-1.6,1.7-3.2,2.5-4.8c0.5-1.1,0.9-2.2,1.4-3.4c0.2-0.6,0.4-1.2,0.7-1.8
			c0.4-1.1,1.3-1.8,2.2-2c0.9-0.2,1.8,0.1,2.5,0.9c1.2,1.1,0.7,2.6,0.5,3.3c-0.1,0.4-0.3,0.7-0.4,1.1l-0.2,0.5
			c-0.4,1.1-0.9,2.2-1.3,3.2c-0.8,2.1-1.7,4.3-2.6,6.4c-0.3,0.7-0.6,1.4-0.9,2c-0.2,0.5-0.5,0.9-0.7,1.4c0,0,0,0.1,0,0.3
			c0.8-0.7,1.5-1.5,2.3-2.2c0.8-0.8,1.6-1.6,2.5-2.4c0.4-0.4,0.8-0.8,1.1-1.3c0.2-0.2,0.4-0.5,0.6-0.7c0.2-0.3,0.4-0.5,0.6-0.7
			c0.5-0.6,1-1.2,1.7-1.7c0.9-0.8,1.9-0.8,2.9-0.1c0.9,0.7,1.1,1.9,0.6,2.9c-0.7,1.3-1.3,2.3-1.9,3.1c-1.6,2-3.4,4.2-5.8,6.9
			c-0.8,0.9-1.3,2-1.8,3.1c-0.2,0.5-0.4,1-0.7,1.4c-0.7,1.5-1.5,3-2.3,4.5c-0.8,1.5-1.5,2.9-2.3,4.4l-0.1,0.2
			c-0.1,0.3-0.2,0.5-0.2,0.7c0,0.7-0.1,1.4-0.1,2c-0.3,4.2-0.5,8.6,0.1,12.8l0,0.1l0,0.1c0,2,0.1,4.4,0.4,4.9
			c-0.1-0.1-0.2-0.2-0.5-0.1l0.3,1.5c-0.3,0.1-0.6,0-0.8-0.2c-0.7-0.5-1-2.5-0.9-5.9c-0.7-4.4-0.4-8.8-0.2-13.1c0-0.7,0.1-1.3,0.1-2
			c0-0.5,0.2-0.9,0.4-1.3l0.1-0.2c0.8-1.5,1.5-3,2.3-4.5c0.8-1.5,1.5-3,2.3-4.5c0.2-0.4,0.4-0.9,0.6-1.4c0.5-1.2,1.1-2.4,2-3.5
			c2.4-2.7,4.2-4.8,5.7-6.9c0.6-0.8,1.1-1.7,1.8-2.9c0.3-0.6,0-1-0.2-1c-0.4-0.3-0.6-0.3-1,0.1c-0.5,0.5-1,1-1.5,1.6
			c-0.2,0.2-0.4,0.5-0.7,0.7c-0.2,0.2-0.3,0.4-0.5,0.6c-0.4,0.5-0.8,1-1.3,1.5c-0.8,0.8-1.6,1.6-2.5,2.4c-0.8,0.7-1.6,1.5-2.4,2.3
			c-0.5,0.5-1,0.5-1.3,0.5c-0.2,0-0.7-0.2-1-0.8c-0.2-0.4-0.4-1.2-0.1-1.7c0.2-0.5,0.5-1,0.7-1.5c0.3-0.7,0.6-1.3,0.9-1.9
			c0.9-2.1,1.7-4.3,2.6-6.4c0.4-1.1,0.8-2.1,1.3-3.2l0.2-0.5c0.1-0.3,0.3-0.7,0.4-1c0.3-0.9,0.2-1.4-0.2-1.7
			c-0.4-0.4-0.7-0.5-1.1-0.4c-0.5,0.1-0.9,0.5-1.1,1.1c-0.2,0.6-0.4,1.1-0.6,1.7c-0.4,1.2-0.9,2.4-1.4,3.5c-0.9,1.9-1.9,3.7-2.9,5.5
			c-0.5,0.8-0.9,1.7-1.3,2.5c-0.1,0.2-0.2,0.3-0.4,0.4c-0.1,0-0.1,0.1-0.2,0.2l-1.5,1.3l0.3-2c0-0.3,0.1-0.6,0.1-0.9
			c0.1-0.5,0.1-1,0.2-1.5l0-0.2c0.6-2.7,1.3-5.5,1.9-8.2c0.2-0.7,0.3-1.4,0.4-2c0.1-0.7,0.3-1.4,0.4-2.1c0.1-0.4,0.2-0.9,0.3-1.3
			c0.1-0.4,0.2-0.8,0.3-1.3c0.2-0.9,0.1-1.5-0.3-1.8l-1.1-0.2c-1,0.3-1.3,1.1-1.6,2.4l-0.1,0.2c-0.2,0.7-0.4,1.4-0.6,2
			c-0.5,1.7-1.1,3.5-1.5,5.3c-0.4,1.5-0.8,3-1.1,4.5c-0.2,0.9-0.4,1.8-0.7,2.7c-0.3,1.1-0.7,1.6-2,1.4c-1.4-0.2-1.4-1.5-1.4-2l0-0.1
			c0-0.8-0.1-1.6-0.1-2.4c0-0.4,0-0.8,0-1.2c-0.1-1.6-0.1-3.3-0.2-4.9c-0.1-1.6-0.1-3.2-0.2-4.9c0-0.5-0.1-1-0.2-1.6
			c-0.2-0.8-0.4-0.8-0.8-0.8c-0.4,0-1,0.2-1.1,0.8c-0.2,0.7-0.4,1.4-0.4,2.1c0,1.8-0.2,3.6-0.3,5.3c-0.2,2.5-0.4,5.2-0.2,7.7
			c0.1,0.6,0,1.1-0.1,1.6c0,0.3-0.1,0.5-0.1,0.8c0,0.1,0,0.3,0,0.5c0.1,1.1,0,4.8-3.4,6.8L88,76.1l-0.3,0.1C86,77,85.6,77,84.4,75.6
			l-0.2-0.3c-0.8-0.8-1.5-1.7-2.2-2.6c-0.5-0.6-0.9-1.1-1.4-1.7c-0.9-1.1-1.9-1.9-3.1-2.4c-1.2-0.5-2.2-0.3-3,0.6c0,0.1,0,0.2,0,0.3
			c0,0,0.1,0.1,0.1,0.1c0.1,0.2,0.3,0.4,0.4,0.6c1.5,1.8,3.1,3.7,4.6,5.5c0.1,0.2,0.3,0.3,0.4,0.5c0.3,0.4,0.7,0.7,1,1.2
			c1,1.5,1.9,3.1,2.9,4.7c0.4,0.7,0.8,1.3,1.2,2c1.2,1.9,2.3,3.8,3.9,5.3c0.6,0.6,1,1.5,1.2,2.3c0.3,1.4,0.4,2.6,0.4,3.9
			c0,1.8,0,3.9-0.1,6c0,1.5,0,2.9,0,4.2c0,1.1-0.2,4.9-1.5,5.9C88.6,112,88.3,112.1,88,112.1z"/>
	</g>
</g>
<g>
	<g>
		<path fill="#F37621" d="M551.5,114.1c-24,0-43.5-19.5-43.5-43.5c0-24,19.5-43.5,43.5-43.5S595,46.6,595,70.6
			C595,94.5,575.5,114.1,551.5,114.1z M551.5,29.1c-22.9,0-41.5,18.6-41.5,41.5c0,22.9,18.6,41.5,41.5,41.5S593,93.4,593,70.6
			C593,47.7,574.4,29.1,551.5,29.1z"/>
	</g>
	<g>
		<path fill="#F37621" d="M543.6,102.4l3.8-16h-8.6l7.3-15.4h-9.3L547,42.9h16.3l-9.6,18.2h10.8l-11.7,19h8.2L543.6,102.4z
			 M541.2,85h8.1l-2.6,11l11.2-14.5h-7.8l11.7-19h-10.6l9.6-18.2H548l-9.2,25.2h9.6L541.2,85z"/>
	</g>
</g>
<g>
	<g>
		<path fill="#F37621" d="M703.1,114.1c-24,0-43.5-19.5-43.5-43.5c0-24,19.5-43.5,43.5-43.5s43.5,19.5,43.5,43.5
			C746.6,94.5,727.1,114.1,703.1,114.1z M703.1,29.1c-22.9,0-41.5,18.6-41.5,41.5c0,22.9,18.6,41.5,41.5,41.5s41.5-18.6,41.5-41.5
			C744.6,47.7,726,29.1,703.1,29.1z"/>
	</g>
	<g>
		<g>
			<g>
				<path fill="#F37621" d="M688.7,96.8c-1.6,0-3.7-0.3-6.3-1.5c-5-2.1-7.5-4.7-7.5-7.7c0-1.2,1.8-3,2.6-3.8l9.3-20.4l1.4,0.6
					l-9.4,20.6l-0.1,0.1c-1.2,1.1-2.2,2.5-2.3,2.9c0,3,3.6,5.1,6.6,6.3c6.4,2.7,9.2,0.6,9.5,0.1c0.2-0.4,0.1-1.7,0.1-2.5
					c0-0.6,0-1.2,0-1.5c0.1-0.9,6.1-15,8.2-19l1.3,0.7c-2.2,4.2-7.8,17.6-8,18.5c0,0.2,0,0.7,0,1.2c0.1,1.4,0.1,2.5-0.2,3.1
					c-0.2,0.6-1,1.2-1.9,1.6C691.2,96.5,690.2,96.8,688.7,96.8z"/>
			</g>
			<g>
				<path fill="#F37621" d="M677.8,86.5l-0.2-2.8c-0.2-2.5-2.7-3.4-2.7-3.4l-0.2-0.1l-0.1-0.2c-1.7-2.5-2-4.4-1.5-9
					c0.6-5.7,6.9-8,7.2-8.1l0.3,0c0.7,0,3.9,1.4,6.4,2.7l0.7,0.3l-2.5,5.3l-2.3-2.7c-0.6-0.5-1.1-0.7-1.7-0.7
					c-1.4,0-2.4,1.4-2.4,1.4c-2.6,3.7-1.2,7.5-1.2,7.6c0.4,1.3,2.2,2.3,2.9,2.6l0.7,0.3L677.8,86.5z M675.5,79c0.6,0.3,2,1,2.9,2.6
					l0.6-1.2c-0.9-0.5-2.6-1.6-3.1-3.1c-0.1-0.1-1.7-4.6,1.3-8.9c0.1-0.1,1.4-2.1,3.6-2.1c0.9,0,1.8,0.4,2.7,1.1l0.1,0.1l0.8,1
					l0.9-1.9c-2.1-1-4.3-2-5-2.2c-0.9,0.4-5.6,2.6-6,6.8C673.9,75.5,674.2,77,675.5,79z"/>
			</g>
		</g>
		<g>
			<path fill="#F37621" d="M706.6,79.9c-0.5,0-0.9-0.3-1.1-0.5c-0.3-0.3-2.6-2.6-2.8-5c-0.6-0.2-1.5-0.8-2-2.2
				c-0.5-0.3-1.6-0.9-2.1-2.1c-0.2-0.5-0.3-1.1-0.2-1.7c-0.9,0-2.2-0.3-3.8-1.4c-0.3,0.1-0.6,0.1-1.1,0.1c-0.9,0-2.1-0.2-3.3-1.4
				c-0.7-0.1-2.3-0.3-3-1.5c-0.5-0.8-0.5-1.8-0.1-3c-0.1-1.1,0.1-3,1.8-3.8c0.3-0.2,1.1-0.9,2.4-0.9c0.8,0,1.6,0.2,2.3,0.7
				c0.5-0.6,1.3-1.2,2.6-1.2c0.7,0,1.5,0.2,2.3,0.7c0.2,0,0.5,0,0.8,0c1.2,0,2.2,0.4,2.9,1c0.5,0.5,0.7,1.1,0.8,1.9
				c1.5,0.3,3.5,1.4,3.7,4.1c0.5,0.8,0.9,2.3,0.1,3.5c0.3,0.4,0.7,1.1,0.7,1.9c0,1.1-0.4,2.1-1.4,3.1c-0.1,0.9-0.2,3.9,1.4,5.4
				c0.1,0.1,0.7,0.6,0.6,1.2c0,0.4-0.3,0.7-0.7,0.8C707.1,79.8,706.8,79.9,706.6,79.9z M700.6,66.4l-0.6,1.4
				c-0.2,0.6-0.3,1.1-0.1,1.6c0.4,1,1.6,1.4,1.6,1.4l0.3,0.1l0.1,0.3c0.5,1.5,1.4,1.6,1.5,1.6l0.8,0.1l-0.1,0.8
				c-0.1,0.7,0.2,1.5,0.5,2.2c-0.5-2-0.3-4-0.3-4.1l0-0.3l0.2-0.2c0.8-0.7,1.2-1.5,1.2-2.1c0-0.8-0.7-1.4-0.7-1.4l-0.7-0.6l0.7-0.6
				c1-0.8,0-2.3,0-2.3l-0.1-0.2l0-0.2c-0.1-2.8-2.9-2.9-3-2.9l-0.8,0l0-0.8c0-0.7-0.1-1.1-0.4-1.5c-0.8-0.8-2.6-0.5-2.6-0.5
				l-0.3,0.1l-0.3-0.2c-0.6-0.4-1.2-0.6-1.7-0.6c-1.2,0-1.7,1.1-1.7,1.1l-0.4,0.8l-0.7-0.6c-0.7-0.6-1.4-0.8-2.1-0.8
				c-0.9,0-1.4,0.5-1.4,0.5l-0.2,0.1c-1.4,0.6-1,2.4-1,2.5l0,0.2l-0.1,0.2c-0.3,0.8-0.4,1.4-0.1,1.8c0.4,0.7,1.7,0.8,2.1,0.8l0.3,0
				l0.2,0.2c0.7,0.7,1.6,1.1,2.5,1.1c0.6,0,0.9-0.1,0.9-0.1l0.4-0.1l0.3,0.2c1.7,1.2,2.9,1.3,3.5,1.3c0.3,0,0.5-0.1,0.5-0.1
				L700.6,66.4z"/>
		</g>
		<g>
			<g>
				<path fill="#F37621" d="M720.2,91.6c-1.1,0-2-0.2-2.5-0.4c-1-0.3-1.8-0.9-2-1.5c-0.3-0.6-0.4-1.7-0.4-3.1c0-0.5,0-1-0.1-1.2
					c-0.2-0.8-6-12.5-8.5-16.7L708,68c2.4,4.1,8.5,16.3,8.7,17.2c0.1,0.3,0.1,0.8,0.1,1.5c0,0.8,0.1,2.1,0.2,2.5
					c0.3,0.5,3.2,2.4,9.4-0.7c2.9-1.5,6.4-3.8,6.2-6.8c0-0.4-1.2-1.7-2.4-2.7l-0.1-0.1l-10.9-20.3l1.3-0.7l10.8,20.1
					c0.9,0.8,2.8,2.5,2.9,3.7c0.2,3-2.1,5.8-7,8.2C724.2,91.1,721.9,91.6,720.2,91.6z"/>
			</g>
			<g>
				<path fill="#F37621" d="M731.2,80.5l-3.7-6.7l0.7-0.3c0.7-0.3,2.4-1.4,2.7-2.7c0.1-0.2,1.2-4-1.6-7.5c0,0-1-1.3-2.3-1.3
					c-0.6,0-1.2,0.3-1.8,0.8l-2.1,2.9l-2.8-5.2l0.6-0.4c3.6-2,5.7-3.1,6.2-3.1l0.2,0c0.3,0.1,6.7,2,7.7,7.7c0.8,4.5,0.6,6.5-0.9,9.1
					l-0.1,0.2l-0.2,0.1c-0.1,0-2.5,1.1-2.5,3.6L731.2,80.5z M729.5,74.4l0.7,1.2c0.7-1.6,2.1-2.5,2.7-2.7c1.2-2,1.4-3.6,0.7-7.9
					c-0.8-4.3-5.6-6.2-6.5-6.4c-0.5,0.2-2.7,1.3-4.8,2.5l1,1.8l0.9-1.1c0.9-0.8,1.8-1.3,2.9-1.3c2,0,3.5,1.8,3.5,1.8
					c3.3,4.1,2,8.7,1.9,8.8C732,72.7,730.4,73.9,729.5,74.4z"/>
			</g>
		</g>
		<g>
			<path fill="#F37621" d="M706.8,69.5l-0.2-1.5l0.1,0.7l-0.1-0.7c0.1,0,1-0.2,1.4-1.7l0.1-0.4l0.3-0.2c0,0,1.2-0.6,1.5-1.5
				c0.2-0.5,0.1-1-0.2-1.6l-0.7-1.4l1.5,0.3c0.2,0,4.1,0.8,4.8-2l0.2-0.7l0.7,0.2c0,0,1.2,0.3,2.1-0.4c0.7-0.5,1.1-1.6,1.2-3l0,0
				c0,0-0.1-1.6-1-2.3c-0.6-0.4-1.5-0.3-2.8,0.2l-0.6,0.3l-0.3-0.6c0,0-0.5-0.8-1.3-1c-0.6-0.1-1.4,0.1-2.1,0.7l-0.1,0.1l-0.2,0
				c-0.1,0-5.4,1.1-6.4,4.4l-0.1,0.4l-0.4,0.1c0,0-1.1,0.4-1.8,1.2l-1.2-0.9c0.7-0.9,1.6-1.4,2.2-1.6c1.4-3.6,6.3-4.9,7.3-5.1
				c1.1-0.8,2.2-1,3.2-0.8c0.9,0.2,1.5,0.7,1.9,1.1c1.5-0.5,2.7-0.4,3.6,0.2c1.6,1.1,1.7,3.4,1.7,3.5c-0.1,2-0.7,3.4-1.8,4.2
				c-0.9,0.7-2,0.8-2.7,0.8c-0.9,2.2-3.3,2.7-5.2,2.6c0.1,0.5,0,1.1-0.2,1.6c-0.4,1.2-1.4,1.9-2,2.2
				C708.7,69.3,706.9,69.5,706.8,69.5z"/>
		</g>
		<g>
			
				<rect x="690" y="49.7" transform="matrix(0.7343 0.6789 -0.6789 0.7343 218.3207 -456.9257)" fill="#F37621" width="5.7" height="1.5"/>
		</g>
		<g>
			
				<rect x="696.5" y="46.5" transform="matrix(0.2816 0.9595 -0.9595 0.2816 547.6309 -637.0066)" fill="#F37621" width="5.5" height="1.5"/>
		</g>
		<g>
			
				<rect x="706" y="44.4" transform="matrix(0.8905 0.455 -0.455 0.8905 98.9633 -316.3716)" fill="#F37621" width="1.5" height="6"/>
		</g>
		<g>
			<path fill="#F37621" d="M707.6,86.9l-0.3,0c-0.6,0-1.2-0.3-1.5-0.8c-0.6-1-0.1-2.3,0-2.6l0.4-1.1l1,0.6c0.4,0.3,1.7,1,1.6,2.3
				c0,0.8-0.6,1.3-1.1,1.5L707.6,86.9z"/>
		</g>
	</g>
	<g>
		<path fill="#F37621" d="M688.5,92.8c-6,0-8.6-3.5-8.7-3.7c-0.2-0.3-0.2-0.8,0.2-1c0.3-0.2,0.8-0.2,1,0.2c0.1,0.1,2.1,2.8,6.8,3
			l0.3-2.8l7.4-17c0.2-0.4,0.6-0.6,1-0.4c0.4,0.2,0.6,0.6,0.4,1L689.6,89l-0.4,3.8H688.5C688.5,92.8,688.5,92.8,688.5,92.8z"/>
	</g>
	<g>
		<path fill="#F37621" d="M720.2,87.4c0,0-0.1,0-0.1,0l-0.6,0l-0.5-3.7l-7-14.6c-0.2-0.4,0-0.8,0.4-1c0.4-0.2,0.8,0,1,0.4l7.1,14.9
			l0.4,2.6c5.5-0.2,7.5-4.2,7.5-4.2c0.2-0.4,0.6-0.5,1-0.3c0.4,0.2,0.5,0.6,0.3,1C729.4,82.5,727,87.4,720.2,87.4z"/>
	</g>
</g>
<g>
	<g>
		<path fill="#F37621" d="M400,114.1c-24,0-43.5-19.5-43.5-43.5c0-24,19.5-43.5,43.5-43.5c24,0,43.5,19.5,43.5,43.5
			C443.5,94.5,424,114.1,400,114.1z M400,29.1c-22.9,0-41.5,18.6-41.5,41.5c0,22.9,18.6,41.5,41.5,41.5c22.9,0,41.5-18.6,41.5-41.5
			C441.5,47.7,422.9,29.1,400,29.1z"/>
	</g>
	<g>
		<g>
			<path fill="#F37621" d="M397.9,79.7c-3.9,0-7-3.1-7-7s3.1-7,7-7c3.9,0,7,3.1,7,7S401.8,79.7,397.9,79.7z M397.9,67.2
				c-3,0-5.5,2.5-5.5,5.5s2.5,5.5,5.5,5.5s5.5-2.5,5.5-5.5S400.9,67.2,397.9,67.2z"/>
		</g>
		<g>
			<path fill="#F37621" d="M404.2,96.8c-2.5,0-4.4-2-4.4-4.4s2-4.4,4.4-4.4s4.4,2,4.4,4.4S406.6,96.8,404.2,96.8z M404.2,89.4
				c-1.6,0-2.9,1.3-2.9,2.9s1.3,2.9,2.9,2.9s2.9-1.3,2.9-2.9S405.8,89.4,404.2,89.4z"/>
		</g>
		<g>
			
				<rect x="395.8" y="83.1" transform="matrix(0.3286 0.9445 -0.9445 0.3286 348.6549 -322.8281)" fill="#F37621" width="11.3" height="1.5"/>
		</g>
		<g>
			<path fill="#F37621" d="M417.1,55.2c-2.5,0-4.4-2-4.4-4.4s2-4.4,4.4-4.4s4.4,2,4.4,4.4S419.6,55.2,417.1,55.2z M417.1,47.8
				c-1.6,0-2.9,1.3-2.9,2.9s1.3,2.9,2.9,2.9s2.9-1.3,2.9-2.9S418.7,47.8,417.1,47.8z"/>
		</g>
		<g>
			<path fill="#F37621" d="M418.9,78.9c-1.8,0-3.2-1.4-3.2-3.2c0-1.8,1.4-3.2,3.2-3.2c1.8,0,3.2,1.4,3.2,3.2
				C422.1,77.5,420.7,78.9,418.9,78.9z M418.9,74c-0.9,0-1.7,0.8-1.7,1.7c0,0.9,0.8,1.7,1.7,1.7c0.9,0,1.7-0.8,1.7-1.7
				C420.6,74.8,419.9,74,418.9,74z"/>
		</g>
		<g>
			<path fill="#F37621" d="M386.1,55.3c-1.8,0-3.2-1.4-3.2-3.2s1.4-3.2,3.2-3.2s3.2,1.4,3.2,3.2S387.9,55.3,386.1,55.3z M386.1,50.5
				c-0.9,0-1.7,0.8-1.7,1.7c0,0.9,0.8,1.7,1.7,1.7c0.9,0,1.7-0.8,1.7-1.7C387.8,51.2,387.1,50.5,386.1,50.5z"/>
		</g>
		<g>
			<path fill="#F37621" d="M381.1,85.3c-1.8,0-3.2-1.4-3.2-3.2c0-1.8,1.4-3.2,3.2-3.2s3.2,1.4,3.2,3.2
				C384.2,83.8,382.8,85.3,381.1,85.3z M381.1,80.4c-0.9,0-1.7,0.8-1.7,1.7c0,0.9,0.8,1.7,1.7,1.7s1.7-0.8,1.7-1.7
				C382.7,81.1,382,80.4,381.1,80.4z"/>
		</g>
		<g>
			
				<rect x="407.8" y="51.3" transform="matrix(0.7643 0.6448 -0.6448 0.7643 135.5831 -249.0898)" fill="#F37621" width="1.5" height="19.3"/>
		</g>
		<g>
			<g>
				
					<rect x="404.6" y="73" transform="matrix(0.9851 0.172 -0.172 0.9851 18.7189 -68.5811)" fill="#F37621" width="1" height="1.5"/>
			</g>
			<g>
				<path fill="#F37621" d="M413.4,75.9l-2-0.3l0.3-1.5l2,0.3L413.4,75.9z M409.4,75.2l-2-0.3l0.3-1.5l2,0.3L409.4,75.2z"/>
			</g>
			<g>
				
					<rect x="415.5" y="74.9" transform="matrix(0.9851 0.172 -0.172 0.9851 19.2094 -70.4276)" fill="#F37621" width="1" height="1.5"/>
			</g>
		</g>
		<g>
			<path fill="#F37621" d="M393.5,68.1l-0.9-1.8l1.3-0.7l0.9,1.8L393.5,68.1z M391.6,64.6l-0.9-1.8l1.3-0.7l0.9,1.8L391.6,64.6z
				 M389.7,61l-0.9-1.8l1.3-0.7l0.9,1.8L389.7,61z M387.8,57.5l-0.9-1.8l1.3-0.7l0.9,1.8L387.8,57.5z"/>
		</g>
		<g>
			<path fill="#F37621" d="M383.9,81.8l-0.8-1.3l1.7-1.1l0.8,1.3L383.9,81.8z M387.3,79.7l-0.8-1.3l1.7-1.1l0.8,1.3L387.3,79.7z
				 M390.7,77.5l-0.8-1.3l1.7-1.1l0.8,1.3L390.7,77.5z"/>
		</g>
	</g>
</g>
<g>
	<g>
		<path fill="#F37621" d="M248.5,114.1c-24,0-43.5-19.5-43.5-43.5c0-24,19.5-43.5,43.5-43.5S292,46.6,292,70.6
			C292,94.5,272.4,114.1,248.5,114.1z M248.5,29.1c-22.9,0-41.5,18.6-41.5,41.5c0,22.9,18.6,41.5,41.5,41.5S290,93.4,290,70.6
			C290,47.7,271.3,29.1,248.5,29.1z"/>
	</g>
	<g>
		<g>
			<path fill="#F37621" d="M236.3,84.2l-8.2-8.3c-1.4,0-2.8-0.4-4-1.2c-1.3-0.8-2.4-1.8-3.2-3.1c-0.8-1.3-1.2-2.8-1.2-4.3v-8.8
				c0-1.6,0.4-3,1.2-4.3c0.8-1.3,1.8-2.4,3.2-3.1c1.3-0.8,2.8-1.2,4.3-1.2h23c1.6,0,3,0.4,4.3,1.2c1.3,0.8,2.4,1.8,3.1,3.1
				c0.8,1.3,1.2,2.8,1.2,4.3v8.8c0,1.5-0.4,3-1.2,4.3c-0.8,1.3-1.8,2.4-3.1,3.2c-1.3,0.8-2.8,1.2-4.3,1.2h-15.2V84.2z M228.4,51.4
				c-1.3,0-2.4,0.3-3.6,1c-1.1,0.6-2,1.5-2.6,2.6c-0.6,1.1-1,2.3-1,3.6v8.8c0,1.3,0.3,2.5,1,3.6c0.6,1.1,1.5,2,2.6,2.6
				c1.1,0.6,2.3,1,3.6,1h0.3l6,6.1v-6.1h16.7c1.3,0,2.5-0.3,3.6-1c1.1-0.6,2-1.5,2.6-2.6c0.6-1.1,0.9-2.3,0.9-3.6v-8.8
				c0-1.3-0.3-2.5-0.9-3.6c-0.6-1.1-1.5-1.9-2.6-2.6c-1.1-0.6-2.3-1-3.6-1H228.4z"/>
		</g>
		<g>
			<path fill="#F37621" d="M260.6,95.7V88h-9.9c-1.3,0-2.6-0.3-3.7-1c-1.1-0.7-2-1.5-2.6-2.7c-0.6-1.1-1-2.3-1-3.6v-5.5h1.5v5.5
				c0,1,0.3,2,0.8,2.9c0.5,0.9,1.2,1.6,2.1,2.1c0.9,0.5,1.8,0.8,2.9,0.8h11.4v5.3l4.8-5.3h0.3c0.1,0,2.6,0,2.8,0
				c0.9,0,1.8-0.3,2.6-0.8c0.9-0.5,1.6-1.2,2.1-2.1c0.5-0.9,0.8-1.9,0.8-2.9v-7.3c0-1.1-0.3-2-0.8-2.9c-0.5-0.9-1.2-1.6-2.1-2.1
				c-0.9-0.5-1.8-0.8-2.9-0.8h-10.5v-1.5h10.5c1.3,0,2.5,0.3,3.6,1c1.1,0.6,2,1.5,2.7,2.6c0.7,1.1,1,2.3,1,3.7v7.3
				c0,1.3-0.3,2.5-1,3.6c-0.6,1.1-1.5,2-2.7,2.7c-1,0.6-2.2,0.9-3.4,1c-0.1,0-1.8,0-2.5,0L260.6,95.7z"/>
		</g>
		<g>
			<rect x="227.6" y="57.6" fill="#F37621" width="25.2" height="1.5"/>
		</g>
		<g>
			<rect x="227.6" y="61.9" fill="#F37621" width="25.2" height="1.5"/>
		</g>
		<g>
			<rect x="227.6" y="66.2" fill="#F37621" width="19.2" height="1.5"/>
		</g>
		<g>
			<rect x="260.3" y="74.3" fill="#F37621" width="8.6" height="1.5"/>
		</g>
		<g>
			<rect x="251.8" y="78.5" fill="#F37621" width="17.2" height="1.5"/>
		</g>
	</g>
</g>
</svg>
