<?xml version="1.0" encoding="utf-8"?>
<!-- Generator: Adobe Illustrator 17.1.0, SVG Export Plug-In . SVG Version: 6.00 Build 0)  -->
<!DOCTYPE svg PUBLIC "-//W3C//DTD SVG 1.1//EN" "http://www.w3.org/Graphics/SVG/1.1/DTD/svg11.dtd">
<svg version="1.1" id="Layer_1" xmlns="http://www.w3.org/2000/svg" xmlns:xlink="http://www.w3.org/1999/xlink" x="0px" y="0px"
	 viewBox="0 0 33.1 33.1" enable-background="new 0 0 33.1 33.1" xml:space="preserve">
<circle fill="#0077B5" cx="16.5" cy="16.5" r="16.5"/>
<g id="LinkedIn__x28_alt_x29__1_">
	<path fill="#FFFFFF" d="M11.8,24.8H8V13.6h3.7V24.8z M9.9,12.1L9.9,12.1c-1.3,0-2.1-0.9-2.1-1.9c0-1.1,0.8-1.9,2.1-1.9
		c1.3,0,2.1,0.8,2.1,1.9C12,11.3,11.2,12.1,9.9,12.1z M25.2,24.8h-3.7v-6c0-1.5-0.5-2.5-1.9-2.5c-1,0-1.6,0.7-1.9,1.4
		c-0.1,0.2-0.1,0.6-0.1,0.9v6.2h-3.7c0,0,0.1-10.1,0-11.2h3.7v1.6c0.5-0.8,1.4-1.8,3.4-1.8c2.5,0,4.3,1.6,4.3,5V24.8z M17.6,15.3
		C17.6,15.2,17.6,15.2,17.6,15.3L17.6,15.3L17.6,15.3z"/>
</g>
</svg>
