<?xml version="1.0" encoding="utf-8"?>
<!-- Generator: Adobe Illustrator 18.1.0, SVG Export Plug-In . SVG Version: 6.00 Build 0)  -->
<svg version="1.1" id="Layer_1" xmlns="http://www.w3.org/2000/svg" xmlns:xlink="http://www.w3.org/1999/xlink" x="0px" y="0px"
	 viewBox="0 0 800 400" enable-background="new 0 0 800 400" xml:space="preserve">
<rect y="-1.2" fill="#FCB834" width="800" height="401.2"/>
<g>
	<ellipse fill="none" stroke="#FFFFFF" stroke-miterlimit="10" cx="318.3" cy="44.9" rx="30.5" ry="7.7"/>
	<g>
		<path fill="#FFFFFF" d="M318.3,95.6c16.6,0,26.3-3.2,28.2-5.9c-3.8-3.2-14.4-5.5-28.2-5.5c-13.8,0-24.4,2.3-28.2,5.5
			C292,92.4,301.8,95.6,318.3,95.6z"/>
		<path fill="#FFFFFF" d="M348.8,91.9c0-0.2,0-0.4-0.1-0.6c-3.2,3.4-13.5,6.3-30.3,6.3s-27.1-2.9-30.3-6.3c-0.1,0.2-0.1,0.4-0.1,0.6
			c0,0.3,0.1,0.7,0.3,1h-0.3v12c0,4.2,13.6,7.7,30.5,7.7c16.8,0,30.5-3.4,30.5-7.7v-12h-0.3C348.7,92.6,348.8,92.2,348.8,91.9z
			 M345.5,103.7c0,0-4.6,5.8-27.5,5.8c0,0,23.5-2.2,24.2-7.2c0.3-2.3,0-4.2,0-4.2l3.3-2V103.7z"/>
	</g>
	<line fill="none" stroke="#FFFFFF" stroke-miterlimit="10" x1="348.8" y1="44.9" x2="348.2" y2="104.8"/>
	<line fill="none" stroke="#FFFFFF" stroke-miterlimit="10" x1="287.8" y1="44.9" x2="288.5" y2="105.7"/>
	<path fill="#FFFFFF" d="M293.3,62.3c0,0,6.7-3.1,10.5-3.5c0,0,5.5,3.3,7.1,8.5c0,0-1.7,0.1-5-0.5c-1.5-0.3-0.3-4.2-2.6-4.8
		c-2.1-0.6-6.6,2.4-7.7,2C293.3,63,293.3,62.3,293.3,62.3z"/>
	<path fill="#FFFFFF" d="M298.4,64.6c0,0,2.3-1.6,4.3-1.5c2,0.1,1.2,3,1.2,3S301.1,66.4,298.4,64.6z"/>
	<path fill="#FFFFFF" d="M314.7,65.5c0,0,1.4-6.5,13.6-11.5c0,0,11.6,3.2,11.2,5.7c0,0-7.8,1.8-12.5,3.3
		C313.4,67.4,314.7,65.5,314.7,65.5z"/>
	<path fill="#FFFFFF" d="M322.8,65.8c-22.4,7.5-32.7-4.6-32.7-4.6V88c0,0,3.9-5,29.2-5c23,0,27.2,5,27.2,5V60.7
		C346.5,60.7,345.2,58.3,322.8,65.8z M326.6,66.6c0.1-0.6,8.1-2.5,8.1-2.5c-0.1,2.5-6.1,6-6.1,6C325.7,70.4,326.6,66.6,326.6,66.6z
		 M302.1,75.1c0,0-3.3,0.7-9.2-4.9c0,0-1-4,0-5.1c0,0,0.7,0.5,2.3,1.2c1.2,0.6-4.1,2.9,3.5,6.3c5.9,2.7,5.5-3.8,6.9-3.6
		c2.8,0.3,5,0,5,0S306.7,73.3,302.1,75.1z M317.4,74.7c-1.9-1.5-1.4-4.9-1.4-4.9c1.3,4.6,5.8,6.1,5.8,6.1
		C322.5,76.8,317.4,74.7,317.4,74.7z M337.6,72.1c0,0-9,4.8-15.1,3.1c0,0-7-4.2-5-6.2l5.7-1.7c0,0-0.1,6.6,5.3,3.9
		c9.9-4.9,8.1-7.9,8.1-7.9l2.9-0.9C339.6,62.4,341.4,71.1,337.6,72.1z"/>
</g>
<g>
	<g>
		<path fill="#FFFFFF" d="M161.8,203.7l-6.4-1.9l-16.3,19l7.1,1.1L161.8,203.7L161.8,203.7z M151.4,200.6l-6.4-1.9l-17.3,20.2
			l7.1,1.1L151.4,200.6L151.4,200.6z M172.1,206.7c-2-0.6-4.2-1.2-6.4-1.9l-15.2,17.8l7.1,1.1L172.1,206.7L172.1,206.7z
			 M167.5,227.1 M105.2,224.5c-5.6-1.1-6.2-3.1-6.2-3.1c-1.1-3.5-1.7-7.5-1.7-11.8c0-4.1,0.6-7.9,1.6-11.3c2,1.5,4.4,2.9,7.3,3.8
			c4.4,1.4,11.1,2.3,12.4,0.3c0.2-0.4,0.8-1.6-0.2-1.7c-5.7-0.5-14.8-1.7-13.9-11c0.1-0.6-0.1-1.1-0.3-1.5c0.3-0.3,0.6-0.6,0.9-0.9
			c0,0,0.7-0.6,1.3-0.6c0.7,0,1.7,0.1,1.8,1.5c0,0,0.1,7.6,12.5,7.8c3.9,0.1,6.3-0.9,8-2.1l-9.3-6.8c-1.4-1-1.7-3-0.7-4.4l3.5-4.9
			c1-1.4,3-1.7,4.4-0.7l15.9,11.6c0.1,0,0.2,0,0.3,0c3.2,0,5.8,1.4,6.5,3.2c2.8,0,5.2,1.1,6.1,2.6c0.3,0,0.5,0,0.8,0
			c2.3,0,4.3,0.7,5.5,1.8c2.6,0.1,4.8,1.1,5.8,2.5l0.3,0.1c0.3,0,0.6,0,0.9,0c2.4,0,4.6,0.8,5.7,2c0.1,0,0.3,0,0.4,0
			c2.3,0,4.4,0.7,5.6,1.8c5.1,1.5,9.7,2.8,12.9,3.7c13.2,3.5,13.6,10.8,4.4,15.7c-1.6,0.8-3.7,1.5-6.1,2.2c0,0-14,2.6-32.4,3
			c-4.8-0.1-9.4-0.4-13.2-0.9c-15.4-2.1-33-1.1-33-1.1C110.5,225.3,105.2,224.5,105.2,224.5z"/>
	</g>
	<g>
		<path fill="#FFFFFF" d="M99.6,199.6l-1.1-0.2c0-0.2,0.6-4.7,5.6-11.1l1,0.4C100.3,194.9,99.6,199.5,99.6,199.6z"/>
	</g>
</g>
<g>
	<path fill="#FFFFFF" d="M638.3,193.2c0,0,1.2-3.6-7.6-2.9c-5.6,0.4-11.8,0.9-14.1-1c-2.3-1.9-2-3-5.5-9.8
		c-3.6-6.7-10.7-8.9-10.7-8.9s4,3.4,6,7.7c2,4.3,3,12,3,12s1.5,3.4,2.7,4.4c1.5,1.3,2.2,2.6,5.2,3.2c2.9,0.6,10.2,0.7,13.3,2.7
		C637.1,205,638.3,193.2,638.3,193.2z"/>
	<path fill="#FFFFFF" d="M655.3,193.2c0,0-1-3.5,7.6-2.9c5.6,0.4,11.8,0.9,14.1-1c2.3-1.9,2-3,5.5-9.8c3.6-6.7,10.7-8.9,10.7-8.9
		s-4,3.4-6,7.7c-2,4.3-3,12-3,12s-1.5,3.4-2.7,4.4c-1.5,1.3-2.2,2.6-5.2,3.2c-2.9,0.6-10.2,0.7-13.3,2.7
		C656.4,205,655.3,193.2,655.3,193.2z"/>
	<path fill="#FFFFFF" d="M659.6,209.8c-1.5-2.1-0.6-6-0.6-6c0.9-0.1,0.6-0.9,0.6-0.9c-6-4.2-5.7-11-5.7-11s-3.1-1.7-6.9-1.2
		c-3.8-0.5-6.9,1.2-6.9,1.2s0.3,6.7-5.7,11c0,0-0.3,0.8,0.6,0.9c0,0,0.9,3.9-0.6,6c0,0-1.1,4.7,1,6.9c0,0,1.6,2.6,3.7,3.9
		c0,0,0.5-0.7,0.1,4c0,0,1.3,4.7,2.7,5.3c0,0,0,5.2,1,8c0.9,2.6,3.7,3,4.2,2.9c0.5,0.1,3.3-0.3,4.2-2.9c1-2.9,1-8,1-8
		c1.3-0.6,2.7-5.3,2.7-5.3c-0.4-4.7,0.1-4,0.1-4c2.1-1.3,3.7-3.9,3.7-3.9C660.7,214.5,659.6,209.8,659.6,209.8z M639.4,217.6
		c0,0-4.5-1.6-3.6-6.4c0,0,0.6,2.3,3.4,3.3C639.2,214.6,639.4,216.2,639.4,217.6z M645.7,234.8c-0.2,2.7-0.1,3.4-0.1,3.4
		s-0.7,0.1-1.2-0.3c-0.4-0.5-0.9-2-0.9-2s-0.2-0.7-0.4-2.6c-0.2-1.9,0-5.9,0-5.9s0.3-0.1,0.5,0.8c0.2,0.6-0.2,1,0.3,2.1
		c0.5,1.2,1.2,1.8,1.2,1.8S646,231.6,645.7,234.8z M650.6,233.2c-0.2,1.9-0.4,2.6-0.4,2.6s-0.5,1.6-0.9,2c-0.4,0.5-1.2,0.3-1.2,0.3
		s0.1-0.7-0.1-3.4c-0.2-3.2,0.4-2.7,0.4-2.7s0.7-0.7,1.2-1.8c0.5-1.1,0.2-1.6,0.3-2.1c0.2-0.9,0.5-0.8,0.5-0.8
		S650.8,231.3,650.6,233.2z M654.5,217.7c-0.1-1.4,0.1-3,0.1-3c2.9-1,3.4-3.3,3.4-3.3C659,216.1,654.5,217.7,654.5,217.7z"/>
</g>
<g>
	<g>
		<polygon fill="#FFFFFF" points="504.5,95.8 504.1,95.3 500.8,99.2 503.9,108.2 510.9,102.2 		"/>
		<path fill="#FFFFFF" d="M499.8,99.4l-1.9-0.9l-1.4,1.5c0,0-0.2,1.3-0.8,2.4c-0.6,1.1-1.1,1.7-1.1,1.7l8.2,4.1L499.8,99.4z"/>
		<path fill="#FFFFFF" d="M500.1,98.4l3.1-3.7l-3-1.1c0,0,0.4,0.8-0.3,2.4c-0.7,1.6-1.1,1.8-1.1,1.8L500.1,98.4z"/>
	</g>
	<path fill="#FFFFFF" d="M495.7,100.5c0,0-5.5,5.1-17.1,5.3c-11.7,0.1-15.2-3.3-15.2-3.3s1.9,8.9,15,9.3
		C491.3,112.1,495.7,100.5,495.7,100.5z"/>
	<circle fill="#FFFFFF" cx="488.2" cy="50" r="3.9"/>
	<g>
		<polygon fill="#FFFFFF" points="460,109.7 464.3,106.1 463.5,105.3 462.1,104.8 460.7,106.1 455.2,103.4 456.3,102.7 455.1,102.3 
			450,104.5 		"/>
		<polygon fill="#FFFFFF" points="464.9,107 460.7,110.6 463.1,122.9 471.6,116.7 		"/>
		<polygon fill="#FFFFFF" points="459.6,110.7 449.2,105.3 447.5,111.7 462,123.1 		"/>
	</g>
	<path fill="#FFFFFF" d="M459.3,70.9c-1.1,0-2.2,0.1-3.1,1c-0.1,0.1-0.5,0.2-0.9,1.5c-0.2,0.6-0.3,1.2-0.4,1.3l-0.4,21.9
		c0,3.6,4.6,3.7,9.9,5.7c0.2-4.8,0.2-16.6,0.2-24.9C464.6,74.2,461.9,70.9,459.3,70.9z M459.7,79.6c-1.4,0-2.5-1.3-2.5-3
		c0-1.6,1.1-3,2.5-3c1.4,0,2.5,1.3,2.5,3C462.1,78.3,461,79.6,459.7,79.6z"/>
	<ellipse fill="#FFFFFF" cx="484.3" cy="89.9" rx="0.2" ry="0"/>
	<polygon fill="#FFFFFF" points="457.7,101 456.7,103.4 460.7,105.3 461.9,102.3 	"/>
	<path fill="#FFFFFF" d="M500.8,64.9l0,26.1l1.8,0.7C502.7,91.7,503.3,64.5,500.8,64.9z"/>
	<polygon fill="#FFFFFF" points="500.4,91.5 502.7,92.2 502.7,93.9 500.4,93.2 	"/>
	<path fill="#FFFFFF" d="M495.4,67.7c-0.7,0.5-1.4,0.9-2.2,1.3h0c-4,2-9.4,3.2-15.5,3.2c-6.1,0-11.5-1.2-15.5-3.2h0
		c-0.8-0.4-1.6-0.8-2.2-1.3c-2.4-1.7-3.9-3.7-4.2-5.9v8.6c1.1-0.8,2.3-1.3,3.6-1.3c3.5,0,6.9,4,6.9,8.1c0,0.3,0,7.1-0.1,13.8
		c-0.1,6.3-0.1,9.8-0.2,11.7c3.4,1.1,7.4,1.7,11.6,1.7c2.4,0,4.8-0.2,6.9-0.6l4.8-1.2c6.1-1.9,10.1-5.4,10.1-9.2V61.9
		C499.3,64.1,497.8,66.1,495.4,67.7z M476.4,93.5c-2.7,0.4-4.6-0.5-4.6-0.5v-0.7c2,0.7,4.6,0.6,4.6,0.6V93.5z M476.4,90.8
		c-2.7,0.4-4.6-0.5-4.6-0.5v-0.7c2,0.7,4.6,0.6,4.6,0.6V90.8z M476.4,88c-2.7,0.4-4.6-0.5-4.6-0.5v-0.7c2,0.7,4.6,0.6,4.6,0.6V88z
		 M476.4,85.3c-2.7,0.4-4.6-0.5-4.6-0.5V84c2,0.7,4.6,0.6,4.6,0.6V85.3z M488,95.9c-4.2,2.5-8.1,1.2-8.1,1.2V84.7
		c5.8,0.2,8.1-0.9,8.1-0.9V95.9z M495.4,78.5c0,0-3.8,2.7-10.5,3.7c-6.6,1-13-0.3-13-0.3v-2.2c0,0,4.6,1.3,11.1,0.4
		c7.6-1.1,12.3-4,12.3-4V78.5z M495.4,74.1c0,0-3.9,2.4-10.5,3.7c-7.3,1.5-13-0.3-13-0.3v-2.2c0,0,4.6,1.2,11.1,0.6
		c5.9-0.6,12.3-4.3,12.3-4.3V74.1z"/>
	<path fill="#FFFFFF" d="M486.6,88.5c0.1,1-0.9,1.8-2.1,1.9l0,0c-1.3,0.1-2.3-0.1-2.4-1.1l0-1.8c-0.1-1,0.9-1.3,2.1-1.4l0,0
		c1.3-0.1,2.3,0.1,2.4,1.1L486.6,88.5z"/>
	<path fill="#FFFFFF" d="M486.6,94c0.1,1-0.9,1.8-2.1,1.9l0,0c-1.3,0.1-2.3-0.1-2.4-1.1l0-1.8c-0.1-1,0.9-1.3,2.1-1.4l0,0
		c1.3-0.1,2.3,0.1,2.4,1.1L486.6,94z"/>
	<path fill="#FFFFFF" d="M498.8,42.9C498.8,42.9,498.8,42.9,498.8,42.9c0.6-0.1,0.9-0.8,0.8-1.5c-0.2-0.7-0.7-1.1-1.3-1
		c-0.1,0-0.2,0-0.2,0.1c-0.8,0.3-3.1,1.4-3.2,1.3c-2.7-3.4-6.3-5.9-10.4-7.3c-0.4-0.1-0.8-0.2-1.2-0.3c0.6,0.3,1,0.7,1,1.1
		c0,1.2-2.9,2.2-6.5,2.2c-3.6,0-6.5-1-6.5-2.2c0-0.4,0.4-0.9,1.1-1.2c-9.5,2.4-16.6,11-16.6,21.3v3.3c0,0.4,0.1,0.8,0.3,1.2
		c0.1,0.4,0.3,0.7,0.5,1.1c1.5,2.9,5.4,6.4,10.5,7.8h0c3.2,0.9,6.8,1.4,10.7,1.4c3.9,0,7.5-0.5,10.7-1.4h0c5.1-1.4,9-4.9,10.5-7.8
		c0.2-0.3,0.4-0.7,0.5-1.1c0.1-0.4,0.2-0.8,0.3-1.2v-3.3c0-4-1.1-7.8-3-11C496.5,44.3,498.5,43.2,498.8,42.9z M498.3,40.8
		c0.4-0.1,0.8,0.2,0.9,0.7c0.1,0.5-0.1,1-0.5,1.1c-0.4,0.1-0.8-0.2-0.9-0.7C497.7,41.3,497.9,40.9,498.3,40.8z M460,62.4
		c0,0-0.4-0.3-0.7-0.5c-0.2-0.2-0.3-0.5-0.3-0.5c0-0.9,0-6.6,0-6.6l1,1.1V62.4z M461.9,64.2c0,0-0.4-0.3-0.7-0.5
		c-0.4-0.3-0.3-0.7-0.3-0.7v-6.5l1,0.8V64.2z M485.6,35.5c0-0.2,4.1,2.1,4.1,2.1c-0.1,1.3-1,1.9-1,1.9l-3.6-2.8
		C485.6,36.4,485.6,35.9,485.6,35.5z M465.5,38.7c0.6-1.1,4-2.4,4-2.4s-0.3,0.4,1.7,1.3c2,0.9,3.2,0.9,3.2,0.9l0.1,4.3
		c0,0-1.6,0.1-5.4-1.3C465.3,40,465.5,38.7,465.5,38.7z M463.1,65.2c-0.3-0.2-0.3-0.6-0.3-0.6v-6.5l1,0.7l0.1,6.9
		C463.9,65.6,463.5,65.5,463.1,65.2z M471.2,68c0,0-3.6-0.2-5.8-1.7v-5.2c0,0,1.7,1.3,5.8,1.7V68z M475.7,68.4
		c-0.9,0.3-3.2-0.2-3.2-0.2v-1.8c0.5,0.2,3.2,0.2,3.2,0.2V68.4z M475.7,64.9c-1.9,0.2-3.2-0.1-3.2-0.1v-1.6c0.5,0.2,3.2,0.2,3.2,0.2
		V64.9z M475.5,42.8v-4.1c0,0,2.3,0.2,5.3-0.3c2.4-0.4,3.8-1.1,3.8-1.1l3.2,2.9c0,0-1.3,1.1-4.6,2C479.9,43.1,475.5,42.8,475.5,42.8
		z M482.7,58.5l-2.6-12.4l12.3-2.7l3.7,10.6L482.7,58.5z"/>
	<ellipse fill="#FFFFFF" cx="477.6" cy="34.8" rx="4" ry="1.2"/>
</g>
<g>
	<path fill="#FFFFFF" d="M137.9,95.3c-0.4-4.4-3.7-7.6-7.4-7.3c-3.6,0.4-6.3,4.2-5.8,8.5c0.4,4.4,3.7,7.6,7.4,7.3
		C135.8,103.5,138.4,99.7,137.9,95.3z M134.1,92.3c-0.4,0-0.7-0.3-0.7-0.7c0-0.4,0.3-0.7,0.7-0.7c0.4,0,0.7,0.3,0.7,0.7
		C134.8,91.9,134.5,92.3,134.1,92.3z"/>
	<g>
		<path opacity="0.6" fill="#FFFFFF" d="M170.1,85.8c-0.1,0.1-0.2,0.1-0.2,0.2L170.1,85.8z"/>
		<path fill="#FFFFFF" d="M167.4,92.9c-0.9-1-2.3-1.5-3.9-1.5c-0.3,0-0.7,0-1,0.1c-3.6,0.4-5.7,3.2-6.2,5.6
			c-0.4,1.9-0.1,3.7,0.9,4.8c0.8,1,2,1.5,3.7,1.5c0.3,0,0.5,0,0.8,0c3.2-0.3,6.4-3.5,6.7-6.8C168.5,95,168.2,93.8,167.4,92.9z
			 M164.7,97.4c-0.1,1.2-1.2,2.3-2.4,2.4c-1.7,0.2-2.3-1.1-2.1-2.4c0.2-0.8,0.9-1.9,2.2-2C163.8,95.2,164.9,95.9,164.7,97.4z"/>
		<g>
			<path fill="#FFFFFF" d="M110.8,113.2l7.3-2.4l-0.2-1.2C117,110,113.6,111.4,110.8,113.2z"/>
			<path fill="#FFFFFF" d="M118.4,108.4l0.3-0.1l0.4,2.1l5.1-1.7c-2.3-1.6-4.2-3.5-5-4.3c-2.4,1.5-11.2,7.1-13.5,10.5l3.3-1.1
				C112.7,111.1,118.3,108.5,118.4,108.4z"/>
		</g>
		<g>
			<path fill="#FFFFFF" d="M134.6,116.6c1.4,3.2,2.7,5.2,4,5.3c-0.4-1.4-2.6-8.2-2.4-10c-1.2,0.1-2.3,0-3.3-0.1
				C133.2,112.8,133.8,114.7,134.6,116.6z"/>
			<g>
				<polygon fill="#FFFFFF" points="141.3,110.5 141.3,110.5 141.3,110.5 				"/>
				<path fill="#FFFFFF" d="M141,110.6c-1.4,0.7-2.6,1.1-4,1.2l-0.1,0.1c-0.2,2,2.6,10.7,2.6,10.8l0.1,0.3l-0.3,0
					c-0.1,0-0.2,0-0.2,0c-3.6,0-6.4-9.2-7-11.3c-1.2-0.2-2.2-0.4-2.8-0.6l4.9,10.6c0,0,2.6,3.6,5.8,3c0.9-0.2,1.6-0.4,2.3-0.6
					C140.9,119.7,141,111.7,141,110.6z"/>
				<path fill="#FFFFFF" d="M153.3,109.5c-4.9,3.8-10.1,1.7-11.5,1.2c0,1-0.3,8.9,1.2,13.1c2.5-1.1,4.1-2.7,4.1-2.7s5.9-5.6,8.7-9.4
					L153.3,109.5z"/>
			</g>
		</g>
		<g>
			<polygon fill="#FFFFFF" points="170.8,123.2 171,120.8 171.5,118.9 162.9,111 160.3,111 157.8,111.6 158.4,112.1 159.6,113.2 
				159.6,113.2 			"/>
			<path fill="#FFFFFF" d="M169.3,105.6c-1.3,1.2-5.2,4-11.8,4c-0.7,0-1.4,0-2.2-0.1l1.8,1.6c0,0,0,0,0,0l0.1,0.1l2.9-0.7h2.9
				l9.3,8.5l-0.5,2.2l-0.2,2.7l-0.2,0l3.6,3.2c0,0,4.8,0.6,6.5-1.7C181.4,125.2,183,118.6,169.3,105.6z"/>
		</g>
		<g>
			<path fill="#FFFFFF" d="M183.2,81.2c0.4,0.2,0.7,0.4,0.9,0.8c0,0,0,0,0,0c0,0-0.3-2.4-5-1c0,0-6,2.8-8,4.1
				c0.4,0.5,0.8,1.1,1.1,1.6C173.7,85.5,180.5,80.2,183.2,81.2z"/>
			<path fill="#FFFFFF" d="M183.9,83.2c-0.1-0.7-0.5-1.1-1-1.3c-1.1-0.4-3.3,0.4-6.4,2.4c-1.9,1.2-3.5,2.6-4.1,3.1
				c0.6,1.4,1,2.8,1.2,3.9c0.2,1.1,0.2,2,0.2,2.6C176,92.3,183.2,86.9,183.9,83.2L183.9,83.2z"/>
		</g>
		<g>
			<path fill="#FFFFFF" d="M169.6,63.5c2.3-3.2,4.6-6.4,5.2-7.3c-1.5-0.7-4.9-0.6-5.5-0.6c-2.5,1.3-10.7,6-16.6,10.7
				c1.6,0.4,4.9,1,8.2,2.7c1.3,0.7,2.5,1.5,3.6,2.3C164.8,70.6,165.9,68.7,169.6,63.5z"/>
			<path fill="#FFFFFF" d="M176.1,53.8c0,0-3.4,0.2-5.6,1.2c1.5,0,4,0.1,5.2,0.8l0.2,0.1l-0.1,0.2c-4,5.4-10.2,14.1-10.7,15.7
				c3.4,2.8,5.5,6.3,5.9,10.4c1.4-2.3,5.2-9.2,8.3-21.7C179.3,60.5,179.9,56.3,176.1,53.8z"/>
		</g>
		<g>
			<path fill="#FFFFFF" d="M133.7,66.4c-0.2,0.3-0.7,1.2-1,1.9c-0.8,3-0.5,9-0.5,10.6c2.6-1,5.5-8.1,6.6-11.2l-2.6-0.8L133.7,66.4z"
				/>
			<path fill="#FFFFFF" d="M146.3,49.6c0,0-7.1,2-15.9,14.9c0,0,0.1,3.1-0.2,4.9c-0.2,5-2.9,7.8-3.9,8.4l4.5,7.4l10.2-5.1
				c2-8.3,6.3-10.5,7.2-10.9l0.9-2.5l0,0C149.6,63.9,151.2,51.5,146.3,49.6z M140.1,67.5c-0.2,0.5-4.4,12.3-8.4,12.9l-0.4,0.1l0-0.4
				c0-0.3-0.5-8.4,0.5-12.1l0,0c1.1-2.5,1.2-2.5,1.5-2.5l0.1,0l3.4,0.7l3.5,1L140.1,67.5z"/>
		</g>
		<g>
			<path fill="#FFFFFF" d="M117.8,93.3c-0.7-3.7-0.7-6.9-0.6-8.6l-2.4,2.2c0,0-1,9.4,5.2,15.9l0,0c0,0,0.1,0.1,0.1,0.2
				c0.1,0.1,0.3,0.3,0.4,0.4c0,0,0,0,0,0c0.8,0.8,2.5,2.5,4.5,3.9C120.5,102.9,118.6,97.4,117.8,93.3z"/>
			<path fill="#FFFFFF" d="M169.9,86.1C169.8,86.1,169.8,86.1,169.9,86.1l0.1-2c-0.3-5.8-3.5-10.3-9.6-13.5c-3.7-2-7.5-2.8-8.8-3.1
				c0,0,0,0,0,0l-1.6-0.1l-0.9,2.4l-0.2,0.1c0,0-1.3,0.5-2.8,2c-1.4,1.4-3.3,4.1-4.4,8.9l0,0.2l-0.1,0.1l-11.2,5.6l-5.6-9.3l0.3-0.2
				c0.2-0.1,3.5-1.8,4.1-6.5c-1.7,1.7-6.8,6.8-10.8,12.4v0.8l0,0c-0.1,1.2-0.3,4.8,0.5,9.1c1,4.8,3.5,11.5,10.1,16.1
				c0.4,0.3,0.4,0.3,0.4,0.3c1.3,0.4,7.3,2.2,12-0.3c3.3-5.9,2.1-14,2.1-14c1.9,8.2-1.3,14.1-0.9,14.3c1.8,0.8,6.6,2.2,10.9-1.3l0,0
				l0,0c0,0,0,0,0,0l0.3,0c5.1,0.7,8.8-0.4,11.1-1.5c1.6-0.7,2.7-1.6,3.3-2.1c0,0,0,0,0,0c0,0,2.2-1.9,3.2-4.3
				c0.8-2,0.9-4.4,0.9-5.1h0c0,0,0,0,0-0.1c0-0.1,0-0.1,0-0.1s0,0,0,0C172.4,93.8,172.4,89,169.9,86.1z M132.3,105.7
				c-4.5,0.4-8.5-3.4-9-8.6c-0.5-5.2,2.7-9.8,7.2-10.2c4.5-0.4,8.5,3.4,9,8.6C140,100.7,136.7,105.2,132.3,105.7z M150.5,94.7
				c1.6-7,9.9-8.1,9.9-8.1s-7.4,2.1-9,8.5c-1.6,6.3,2.2,10.5,2.2,10.5S148.6,102.6,150.5,94.7z M171.4,96.9
				c-0.5,4.7-4.8,9.1-9.5,9.5c-0.4,0-0.8,0.1-1.1,0.1c-3.2,0-5.1-1.4-6-2.6c-1.5-1.8-2.1-4.5-1.5-7.4c0.7-3.4,3.7-7.4,8.8-8
				c0.5-0.1,0.9-0.1,1.4-0.1c2.6,0,4.8,0.9,6.2,2.5C171.1,92.4,171.7,94.5,171.4,96.9z"/>
		</g>
	</g>
	<path fill="#FFFFFF" d="M176.7,74.4c0,0,10.8-14.5,23-25.2l-27.3,33L176.7,74.4z"/>
	<polygon fill="#FFFFFF" points="151.3,61.2 165.4,50.1 151.1,63.6 	"/>
	<path fill="#FFFFFF" d="M180,56.8l22.3-25.4l-24.3,22.2c0,0,1,0.9,1.3,1.5C179.7,55.9,180,56.8,180,56.8z"/>
</g>
<g id="XMLID_9_">
	<g>
		<g>
			<g id="XMLID_10_">
				<g>
					<path fill="#FFFFFF" d="M284.9,187.8C284.9,187.8,284.9,187.8,284.9,187.8c-2.3,1.5-1.9,5.3-1.9,5.7l-0.1,27.8
						c-0.1,1.3-0.3,7.6,1.3,9.2c1.3,1.3,4.4,2,4.7,2.1c0.5,0.2,6.7,2.2,16,3.8l0.5,0.1c2.1,0.3,4.3,0.7,6.7,1
						c1.5,0.2,3.1,0.4,4.6,0.5c5.3,0.6,9.2,0.8,9.2,0.8c0.1,0,1.4,0.1,2.9,0.1c0.8,0,1.5,0,2.1-0.1v0c0,0,0,0,0.1,0
						c0.4,0,2.5-0.1,4.6-1.6c2.1-1.5,12.8-9.7,13.2-12.1c0.2-1.7,2.4-16.7,2.4-16.9l2-20.9c0.1-0.3,0.4-3.3-0.6-4.6
						c-0.9-1.1-4.6-2-5.8-2.2l-0.6-0.1c-1.5-0.3-4.3-0.9-9.3-1.4l-0.8-18l0-0.8l-5.8-0.2l-4.9,2l0.3,16.1l-1.7-0.1l-0.6-11.6
						l-4.9-0.3l-4.7,1.4l0.5,10l-1-0.1l-0.2-5.3l-5.4-0.7l-4.7,2l0.3,7.4l-16.4,6c-0.8,0.2-1.5,0.4-2,0.8l0.1,0 M285.5,188.8
						 M350.6,185.2l-11.7,8.3l-0.4,0.3c-0.1,0.1-0.2,0.1-0.3,0.1c-0.2,0-0.4-0.1-0.5-0.2c-0.2-0.3-0.1-0.6,0.1-0.8l12.1-8.6
						c0.3-0.2,0.6-0.1,0.8,0.1c0.1,0.1,0.1,0.2,0.1,0.2C350.8,184.9,350.7,185.1,350.6,185.2z M349.4,189.2l-9.3,6.1
						c-0.1,0.1-0.2,0.1-0.3,0.1c-0.2,0-0.4-0.1-0.5-0.3c0,0,0-0.1,0-0.1c-0.1-0.3,0-0.6,0.2-0.7l9.3-6.1c0.3-0.2,0.6-0.1,0.8,0.2
						C349.8,188.7,349.7,189,349.4,189.2z M336.2,185.5l-2.6,1.6l-0.9-23.9l2.6-1.2L336.2,185.5z M330.7,161.3l3.1,0.1l-1.8,0.9
						l-3.2-0.2L330.7,161.3z M331.5,163.4l0.9,24l-5.2-0.8l-0.4-23.5L331.5,163.4z M323.3,184l-2.5,1.4l-0.9-16.5l2.6-1L323.3,184z
						 M318.6,167.2l2.3,0.2l-2.1,0.8l-2.6-0.3L318.6,167.2z M318.7,169.1l0.9,16.6l-3.7-0.6l-0.8-16.4L318.7,169.1z M312.5,182.7
						l-2.8,1.2l-0.7-9.2l3.1-1.2L312.5,182.7z M308,172.7l2.3,0.3l-2,0.8l-2.3-0.2L308,172.7z M307.9,174.8l0.7,9.3l-3.8-0.5
						l-0.4-9.1L307.9,174.8z M331,237.7L331,237.7c-0.6,0.1-1.3,0.1-2.1,0.1c-1.4,0-2.8-0.1-2.8-0.1c0,0-3.9-0.2-9.2-0.8
						c-1.6-0.2-3.1-0.3-4.6-0.5c-2.4-0.3-4.6-0.6-6.6-1l-0.5-0.1c-9.5-1.6-15.8-3.7-15.8-3.8l-0.1,0c-0.9-0.2-3.3-0.9-4.2-1.8
						c-1-1-1.1-5.6-0.9-8.3l0.1-27.9v-0.1c0,0-0.4-3.5,1.3-4.6l0.1-0.1c0.5-0.3,1.1-0.5,1.8-0.6c0.7-0.1,1.5-0.2,2.4-0.2
						c1.5,0,2.8,0.2,2.8,0.2l39.6,6c0,0,3.3,0.4,5.2,2.2c1.8,1.7,0.9,6,0.9,6.1l-4.8,32.5C333.4,235,332.9,237.4,331,237.7z"/>
					<path fill="#FFFFFF" d="M329.6,200.4c2.2,2.3,1.3,5.6,1.3,5.7l-2.6,26.3v0v0c0,0.1,0,1.9-1.4,2.1c-0.4,0.1-1.1,0.1-1.9,0.1
						c-1.4,0-2.8-0.1-2.9-0.1c-0.1,0-8.6-0.1-16.4-1.4c-7.9-1.3-13.1-3.2-13.2-3.3c-0.7-0.2-2.6-1-3.3-1.8c-0.7-0.7-1.1-4.3-1.2-6.7
						l-0.1-14.8c-0.2-2.8-0.3-10.4,1.8-12.1c0.6-0.5,1.7-0.8,3.1-0.8c1.3,0,2.4,0.2,2.5,0.2l30.3,4.5
						C325.5,198.7,328.2,198.9,329.6,200.4z M326.7,213.5c0,0,0.7-2.2-2.3-3.1c-1.9-0.6-4.9-0.3-5.7,0.3c-0.4,0.3-0.5,1.7,0,1.9
						c0.5,0.3,2.3-0.3,4.1,0c1.9,0.3,2.1,2.4,2.7,2.3C326.2,214.8,326.7,213.5,326.7,213.5z M320.5,222.1c1.8,0,3.1-1.3,3.1-3
						c0-1.7-1.4-3-3.2-3c-0.2,0-0.3,0-0.5,0c-0.3,0-0.5,0.3-0.5,0.6c-0.1,0-0.2,0.1-0.4,0.2c-0.2-0.2-0.6-0.2-0.8,0
						c-0.5,0.5-0.8,1.3-0.8,2.2C317.5,220.8,318.8,222.1,320.5,222.1z M319.6,230.2c0.3,0,0.6-0.3,0.5-0.6c0-0.3-0.3-0.6-0.6-0.5
						c-1.1,0.1-11.2,0.4-24.1-4.4l-0.1,0c-0.3-0.1-0.6,0-0.7,0.3c-0.1,0.3,0,0.6,0.3,0.8l0.1,0.1c10.9,4.1,19.9,4.5,23.2,4.5
						C318.9,230.3,319.4,230.2,319.6,230.2z M298.9,209.6c0.3-0.4,0.1-0.7,0.1-0.7s-0.6-1.9-3.7-1.9c-1.5,0-3.1,1.1-3.6,2.1
						c-0.5,1-0.1,1.8-0.1,1.8s1.2-1.7,3.6-1.8c2.4,0,3.3,0.9,3.3,0.9S298.6,210,298.9,209.6z M298.8,216.2c0.1-0.9-0.1-1.7-0.5-2.4
						c-0.5-0.7-1.3-1.2-2.2-1.4c-0.6-0.1-1.2-0.1-1.7,0.1c-0.3,0.1-0.4,0.4-0.4,0.6c-0.1,0-0.2,0.1-0.3,0.2
						c-0.2-0.1-0.6-0.1-0.7,0.1c-0.3,0.4-0.6,0.9-0.6,1.5c-0.1,0.9,0.1,1.7,0.7,2.4c0.6,0.7,1.4,1.2,2.3,1.3c0.2,0,0.4,0.1,0.7,0.1
						c0.7,0,1.3-0.2,1.7-0.5C298.3,217.8,298.7,217.1,298.8,216.2z"/>
					<path fill="#FFFFFF" d="M322.5,219.1c0,1.1-0.8,1.9-1.9,1.9c-1.1,0-1.9-0.7-1.9-1.9c0-0.3,0.1-0.6,0.1-0.8
						c0.2,0.3,0.5,0.5,1,0.5c0.6,0,1-0.5,1-1.1c0-0.2,0-0.3-0.1-0.4C321.7,217.3,322.5,218,322.5,219.1z"/>
					<polygon fill="#FFFFFF" points="319.6,229.7 319.7,229.8 319.6,229.7 319.6,229.7 					"/>
					<path fill="#FFFFFF" d="M297.3,214.4c0.3,0.5,0.4,1,0.3,1.6c-0.1,0.6-0.3,1-0.7,1.3c-0.4,0.3-0.9,0.4-1.6,0.3
						c-0.6-0.1-1.2-0.4-1.6-0.9c-0.4-0.5-0.5-1-0.4-1.5c0-0.1,0.1-0.3,0.1-0.4c0.2,0.3,0.5,0.5,0.9,0.5c0.6,0,1.1-0.5,1.1-1.1
						c0-0.2-0.1-0.5-0.2-0.6c0.2,0,0.4,0,0.6,0C296.7,213.6,297.1,214,297.3,214.4z"/>
					<path fill="#FFFFFF" d="M285,187.7C285,187.7,285,187.7,285,187.7c-0.1,0-0.1,0.1-0.1,0.1l0,0L285,187.7z"/>
				</g>
			</g>
		</g>
	</g>
</g>
<g>
	
		<rect x="629.4" y="39.3" transform="matrix(-0.6275 0.7786 -0.7786 -0.6275 1063.9227 -411.4017)" fill="#FFFFFF" width="1.8" height="19.1"/>
	<path fill="#FFFFFF" d="M643.6,61.5c0,0,0.2-0.7,1.1-2c0,0-0.7,0-0.7,0.2c-0.1,0.1-1.1,1.6-1.1,1.6L643.6,61.5z"/>
	<path fill="#FFFFFF" d="M638.7,57.3l-0.4,3.9l6.2,3.6c0,0,0.7-0.2,0.5-1.3c0,0,1.4-3.5,2-3.8c0,0,1.1-0.7,1-1c0,0-3.6-3.4-4.2-3.4
		h-3.3l-1.8-1.2l-1.3,2L638.7,57.3z M644.9,57.7l0.9,0.7c-1.3,1.5-2.3,3.9-2.3,3.9l-1.4-0.7L644.9,57.7z M643.4,56.5l0.3,0.2
		l0.1,1.2l-1.3,0.2v1.1l-0.9,0.4l0,1.1l-0.7,0.4l-0.5-0.2C640.7,57.3,643.4,56.5,643.4,56.5z"/>
	
		<rect x="617.5" y="63.9" transform="matrix(-0.9709 -0.2396 0.2396 -0.9709 1220.3828 277.9702)" fill="#FFFFFF" width="19.1" height="1.8"/>
	<path fill="#FFFFFF" d="M676.4,43c0,0-6.9-3.5-7.9-4.2c-0.9-0.7-1.6-0.9-3.2-0.9c0,0-2.5-0.1-3-0.5c0,0-2.1,0.2-2.4,0.6
		c0,0-5.8-0.4-7.3,0c0,0-2.8,0.6-3.8,2.3c0,0-1.3,2.7-0.7,3.7c0,0,0.9,1.2,1.1,2.3c0,0,1.5,0.1,1.8,0.2c0.3,0.1,0.3,0.4,0.3,0.4
		l0.9-0.3c0,0,3.7,0.6,9.4,4c0,0-2.7,0.7-3.7,1.1c0,0-5.1-0.8-5.9-0.6l-0.5-0.5l-0.6,0.5l-0.7-0.1l-0.1,1c0,0-1.4-0.1-1.6-0.6
		l-0.2,1c0,0-0.7,0-0.7,0c0,0-1,2.6,1.3,4.1c0,0,3.3,2.1,12,3.6l0.1,3.9c0,0-2.7,3.7-6.9,5.5c0,0-0.2,0.2-0.3,0.1c0,0,0.2-3-0.8-3.8
		c0,0-1.3-0.7-2.9-0.6c0,0,0.1-3.2-3.1-5.1c0,0-0.6,1-1.4,3.1c0,0,0.7,1.7,0.5,2.1c0,0-0.2,0.1-0.4,0.2l0-0.5l-5.5-0.4
		c0,0-0.7,0.7-0.9,1.7l-2.3-0.5l-0.5,2.1l2.2,0.7l-0.1,2.6c0,0,0.8,1.6,7.2,1.6l-0.1-4c0.4-0.1,0.7-0.1,0.7-0.1c0,0,0.8,1.5,0.9,3.3
		c0.1,1.4,0.2,3.2,0.2,3.2s-3.6,2.1-4,2.6c0,0-6.2,3.6-8.6,5.4c-1.7,1.3-2.7,2.6-3.8,3.9c-1.5,1.7-2.5,2.5-2.5,2.5
		s-8.2,8.9-15.8,9.7c0,0-8.6,1.2-12.9-4c0,0-5.3-5.8,0.9-16.8c0,0-0.4-0.9-1.7,0c-1.3,0.9-0.6,0.9-1.5,1.9c0,0-4.7,10.3-1.5,17.7
		c0,0,3.1,9.5,22.4,9.5c0,0,16.3-0.5,16.9-0.7l0.7,0c0,0,0,0.7,0.3,0.8c0,0-0.5,1.9-0.7,2.9c0,0,0.8,2.8,0.7,3.3
		c0,0,0.4,3.7-2.4,4.7c0,0-5.9,0.9-5.4,2.5H642l5.9-0.4c0,0-0.1-1.1-1.1-1.4c0,0-1,0-1.1-0.4c0,0-1.1-0.3-1.7-0.2c0,0,0.1-1-0.6-1.7
		c0,0-0.7-1.4-0.6-2.1c0,0,0.4-1.5,0.8-1.7c0,0,1-1.6,0.6-2.9c0,0-0.2-1.6,0.1-2.5c0,0,1.1-2.5,1-2.9l6.4-0.1c0,0,0.5,0.5-0.3,2.4
		c0,0-0.7,1.8-0.5,3c0,0,0.2,0.3,0.5,0.4c0,0,1.4,0.3,0.8,4.6c0,0-0.6,3.5-0.4,3.6c0,0,1.7,0.3,1.7,0.5c0,0-0.6,0.9-0.3,1.4
		c0,0,1.1,0.8,4.9-0.3c0,0,3.1-0.2,3.8,0.1c0,0,0.1,0,0.1,0.1c0,0,2.3,0.4,4.3-0.2c0,0,2.5,0.2,2.8-0.4c0,0,0.1-0.5-3.1-1.9
		c0,0-2.8-1-3.6-1c0,0-1.6-0.3-2.4-1.7c0,0-0.6-0.4-0.8-1.4c0,0-0.8-1.6-1.2-2.3c0,0-0.2-4.2,1-5.9c0,0,4.5-3.6,5.2-5.8
		c0,0,1.9-3.5,4.8-5.2c0,0,3-2.9,4.6-8.1c0,0,1.2-2.4,2-3.6c0,0,1.7-3,3.3-11.1c0,0,0.8-6.4,0-11.4c0,0,0.4-6.4,1.3-7.7
		C680.2,53.4,681,44.6,676.4,43z M641.3,71.3c-0.3-0.1-0.7-0.1-0.8-0.2c-0.3-0.3,0.5-4.3,0.5-4.3c0.1-0.3,0.4-0.4,0.4-0.4l2.5,0.2
		c0.3,0,0.4,0.1,0.4,0.1c-0.1,0.1-0.3,0.1-0.4,0.2l0-0.3l-2-0.1l0.6,0.7l-0.9,0.8c0,0-0.3,0.4-0.3,0.9c0,0.5,0.2,1,0.2,1l0.5,1
		L641.3,71.3z M644.4,71.8c0,0-0.6-0.1-1.2-0.2l0.3-2c0.3-0.1,0.6-0.1,0.9-0.2L644.4,71.8z M650.7,70l-0.2-1.3c0,0,0.6,0.1,0.6,0.5
		C651.1,69.7,650.7,70,650.7,70z M663.8,41.2c0,0,1.1-1.2,2.2-0.6c1,0.6,1.4,2,1.4,2L663.8,41.2z"/>
	<path fill="#FFFFFF" d="M616.7,61.1c0,0-0.2-0.2-0.8-0.8c-0.5-0.6-2-0.8-2-0.8s-0.1,0-0.2,0.1l0-0.1l0.2-1.8l-2.4-2.8l-3,0.6l1,1
		l1.6-0.3l1.4,1.7l-0.7,1.3c0,0-1.1,0.9-1.2,1.4c-0.1,0.4,0.2,1.4,0.2,1.4l0.3,1.1l-0.5,1.1l-1.7,0.7l-1.1-1h-1.5l1.9,2.3l3.1-0.7
		l1-1.9l0.2-0.5c0.1,0.3,0.2,0.4,0.2,0.4s1,0.3,1.5,0.4c0.5,0.1,1.2-0.3,1.2-0.3l1.3,0l0.7-2.4L616.7,61.1z M612.5,61.5
		c-0.2,0-0.4-0.2-0.4-0.4c0-0.2,0.2-0.4,0.4-0.4c0.2,0,0.4,0.2,0.4,0.4C612.9,61.3,612.7,61.5,612.5,61.5z"/>
	<path fill="#FFFFFF" d="M622.7,41c0,0-0.1-0.3-0.3-1.1c-0.2-0.8-1.5-1.5-1.5-1.5l0.9-1.6l-1-3.5l-3.6-0.9l0.3,1.4l2.4,0.6l0.5,2.1
		l-1.2,0.9c0,0-1.4,0.4-1.6,0.8s-0.4,1.4-0.4,1.4l-0.2,1.1l-0.9,0.8h-1.8l-0.6-1.5l-1.5,0.1l1.6,2.6h3.3l1.1-1.1l0.2-0.2
		c0,0.1,0,0.2,0,0.2s0.8,0.7,1.2,1c0.4,0.3,1.2,0.2,1.2,0.2l1.2,0.6l1.6-1.9L622.7,41z M619.1,39.8c-0.2,0-0.4-0.2-0.4-0.4
		c0-0.2,0.2-0.4,0.4-0.4c0.2,0,0.4,0.2,0.4,0.4C619.5,39.6,619.3,39.8,619.1,39.8z"/>
</g>
<g>
	<path fill="#FFFFFF" d="M493.3,194.6c-0.9-6.9-7.2-11.6-7.2-11.6l-10.1,5.9l-12.1-4.6c0,0-6.2,5.4-5.7,14.6
		c0.4,8.7,7.9,12.5,7.9,12.5s5.6,3.1,11.6,2.6c6-0.4,10.3-4.4,10.3-4.4S494.6,204.2,493.3,194.6z M475.7,211.4
		c-8.3,0-15-5.3-15-11.9c0-6.6,3.4,2.6,14-1.5c14.9-5.7,16.1-5.1,16.1,1.5C490.8,206.1,484.1,211.4,475.7,211.4z"/>
	<path fill="#FFFFFF" d="M488.6,210.7c0,0-4,3.9-11,4.3c-8.4,0.5-12.1-3.1-12.1-3.1s-2.6,0.1-1.3,2.2l13.2,3.8l13.4-5.2
		C490.9,212.7,492.3,209.6,488.6,210.7z"/>
	<g>
		<path fill="#FFFFFF" d="M482.3,181.4c-0.9,1.1-3.7,2.4-6.9,2.4c-3,0-6-0.9-6.9-1.9l-3.7,1.9l11,3.5l9.2-4.9L482.3,181.4z"/>
		<g>
			<path fill="#FFFFFF" d="M480.1,179.6c-0.2-0.9-0.1-1.6-0.1-2.3c-2,0.5-3.7,0.6-5,0.6c-0.7,0-1.4,0-1.9-0.1
				c-1.2-0.1-2.1-0.4-2.4-0.5c0.1,0.8,0.1,1.7-0.2,2.8c-0.1,0.4-0.3,0.7-0.4,1l-1,0.5c0.7,0.6,3.1,1.6,6.3,1.6
				c3.1,0,5.5-1.3,6.3-2.1l-1.3-0.5C480.3,180.3,480.2,180,480.1,179.6z"/>
			<path fill="#FFFFFF" d="M475.3,166.8c-3.9,0-7,1-7.1,2.3v6c0.1,0.7,1,1.3,2.5,1.7c0,0,0,0,0,0c0.3,0.1,1.1,0.4,2.4,0.5
				c1.5,0.2,3.9,0.2,6.9-0.5c0,0,0,0,0,0c1.5-0.4,2.4-1.1,2.4-1.8c0-0.2,0-5.7,0-5.9C482.5,167.9,479.3,166.8,475.3,166.8z
				 M475.6,167.6c2.7,0,4.9,0.7,4.9,1.6c0,0.9-2.2,1.6-4.9,1.6c-2.7,0-4.9-0.7-4.9-1.6C470.7,168.3,472.9,167.6,475.6,167.6z
				 M481.6,171.3c0,0.1,0,0.3-0.2,0.4c-0.1,0.2-0.3,0.4-0.5,0.5c-0.2,0.2-0.5,0.4-0.8,0.5c-0.6,0.3-1.4,0.6-2.2,0.7
				c-0.4,0.1-0.8,0.2-1.3,0.2c-0.4,0-0.9,0.1-1.3,0.1l-0.7,0c-0.2,0-0.5,0-0.7,0c-0.4,0-0.9-0.1-1.3-0.2c-0.8-0.2-1.6-0.4-2.2-0.7
				c-0.3-0.2-0.6-0.3-0.8-0.5c-0.2-0.2-0.4-0.4-0.5-0.5c-0.1-0.1-0.1-0.2-0.1-0.2c0-0.1,0-0.1,0-0.2c0-0.1,0-0.2,0-0.2s0,0.1,0,0.2
				c0,0.1,0.1,0.2,0.2,0.4c0.3,0.3,0.7,0.5,1.3,0.7c0.3,0.1,0.6,0.2,1,0.3c0.4,0.1,0.7,0.1,1.1,0.2c0.4,0.1,0.8,0.1,1.2,0.1
				c0.2,0,0.4,0,0.6,0l0.6,0c1.7,0,3.4-0.2,4.6-0.7c0.6-0.2,1.1-0.5,1.3-0.7C481.4,171.5,481.5,171.4,481.6,171.3c0-0.1,0-0.2,0-0.2
				S481.6,171.2,481.6,171.3z"/>
		</g>
	</g>
	<path fill="#FFFFFF" d="M478.4,199.6c0,0,11.9-4.8,9.5-2.1C488,197.6,484,200.5,478.4,199.6z"/>
	<g>
		<g>
			<path fill="#FFFFFF" d="M456.7,198.8c0-0.5,0-1,0-1.5c-6.4,7.2-9.9,13.6-9.9,13.6l-16.6,8.2c0,0.2,0,0.5-0.1,0.7
				c0,0.1,2.2-0.4,3.8-0.8c-1.5,0.9-3.7,2.6-4.2,3.6c-1.2,2.3-1.3,2.4-1.3,2.4l19.5-12.3c0,0,3.3-2.5,11.1-6.5
				C457.8,204.3,456.9,201.8,456.7,198.8z"/>
			<path fill="#FFFFFF" d="M490.8,185.3c-1-3.2-2.2-7.2-2.4-7.1c-1.7,0.4-3.5,0.8-5.2,1.3C486.1,180.3,488.9,182.9,490.8,185.3z"/>
			<path fill="#FFFFFF" d="M459.7,207.3c-3.7,2-5.5,3.3-5.5,3.3l1.5-0.4c0,0,2-0.5,5.2-1.3C460.6,208.4,460.1,207.9,459.7,207.3z"/>
			<path fill="#FFFFFF" d="M552.5,180.8c-0.3-0.5-0.9-0.6-0.9-0.6l-2.8,0l-4.7,2.5l2.6-2.5l-2,0c0,0-7.9-0.5-10.6-0.7
				c-1.2-0.1-5.4-0.6-9.9-1.1c-0.2,0-2.3,8-2.5,8c-0.4,0,1.1-8.1,0.7-8.2c-5.5-0.6-10.8-1.3-10.8-1.3s-4-0.4-9.8-0.2
				c-0.1,0-0.1,6.6-0.3,6.6c-0.2,0-0.5-6.6-0.7-6.6c-3.3,0.1-7.2,0.5-11.2,1.2c-0.1,0,1.1,5,1.9,8.3c1.2,1.7,2.3,3.8,2.9,6.1
				c5.9-1.3,11.8-2.1,17.1-2.7c0.2,0,0.3-6.6,0.5-6.6c0.2,0,0.5,6.5,0.7,6.5c11.2-1.1,19.6-1,19.6-1s-20,1.6-37.6,5.5
				c0,0.1,0,0.1,0,0.2c0.4,3.2,0,6-0.7,8.4c1.5-0.2,2.9-0.3,4.2-0.3c2.5-0.1,7.4-0.2,12.8-0.5c0.3,0-2.1-9-1.8-9c0.3,0,2.6,9,2.9,9
				c5.4-0.4,11.6-1.1,16.1-2.2c0.2-0.1-4.5-8-4.3-8c0.1,0,5.2,7.8,5.3,7.7c0.8-0.2,1.5-0.4,2.1-0.7c8.4-3.8,16.1-11.1,16.1-11.1
				l4.6-4.9C552.1,182.4,552.8,181.3,552.5,180.8z"/>
		</g>
		<path fill="#FFFFFF" d="M429.4,219.7c0,0-0.4,0.7-0.1,0.7l0.5-0.4l0.2-0.7L429.4,219.7z"/>
		<path fill="#FFFFFF" d="M429.4,222c0,0-1.5,2.6-1.8,3.3l-1.3,0.8c0,0,0.8-1.7,1.2-3c0.3-0.8,2.3-2.4,3.9-2.8
			C431.4,220.2,429.9,221.4,429.4,222z"/>
	</g>
	<path fill="#FFFFFF" d="M460.9,220.9c-1.7,0-3.2,0.3-4.1,0.7c-1.3-0.2-3.2,0.9-4.6,0.9c-6.4,0-4.1,3.1-11,3
		c-6.9-0.1-9.1,1.6-9.1,3.4c0,1.9,4.3,3.4,9.6,3.4c4.4,0,8.1-1.1,9.2-2.5c0.6,0,1.2,0.1,1.8,0.1c6.4,0,11.7-2.7,11.1-4.2
		c-0.7-1.8,2.3-2.2,2.3-2.9C466.2,221.8,463.8,220.9,460.9,220.9z M440.7,230.7c-5.7-0.4-6.5-2.4-6.5-2.4s1.8,1.3,6.5,1.8
		c4.6,0.4,7.6-1,7.6-1S446.4,231.1,440.7,230.7z"/>
	<path fill="#FFFFFF" d="M466.6,225c0-0.6,1.8-1.7,3.6-1.1c1.9,0.6,3.6,0.5,3.6,1.1c0,0.6-1.6,1.1-3.6,1.1
		C468.2,226.1,466.6,225.6,466.6,225z"/>
</g>
<g id="XMLID_3_">
	<g>
		<g id="XMLID_4_">
			<g>
				<path fill="#FFFFFF" d="M307.3,354.9L307.3,354.9C307.2,355,307.2,354.9,307.3,354.9L307.3,354.9z"/>
				<path fill="#FFFFFF" d="M325.5,341.8c0.2,0.2,4.5,4.6,3,11.2C328.7,352.6,332,345.8,325.5,341.8z M322.4,343.9
					c0.2,0.2,4.4,4.8,2.6,11.3C325.3,354.8,328.8,348.1,322.4,343.9z M307,339.1l0.1-0.1l0-0.2c0-1.3-0.2-2.4-0.9-3.1
					c0,0,0.1,0,0.1-0.1c4.2-3.5,7.6-5.5,9.2-6.4c0,0,0,0,0.1,0c0,0,0,0,0,0c0.4-0.2,0.7-0.4,0.7-0.4c0.1,0,1-0.4,2.2-1.1
					c-0.4,1.7-0.6,2.9-0.7,3.1c-0.2,0.3-1.5,2.6-5.4,4.8c-0.2,0.1-0.3,0.4-0.2,0.6c0.1,0.1,0.2,0.2,0.4,0.2c0.1,0,0.1,0,0.2-0.1
					c4.6-2.5,5.8-5.1,5.8-5.2l0-0.1c0,0,0.3-1.6,0.9-4.2c0,0,0,0,0,0v0c1.2-4.9,3.1-12.2,5.6-18.8l0,0l0,0c1.3-3.4,2.7-6.3,4-8.6
					c0,0,0,0,0,0c0.7-1.2,1.4-2.2,2.2-3.1c-0.1,1.1-0.3,2.9-0.4,5c0,0,0,0,0,0c-0.8,13.7,1,14.5,1.6,14.8c0.6,0.3,1.3,0.1,2-0.6
					c0.2-0.2,0.2-0.4,0-0.6s-0.4-0.2-0.6,0c-0.3,0.3-0.7,0.6-1,0.5c-0.4-0.2-1.8-1.7-1.2-13c7.6,6.9,10.2,14.1,10.2,14.2
					c3.4,11.3,3.7,20.7,0.8,28c-3-1.7-3.7-3-3.7-3c-0.1-0.2-0.4-0.3-0.6-0.2c-0.2,0.1-0.3,0.4-0.2,0.6c0,0.1,0.8,1.6,4.5,3.6
					c0,0,0,0,0.1,0c0,0,0,0,0,0c3.8,2,11.2,4.8,25.3,6.7c-3.6,1.4-14.4,4.5-35.5,3.6c-1.5-0.1-3.1-0.1-4.7-0.3
					c-0.3,0-0.5,0.2-0.5,0.4c0,0.2,0.2,0.5,0.4,0.5c1.2,0.1,2.4,0.2,3.5,0.2c-1.6,0.9-4.9,2.8-9.1,4.8
					C322.4,357.8,321.3,341.2,307,339.1z M328.3,339.9c0.3,0.2,5,4.2,4.1,10.9C332.3,350.8,335.3,343.3,328.3,339.9z"/>
				<path fill="#FFFFFF" d="M306.3,339.9c14.7,1.6,15.3,19.2,15.4,21.6l-1.3,0.6c-1.2-13-6.3-19.8-15.6-20.6L306.3,339.9z"/>
				<path fill="#FFFFFF" d="M305.4,335c-0.5-0.8-5.5-8.7-2.3-19c1,2.8,4.2,9.4,11.4,12.9c-1.8,1.1-4.9,3-8.7,6.1
					c-0.1,0.1-0.1,0.1-0.1,0.2C305.6,335.1,305.6,335,305.4,335L305.4,335L305.4,335z"/>
				<path fill="#BF2026" d="M301.2,336.8L301.2,336.8L301.2,336.8C301.1,336.8,301.1,336.8,301.2,336.8z"/>
				<polygon fill="#FFFFFF" points="299.2,338.4 300.8,337.1 300.9,337.4 299.2,338.9 				"/>
				<path fill="#FFFFFF" d="M300,336.6l0.4-0.3l0.1,0.3c0,0,0,0.1,0.1,0.1l-0.4,0.3L300,336.6z"/>
				<polygon fill="#FFFFFF" points="300.2,337 299.6,337.4 299.6,336.9 300,336.6 				"/>
				<polygon fill="#FFFFFF" points="299.6,336 300,336.6 299.6,336.9 				"/>
				<polygon fill="#FFFFFF" points="300.3,337.3 299.6,337.9 299.6,337.4 300.2,337 				"/>
				<polygon fill="#FFFFFF" points="300.3,337.3 300.2,337 300.5,336.7 300.8,337.1 299.2,338.4 299.2,337.8 299.6,337.4 
					299.6,337.9 				"/>
				<polygon fill="#FFFFFF" points="299.2,334.3 300.3,336.3 300,336.6 299.6,336 299.6,336.9 299.2,337.2 				"/>
				<polygon fill="#FFFFFF" points="299.2,337.2 299.6,336.9 299.6,337.4 299.2,337.8 				"/>
				<path fill="#FFFFFF" d="M298.5,310.8c2.3-3.2,6.1-15.2,6.5-16.7l0-0.1l0-0.1c-2.7-12-4.3-18-5.4-21.1l16,19.7l0.1,0
					c4.6,1.7,8.9,3.9,12.6,6.7c-1.2,2.1-2.4,4.6-3.6,7.5c-3.4-6.5-10.2-8.1-10.9-8.3c-0.5-0.2-4-1.2-8.9,7
					C302.1,310.3,299.7,310.9,298.5,310.8z"/>
				<path fill="#FFFFFF" d="M298.7,338.7v1.2l2.7-2.4l-0.4-0.6l0.1,0l1.3-1l0,0l0.6-0.5c0.3,0,1.1,0,1.8,0.4l0,0l0.1,0.1
					c0.8,0.5,1.2,1.5,1.2,2.9l-0.5,0.5l0,0l-2.4,2.5l0,0l-2,2.2c0,0,0-0.1,0-0.1c0-2.1-1.7-3.8-3.8-3.8h-0.2L298.7,338.7z"/>
				<path fill="#BF2026" d="M298.5,270C298.5,269.9,298.5,269.9,298.5,270C298.5,269.9,298.5,269.9,298.5,270z"/>
				<path fill="#BF2026" d="M298.5,269.9c0,0-0.1,0-0.1,0C298.4,269.9,298.4,269.9,298.5,269.9z"/>
				<path fill="#BF2026" d="M298.3,269.9c0,0-0.1,0-0.1,0C298.3,269.8,298.3,269.8,298.3,269.9z"/>
				<path fill="#BF2026" d="M298.1,269.9C298.1,269.9,298,269.9,298.1,269.9C298,269.9,298,269.9,298.1,269.9
					C298,269.9,298.1,269.9,298.1,269.9z"/>
				<path fill="#BF2026" d="M297.9,270C297.9,270,297.9,270,297.9,270C297.9,270,297.9,270,297.9,270z"/>
				<path fill="#BF2026" d="M297.9,270.1c0,0,0,0.1,0,0.1C297.8,270.1,297.8,270.1,297.9,270.1z"/>
				<path fill="#BF2026" d="M297.8,270.2c0,0,0,0.1,0,0.1C297.8,270.2,297.8,270.2,297.8,270.2z"/>
				<path fill="#FFFFFF" d="M296.5,345.5c0.7,0,1.2-0.5,1.2-1.2c0-0.6-0.5-1.2-1.2-1.2c-0.6,0-1.2,0.5-1.2,1.2
					c0,0.2,0.1,0.4,0.1,0.6C295.7,345.3,296.1,345.5,296.5,345.5z M299.1,346.2c-0.5,0.3-1,0.5-1.6,0.5h-0.3c-0.8,0-1.6-0.3-2.1-0.9
					c0,0,0,0,0,0c-0.1-0.1-0.1-0.2-0.2-0.3c-0.4-0.5-0.6-1.1-0.6-1.8c0-0.8,0.3-1.5,0.9-2.1c0.1-0.1,0.3-0.3,0.4-0.4c0,0,0,0,0,0
					c0.5-0.3,1-0.5,1.6-0.5h0.3c1.6,0,3,1.3,3,3c0,0.5-0.1,1-0.4,1.5L299.1,346.2L299.1,346.2z"/>
				<path fill="#FFFFFF" d="M292.7,366.6c3.2,0,7.2-0.3,11.9-1c0.2,0,0.4-0.3,0.4-0.5c0-0.2-0.3-0.4-0.5-0.4
					c-6.2,0.9-11.1,1.2-14.5,0.9c-4.2-0.3-5.6-1.4-6-2.3c-0.5-1,0.2-2.1,0.2-2.1c3.2-5.1,7.1-10.4,10.7-14.5
					c0.7,0.6,1.5,0.8,2.4,0.8h0.3c0.8,0,1.5-0.2,2.1-0.7c0,0,0,0,0,0c0.4-0.3,0.8-0.7,1.1-1.2l0,0l3.1-3.2
					c9.3,0.5,14.4,7.1,15.6,20.2c-6.5,2.8-15.9,6.1-24.5,6.1c-2.4,0-3.7-1.3-4.2-2.1C291.3,366.6,292,366.6,292.7,366.6z
					 M310.6,357.8c1.7,0,3-1.5,3-3.3c0-1.2-0.6-2.2-1.5-2.8c0.4-0.3,0.6-0.5,0.6-0.5c0.2-0.2,0.2-0.4,0-0.6c-0.2-0.2-0.4-0.2-0.6,0
					c0,0-0.4,0.3-1,0.9l-3.9,3.5l-0.1,0c0,0,0,0,0,0.1l-3.9,3.5c-4.2,3.8-8,2.1-8.2,2c-0.2-0.1-0.5,0-0.6,0.2
					c-0.1,0.2,0,0.5,0.2,0.6c0.1,0,1.1,0.5,2.7,0.5c1.7,0,4-0.5,6.4-2.7l3.6-3.2c0.5,1.1,1.6,1.9,2.7,1.9H310.6z"/>
			</g>
			<g>
			</g>
		</g>
	</g>
</g>
<g>
	<path fill="#FFFFFF" d="M651.6,321.2c-2.3,1.5-4.4,3.1-6.4,4.7c-5,4.1-9.8,7-11.6,7.9c-4.3,2.3-6.8,2.2-6.6-1.3
		c0.5-4.6,0.7-8.9,0.4-12.8c-2.1,0.8-6.5,1.8-13.9,1.8c-7.5,0-12.1-1.1-14.3-1.9c-0.5,5.2-0.2,11.4,1.7,18.8
		c2.8,11.5,10.5,14.1,19.1,14.5c11.8,0.5,26.8-8.5,34-16.3c3.1-3.3,4.4-5,5.4-5.9C657.2,327.3,654.6,324.1,651.6,321.2z
		 M634.5,346.5c-3.5,1.4-23.1,9.7-29.7-5.7c-2.8-6.5-2.4-16.9-2.4-16.9s0,0,2,0.2c2,0.2,2,1.2,2,1.2s-1.4,9,0.4,13.5
		c1.6,4.1,4,7.5,8.5,8.8c4,1.2,8.4,1.5,16.3-1.1c7.8-2.6,17.5-8.8,17.5-8.8S639.8,344.4,634.5,346.5z"/>
	<path fill="#FFFFFF" d="M613.5,319.6c7.8,0,12-1.2,13.7-1.9c0-0.1,0-0.2,0-0.3l0.1,0.3c3-5-2.4-7-2.4-7v0
		c-4.3-2.2-19.6-2.2-23.3,0.2c-1.3,0.7-4.5,2.8-2.1,6.8C601.3,318.3,605.8,319.6,613.5,319.6z M613.7,310.6c5.4,0,9.7,0.6,9.7,1.3
		c0,0.7-4.3,1.3-9.7,1.3c-5.4,0-9.7-0.6-9.7-1.3C604,311.2,608.3,310.6,613.7,310.6z"/>
	<path fill="#FFFFFF" d="M690,311.3c-14.2-2.2-26.7,2.4-36.5,8.6c2.8,2.5,5.4,5.6,7.7,9.1c0.4-0.4,0.8-0.9,1.4-1.6
		c8.9-9.8,18.8-12.3,29.3-11.6C697.6,317.6,695,307.4,690,311.3z"/>
</g>
<g>
	<path fill="#FFFFFF" d="M162,367.2c-9.1,0-16.7-3.1-17.8-7c-0.1,0.3-0.2,0.7-0.2,1c0,4.5,8,8.1,18,8.1c9.9,0,18-3.6,18-8.1
		c0-0.4-0.1-0.7-0.2-1C178.7,364.1,171.2,367.2,162,367.2z"/>
	<path fill="#FFFFFF" d="M168.9,359.2c-5.5,0.1-11.4-2.6-12.6-6.2c-0.2-0.7-0.4-1.1-0.3-1.7c-0.1,0.2-0.5,1.6,0.2,3.2
		c1.3,3.4,6.7,5.8,12.2,5.8c4.5-0.1,7.7-1.6,8-4.2C175.3,357.9,172.6,359.1,168.9,359.2z"/>
	<path fill="#FFFFFF" d="M176.6,352.1c-1.3-3.4-6.8-6.2-12.3-6.1c-5.5,0.1-8.9,2.9-7.7,6.4c1.3,3.4,6.8,6.1,12.3,6.1
		C174.5,358.4,177.9,355.5,176.6,352.1z M164.2,346.7c0.2-0.2,0.6-0.4,1.1-0.4c0.3,0,0.7,0.1,1,0.2c0.8,0.3,1.1,0.9,0.8,1.3
		c-0.2,0.3-0.6,0.4-1.1,0.4c-0.3,0-0.7-0.1-1-0.2C164.2,347.8,163.9,347.2,164.2,346.7z M169.9,351.3c0.3,1.4-1.1,2.4-3.1,2.4
		c-2,0-3.9-1.1-4.2-2.5c-0.3-1.4,1.1-2.4,3.1-2.4C167.8,348.8,169.6,349.9,169.9,351.3z M158.2,348.6c0.2-0.1,0.4-0.1,0.6-0.1
		c0.6,0,1.2,0.2,1.6,0.5c0.5,0.5,0.4,1.1-0.3,1.3c-0.2,0.1-0.4,0.1-0.6,0.1c-0.6,0-1.2-0.2-1.6-0.5
		C157.3,349.4,157.5,348.9,158.2,348.6z M157.1,351.9c-0.2-0.5,0.4-0.9,1.2-1c0,0,0,0,0,0c0.9,0,1.7,0.4,1.9,1
		c0.2,0.5-0.4,0.9-1.2,1c0,0,0,0,0,0C158.2,352.9,157.3,352.4,157.1,351.9z M160.9,355.4C160.8,355.4,160.8,355.4,160.9,355.4
		c-0.9,0-1.7-0.4-2-0.9c-0.2-0.5,0.2-1,1.1-1c0,0,0.1,0,0.1,0c0.8,0,1.6,0.4,1.9,0.9C162.2,354.9,161.7,355.3,160.9,355.4z
		 M161.9,348.7c-0.9,0-1.7-0.5-1.8-1c-0.1-0.5,0.4-0.9,1.2-0.9c0.1,0,0.1,0,0.2,0c0.9,0,1.6,0.5,1.8,1c0.1,0.5-0.4,0.9-1.2,0.9
		C162,348.7,161.9,348.7,161.9,348.7z M164.9,357c-0.2,0.1-0.5,0.2-0.8,0.2c-0.5,0-1.1-0.1-1.5-0.4c-0.6-0.4-0.6-1,0-1.3
		c0.2-0.1,0.5-0.2,0.8-0.2c0.5,0,1.1,0.1,1.5,0.4C165.5,356.1,165.5,356.7,164.9,357z M168.6,357.9c-0.1,0-0.1,0-0.2,0
		c-0.8,0-1.5-0.3-1.8-0.8c-0.3-0.5,0.1-1,0.9-1.1c0.1,0,0.1,0,0.2,0c0.8,0,1.5,0.3,1.8,0.8C169.9,357.3,169.5,357.8,168.6,357.9z
		 M166.8,354.9c-2.1,0-4.2-1.1-4.5-2.5c-0.1-0.4,0-0.8,0.2-1.2c0,0.1,0,0.1,0,0.2c0.3,1.4,2.3,2.6,4.4,2.6c1.5,0,2.6-0.6,3.1-1.4
		C170.1,354,168.8,354.9,166.8,354.9z M168.5,348.6c-0.5-0.5-0.3-1.1,0.4-1.3c0.2-0.1,0.4-0.1,0.6-0.1c0.6,0,1.3,0.2,1.7,0.6
		c0.5,0.5,0.3,1.1-0.4,1.3c-0.2,0.1-0.4,0.1-0.6,0.1C169.5,349.1,168.9,348.9,168.5,348.6z M172.6,357.2c-0.1,0-0.2,0-0.4,0
		c-0.7,0-1.4-0.3-1.8-0.7c-0.4-0.5-0.1-1,0.7-1.2c0.1,0,0.2,0,0.4,0c0.7,0,1.4,0.3,1.8,0.7C173.7,356.5,173.4,357.1,172.6,357.2z
		 M175.6,355.1c-0.2,0.2-0.6,0.3-1,0.3c-0.4,0-0.8-0.1-1.2-0.3c-0.7-0.4-1-1-0.5-1.4c0.2-0.2,0.6-0.3,1-0.3c0.4,0,0.8,0.1,1.2,0.3
		C175.8,354.1,176,354.7,175.6,355.1z"/>
	<path fill="#FFFFFF" d="M154.4,347.3c0,0-0.6,1.4,0.2,2c0.7,0.6,1.5,0.4,1.5,0.4s0.4-2.2,3.3-3.2c2.9-1,3.4-0.8,3.4-0.8v-36
		c0,0-1.3,0.4-4.3,0.4c-2.9,0-4-0.4-4-0.4L154.4,347.3z"/>
	<path fill="#FFFFFF" d="M163.6,308c0,0-0.1-0.1-0.1-0.1c-0.1-0.1-0.2-0.1-0.3-0.2c-0.6-0.4-1.6-1.3-2-2c-0.7-1-0.7-3-0.7-3
		s-0.7-0.1-1.9-0.6c-1.4-0.6-1.8-1.1-1.8-1.1v2.4c0,0,0,0.8-1,2.2c-0.6,1-1.5,1.7-2,2.1c-0.2,0.1-0.3,0.2-0.4,0.3c0,0,0,0,0,0h0
		c0,0.1-0.1,0.1-0.1,0.2c0,0.6,2.3,1.1,5.1,1.1c2.8,0,5.1-0.5,5.1-1.1C163.6,308.2,163.6,308.1,163.6,308z"/>
	<g>
		<path fill="#FFFFFF" d="M164.9,279.4c-6.3-0.6-10.7,4.2-10.7,10.5c0,6.4,5.1,11.5,11.4,11.5c6.3,0,9.9-3.9,9.6-11.1
			C174.9,283.2,169.1,279.8,164.9,279.4z M171.7,296c-1.3,1.4-3,2.1-4.9,2.1c-0.1,0-0.2,0-0.4,0c-4.2-0.2-7.8-4.1-8-8.7
			c-0.1-2.3,0.6-4.4,2.1-5.9c1.4-1.4,3.3-2.2,5.3-2.1c4.2,0.2,7.8,4.1,8,8.7C173.9,292.4,173.2,294.5,171.7,296z"/>
		<g>
			<path fill="#FFFFFF" d="M162.6,289.3c0.1,0,0.2-0.1,0.3-0.2c0.1-0.2,0-0.4-0.2-0.4c0,0-0.1,0-0.1,0c-0.1,0-0.2,0.1-0.3,0.2
				c-0.1,0.2,0,0.3,0.2,0.4C162.5,289.2,162.5,289.3,162.6,289.3z"/>
			<path fill="#FFFFFF" d="M164.2,291.1c0,0,0,0-0.1,0.1c-0.1,0.1-0.1,0.3,0.1,0.5c0.1,0.1,0.1,0.1,0.2,0.1c0.1,0,0.2,0,0.2-0.1
				c0.1-0.1,0.1-0.1,0.1-0.1C164.8,291.2,164.5,291.1,164.2,291.1z"/>
			<path fill="#FFFFFF" d="M163.8,288.1c-0.1,0-0.2,0-0.2,0.1c-0.1,0.1,0,0.3,0.1,0.5c0,0,0.1,0.1,0.2,0.1c0.1,0,0.2,0,0.3-0.1
				c0.1-0.1,0-0.4-0.1-0.5C163.9,288.1,163.8,288.1,163.8,288.1z"/>
			<path fill="#FFFFFF" d="M162.9,288.2c0.1,0,0.2-0.1,0.3-0.2c0.1-0.2,0-0.4-0.2-0.4c0,0-0.1,0-0.1,0c-0.1,0-0.2,0.1-0.3,0.2
				c-0.1,0.2,0,0.3,0.2,0.4C162.8,288.2,162.8,288.2,162.9,288.2z"/>
			<path fill="#FFFFFF" d="M162.9,290.1c0-0.2-0.1-0.4-0.3-0.4c0,0,0,0,0,0c-0.1,0-0.3,0.1-0.3,0.3c0,0.2,0.1,0.4,0.3,0.4
				c0,0,0,0,0,0C162.7,290.3,162.8,290.2,162.9,290.1z"/>
			<path fill="#FFFFFF" d="M163.7,290.2c0,0-0.1,0-0.1,0c-0.1,0.1-0.2,0.3-0.1,0.4c0,0.1,0.2,0.2,0.3,0.2c0,0,0.1,0,0.1,0
				c0.2-0.1,0.2-0.2,0.1-0.4C163.9,290.3,163.8,290.3,163.7,290.2z"/>
			<path fill="#FFFFFF" d="M163.5,289.8c0.2,0,0.3-0.1,0.3-0.3c0-0.2-0.1-0.3-0.3-0.3c-0.2,0-0.3,0.1-0.3,0.3
				C163.2,289.6,163.3,289.8,163.5,289.8z"/>
			<path fill="#FFFFFF" d="M164.3,292.3C164.3,292.3,164.3,292.3,164.3,292.3c-0.2,0-0.3,0.2-0.3,0.3c0,0.2,0.2,0.3,0.3,0.3
				c0,0,0,0,0,0c0.2,0,0.3-0.2,0.3-0.3C164.6,292.4,164.5,292.3,164.3,292.3z"/>
			<path fill="#FFFFFF" d="M163.5,291.6c-0.1,0-0.1,0-0.2,0c-0.1,0.1-0.2,0.3-0.1,0.4c0.1,0.1,0.2,0.2,0.3,0.2c0.1,0,0.1,0,0.2,0
				c0.1-0.1,0.2-0.3,0.1-0.4C163.7,291.7,163.6,291.6,163.5,291.6z"/>
			<path fill="#FFFFFF" d="M162.9,290.7C162.8,290.7,162.8,290.7,162.9,290.7c-0.2,0-0.3,0.2-0.3,0.4c0,0.2,0.2,0.3,0.3,0.3
				c0,0,0,0,0.1,0c0.2,0,0.2-0.2,0.2-0.4C163.1,290.8,163,290.7,162.9,290.7z"/>
			<path fill="#FFFFFF" d="M167,288.2c-0.2,0-0.3,0.2-0.3,0.3c0,0.2,0.2,0.3,0.3,0.3c0.2,0,0.3-0.2,0.3-0.3
				C167.3,288.4,167.2,288.2,167,288.2C167,288.2,167,288.2,167,288.2z"/>
			<path fill="#FFFFFF" d="M167,287.5c0.1,0,0.2-0.1,0.3-0.2c0.1-0.2,0-0.4-0.2-0.4c0,0-0.1,0-0.1,0c-0.1,0-0.2,0.1-0.3,0.2
				c-0.1,0.2,0,0.4,0.2,0.4C166.9,287.5,167,287.5,167,287.5z"/>
			<path fill="#FFFFFF" d="M167.2,289.4c0,0.2,0.2,0.3,0.3,0.3c0.2,0,0.3-0.2,0.3-0.3c0-0.2-0.2-0.3-0.3-0.3c0,0,0,0,0,0
				C167.3,289.1,167.2,289.3,167.2,289.4z"/>
			<path fill="#FFFFFF" d="M167.9,288.3c0.1,0,0.2-0.1,0.3-0.2c0.1-0.2,0-0.4-0.2-0.4c0,0-0.1,0-0.1,0c-0.1,0-0.2,0.1-0.3,0.2
				c-0.1,0.2,0,0.4,0.2,0.4C167.8,288.2,167.8,288.2,167.9,288.3z"/>
			<path fill="#FFFFFF" d="M163.7,287.3c0,0,0.1,0,0.1,0c0.1-0.1,0.2-0.3,0.1-0.4c-0.1-0.1-0.2-0.2-0.3-0.2c0,0-0.1,0-0.1,0
				c-0.1,0.1-0.2,0.3-0.1,0.4C163.5,287.3,163.6,287.3,163.7,287.3z"/>
			<path fill="#FFFFFF" d="M164.7,286.9C164.7,286.9,164.7,286.9,164.7,286.9c0.2,0,0.3-0.2,0.3-0.3c0-0.2-0.2-0.3-0.3-0.3
				c0,0,0,0,0,0c-0.2,0-0.3,0.1-0.3,0.3C164.4,286.7,164.5,286.9,164.7,286.9z"/>
			<path fill="#FFFFFF" d="M164.4,288.1c0.1,0,0.1,0,0.2,0c0.1-0.1,0.2-0.3,0.1-0.5c-0.1-0.1-0.2-0.2-0.3-0.2c-0.1,0-0.1,0-0.2,0
				c-0.1,0.1-0.2,0.3-0.1,0.5C164.3,288,164.4,288.1,164.4,288.1z"/>
			<path fill="#FFFFFF" d="M165.3,287.9c0.2,0,0.3-0.2,0.3-0.3c0-0.2-0.2-0.3-0.3-0.3c0,0,0,0,0,0c-0.2,0-0.3,0.2-0.3,0.3
				C165,287.7,165.2,287.8,165.3,287.9z"/>
			<path fill="#FFFFFF" d="M166.3,289.3c0,0.2,0.1,0.4,0.2,0.4c0,0,0.1,0,0.1,0c0.1,0,0.3-0.1,0.3-0.2c0-0.2-0.1-0.4-0.2-0.4
				c0,0-0.1,0-0.1,0C166.5,289.1,166.4,289.2,166.3,289.3z"/>
			<path fill="#FFFFFF" d="M165.7,282.1c-0.1,0-0.2,0-0.3,0c-1.7,0-3.3,0.7-4.4,1.9c-1.3,1.4-2,3.3-1.9,5.4c0.2,4.2,3.5,7.8,7.4,8
				c1.8,0.1,3.5-0.6,4.8-1.9c1.3-1.4,2-3.3,1.9-5.4C173,285.9,169.6,282.3,165.7,282.1z M165.8,294.5c-2.4-0.1-4.5-2.4-4.6-5
				c-0.1-2.6,1.7-4.7,4.2-4.5c2.4,0.1,4.5,2.4,4.6,5C170,292.6,168.2,294.6,165.8,294.5z"/>
			<path fill="#FFFFFF" d="M166.3,291.5c0,0-0.1,0-0.1,0c-0.1,0.1-0.2,0.3-0.1,0.4c0,0.1,0.2,0.2,0.3,0.2c0,0,0.1,0,0.1,0
				c0.2-0.1,0.2-0.2,0.1-0.4C166.6,291.6,166.4,291.5,166.3,291.5z"/>
			<path fill="#FFFFFF" d="M167.7,290.5c0-0.2-0.2-0.3-0.3-0.3c0,0,0,0,0,0c-0.2,0-0.3,0.2-0.3,0.3c0,0.2,0.2,0.3,0.3,0.3
				C167.6,290.8,167.8,290.6,167.7,290.5z"/>
			<path fill="#FFFFFF" d="M167.1,291.6c0,0,0.1,0,0.1,0c0.2-0.1,0.2-0.2,0.1-0.4c-0.1-0.1-0.2-0.2-0.3-0.2c0,0-0.1,0-0.1,0
				c-0.2,0.1-0.2,0.3-0.1,0.4C166.8,291.6,167,291.6,167.1,291.6z"/>
			<path fill="#FFFFFF" d="M166.5,290.2C166.5,290.2,166.4,290.1,166.5,290.2c-0.2,0-0.3,0.1-0.4,0.2c0,0.2,0.1,0.4,0.2,0.4
				c0,0,0.1,0,0.1,0c0.1,0,0.3-0.1,0.3-0.2C166.8,290.4,166.7,290.2,166.5,290.2z"/>
			<path fill="#FFFFFF" d="M167.2,292.3C167.2,292.3,167.2,292.3,167.2,292.3c-0.2,0-0.3,0.1-0.3,0.2c0,0.2,0.1,0.4,0.3,0.4
				c0,0,0,0,0,0c0.2,0,0.3-0.1,0.3-0.3C167.5,292.5,167.4,292.3,167.2,292.3z"/>
			<path fill="#FFFFFF" d="M168.5,289.9c0,0-0.1,0-0.1,0c-0.1,0.1-0.2,0.3-0.1,0.4c0.1,0.1,0.2,0.2,0.3,0.2c0,0,0.1,0,0.1,0
				c0.2-0.1,0.2-0.3,0.1-0.4C168.8,290,168.7,289.9,168.5,289.9z"/>
			<path fill="#FFFFFF" d="M168.1,288.9c-0.1,0.2,0,0.4,0.2,0.4c0,0,0.1,0,0.1,0c0.1,0,0.2-0.1,0.3-0.2c0.1-0.2,0-0.4-0.2-0.4
				c0,0-0.1,0-0.1,0C168.3,288.7,168.2,288.8,168.1,288.9z"/>
			<path fill="#FFFFFF" d="M168.4,290.9C168.4,290.9,168.3,290.9,168.4,290.9c-0.2,0-0.3,0.2-0.3,0.4c0,0.2,0.2,0.3,0.3,0.3
				c0,0,0,0,0,0c0.2,0,0.3-0.2,0.2-0.4C168.6,291,168.5,290.9,168.4,290.9z"/>
			<path fill="#FFFFFF" d="M167.9,291.7C167.9,291.7,167.9,291.7,167.9,291.7c-0.2,0-0.3,0.1-0.3,0.2c0,0.2,0.1,0.4,0.3,0.4
				c0,0,0,0,0,0c0.2,0,0.3-0.1,0.3-0.3C168.2,292,168.1,291.8,167.9,291.7z"/>
			<path fill="#FFFFFF" d="M164.6,289.9c0,0-0.1,0-0.1,0c-0.2,0.1-0.2,0.3-0.1,0.4c0.1,0.1,0.2,0.2,0.3,0.2c0,0,0.1,0,0.1,0
				c0.2-0.1,0.2-0.3,0.2-0.4C164.8,290,164.7,289.9,164.6,289.9z"/>
			<path fill="#FFFFFF" d="M165.4,291.6c0,0-0.3,0.1-0.3,0.1c0,0,0,0,0,0.2c0,0.2,0.1,0.4,0.3,0.4c0,0,0,0,0.1,0
				c0.1,0,0.3-0.1,0.3-0.3c0-0.2,0-0.2,0-0.2C165.5,291.8,165.5,291.6,165.4,291.6z"/>
			<path fill="#FFFFFF" d="M165.5,290.6C165.5,290.6,165.5,290.6,165.5,290.6c-0.2,0-0.3,0.1-0.3,0.2c0,0.2,0.1,0.4,0.2,0.4
				c0,0,0,0,0.1,0c0.1,0,0.3-0.1,0.3-0.2C165.8,290.8,165.7,290.6,165.5,290.6z"/>
			<path fill="#FFFFFF" d="M166.3,292.6c0,0-0.1,0-0.1,0c-0.2,0.1-0.2,0.3-0.1,0.4c0.1,0.1,0.2,0.2,0.3,0.2c0,0,0.1,0,0.1,0
				c0.1-0.1,0.2-0.3,0.1-0.4C166.5,292.7,166.4,292.6,166.3,292.6z"/>
			<path fill="#FFFFFF" d="M164.6,288.8c-0.1,0-0.2,0-0.2,0.1c-0.1,0.1-0.1,0.3,0.1,0.5c0.1,0,0.1,0.1,0.2,0.1c0.1,0,0.2,0,0.2-0.1
				c0.1-0.1,0.1-0.3-0.1-0.4C164.7,288.8,164.7,288.8,164.6,288.8z"/>
			<path fill="#FFFFFF" d="M165.2,292.7c0,0-0.1,0-0.1,0c-0.2,0.1-0.2,0.3-0.1,0.4c0.1,0.1,0.2,0.2,0.3,0.2c0,0,0.1,0,0.1,0
				c0.2-0.1,0.2-0.3,0.1-0.4C165.5,292.7,165.4,292.7,165.2,292.7z"/>
			<path fill="#FFFFFF" d="M166.4,288.2c0.2,0,0.3-0.2,0.3-0.3c0-0.2-0.2-0.3-0.3-0.3c0,0,0,0,0,0c-0.2,0-0.3,0.2-0.3,0.3
				C166.1,288,166.2,288.2,166.4,288.2z"/>
			<path fill="#FFFFFF" d="M165.6,288.3C165.5,288.3,165.5,288.3,165.6,288.3c-0.2,0-0.3,0.1-0.3,0.3c0,0.2,0.2,0.3,0.3,0.3
				c0.2,0,0.3-0.1,0.3-0.3C165.8,288.5,165.7,288.3,165.6,288.3z"/>
			<path fill="#FFFFFF" d="M166.3,286.7c0-0.2-0.2-0.3-0.3-0.3c0,0,0,0,0,0c-0.2,0-0.3,0.1-0.3,0.3c0,0.2,0.2,0.3,0.3,0.3
				c0,0,0,0,0,0C166.2,287,166.3,286.9,166.3,286.7z"/>
		</g>
	</g>
	<path fill="#FFFFFF" d="M165.2,302c-6.4,0-11.5-5.2-11.5-11.6c0-3.9,1.5-7.4,4.1-9.3c-3.4,1.6-5.4,5.6-5.4,10.1
		c0,6.4,5.2,11.6,11.5,11.6c3.5,0,6.6-1,8.6-3.3C170.8,301.2,168.2,302,165.2,302z"/>
	<path fill="#FFFFFF" d="M152.7,312.7h-3l0,0.4l-4.5,0.1c-0.3-1.2-1.4-1.9-2.6-1.9c-1.5,0-2.7,1.3-2.7,2.9c0,1.6,1.2,2.9,2.7,2.9
		c1.3,0,2.3-0.9,2.6-2.2l5,0.1l0.1-0.2l4.4,0.2v-4.7c0,0-0.2,0.8-0.5,1.5C153.7,312.8,152.7,312.7,152.7,312.7z M142.6,316.1
		c-0.9,0-1.7-0.8-1.7-1.9c0-1,0.8-1.9,1.7-1.9c0.9,0,1.7,0.8,1.7,1.9C144.3,315.3,143.5,316.1,142.6,316.1z"/>
	<path fill="#FFFFFF" d="M144,310h-2.5l-1.3-0.6c-0.4-1-1.3-1.7-2.3-1.7c-1.4,0-2.6,1.3-2.6,2.9c0,1.6,1.2,2.9,2.6,2.9
		c1.3,0,2.3-1,2.5-2.4c0.3-0.2,1-0.5,2.3-0.5c2.5,0,3.2,2,3.2,2h1.6h1.7v-0.5L144,310z M137.8,312.8c-1,0-1.8-0.9-1.8-2.1
		c0-1.1,0.8-2.1,1.8-2.1s1.8,0.9,1.8,2.1C139.6,311.9,138.8,312.8,137.8,312.8z"/>
	<g>
		<path fill="#FFFFFF" d="M180.3,347.8c-1.3,0-2.7-0.3-4.1-0.8c-1.4-0.5-2.5-1.1-3.7-1.7c-0.8-0.4-1.7-0.8-2.6-1.2
			c-4.5,0.5-4.8,1.3-4.8,1.3l-1.9,0.1c0.1,0,0.7-1.5,4.9-2.1c-0.3-0.1-0.6-0.2-0.9-0.3c-3.1-1-4-1-4-1l0-1c0.1,0,1.1,0,4.3,1.1
			c0.9,0.3,1.7,0.6,2.5,0.9c1.3-0.2,2.8-0.4,4.2-0.4c4.1-0.2,7.5,1.4,8.6,2.6c0.4,0.4,0.5,0.8,0.5,1.1c0,0.3-0.1,0.6-0.6,0.9
			C182.2,347.7,181.3,347.8,180.3,347.8z M171.8,343.9c0.4,0.2,0.8,0.4,1.2,0.6c1.2,0.6,2.3,1.1,3.6,1.6c2.2,0.8,4.6,0.9,5.5,0.4
			c0.2-0.1,0.2-0.2,0.2-0.2c-0.1-0.6-3.3-2.8-8.1-2.6C173.4,343.8,172.6,343.8,171.8,343.9z"/>
	</g>
	<g>
		<path fill="#FFFFFF" d="M145.1,347c0,0,0-0.3-0.1-0.8c-0.2-0.5-0.3-0.6-0.3-0.6c0,0,2.1-0.6,3.8-2.5c1.4-1.6,5.1-2,5.5-1.9v0.9
			c-1,0-3.8,0.7-4.7,1.7C147.3,345.8,145.1,346.9,145.1,347z"/>
	</g>
	<path fill="#FFFFFF" d="M140.9,343.1c-1.5,0-2.6,0.5-3.5,1.6l1.3-0.4l0,0c0.3-0.1,0.6-0.1,1-0.1c2.2,0,4.1,2,4,4.4
		c-0.1,3.4-3.1,4.4-3.5,4.5c0.2,0,0.5,0,0.7,0c2.7,0,4.5-2.2,4.5-5C145.4,345.3,143.6,343.1,140.9,343.1z"/>
	<path fill="#FFFFFF" d="M143.2,348.6c0.1-2.2-1.7-4.1-3.8-4.1c-0.3,0-0.6,0.1-0.9,0.1v0l-7.8,2.7c0,0,1.4,0.9,2.4,3.7
		c1,2.8,0.7,4.3,0.7,4.3l6-2.5C139.8,352.8,143,352.1,143.2,348.6z"/>
	<g>
		<path fill="#FFFFFF" d="M124.9,345c-4.8-0.4-8.8,3.6-8.9,8.8c-0.1,5.2,3.7,9.8,8.5,10.2c4.8,0.4,8.8-3.6,8.8-8.8
			C133.5,349.9,129.7,345.4,124.9,345z M124,361.8c-0.2,0-0.3,0-0.5,0c-3.6-0.3-6.5-3.7-6.5-7.7c0.1-4,3.1-7.1,6.7-6.8
			c3.6,0.3,6.5,3.7,6.4,7.7C130.3,358.8,127.5,361.8,124,361.8z"/>
		<path fill="#FFFFFF" d="M123.8,348c-0.1,0-0.3,0-0.4,0c-3.1,0-5.5,2.7-5.6,6.1c-0.1,3.6,2.5,6.7,5.8,7c3.2,0.2,5.9-2.5,6-6.1
			C129.7,351.4,127.1,348.2,123.8,348z M122.1,354.5c0-0.8,0.5-1.5,1.1-1.4c0.6,0,1.2,0.7,1.2,1.5c0,0.8-0.5,1.5-1.1,1.4
			C122.7,356,122.2,355.3,122.1,354.5z M123.7,356.2c-0.1,0-0.1,0-0.2,0c0.7-0.1,1.3-0.8,1.3-1.7c0-0.9-0.6-1.6-1.3-1.7
			c0.1,0,0.1,0,0.2,0c0.8,0,1.5,0.8,1.5,1.7C125.1,355.4,124.5,356.2,123.7,356.2z"/>
	</g>
	<path fill="#FFFFFF" d="M177.3,354.7c0.5,3.5-3.2,6.2-8.8,6.3c-6.2,0.1-11-2.5-12.7-5.4c-1.1-1.8-0.9-4.1-0.5-5.2
		c-0.6-0.1-1.2-0.5-1.5-0.9c-0.8-0.9,0-2.2,0-2.2l-1.6,0.9l-5.6,5.8l0,0c-1.6,1.2-2.6,2.6-2.6,4.1c0,4.5,8,8.4,18,8.4
		c9.9,0,18-3.9,18-8.4C180,356.4,177.3,354.4,177.3,354.7z"/>
</g>
<g>
	<path fill="#FFFFFF" d="M496,361.3c0,0-0.6,1.8-14.1,1.7c-13.5-0.1-13.8-2-13.8-2s-0.5-0.3-2,1.3c-1.5,1.5-1.2,3.3-1.2,3.3
		c0,0,3.9,2.9,17.2,2.9c16.5,0,17.5-3.2,17.5-3.2s-0.5-1-1.7-2.7C496.5,360.8,496,361.3,496,361.3z"/>
	<path fill="#FFFFFF" d="M488.2,354.3c0,0,1.6,1.9-6.2,1.8c-7.7-0.1-6.5-1.7-6.5-1.7s-2.6,0.2-4.1,3.6c-0.9,2-2.5,2.3-2.5,2.3
		s-1.3,2.2,12.9,2.2c14.2,0,13.8-1.8,13.8-1.8s-2,0.2-2.6-1.8C491.8,355.1,488.2,354.3,488.2,354.3z"/>
	<path fill="#FFFFFF" d="M478.1,350c0,0,2.6,0.8,7,0.2c0,0-0.1,1,1.7,2.3c1.4,1.1,0.7,1.1,1.1,1.8c0,0,0.9,1.3-5.8,1.3
		c-6.7,0-6.4-1.7-6.4-1.7s-0.3-0.1,1.1-1.6C478.2,350.7,478.1,350,478.1,350z"/>
	<path fill="#FFFFFF" d="M484.9,349.2c-0.5,0.2-1.7,0.4-3.2,0.4c-1.5,0-2.7-0.2-3.2-0.4c-0.1,0.1-0.2,0.1-0.2,0.2
		c0,0.3,1.5,0.6,3.4,0.6c1.9,0,3.4-0.3,3.4-0.6C485.1,349.4,485,349.3,484.9,349.2z"/>
	<rect x="479.1" y="311.2" fill="#FFFFFF" width="5" height="0.6"/>
	<path fill="#FFFFFF" d="M483.8,311h-4.3c0,0-0.7-0.4-0.7-1.9c0-1.6,0.7-1.9,0.7-1.9h4.3c0,0,0.7,0.1,0.7,1.9
		C484.4,310.9,483.8,311,483.8,311z"/>
	<polygon fill="#FFFFFF" points="485,305.9 478.2,305.9 478.5,306.8 484.6,306.8 	"/>
	<rect x="478.2" y="305" fill="#FFFFFF" width="6.7" height="0.5"/>
	<polygon fill="#FFFFFF" points="485.7,303.2 477.4,303.2 478.2,302.7 484.9,302.7 	"/>
	<polygon fill="#FFFFFF" points="477.4,289.1 485.7,289.1 484.9,289.6 478.2,289.6 	"/>
	<polygon fill="#FFFFFF" points="485.7,287.3 477.4,287.3 478.2,286.8 484.9,286.8 	"/>
	<rect x="477.4" y="287.5" fill="#FFFFFF" width="8.3" height="1.3"/>
	<polygon fill="#FFFFFF" points="485.5,304.6 477.6,304.6 477.2,303.7 485.9,303.7 	"/>
	<path fill="#FFFFFF" d="M485,302.2c0,0,2.8-0.5,5.3-1.4c4.4-1.5,9.9-1.3,9.9-1.3s2.5,1.5,4.8,1.3c2.3-0.2,3.1-0.7,3.3-1.9
		c0.3-1.6-1.8-3.5-5-3.5c-3.2,0-3.5,0.3-7.3,1.3c-3.7,1-11.2,0.4-11.2,0.4s-0.8,1.2-0.9,2.7C483.9,301.2,485,302.2,485,302.2z"/>
	<path fill="#FFFFFF" d="M478.1,302.2c0,0-2.8-0.5-5.3-1.4c-4.4-1.5-9.9-1.3-9.9-1.3s-2.5,1.5-4.8,1.3c-2.4-0.2-3.1-0.7-3.2-1.9
		c-0.3-1.6,1.8-3.5,5-3.5s3.5,0.3,7.3,1.3c3.7,1,11.2,0.4,11.2,0.4s0.8,1.1,0.8,2.6C479.2,301.1,478.1,302.2,478.1,302.2z"/>
	<path fill="#FFFFFF" d="M517,334.6l-11.5-23.5c0.1-0.2,0.2-0.4,0.2-0.7c0-0.6-0.4-1.1-1-1.2l0-8.4l-0.4,0l0,8.4
		c-0.6,0.1-1,0.6-1,1.2c0,0.3,0.1,0.6,0.3,0.8l0,0l-10.3,23.5l0.4,0.1l10.2-23.3c0.2,0.1,0.4,0.2,0.6,0.2c0.2,0,0.5-0.1,0.7-0.2
		l11.5,23.4L517,334.6z"/>
	<path fill="#FFFFFF" d="M517.6,334.8c-0.6,0-1.1,0.3-1.3,0.9c-0.1,0.2-0.1,0.4-0.1,0.6h-21.9c0-0.8-0.6-1.4-1.4-1.4
		c-0.8,0-1.4,0.6-1.4,1.4s0.6,1.4,1.4,1.4c0.5,0,0.9-0.2,1.1-0.6l4.1,4.6h14.1l4.2-4.6c0.1,0.2,0.3,0.3,0.5,0.4
		c0.2,0.1,0.4,0.2,0.7,0.2c0.8,0,1.4-0.6,1.4-1.4S518.4,334.8,517.6,334.8z M491.8,336.2c0-0.6,0.5-1.1,1.1-1.1
		c0.6,0,1.1,0.5,1.1,1.1h-1.6l0.8,0.8h0.4c-0.2,0.2-0.4,0.3-0.7,0.3C492.3,337.3,491.8,336.8,491.8,336.2z M517.6,337.3
		c-0.2,0-0.4,0-0.5-0.1c-0.1,0-0.1-0.1-0.2-0.1h0.4l0.8-0.8h-1.6c0-0.1,0-0.3,0.1-0.4c0.2-0.4,0.6-0.7,1-0.7c0.6,0,1.1,0.5,1.1,1.1
		S518.2,337.3,517.6,337.3z"/>
	<path fill="#FFFFFF" d="M470.2,334.6l-10.9-23.2c0.3-0.2,0.5-0.6,0.5-1c0-0.6-0.4-1.1-1-1.2l0-8.4l-0.4,0l0,8.4
		c-0.6,0.1-1,0.6-1,1.2c0,0.3,0.1,0.6,0.4,0.9l-11.7,23.4l0.4,0.1l11.6-23.3c0.2,0.1,0.3,0.1,0.5,0.1c0.1,0,0.2,0,0.3-0.1l10.9,23.2
		L470.2,334.6z"/>
	<path fill="#FFFFFF" d="M470.7,334.8c-0.8,0-1.4,0.6-1.4,1.4H447c0-0.8-0.6-1.4-1.4-1.4s-1.4,0.6-1.4,1.4c0,0.8,0.6,1.4,1.4,1.4
		c0.5,0,0.9-0.2,1.1-0.6l4.2,4.6h14.5l4.1-4.6c0.3,0.3,0.7,0.6,1.1,0.6c0.8,0,1.4-0.6,1.4-1.4C472.1,335.4,471.5,334.8,470.7,334.8z
		 M444.4,336.2c0-0.6,0.5-1.1,1.1-1.1s1.1,0.5,1.1,1.1H445l0.8,0.8h0.4c-0.2,0.2-0.4,0.3-0.7,0.3
		C444.9,337.3,444.4,336.8,444.4,336.2z M470.7,337.3c-0.3,0-0.5-0.1-0.7-0.3h0.4l0.8-0.8h-1.6c0-0.6,0.5-1.1,1.1-1.1
		c0.6,0,1.1,0.5,1.1,1.1C471.8,336.8,471.3,337.3,470.7,337.3z"/>
	<path fill="#FFFFFF" d="M481.6,341.1c0.3,0,0.6,0,0.8,0.1c0.9,0.1,1,0.4,1,0.4v-29.3h-3.6v29.3
		C480.3,341.2,480.9,341.1,481.6,341.1z"/>
	<path fill="#FFFFFF" d="M481.6,348c-0.8,0-1.6-0.3-2.2-0.8c-0.1,0-0.1-0.1-0.1-0.1v1.7c0,0,0.6,0.4,2.4,0.4c1.8,0,2.4-0.4,2.4-0.4
		v-1.7c0,0-0.1,0.1-0.5,0.2C483,347.8,482.3,348,481.6,348z"/>
	<circle fill="#FFFFFF" cx="481.6" cy="344.5" r="3"/>
	<path fill="#FFFFFF" d="M484.8,302.3h-6.4c0,0,1.2-0.5,1.2-2.6c0-2.2-0.9-1.9-0.9-3.5c0-1.6,0.9-1.3,0.9-3.3c0-2-1.2-3-1.2-3h6.4
		c0,0-1.2,0.9-1.2,3.1c0,2.2,1,1.6,1,3.1c0,1.5-1,2-1,3.6C483.6,301.6,484.8,302.3,484.8,302.3z"/>
	<path fill="#FFFFFF" d="M482.6,284.2c-0.2-0.3-0.4-0.7-0.5-1c-0.2,0.1-0.3,0.1-0.5,0.1c-0.2,0-0.4,0-0.5-0.1
		c-0.1,0.3-0.3,0.7-0.5,1c-0.8,1.4-2.1,2.3-2.1,2.3h6.3C484.7,286.5,483.5,285.6,482.6,284.2z"/>
	<circle fill="#FFFFFF" cx="481.5" cy="281.7" r="1.4"/>
</g>
</svg>
