<?xml version="1.0" encoding="utf-8"?>
<!-- Generator: Adobe Illustrator 18.1.0, SVG Export Plug-In . SVG Version: 6.00 Build 0)  -->
<svg version="1.1" id="Layer_1" xmlns="http://www.w3.org/2000/svg" xmlns:xlink="http://www.w3.org/1999/xlink" x="0px" y="0px"
	 viewBox="0 0 800 210" enable-background="new 0 0 800 210" xml:space="preserve">
<g>
	<g>
		<path fill="#F6914F" d="M729.6,57.9l-2.1-4.3c0-0.3-1.2-6.4,1.4-8.4l0.3-0.2l0.3,0.2c1.8,1,1.6,1.6,1.6,1.8
			c-0.1,0.2-0.2,0.5-0.7,0.6c-0.4,0.4-1.6,2.4-0.6,6.6l0,0.1L729.6,57.9z M729.3,46.3c-1,1.1-1.1,3.4-1,5.2
			c-0.1-3.3,1.3-4.6,1.4-4.7l0.1-0.1C729.7,46.6,729.5,46.5,729.3,46.3z"/>
	</g>
	<g>
		<path fill="#F6914F" d="M726.2,52.4c-2.6,0-4.2-2.5-4.7-4l-0.2-0.7l0.7,0c5.5,0.1,5.8,3.8,5.8,3.8l-0.6,0l0.2,0.6
			C726.9,52.4,726.5,52.4,726.2,52.4z M722.7,48.8c0.5,1,1.8,2.8,3.9,2.5C726.5,50.7,725.7,49.1,722.7,48.8z"/>
	</g>
	<g>
		<path fill="#F6914F" d="M731.9,82C731.9,82,731.9,82,731.9,82c-0.8,0-1.4-0.4-2.1-0.8c-0.5-0.3-1-0.6-1.5-0.6
			c-0.3,0-0.7,0.1-1.1,0.2c-0.6,0.2-1.3,0.4-1.8,0.2c-2.6-0.8-4.2-3.1-5.8-5.3c-0.4-0.5-0.8-1-1.1-1.5c-3.4-4.3-4.5-9.1-3.1-14.1
			c1.1-4.3,5.2-8.7,11.7-8c0.6,0.1,1.4,0.9,1.9,1.8c0.3-0.7,0.9-1.6,2-2.5l0.2-0.1c1.1-0.3,2-0.6,2.8-0.6c0.3,0,0.7,0,1,0
			c3.8,0,7.3,1.7,8.8,4.2c3.7,6.2,1.1,15-2.2,20.6c-2.1,3.5-5.7,6.1-9.4,6.6C732.1,82,732,82,731.9,82z M728.2,79.7
			c0.1,0,0.1,0,0.2,0c0.7,0.1,1.3,0.4,1.9,0.8c0.6,0.3,1.1,0.6,1.6,0.6c0,0,0,0,0,0c0.1,0,0.1,0,0.2,0c3.3-0.4,6.7-2.9,8.6-6.1
			c3.4-5.8,5.4-14.1,2.2-19.6c-1.5-2.6-5.1-3.7-7.9-3.7c-0.3,0-0.6,0-0.9,0c-0.7,0.1-1.5,0.3-2.6,0.6c-1.9,1.5-1.9,3-1.9,3.1l0,3.1
			l-1-3c-0.4-1.1-1.4-2.4-1.8-2.5c-0.4,0-0.8-0.1-1.2-0.1c-5.2,0-8.5,3.7-9.5,7.4c-1.2,4.7-0.2,9.1,3,13.2c0.4,0.5,0.8,1,1.2,1.5
			c1.5,2.1,3.1,4.2,5.4,5c0.3,0.1,0.7,0,1.2-0.2C727.3,79.8,727.7,79.7,728.2,79.7z M739,62.7l-0.2-0.4c0,0-1.6-4.6-4-5.5l-1.2-0.5
			l3.9-1.5l0.2,0.1c0.1,0.1,3.4,1.7,3.2,7l0,0.4L739,62.7z M736.2,56.4c1.8,1.3,3.1,4.1,3.5,5.1l0.3-0.1c0-3.7-1.9-5.2-2.5-5.6
			L736.2,56.4z"/>
	</g>
	<g>
		<rect x="739.2" y="24.1" fill="#F6914F" width="1" height="21.6"/>
	</g>
	<g>
		<rect x="720.4" y="14.7" fill="#F6914F" width="1" height="20.1"/>
	</g>
	<g>
		<rect x="730.1" y="29.1" fill="#F6914F" width="1" height="10.8"/>
	</g>
</g>
<g>
	<g>
		<path fill="#F6914F" d="M50.9,71.8L50.9,71.8c-2.7-0.5-2.9-3.2-2.9-3.9V29.9h4.2V25h0.1l0-0.1h56.3c1.7,0,3.2,1.4,3.2,3.2v40.2
			c0,1.7-1.4,3.2-3.2,3.2H52.1C51.7,71.7,51.4,71.8,50.9,71.8L50.9,71.8z M48.9,30.9v36.9c0,0.9,0.3,2.6,2,2.9
			c0.6,0,0.9-0.4,1.1-0.8c0-0.2,0.1-0.3,0.1-0.5V30.9H48.9z M53,70.5h55.6c1.2,0,2.2-1,2.2-2.2V28.1c0-1.2-1-2.2-2.2-2.2H53.2l0,2.3
			l-0.1,0l0,41c0,0.1,0,0.2,0,0.3l0,0.5c0,0.1-0.1,0.2-0.1,0.3C53,70.4,53,70.4,53,70.5z"/>
	</g>
	<g>
		<path fill="#F6914F" d="M67.9,51.9H57.1c-0.7,0-1.3-0.6-1.3-1.3v-17c0-0.7,0.6-1.3,1.3-1.3h10.8c0.7,0,1.3,0.6,1.3,1.3v17
			C69.2,51.3,68.6,51.9,67.9,51.9z M57.1,33.3c-0.2,0-0.3,0.1-0.3,0.3v17c0,0.2,0.1,0.3,0.3,0.3h10.8c0.2,0,0.3-0.1,0.3-0.3v-17
			c0-0.2-0.1-0.3-0.3-0.3H57.1z"/>
	</g>
	<g>
		<path fill="#F6914F" d="M68,57.8H57.2c-0.3,0-0.5-0.2-0.5-0.5s0.2-0.5,0.5-0.5H68c0.3,0,0.5,0.2,0.5,0.5S68.3,57.8,68,57.8z"/>
	</g>
	<g>
		<path fill="#F6914F" d="M68,62.6H57.2c-0.3,0-0.5-0.2-0.5-0.5s0.2-0.5,0.5-0.5H68c0.3,0,0.5,0.2,0.5,0.5S68.3,62.6,68,62.6z"/>
	</g>
	<g>
		<path fill="#F6914F" d="M91,57.8H73.2c-0.3,0-0.5-0.2-0.5-0.5s0.2-0.5,0.5-0.5H91c0.3,0,0.5,0.2,0.5,0.5S91.3,57.8,91,57.8z"/>
	</g>
	<g>
		<path fill="#F6914F" d="M91,53H73.2c-0.3,0-0.5-0.2-0.5-0.5s0.2-0.5,0.5-0.5H91c0.3,0,0.5,0.2,0.5,0.5S91.3,53,91,53z"/>
	</g>
	<g>
		<path fill="#F6914F" d="M91,48.2H73.2c-0.3,0-0.5-0.2-0.5-0.5s0.2-0.5,0.5-0.5H91c0.3,0,0.5,0.2,0.5,0.5S91.3,48.2,91,48.2z"/>
	</g>
	<g>
		<path fill="#F6914F" d="M91,43.4H73.2c-0.3,0-0.5-0.2-0.5-0.5s0.2-0.5,0.5-0.5H91c0.3,0,0.5,0.2,0.5,0.5S91.3,43.4,91,43.4z"/>
	</g>
	<g>
		<path fill="#F6914F" d="M91,38.6H73.2c-0.3,0-0.5-0.2-0.5-0.5s0.2-0.5,0.5-0.5H91c0.3,0,0.5,0.2,0.5,0.5S91.3,38.6,91,38.6z"/>
	</g>
	<g>
		<path fill="#F6914F" d="M91,33.7H73.2c-0.3,0-0.5-0.2-0.5-0.5s0.2-0.5,0.5-0.5H91c0.3,0,0.5,0.2,0.5,0.5S91.3,33.7,91,33.7z"/>
	</g>
	<g>
		<path fill="#F6914F" d="M91,62.6H73.2c-0.3,0-0.5-0.2-0.5-0.5s0.2-0.5,0.5-0.5H91c0.3,0,0.5,0.2,0.5,0.5S91.3,62.6,91,62.6z"/>
	</g>
	<g>
		<path fill="#F6914F" d="M107.1,57.8H96.2c-0.3,0-0.5-0.2-0.5-0.5s0.2-0.5,0.5-0.5h10.8c0.3,0,0.5,0.2,0.5,0.5
			S107.3,57.8,107.1,57.8z"/>
	</g>
	<g>
		<path fill="#F6914F" d="M107.1,53H96.2c-0.3,0-0.5-0.2-0.5-0.5S96,52,96.2,52h10.8c0.3,0,0.5,0.2,0.5,0.5S107.3,53,107.1,53z"/>
	</g>
	<g>
		<path fill="#F6914F" d="M107.1,48.2H96.2c-0.3,0-0.5-0.2-0.5-0.5s0.2-0.5,0.5-0.5h10.8c0.3,0,0.5,0.2,0.5,0.5
			S107.3,48.2,107.1,48.2z"/>
	</g>
	<g>
		<path fill="#F6914F" d="M107.1,43.4H96.2c-0.3,0-0.5-0.2-0.5-0.5s0.2-0.5,0.5-0.5h10.8c0.3,0,0.5,0.2,0.5,0.5
			S107.3,43.4,107.1,43.4z"/>
	</g>
	<g>
		<path fill="#F6914F" d="M107.1,38.6H96.2c-0.3,0-0.5-0.2-0.5-0.5s0.2-0.5,0.5-0.5h10.8c0.3,0,0.5,0.2,0.5,0.5
			S107.3,38.6,107.1,38.6z"/>
	</g>
	<g>
		<path fill="#F6914F" d="M107.1,33.7H96.2c-0.3,0-0.5-0.2-0.5-0.5s0.2-0.5,0.5-0.5h10.8c0.3,0,0.5,0.2,0.5,0.5
			S107.3,33.7,107.1,33.7z"/>
	</g>
	<g>
		<path fill="#F6914F" d="M107.1,62.6H96.2c-0.3,0-0.5-0.2-0.5-0.5s0.2-0.5,0.5-0.5h10.8c0.3,0,0.5,0.2,0.5,0.5
			S107.3,62.6,107.1,62.6z"/>
	</g>
	<g>
		<path fill="#F6914F" d="M47.5,69.7c-0.6,0-1.4-0.1-2-0.6c-0.6-0.4-0.9-1.1-1-1.9c-0.2-2.6,0-32.6,0-33.9l0-0.5h3.9v1h-2.9
			c0,4-0.2,30.9,0,33.3c0,0.5,0.2,0.9,0.6,1.2c0.8,0.6,2.1,0.3,2.2,0.3l0.2,1C48.5,69.6,48.1,69.7,47.5,69.7z"/>
	</g>
</g>
<g>
	<g>
		<path fill="#F6914F" d="M186.8,71.7h-31.2c-2.2,0-4-1.8-4-4v-43c0-2.2,1.8-4,4-4h31.2c2.2,0,4,1.8,4,4v43
			C190.8,69.9,189,71.7,186.8,71.7z M155.7,21.6c-1.6,0-3,1.3-3,3v43c0,1.6,1.3,3,3,3h31.2c1.6,0,3-1.3,3-3v-43c0-1.6-1.3-3-3-3
			H155.7z"/>
	</g>
	<g>
		<path fill="#F6914F" d="M182.4,51.6h-22.3c-1.5,0-2.8-1.3-2.8-2.8V29.5c0-1.5,1.3-2.8,2.8-2.8h22.3c1.5,0,2.8,1.3,2.8,2.8v19.3
			C185.2,50.4,183.9,51.6,182.4,51.6z M160.1,27.7c-1,0-1.8,0.8-1.8,1.8v19.3c0,1,0.8,1.8,1.8,1.8h22.3c1,0,1.8-0.8,1.8-1.8V29.5
			c0-1-0.8-1.8-1.8-1.8H160.1z"/>
	</g>
	<g>
		<path fill="#F6914F" d="M186.5,75.6h-30.6v-5h30.6V75.6z M156.9,74.6h28.6v-3h-28.6V74.6z"/>
	</g>
	<g>
		<rect x="159.7" y="60.1" fill="#F6914F" width="1.2" height="1.2"/>
	</g>
	<g>
		<path fill="#F6914F" d="M184.4,60.6c0,0.3-0.3,0.6-0.6,0.6h-14.3c-0.3,0-0.6-0.3-0.6-0.6l0,0c0-0.3,0.3-0.6,0.6-0.6h14.3
			C184.1,60.1,184.4,60.3,184.4,60.6L184.4,60.6z"/>
	</g>
	<g>
		<rect x="162.8" y="32.7" fill="#F6914F" width="15.6" height="1"/>
	</g>
	<g>
		<rect x="162.8" y="36" fill="#F6914F" width="15.6" height="1"/>
	</g>
	<g>
		<rect x="162.8" y="39.3" fill="#F6914F" width="15.6" height="1"/>
	</g>
	<g>
		<rect x="162.8" y="42.6" fill="#F6914F" width="9.9" height="1"/>
	</g>
</g>
<g>
	<g>
		
			<rect x="249" y="27.4" transform="matrix(0.1314 0.9913 -0.9913 0.1314 246.1901 -225.1121)" fill="#F6914F" width="5.1" height="1"/>
	</g>
	<g>
		
			<rect x="252" y="27" transform="matrix(0.1314 0.9913 -0.9913 0.1314 248.4448 -228.4957)" fill="#F6914F" width="5.1" height="1"/>
	</g>
	<g>
		
			<rect x="255.1" y="26.6" transform="matrix(0.1312 0.9914 -0.9914 0.1312 250.7531 -231.8811)" fill="#F6914F" width="5.1" height="1"/>
	</g>
	<g>
		
			<rect x="258.2" y="26.2" transform="matrix(0.1311 0.9914 -0.9914 0.1311 253.0341 -235.2659)" fill="#F6914F" width="5.1" height="1"/>
	</g>
	<g>
		
			<rect x="261.2" y="25.8" transform="matrix(0.1312 0.9913 -0.9913 0.1312 255.2406 -238.6483)" fill="#F6914F" width="5.1" height="1"/>
	</g>
	<g>
		
			<rect x="264.3" y="25.4" transform="matrix(0.1311 0.9914 -0.9914 0.1311 257.547 -242.0338)" fill="#F6914F" width="5.1" height="1"/>
	</g>
	<g>
		
			<rect x="267.3" y="25" transform="matrix(0.1312 0.9913 -0.9913 0.1312 259.7523 -245.4159)" fill="#F6914F" width="5.1" height="1"/>
	</g>
	<g>
		
			<rect x="270.4" y="24.6" transform="matrix(0.1313 0.9913 -0.9913 0.1313 262.005 -248.8002)" fill="#F6914F" width="5.1" height="1"/>
	</g>
	<g>
		
			<rect x="241.8" y="37.5" transform="matrix(0.1309 0.9914 -0.9914 0.1309 250.2562 -205.3673)" fill="#F6914F" width="1" height="5.1"/>
	</g>
	<g>
		
			<rect x="242.2" y="40.5" transform="matrix(0.1309 0.9914 -0.9914 0.1309 253.6398 -203.1108)" fill="#F6914F" width="1" height="5.1"/>
	</g>
	<g>
		
			<rect x="242.6" y="43.6" transform="matrix(0.1309 0.9914 -0.9914 0.1309 257.024 -200.8529)" fill="#F6914F" width="1" height="5.1"/>
	</g>
	<g>
		
			<rect x="243" y="46.7" transform="matrix(0.1309 0.9914 -0.9914 0.1309 260.4088 -198.5957)" fill="#F6914F" width="1" height="5.1"/>
	</g>
	<g>
		
			<rect x="243.4" y="49.7" transform="matrix(0.1309 0.9914 -0.9914 0.1309 263.7924 -196.3392)" fill="#F6914F" width="1" height="5.1"/>
	</g>
	<g>
		
			<rect x="243.8" y="52.8" transform="matrix(0.1309 0.9914 -0.9914 0.1309 267.1765 -194.0822)" fill="#F6914F" width="1" height="5.1"/>
	</g>
	<g>
		
			<rect x="244.2" y="55.8" transform="matrix(0.1314 0.9913 -0.9913 0.1314 270.4406 -191.8367)" fill="#F6914F" width="1" height="5.1"/>
	</g>
	<g>
		
			<rect x="244.6" y="58.9" transform="matrix(0.1314 0.9913 -0.9913 0.1314 273.8238 -189.5816)" fill="#F6914F" width="1" height="5.1"/>
	</g>
	<g>
		
			<rect x="276.6" y="67.9" transform="matrix(0.1313 0.9913 -0.9913 0.1313 310.3073 -217.4081)" fill="#F6914F" width="5.1" height="1"/>
	</g>
	<g>
		
			<rect x="273.6" y="68.3" transform="matrix(0.1311 0.9914 -0.9914 0.1311 308.1049 -214.0184)" fill="#F6914F" width="5.1" height="1"/>
	</g>
	<g>
		
			<rect x="270.5" y="68.7" transform="matrix(0.1311 0.9914 -0.9914 0.1311 305.852 -210.6334)" fill="#F6914F" width="5.1" height="1"/>
	</g>
	<g>
		
			<rect x="267.5" y="69.1" transform="matrix(0.1313 0.9913 -0.9913 0.1313 303.5435 -207.2558)" fill="#F6914F" width="5.1" height="1"/>
	</g>
	<g>
		
			<rect x="264.4" y="69.5" transform="matrix(0.1311 0.9914 -0.9914 0.1311 301.3362 -203.8658)" fill="#F6914F" width="5.1" height="1"/>
	</g>
	<g>
		
			<rect x="261.3" y="69.9" transform="matrix(0.1314 0.9913 -0.9913 0.1314 299.0031 -200.4916)" fill="#F6914F" width="5.1" height="1"/>
	</g>
	<g>
		
			<rect x="258.3" y="70.3" transform="matrix(0.1314 0.9913 -0.9913 0.1314 296.7473 -197.1074)" fill="#F6914F" width="5.1" height="1"/>
	</g>
	<g>
		
			<rect x="255.2" y="70.7" transform="matrix(0.1314 0.9913 -0.9913 0.1314 294.4959 -193.7236)" fill="#F6914F" width="5.1" height="1"/>
	</g>
	<g>
		
			<rect x="288" y="53.7" transform="matrix(0.1318 0.9913 -0.9913 0.1318 306.2001 -237.1588)" fill="#F6914F" width="1" height="5.1"/>
	</g>
	<g>
		
			<rect x="287.6" y="50.6" transform="matrix(0.1309 0.9914 -0.9914 0.1309 303.1003 -239.3983)" fill="#F6914F" width="1" height="5.1"/>
	</g>
	<g>
		
			<rect x="287.2" y="47.5" transform="matrix(0.1309 0.9914 -0.9914 0.1309 299.7169 -241.6546)" fill="#F6914F" width="1" height="5.1"/>
	</g>
	<g>
		
			<rect x="286.8" y="44.5" transform="matrix(0.1309 0.9914 -0.9914 0.1309 296.3326 -243.9123)" fill="#F6914F" width="1" height="5.1"/>
	</g>
	<g>
		
			<rect x="286.4" y="41.4" transform="matrix(0.1309 0.9914 -0.9914 0.1309 292.9475 -246.1696)" fill="#F6914F" width="1" height="5.1"/>
	</g>
	<g>
		
			<rect x="286" y="38.4" transform="matrix(0.1309 0.9914 -0.9914 0.1309 289.5639 -248.4262)" fill="#F6914F" width="1" height="5.1"/>
	</g>
	<g>
		
			<rect x="285.6" y="35.3" transform="matrix(0.1309 0.9914 -0.9914 0.1309 286.1794 -250.6836)" fill="#F6914F" width="1" height="5.1"/>
	</g>
	<g>
		
			<rect x="285.2" y="32.3" transform="matrix(0.1309 0.9914 -0.9914 0.1309 282.795 -252.9412)" fill="#F6914F" width="1" height="5.1"/>
	</g>
	<g>
		<path fill="#F6914F" d="M248.7,69.2l-5.1-38.2l38.2-5.1l5.1,38.2L248.7,69.2z M244.8,31.9l4.8,36.2l36.2-4.8L281,27.1L244.8,31.9z
			"/>
	</g>
	<g>
		<path fill="#F6914F" d="M256.7,58.8L254.1,39l19.8-2.6l2.6,19.8L256.7,58.8z M255.2,39.9l2.4,17.8l17.9-2.4L273,37.5L255.2,39.9z"
			/>
	</g>
</g>
<g>
	<g>
		<path fill="#F6914F" d="M359.8,33.9c-10.9,0-19-3.2-19-6.1c0-2.9,8.1-6.1,19-6.1c10.9,0,19,3.2,19,6.1
			C378.8,30.7,370.6,33.9,359.8,33.9z M359.8,22.7c-11.2,0-18,3.3-18,5.1s6.8,5.1,18,5.1c11.2,0,18-3.3,18-5.1
			S370.9,22.7,359.8,22.7z"/>
	</g>
	<g>
		<path fill="#F6914F" d="M359.8,47.4c-10.9,0-19-3.2-19-6.1h1c0,1.8,6.8,5.1,18,5.1c11.2,0,18-3.3,18-5.1h1
			C378.8,44.2,370.6,47.4,359.8,47.4z"/>
	</g>
	<g>
		<path fill="#F6914F" d="M359.8,60.9c-10.9,0-19-3.2-19-6.1h1c0,1.8,6.8,5.1,18,5.1c11.2,0,18-3.3,18-5.1h1
			C378.8,57.6,370.6,60.9,359.8,60.9z"/>
	</g>
	<g>
		<path fill="#F6914F" d="M359.8,74.4c-10.9,0-19-3.2-19-6.1V27.8h1v40.4c0,1.8,6.8,5.1,18,5.1c11.2,0,18-3.3,18-5.1V27.8h1v40.4
			C378.8,71.1,370.6,74.4,359.8,74.4z"/>
	</g>
	<g>
		<g>
			<path fill="#F6914F" d="M346,39.6C346,39.6,345.9,39.6,346,39.6c-0.6-0.1-1-0.6-0.9-1.2c0.1-0.5,0.6-0.9,1.2-0.8
				c0.5,0.1,0.9,0.6,0.8,1.2C347,39.3,346.5,39.6,346,39.6z"/>
		</g>
	</g>
	<g>
		<g>
			<path fill="#F6914F" d="M349,40.3C348.9,40.3,348.9,40.3,349,40.3c-0.4-0.1-0.6-0.2-0.7-0.4c-0.2-0.2-0.2-0.5-0.2-0.7
				c0.1-0.5,0.6-0.9,1.2-0.8c0.5,0.1,0.9,0.6,0.8,1.2C350,39.9,349.5,40.3,349,40.3z"/>
		</g>
	</g>
	<g>
		<g>
			<path fill="#F6914F" d="M352.1,40.8C352,40.8,352,40.8,352.1,40.8c-0.6-0.1-1-0.6-0.9-1.2c0.1-0.6,0.6-0.9,1.2-0.8
				c0.5,0.1,0.9,0.6,0.8,1.2C353,40.4,352.6,40.8,352.1,40.8z"/>
		</g>
	</g>
	<g>
		<g>
			<path fill="#F6914F" d="M346,53.1C346,53.1,345.9,53.1,346,53.1c-0.6-0.1-1-0.6-0.9-1.2c0.1-0.5,0.6-0.9,1.2-0.8
				c0.5,0.1,0.9,0.6,0.8,1.2C347,52.7,346.5,53.1,346,53.1z"/>
		</g>
	</g>
	<g>
		<g>
			<path fill="#F6914F" d="M349,53.7C348.9,53.7,348.9,53.7,349,53.7c-0.4-0.1-0.6-0.2-0.7-0.4c-0.2-0.2-0.2-0.5-0.2-0.7
				c0.1-0.5,0.6-0.9,1.2-0.8c0.5,0.1,0.9,0.6,0.8,1.2C350,53.4,349.5,53.8,349,53.7z"/>
		</g>
	</g>
	<g>
		<g>
			<path fill="#F6914F" d="M352.1,54.2C352,54.2,352,54.2,352.1,54.2c-0.6-0.1-1-0.6-0.9-1.2c0.1-0.6,0.6-0.9,1.2-0.8
				c0.5,0.1,0.9,0.6,0.8,1.2C353,53.9,352.6,54.3,352.1,54.2z"/>
		</g>
	</g>
	<g>
		<g>
			<path fill="#F6914F" d="M346,66.5C346,66.5,345.9,66.5,346,66.5c-0.6-0.1-1-0.6-0.9-1.2c0.1-0.5,0.6-0.9,1.2-0.8
				c0.5,0.1,0.9,0.6,0.8,1.2C347,66.2,346.5,66.6,346,66.5z"/>
		</g>
	</g>
	<g>
		<g>
			<path fill="#F6914F" d="M349,67.2C348.9,67.2,348.9,67.2,349,67.2c-0.4-0.1-0.6-0.2-0.7-0.4c-0.2-0.2-0.2-0.5-0.2-0.7
				c0.1-0.5,0.6-0.9,1.2-0.8c0.5,0.1,0.9,0.6,0.8,1.2C350,66.9,349.5,67.2,349,67.2z"/>
		</g>
	</g>
	<g>
		<g>
			<path fill="#F6914F" d="M352.1,67.7C352,67.7,352,67.7,352.1,67.7c-0.6-0.1-1-0.6-0.9-1.2c0.1-0.6,0.6-0.9,1.2-0.8
				c0.5,0.1,0.9,0.6,0.8,1.2C353,67.4,352.6,67.8,352.1,67.7z"/>
		</g>
	</g>
</g>
<g>
	<g>
		<g>
			<path fill="#F6914F" d="M621.6,74.5c-1.6,0-3.6-0.3-6.2-1.4c-4.9-2.1-7.4-4.6-7.4-7.5c0-1.1,1.9-3,2.6-3.7l9.3-20.4l0.9,0.4
				l-9.5,20.7c-1.1,1.1-2.3,2.5-2.3,3c0,3.1,3.7,5.3,6.8,6.6c4.6,1.9,7.3,1.4,8.5,0.9c0.8-0.3,1.2-0.8,1.3-0.9
				c0.2-0.4,0.1-1.7,0.1-2.6c0-0.6,0-1.1,0-1.4c0.1-0.8,5.9-14.6,8.1-18.9l0.9,0.5c-2.2,4.3-7.8,17.7-8,18.6c0,0.2,0,0.7,0,1.3
				c0,1.1,0.1,2.4-0.2,3c-0.2,0.5-0.9,1.1-1.8,1.5C624,74.2,623,74.5,621.6,74.5z"/>
		</g>
		<g>
			<path fill="#F6914F" d="M610.8,63.5l-0.2-1.9c-0.2-2.7-2.8-3.6-2.9-3.6l-0.2-0.1l-0.1-0.1c-1.7-2.5-2-4.4-1.5-8.9
				c0.6-5.5,6.8-7.8,7-7.9l0.1,0c0,0,0,0,0,0c0.9,0,4.7,1.8,6.3,2.6l0.4,0.2l-2.2,4.8l-2.1-2.5c-0.6-0.5-1.2-0.7-1.8-0.7
				c-1.5,0-2.6,1.5-2.6,1.5c-2.7,3.7-1.2,7.8-1.2,7.8c0.4,1.4,2.3,2.4,3.1,2.7l0.5,0.2L610.8,63.5z M608.2,57.1
				c0.5,0.2,2.3,1.1,3.1,2.9l0.9-1.9c-0.9-0.4-2.6-1.5-3.1-3.1c-0.1-0.2-1.7-4.5,1.3-8.7c0-0.1,1.4-2,3.4-2c0.9,0,1.7,0.3,2.5,1
				l1.2,1.3l1.1-2.5c-2.3-1.1-4.8-2.2-5.3-2.3c-0.8,0.3-5.8,2.5-6.3,7.1C606.5,53.2,606.8,54.9,608.2,57.1z"/>
		</g>
		<g>
			<path fill="#F6914F" d="M616,67c-0.4,0-0.9-0.1-1.4-0.3c-1.4-0.7-2-1.8-1.4-2.9l7.3-15.7c0.5-1.1,1.7-1.5,3.2-0.8
				c1.4,0.7,2,1.8,1.4,2.9l-7.3,15.7C617.4,66.6,616.8,67,616,67z M622.2,47.8c-0.4,0-0.7,0.2-0.9,0.6L614,64.1
				c-0.3,0.6,0,1.2,0.9,1.6c0.9,0.4,1.5,0.3,1.8-0.3l7.3-15.7c0.3-0.6,0-1.2-0.9-1.6C622.8,47.9,622.5,47.8,622.2,47.8z"/>
		</g>
		<g>
			<path fill="#F6914F" d="M621.6,69.6c-0.4,0-0.9-0.1-1.4-0.3c-0.6-0.3-1.1-0.7-1.4-1.1c-0.3-0.6-0.4-1.2-0.1-1.8l7.3-15.7
				c0.5-1.1,1.7-1.5,3.2-0.8c0.8,0.4,1.3,0.9,1.5,1.4c0.2,0.5,0.1,1-0.1,1.5l-7.3,15.7C623,69.2,622.4,69.6,621.6,69.6z M627.8,50.4
				c-0.4,0-0.7,0.2-0.9,0.6l-7.3,15.7c-0.2,0.3-0.1,0.6,0,0.9c0.2,0.3,0.5,0.5,0.9,0.7c0.9,0.4,1.5,0.3,1.8-0.3l7.3-15.7
				c0.1-0.3,0.1-0.5,0.1-0.7c-0.1-0.3-0.5-0.6-1-0.9C628.5,50.5,628.1,50.4,627.8,50.4z"/>
		</g>
	</g>
	<g>
		<path fill="#F6914F" d="M639.5,57.6c-0.6,0-0.9-0.4-1-0.5c-0.1,0-2.6-2.4-2.7-5c-0.6-0.2-1.5-0.7-2.1-2.2c-0.5-0.2-1.6-0.9-2.1-2
			c-0.2-0.6-0.3-1.2-0.2-1.8c0,0,0,0,0,0c-0.9,0-2.2-0.2-4-1.4c-0.2,0.1-0.6,0.2-1.1,0.2c-0.8,0-2.1-0.2-3.2-1.4
			c-0.6,0-2.2-0.2-2.9-1.4c-0.5-0.7-0.5-1.7,0-2.8c-0.2-1,0-2.8,1.7-3.7c0.2-0.2,1-0.8,2.2-0.8c0.8,0,1.6,0.3,2.4,0.8
			c0.4-0.5,1.2-1.3,2.5-1.3c0.7,0,1.4,0.2,2.2,0.7c0.6-0.1,2.5-0.2,3.5,0.9c0.5,0.5,0.7,1.1,0.7,1.9c1.4,0.2,3.6,1.2,3.7,4
			c0.5,0.8,1,2.3,0.1,3.5c0.3,0.4,0.7,1,0.8,1.9c0,1-0.4,2-1.4,3c-0.1,0.8-0.3,4,1.5,5.7c0.1,0.1,0.6,0.5,0.5,1
			c0,0.2-0.1,0.5-0.5,0.6C639.9,57.5,639.7,57.6,639.5,57.6z M633.1,44.7l-0.4,1c-0.3,0.7-0.3,1.3-0.1,1.8c0.5,1,1.7,1.6,1.7,1.6
			l0.2,0.1l0.1,0.2c0.5,1.7,1.7,1.8,1.7,1.8l0.5,0l-0.1,0.5c-0.2,2.2,2.4,4.7,2.4,4.7c0,0,0.1,0.1,0.1,0.1c-2.3-2.2-1.8-6.5-1.8-6.7
			l0-0.2l0.1-0.1c0.8-0.8,1.3-1.6,1.2-2.4c0-0.9-0.8-1.6-0.8-1.6l-0.5-0.4l0.5-0.4c1.1-1,0.1-2.6,0-2.6l-0.1-0.1l0-0.1
			c-0.1-3-3.1-3.2-3.2-3.2l-0.5,0l0-0.5c0-0.7-0.1-1.3-0.5-1.7c-0.9-1-2.8-0.6-2.8-0.6l-0.2,0l-0.2-0.1c-0.7-0.4-1.3-0.6-1.8-0.6
			c-1.3,0-2,1.2-2,1.2l-0.3,0.5l-0.5-0.4c-0.8-0.6-1.5-0.9-2.2-0.9c-1,0-1.6,0.6-1.6,0.6l-0.1,0.1c-1.5,0.7-1.2,2.7-1.1,2.7l0,0.2
			l-0.1,0.1c-0.4,0.9-0.4,1.5-0.1,2c0.5,0.8,1.8,0.9,2.3,0.9l0.2,0l0.1,0.1c0.8,0.8,1.7,1.2,2.7,1.2c0.6,0,1-0.2,1-0.2l0.2-0.1
			l0.2,0.1c1.7,1.1,2.9,1.4,3.7,1.4c0.4,0,0.6-0.1,0.6-0.1L633.1,44.7z"/>
	</g>
	<g>
		<path fill="#F6914F" d="M636.8,43.4c-0.3,0-0.5-0.2-0.5-0.5c-0.1-2.3-2.3-2.3-2.4-2.3c-0.3,0-0.5-0.2-0.5-0.5
			c0-0.3,0.2-0.5,0.5-0.5c1.1,0,3.3,0.6,3.4,3.2C637.3,43.2,637.1,43.4,636.8,43.4C636.8,43.4,636.8,43.4,636.8,43.4z"/>
	</g>
	<g>
		<g>
			<path fill="#F6914F" d="M653.1,69.2c-1.1,0-1.9-0.2-2.4-0.4c-0.9-0.3-1.7-0.8-1.9-1.3c-0.3-0.6-0.3-1.9-0.4-3
				c0-0.5,0-1.1-0.1-1.3c-0.2-0.7-6-12.6-8.5-16.8l0.9-0.5c2.4,4,8.5,16.3,8.7,17.1c0.1,0.3,0.1,0.8,0.1,1.4c0,0.9,0.1,2.2,0.3,2.6
				c0.1,0.1,0.5,0.5,1.3,0.8c1.2,0.4,4,0.8,8.5-1.4c3-1.5,6.5-3.9,6.3-7c0-0.5-1.3-1.9-2.5-2.9l-0.1-0.1l-10.8-20.2l0.9-0.5
				l10.8,20.1c0.7,0.6,2.7,2.4,2.8,3.5c0.2,2.9-2.1,5.6-6.9,8C657,68.8,654.7,69.2,653.1,69.2z"/>
		</g>
		<g>
			<path fill="#F6914F" d="M663.8,57.5l-3.1-5.7l0.5-0.2c0,0,2.5-1.2,2.9-2.9c0-0.1,1.2-4.2-1.7-7.7c0,0-1.1-1.4-2.5-1.4
				c-0.7,0-1.3,0.3-2,0.9l-1.9,2.5l-2.5-4.6l0.4-0.2c2-1.1,5.4-3,6.1-3l0.2,0c0.3,0.1,6.6,2,7.5,7.5c0.8,4.5,0.6,6.4-0.9,8.9
				l-0.1,0.1l-0.2,0.1c-0.1,0-2.6,1.1-2.7,3.8L663.8,57.5z M662.1,52.3l1,1.9c0.6-1.9,2.3-2.9,2.9-3.1c1.3-2.3,1.4-4,0.7-8.1
				c-0.8-4.5-6-6.4-6.7-6.7c-0.5,0.1-2.9,1.4-5.2,2.7l1.3,2.4l1-1.4c0.9-0.9,1.8-1.3,2.7-1.3c1.9,0,3.3,1.7,3.3,1.7
				c3.3,4,1.9,8.4,1.8,8.6C664.6,50.6,662.9,51.8,662.1,52.3z"/>
		</g>
		<g>
			<path fill="#F6914F" d="M658.7,61.3L658.7,61.3c-0.7,0-1.3-0.4-1.7-1l-8.3-15.2c-0.3-0.5-0.3-1-0.2-1.5c0.2-0.6,0.7-1.1,1.4-1.5
				c1.4-0.8,2.6-0.5,3.2,0.6l8.3,15.2c0.6,1.1,0.2,2.3-1.2,3C659.7,61.2,659.2,61.3,658.7,61.3z M651.5,42.6c-0.3,0-0.7,0.1-1,0.3
				c-0.5,0.3-0.9,0.6-1,0.9c-0.1,0.2,0,0.5,0.1,0.7l8.3,15.2c0.2,0.3,0.4,0.5,0.8,0.5l0,0c0.3,0,0.7-0.1,1-0.3
				c0.9-0.5,1.2-1,0.8-1.7l-8.3-15.2C652.1,42.8,651.8,42.6,651.5,42.6z"/>
		</g>
		<g>
			<path fill="#F6914F" d="M653.2,64.3L653.2,64.3c-0.7,0-1.3-0.4-1.7-1L643.3,48c-0.6-1.1-0.1-2.3,1.2-3c1.4-0.7,2.6-0.5,3.2,0.6
				l8.3,15.2c0.3,0.5,0.3,1,0.2,1.5c-0.2,0.6-0.7,1.1-1.4,1.5C654.2,64.2,653.7,64.3,653.2,64.3z M646,45.6c-0.3,0-0.7,0.1-1,0.3
				c-0.9,0.5-1.2,1-0.8,1.7l8.3,15.2c0.3,0.6,1,0.7,1.8,0.2c0.5-0.3,0.9-0.6,1-1c0.1-0.2,0-0.5-0.1-0.7l-8.3-15.2
				C646.6,45.7,646.4,45.6,646,45.6z"/>
		</g>
	</g>
	<g>
		<path fill="#F6914F" d="M639.7,47.2l-0.1-1c0,0,1.2-0.2,1.6-1.9l0.1-0.2l0.2-0.1c0,0,1.2-0.6,1.6-1.7c0.2-0.6,0.1-1.2-0.2-1.8
			l-0.4-0.9l1,0.2c0.2,0,4.4,0.8,5.1-2.2l0.1-0.5l0.5,0.1c0,0,1.3,0.3,2.3-0.5c0.8-0.6,1.2-1.7,1.3-3.2l0,0c0,0,0-1.8-1.1-2.5
			c-0.7-0.5-1.7-0.4-3,0.1l-0.4,0.2L648,31c0,0-0.5-0.9-1.5-1.1c-0.7-0.1-1.5,0.1-2.3,0.7l-0.2,0.1c-0.1,0-5.5,1.1-6.6,4.6l-0.1,0.2
			l-0.2,0.1c0,0-1.2,0.4-1.9,1.3l-0.8-0.6c0.7-0.9,1.7-1.4,2.2-1.6c1.3-3.6,6.4-4.9,7.2-5c1.1-0.7,2.1-1,3.1-0.8
			c0.9,0.2,1.6,0.8,1.9,1.2c1.5-0.5,2.7-0.5,3.6,0.1c1.5,1,1.6,3.2,1.6,3.3c-0.1,1.9-0.6,3.2-1.7,4c-1,0.7-2.1,0.8-2.7,0.7
			c-0.8,2.4-3.4,2.8-5.3,2.6c0.1,0.6,0.1,1.2-0.1,1.7c-0.4,1.2-1.5,1.9-1.9,2.1C641.4,47,639.8,47.2,639.7,47.2z"/>
	</g>
	<g>
		<path fill="#F6914F" d="M651.2,36.2c-0.1,0-0.2,0-0.3-0.1c-0.2-0.2-0.3-0.5-0.1-0.7l0,0c0.1-0.2,1.2-1.9-0.6-3.2
			c-0.2-0.2-0.3-0.5-0.1-0.7c0.2-0.2,0.5-0.3,0.7-0.1c2.1,1.6,1.5,3.7,0.8,4.6C651.5,36.1,651.3,36.2,651.2,36.2z"/>
	</g>
	<g>
		<path fill="#F6914F" d="M652,67.3c-0.5,0-0.8,0-0.8,0c-0.3,0-0.5-0.3-0.4-0.6c0-0.3,0.3-0.5,0.6-0.4c0.1,0,8,0.8,12.9-6.3
			c0.2-0.2,0.5-0.3,0.7-0.1s0.3,0.5,0.1,0.7C660.8,66.7,654.3,67.3,652,67.3z"/>
	</g>
	<g>
		<path fill="#F6914F" d="M621.9,72.4c-7.7,0-12-5.7-12.1-5.8c-0.2-0.2-0.1-0.5,0.1-0.7c0.2-0.2,0.5-0.1,0.7,0.1
			c0,0.1,4.8,6.4,13.4,5.3c0.3,0,0.5,0.2,0.6,0.4s-0.2,0.5-0.4,0.6C623.3,72.4,622.6,72.4,621.9,72.4z"/>
	</g>
	<g>
		
			<rect x="620.9" y="29.8" transform="matrix(0.8016 0.5979 -0.5979 0.8016 141.9884 -367.1741)" fill="#F6914F" width="6.5" height="1"/>
	</g>
	<g>
		
			<rect x="625.6" y="25.7" transform="matrix(0.4133 0.9106 -0.9106 0.4133 393.0746 -557.7801)" fill="#F6914F" width="7.6" height="1"/>
	</g>
	<g>
		<rect x="635.1" y="22.3" fill="#F6914F" width="1" height="6.7"/>
	</g>
	<g>
		
			<rect x="641.1" y="23.3" transform="matrix(0.8905 0.455 -0.455 0.8905 82.2406 -289.0428)" fill="#F6914F" width="1" height="6"/>
	</g>
	<g>
		<path fill="#F6914F" d="M640.3,62.3l-0.1,0c-0.6,0-0.9-0.3-1.1-0.6c-0.5-0.8,0-2,0-2.1l0.2-0.5l0.5,0.3c1,0.6,1.4,1.2,1.4,1.8
			c0,0.7-0.7,1.1-0.8,1.1L640.3,62.3z M639.9,60.6c0,0.2,0,0.5,0.1,0.6c0,0,0,0.1,0.2,0.1c0.1-0.1,0.1-0.1,0.1-0.2
			C640.2,61.1,640.2,60.9,639.9,60.6z"/>
	</g>
</g>
<g>
	<g>
		<path fill="#F6914F" d="M520.4,74.2c-4.4,0-7.9-3.8-7.9-8.4c0-4.6,3.6-8.4,7.9-8.4s7.9,3.8,7.9,8.4
			C528.4,70.4,524.8,74.2,520.4,74.2z M520.4,58.4c-3.8,0-6.9,3.3-6.9,7.4c0,4.1,3.1,7.4,6.9,7.4s6.9-3.3,6.9-7.4
			C527.4,61.7,524.3,58.4,520.4,58.4z"/>
	</g>
	<g>
		<path fill="#F6914F" d="M520.4,71.9c-3.2,0-5.8-2.7-5.8-6.1c0-3.4,2.6-6.1,5.8-6.1s5.8,2.7,5.8,6.1
			C526.2,69.2,523.6,71.9,520.4,71.9z M520.4,60.7c-2.6,0-4.8,2.3-4.8,5.1c0,2.8,2.1,5.1,4.8,5.1s4.8-2.3,4.8-5.1
			C525.2,63,523.1,60.7,520.4,60.7z"/>
	</g>
	<g>
		
			<rect x="536" y="33" transform="matrix(0.2891 0.9573 -0.9573 0.2891 431.9227 -476.1153)" fill="#F6914F" width="1" height="39.6"/>
	</g>
	<g>
		<path fill="#F6914F" d="M559.5,57.6l-0.4-0.9c2.3-0.9,3.5-3.6,2.5-6.1c-1-2.5-3.6-3.9-6-3l-0.4-0.9c2.8-1.1,6.1,0.5,7.3,3.6
			C563.7,53.2,562.3,56.5,559.5,57.6z"/>
	</g>
	<g>
		
			<rect x="541.3" y="44.5" transform="matrix(0.4101 0.912 -0.912 0.4101 378.7773 -455.8709)" fill="#F6914F" width="1" height="40.8"/>
	</g>
	<g>
		<path fill="#F6914F" d="M534.8,75.8c-7.6,0-13.1-1.6-13.2-1.6l0.3-1c0.1,0,8.3,2.4,18.4,1.3l31.5-15.8c-4.1,0.4-11,0.8-13.1-1.2
			l0.7-0.7c2.1,2.1,11.7,1.1,15.2,0.6l3.2-0.5l-37.3,18.6C538.4,75.7,536.5,75.8,534.8,75.8z"/>
	</g>
	<g>
		<path fill="#F6914F" d="M559.4,62c-4,0-6.6-1.5-6.7-1.5c-0.2-0.1-0.3-0.4-0.2-0.7s0.4-0.3,0.7-0.2c0,0,3.2,1.8,7.6,1.3
			c0.3,0,0.5,0.2,0.5,0.5c0,0.3-0.2,0.5-0.5,0.5C560.3,62,559.8,62,559.4,62z"/>
	</g>
	<g>
		<path fill="#F6914F" d="M554.7,64.2C554.7,64.2,554.7,64.2,554.7,64.2c-4.8-0.2-6.6-1.8-6.7-1.9c-0.2-0.2-0.2-0.5,0-0.7
			c0.2-0.2,0.5-0.2,0.7,0c0,0,1.7,1.4,6,1.6c0.3,0,0.5,0.2,0.5,0.5C555.2,64,555,64.2,554.7,64.2z"/>
	</g>
	<g>
		<path fill="#F6914F" d="M550.4,66.7C550.4,66.7,550.4,66.7,550.4,66.7c-2.5,0-7.3-1.9-7.5-1.9c-0.3-0.1-0.4-0.4-0.3-0.6
			c0.1-0.3,0.4-0.4,0.6-0.3c0,0,4.8,1.9,7.2,1.9c0.3,0,0.5,0.2,0.5,0.5C550.9,66.5,550.7,66.7,550.4,66.7z"/>
	</g>
	<g>
		<path fill="#F6914F" d="M546.1,68.9c-3.7,0-8.2-1.4-8.3-1.5c-0.3-0.1-0.4-0.4-0.3-0.6c0.1-0.3,0.4-0.4,0.6-0.3c0,0,4.5,1.4,8,1.4
			c0.3,0,0.5,0.2,0.5,0.5S546.3,68.9,546.1,68.9z"/>
	</g>
	<g>
		<path fill="#F6914F" d="M539.9,71.6c-5.1,0-8.3-1.7-8.4-1.7c-0.2-0.1-0.3-0.4-0.2-0.7c0.1-0.2,0.4-0.3,0.7-0.2
			c0,0,3.6,1.9,9.1,1.6c0.3,0,0.5,0.2,0.5,0.5c0,0.3-0.2,0.5-0.5,0.5C540.7,71.6,540.3,71.6,539.9,71.6z"/>
	</g>
	<g>
		<path fill="#F6914F" d="M526.5,59c-0.2,0-0.4-0.1-0.5-0.3c-0.1-0.3,0.1-0.5,0.3-0.6l30.3-9.9c0.3-0.1,0.5,0.1,0.6,0.3
			c0.1,0.3-0.1,0.5-0.3,0.6L526.7,59C526.6,59,526.6,59,526.5,59z"/>
	</g>
	<g>
		<path fill="#F6914F" d="M534.8,23.6c-1.4,0-5.9-0.1-5.9-1.6c0-1.5,4.5-1.6,5.9-1.6s5.9,0.1,5.9,1.6
			C540.7,23.5,536.2,23.6,534.8,23.6z M530.2,22.1c0.6,0.3,2.2,0.6,4.7,0.6c2.5,0,4.1-0.3,4.7-0.6c-0.6-0.3-2.2-0.6-4.7-0.6
			C532.4,21.5,530.7,21.8,530.2,22.1z"/>
	</g>
	<g>
		<rect x="529" y="22.1" fill="#F6914F" width="1" height="32.9"/>
	</g>
	<g>
		<rect x="539.7" y="22.1" fill="#F6914F" width="1" height="29.7"/>
	</g>
	<g>
		<path fill="#F6914F" d="M538.8,23.2c-3.9-1.4-8-0.1-8.1,0l-0.3-0.9c0.2-0.1,4.5-1.5,8.8,0.1L538.8,23.2z"/>
	</g>
	<g>
		<path fill="#F6914F" d="M526,55.6h-1V24.7l0.1-0.1c1.3-1.6,4.1-2.3,4.2-2.3l0.2,1c0,0-2.4,0.6-3.6,1.8V55.6z"/>
	</g>
	<g>
		<path fill="#F6914F" d="M536.5,52.1c-0.3,0-0.5-0.2-0.5-0.5v-25c0-0.3,0.2-0.5,0.5-0.5s0.5,0.2,0.5,0.5v25
			C537,51.9,536.8,52.1,536.5,52.1z"/>
	</g>
</g>
<g>
	<g>
		<path fill="#F6914F" d="M478.1,75h-54.2V20.6L478.1,75z M424.9,74h50.8L424.9,23V74z"/>
	</g>
	<g>
		<path fill="#F6914F" d="M451.9,67.1l-19.1,0V48L451.9,67.1z M433.8,66.1l15.7,0l-15.7-15.7V66.1z"/>
	</g>
	<g>
		
			<rect x="433" y="32.3" transform="matrix(0.7071 0.7071 -0.7071 0.7071 152.0646 -296.1736)" fill="#F6914F" width="1" height="6.4"/>
	</g>
	<g>
		
			<rect x="440.7" y="40" transform="matrix(0.7071 0.7071 -0.7071 0.7071 159.7501 -299.355)" fill="#F6914F" width="1" height="6.3"/>
	</g>
	<g>
		
			<rect x="437.6" y="36.3" transform="matrix(0.7071 0.7071 -0.7071 0.7071 155.4238 -298.544)" fill="#F6914F" width="1" height="4"/>
	</g>
	<g>
		
			<rect x="448.4" y="47.7" transform="matrix(0.7071 0.7071 -0.7071 0.7071 167.4334 -302.5394)" fill="#F6914F" width="1" height="6.4"/>
	</g>
	<g>
		
			<rect x="445.3" y="44" transform="matrix(0.7066 0.7076 -0.7076 0.7066 163.3474 -301.9201)" fill="#F6914F" width="1" height="4"/>
	</g>
	<g>
		
			<rect x="456.1" y="55.4" transform="matrix(0.7071 0.7071 -0.7071 0.7071 175.1197 -305.7226)" fill="#F6914F" width="1" height="6.3"/>
	</g>
	<g>
		
			<rect x="453" y="51.7" transform="matrix(0.7071 0.7071 -0.7071 0.7071 170.7921 -304.9097)" fill="#F6914F" width="1" height="4"/>
	</g>
	<g>
		
			<rect x="463.8" y="63" transform="matrix(0.7071 0.7071 -0.7071 0.7071 182.8036 -308.9047)" fill="#F6914F" width="1" height="6.4"/>
	</g>
	<g>
		
			<rect x="460.6" y="59.4" transform="matrix(0.7066 0.7076 -0.7076 0.7066 178.7321 -308.2867)" fill="#F6914F" width="1" height="4"/>
	</g>
</g>
<g>
	<g>
		<path fill="none" stroke="#F6914F" stroke-miterlimit="10" d="M167.1,148.4c-0.3-1.7,0.5-3.2,1.6-3.4c1.2-0.2,2.4,1,2.6,2.7
			c0.3,1.7-0.5,3.2-1.6,3.4c-0.6,0.1-1.3-0.2-1.8-0.8"/>
		<path fill="none" stroke="#F6914F" stroke-miterlimit="10" d="M169.7,151.1c1.5,0,2.2-1.6,1.9-3.3c-0.3-1.7-1.8-3-2.9-2.8"/>
	</g>
	<g>
		<path fill="none" stroke="#F6914F" stroke-miterlimit="10" d="M173.4,143.8c0-0.1,0-0.1,0-0.2c-0.3-1.7,0.5-3.2,1.6-3.4
			c1.2-0.2,2.4,1,2.6,2.7c0.3,1.7-0.5,3.2-1.6,3.4c-0.7,0.1-1.3-0.2-1.8-0.8"/>
		<path fill="none" stroke="#F6914F" stroke-miterlimit="10" d="M176,146.2c1.5,0,2.2-1.6,1.9-3.3c-0.3-1.7-1.8-3-2.9-2.8"/>
	</g>
	<g>
		<path fill="none" stroke="#F6914F" stroke-miterlimit="10" d="M179.7,138.6c0,0,0-0.1,0-0.1c-0.3-1.7,0.5-3.2,1.6-3.4
			c1.2-0.2,2.4,1,2.6,2.7c0.3,1.7-0.5,3.2-1.6,3.4c-0.6,0.1-1.3-0.2-1.8-0.7"/>
		<path fill="none" stroke="#F6914F" stroke-miterlimit="10" d="M182.3,141.1c1.6,0,2.2-1.6,1.9-3.3c-0.3-1.7-1.8-3-2.9-2.8"/>
	</g>
	<g>
		<path fill="none" stroke="#F6914F" stroke-miterlimit="10" d="M184.5,134.8c0-0.1,0-0.2,0-0.2c-0.3-1.7,0.5-3.2,1.6-3.4
			c1.2-0.2,2.4,1,2.6,2.7c0.3,1.7-0.5,3.2-1.6,3.4c-0.6,0.1-1.3-0.2-1.7-0.7"/>
		<path fill="none" stroke="#F6914F" stroke-miterlimit="10" d="M187.1,137.2c1.6,0,2.2-1.6,1.9-3.3c-0.3-1.7-1.8-3-2.9-2.8"/>
	</g>
	<path fill="none" stroke="#F6914F" stroke-miterlimit="10" d="M164.7,189.9c0,2.2-1.7,4-3.9,4c-2.2,0-3.9-1.8-3.9-4v-41.7
		c0-2.2,1.6-4,3.5-4c1.9,0,3.6,1.8,3.6,4L164.7,189.9z"/>
	<path fill="none" stroke="#F6914F" stroke-miterlimit="10" d="M189.4,131v-4.6c0-1.6,1.3-2.9,2.9-2.9h0.2c1.6,0,2.9,1.3,3,2.9
		l0.8,36.1c0,1.6-1.2,2.9-2.8,2.9h-1.1c-1.6,0-2.9-1.3-2.9-2.9v-0.4"/>
	<line fill="none" stroke="#F6914F" stroke-miterlimit="10" x1="189.4" y1="140.7" x2="189.4" y2="133.1"/>
	<line fill="none" stroke="#F6914F" stroke-miterlimit="10" x1="189.4" y1="150.1" x2="189.4" y2="142.7"/>
	<line fill="none" stroke="#F6914F" stroke-miterlimit="10" x1="189.4" y1="156.9" x2="189.4" y2="152.4"/>
	<line fill="none" stroke="#F6914F" stroke-miterlimit="10" x1="189.4" y1="159.8" x2="189.4" y2="155.3"/>
	<path fill="none" stroke="#F6914F" stroke-miterlimit="10" d="M171.6,147.5l4.6-3.7c0,0,0-2.3-1.3-1.5l-4.2,3.3"/>
	<path fill="none" stroke="#F6914F" stroke-miterlimit="10" d="M188.1,132l4.3-3.4c0,0,2,0.8,0,2.3l-3.6,2.9"/>
	<path fill="none" stroke="#F6914F" stroke-miterlimit="10" d="M183.2,135.8l3-2.4c0,0,1.1,0.3,0.6,1.9l-2.7,2.2"/>
	<path fill="none" stroke="#F6914F" stroke-miterlimit="10" d="M176.7,140.9l4.5-3.5c0,0,1.5-1,1.1,1.5l-4.5,3.6"/>
	<path fill="none" stroke="#F6914F" stroke-miterlimit="10" d="M164.3,150.6l4.7-3.7c0,0,1.6,0.4,0.5,2.2l-5.2,4.2"/>
	<g>
		<path fill="none" stroke="#F6914F" stroke-miterlimit="10" d="M168.1,157.2c-0.3-1.7,0.5-3.2,1.6-3.4c1.2-0.2,2.4,1,2.6,2.7
			c0.3,1.7-0.5,3.2-1.6,3.4c-0.6,0.1-1.3-0.2-1.8-0.8"/>
		<path fill="none" stroke="#F6914F" stroke-miterlimit="10" d="M170.7,159.9c1.5,0,2.2-1.6,1.9-3.3c-0.3-1.7-1.8-3-2.9-2.8"/>
	</g>
	<g>
		<path fill="none" stroke="#F6914F" stroke-miterlimit="10" d="M173.4,153.4c0-0.1,0-0.1,0-0.2c-0.3-1.7,0.5-3.2,1.6-3.4
			c1.2-0.2,2.4,1,2.6,2.7c0.3,1.7-0.5,3.2-1.6,3.4c-0.7,0.1-1.3-0.2-1.8-0.8"/>
		<path fill="none" stroke="#F6914F" stroke-miterlimit="10" d="M176,155.9c1.5,0,2.2-1.6,1.9-3.3c-0.3-1.7-1.8-3-2.9-2.8"/>
	</g>
	<g>
		<path fill="none" stroke="#F6914F" stroke-miterlimit="10" d="M178.1,149.4c0,0,0-0.1,0-0.1c-0.3-1.7,0.5-3.2,1.6-3.4
			c1.2-0.2,2.4,1,2.6,2.7c0.3,1.7-0.5,3.2-1.6,3.4c-0.6,0.1-1.3-0.2-1.8-0.7"/>
		<path fill="none" stroke="#F6914F" stroke-miterlimit="10" d="M180.7,152c1.5,0,2.2-1.6,1.9-3.3c-0.3-1.7-1.8-3-2.9-2.8"/>
	</g>
	<g>
		<path fill="none" stroke="#F6914F" stroke-miterlimit="10" d="M184.5,144.5c0-0.1,0-0.2,0-0.2c-0.3-1.7,0.5-3.2,1.6-3.4
			c1.2-0.2,2.4,1,2.6,2.7c0.3,1.7-0.5,3.2-1.6,3.4c-0.6,0.1-1.3-0.2-1.7-0.7"/>
		<path fill="none" stroke="#F6914F" stroke-miterlimit="10" d="M187.1,146.9c1.6,0,2.2-1.6,1.9-3.3c-0.3-1.7-1.8-3-2.9-2.8"/>
	</g>
	<path fill="none" stroke="#F6914F" stroke-miterlimit="10" d="M172.6,156.3l3.6-2.9c0,0,0-2.3-1.3-1.5l-3.2,2.5"/>
	<path fill="none" stroke="#F6914F" stroke-miterlimit="10" d="M188.1,141.7l4.3-3.4c0,0,2,0.8,0,2.3l-3.6,2.9"/>
	<path fill="none" stroke="#F6914F" stroke-miterlimit="10" d="M181.6,146.7l4.6-3.6c0,0,1.1,0.3,0.6,1.9l-4.3,3.4"/>
	<path fill="none" stroke="#F6914F" stroke-miterlimit="10" d="M176.7,150.5l2.9-2.3c0,0,1.5-1,1.1,1.5l-2.9,2.4"/>
	<path fill="none" stroke="#F6914F" stroke-miterlimit="10" d="M164.3,160.2l5.7-4.5c0,0,1.6,0.4,0.5,2.2l-6.3,5"/>
	<g>
		<g>
			<path fill="none" stroke="#F6914F" stroke-miterlimit="10" d="M165.3,178.6c-0.3-1.7,0.5-3.2,1.6-3.4c1.2-0.2,2.4,1,2.6,2.7
				c0.3,1.7-0.5,3.2-1.6,3.4c-0.6,0.1-1.3-0.2-1.8-0.8"/>
			<path fill="none" stroke="#F6914F" stroke-miterlimit="10" d="M167.9,181.3c1.6,0,2.2-1.6,1.9-3.3c-0.3-1.7-1.8-3-2.9-2.8"/>
		</g>
		<g>
			<path fill="none" stroke="#F6914F" stroke-miterlimit="10" d="M176.1,170.5c0-0.1,0-0.1,0-0.2c-0.3-1.7,0.5-3.2,1.6-3.4
				c1.2-0.2,2.4,1,2.6,2.7c0.3,1.7-0.5,3.2-1.6,3.4c-0.7,0.1-1.3-0.2-1.8-0.8"/>
			<path fill="none" stroke="#F6914F" stroke-miterlimit="10" d="M178.7,173c1.5,0,2.2-1.6,1.9-3.3c-0.3-1.7-1.8-3-2.9-2.8"/>
		</g>
		<g>
			<path fill="none" stroke="#F6914F" stroke-miterlimit="10" d="M179.7,167.4c0,0,0-0.1,0-0.1c-0.3-1.7,0.5-3.2,1.6-3.4
				c1.2-0.2,2.4,1,2.6,2.7c0.3,1.7-0.5,3.2-1.6,3.4c-0.6,0.1-1.3-0.2-1.8-0.7"/>
			<path fill="none" stroke="#F6914F" stroke-miterlimit="10" d="M182.3,170c1.6,0,2.2-1.6,1.9-3.3c-0.3-1.7-1.8-3-2.9-2.8"/>
		</g>
		<g>
			<path fill="none" stroke="#F6914F" stroke-miterlimit="10" d="M184.5,163.6c0-0.1,0-0.2,0-0.2c-0.3-1.7,0.5-3.2,1.6-3.4
				c1.2-0.2,2.4,1,2.6,2.7c0.3,1.7-0.5,3.2-1.6,3.4c-0.6,0.1-1.3-0.2-1.7-0.7"/>
			<path fill="none" stroke="#F6914F" stroke-miterlimit="10" d="M187.1,166.1c1.6,0,2.2-1.6,1.9-3.3c-0.3-1.7-1.8-3-2.9-2.8"/>
		</g>
		<path fill="none" stroke="#F6914F" stroke-miterlimit="10" d="M169.8,177.7l9.1-7.1c0,0,0-2.3-1.3-1.5l-8.7,6.7"/>
		<path fill="none" stroke="#F6914F" stroke-miterlimit="10" d="M188.1,160.9l4.3-3.4c0,0,2,0.8,0,2.3l-3.6,2.9"/>
		<path fill="none" stroke="#F6914F" stroke-miterlimit="10" d="M183.2,164.7l3-2.4c0,0,1.1,0.3,0.6,1.9l-2.7,2.2"/>
		<path fill="none" stroke="#F6914F" stroke-miterlimit="10" d="M179.4,167.6l1.8-1.4c0,0,1.5-1,1.1,1.5l-1.8,1.5"/>
		<path fill="none" stroke="#F6914F" stroke-miterlimit="10" d="M164.3,179.4l2.9-2.3c0,0,1.6,0.4,0.5,2.2l-3.5,2.8"/>
	</g>
	<g>
		<g>
			<path fill="none" stroke="#F6914F" stroke-miterlimit="10" d="M167.1,167.5c-0.3-1.7,0.5-3.2,1.6-3.4c1.2-0.2,2.4,1,2.6,2.7
				c0.3,1.7-0.5,3.2-1.6,3.4c-0.6,0.1-1.3-0.2-1.8-0.8"/>
			<path fill="none" stroke="#F6914F" stroke-miterlimit="10" d="M169.7,170.2c1.5,0,2.2-1.6,1.9-3.3c-0.3-1.7-1.8-3-2.9-2.8"/>
		</g>
		<g>
			<path fill="none" stroke="#F6914F" stroke-miterlimit="10" d="M171.1,164.7c0-0.1,0-0.1,0-0.2c-0.3-1.7,0.5-3.2,1.6-3.4
				c1.2-0.2,2.4,1,2.6,2.7c0.3,1.7-0.5,3.2-1.6,3.4c-0.7,0.1-1.3-0.2-1.8-0.8"/>
			<path fill="none" stroke="#F6914F" stroke-miterlimit="10" d="M173.7,167.2c1.5,0,2.2-1.6,1.9-3.3c-0.3-1.7-1.8-3-2.9-2.8"/>
		</g>
		<g>
			<path fill="none" stroke="#F6914F" stroke-miterlimit="10" d="M175.6,160.8c0,0,0-0.1,0-0.2c-0.3-1.7,0.5-3.2,1.6-3.4
				c1.2-0.2,2.4,1,2.6,2.7c0.3,1.7-0.5,3.2-1.6,3.4c-0.6,0.1-1.3-0.2-1.8-0.7"/>
			<path fill="none" stroke="#F6914F" stroke-miterlimit="10" d="M178.2,163.3c1.5,0,2.2-1.6,1.9-3.3c-0.3-1.7-1.8-3-2.9-2.8"/>
		</g>
		<g>
			<path fill="none" stroke="#F6914F" stroke-miterlimit="10" d="M184.5,154c0-0.1,0-0.2,0-0.2c-0.3-1.7,0.5-3.2,1.6-3.4
				c1.2-0.2,2.4,1,2.6,2.7c0.3,1.7-0.5,3.2-1.6,3.4c-0.6,0.1-1.3-0.2-1.7-0.7"/>
			<path fill="none" stroke="#F6914F" stroke-miterlimit="10" d="M187.1,156.4c1.6,0,2.2-1.6,1.9-3.3c-0.3-1.7-1.8-3-2.9-2.8"/>
		</g>
		<path fill="none" stroke="#F6914F" stroke-miterlimit="10" d="M171.6,166.7l2.3-1.9c0,0,0-2.3-1.3-1.5l-1.9,1.5"/>
		<path fill="none" stroke="#F6914F" stroke-miterlimit="10" d="M188.1,151.2l4.3-3.4c0,0,2,0.8,0,2.3l-3.6,2.9"/>
		<path fill="none" stroke="#F6914F" stroke-miterlimit="10" d="M179.1,158l7.1-5.4c0,0,1.1,0.3,0.6,1.9l-6.8,5.2"/>
		<path fill="none" stroke="#F6914F" stroke-miterlimit="10" d="M174.4,161.8l2.8-2.2c0,0,1.5-1,1.1,1.5l-2.8,2.3"/>
		<path fill="none" stroke="#F6914F" stroke-miterlimit="10" d="M164.3,169.7l4.7-3.7c0,0,1.6,0.4,0.5,2.2l-5.2,4.2"/>
	</g>
	<path fill="none" stroke="#F6914F" stroke-miterlimit="10" d="M159.6,146.9V191c0,0,0.7,0.5,1.2,0"/>
</g>
<g>
	<g>
		<path fill="#F6914F" d="M480.1,184.9c-4.1,0-7.1-1.2-10-2.5c-0.8-0.3-1.5-0.6-2.3-0.9c-2.3-0.9-5.6-3.4-7.2-4.7
			c-2.7-2.4-2.6-6.6-2.5-11.1c0-0.9,0-1.8,0-2.7l-2.6-10.6c0-0.7,0-2.7,0.1-3.4c0.1-0.8,0.1-1.7,0.1-2.4c0-1.8,0-3.4,0.9-4.9
			c0.8-1.2,3-3.6,3.9-4.4c2.4-2.1,5.3-2.6,8.8-3.2c0.7-0.1,1.4-0.2,2.2-0.4c1-0.2,2-0.5,3.1-0.9c1.8-0.6,3.7-1.2,5.6-1.2
			c3.4,0,7.7,1.2,11.2,2.2c0.7,0.2,1.4,0.4,2.1,0.6c1.4,0.4,2.6,1.3,3.8,2.2c0.7,0.5,1.4,1,2,1.4l0.6,0.3c2.3,1.2,5.3,2.7,6.5,4.6
			c1.8,2.8,2.2,6,1,9.6c-0.5,1.7-2.4,3-3.8,3.9c-0.6,0.4-1.1,0.7-1.3,1c-1.2,1.4-2,1.8-2.7,2.1c-1,0.5-1.3,0.7-2.4,7
			c-0.3,1.7-1.2,3.5-2.1,5.2c-0.7,1.4-1.4,2.7-1.5,3.5C493,181.3,490.5,184.9,480.1,184.9z M456.5,152.3l2.6,10.6c0,1,0,1.9,0,2.8
			c-0.1,4.4-0.2,8.2,2.2,10.3c1.6,1.4,4.8,3.8,6.9,4.5c0.8,0.3,1.6,0.6,2.4,0.9c3,1.2,5.8,2.4,9.6,2.4c9.7,0,11.9-3,12.6-8.8
			c0.1-1,0.8-2.3,1.6-3.8c0.8-1.6,1.8-3.4,2-4.9c1.1-6.5,1.4-6.9,2.9-7.7c0.6-0.3,1.3-0.7,2.4-1.9c0.3-0.3,0.8-0.7,1.5-1.1
			c1.2-0.8,2.9-2,3.4-3.4c1-3.3,0.7-6.2-0.9-8.7c-1.1-1.6-3.9-3.1-6.1-4.2l-0.6-0.3c-0.7-0.4-1.4-0.9-2.1-1.4
			c-1.1-0.8-2.3-1.7-3.5-2c-0.7-0.2-1.4-0.4-2.1-0.6c-3.4-1-7.7-2.2-10.9-2.2c-1.8,0-3.6,0.6-5.3,1.1c-1.1,0.4-2.2,0.7-3.2,0.9
			c-0.7,0.1-1.5,0.3-2.2,0.4c-3.3,0.5-6.1,1-8.3,2.9c-0.9,0.8-3,3.1-3.7,4.2c-0.8,1.2-0.8,2.7-0.8,4.4c0,0.8,0,1.6-0.1,2.5
			C456.5,149.7,456.5,151.5,456.5,152.3z"/>
	</g>
	<g>
		<path fill="#F6914F" d="M488.6,183.3l-1-0.2c0,0,0.4-2.6,0.1-4.4c-0.2-1.2,0.3-1.8,0.8-2.3c0.5-0.6,1-1.1,1-2.6
			c0-1.2,0.3-1.8,0.9-3.3c0.4-1,1-2.4,1.9-4.8c2-5.8,6.3-6.9,6.5-6.9l0.2,1c-0.2,0-3.9,1-5.8,6.3c-0.8,2.4-1.5,3.8-1.9,4.8
			c-0.6,1.4-0.8,1.9-0.8,2.9c0,1.9-0.7,2.7-1.3,3.3c-0.4,0.5-0.7,0.8-0.6,1.4C489.1,180.6,488.7,183.2,488.6,183.3z"/>
	</g>
	<g>
		<path fill="#F6914F" d="M499.1,153c-22-6.6-37-5.3-37.2-5.2l-0.1-1c0.1,0,15.3-1.4,37.6,5.3L499.1,153z"/>
	</g>
	<g>
		<path fill="#F6914F" d="M488.5,163.2c-10.5-3.2-26.5-3.3-26.7-3.3v-1c0.2,0,16.3,0,27,3.3L488.5,163.2z"/>
	</g>
	<g>
		<path fill="#F6914F" d="M484.1,173.9c-5.4-2.2-19.3-2.4-19.4-2.4l0-1c0.6,0,14.1,0.2,19.8,2.5L484.1,173.9z"/>
	</g>
	<g>
		
			<rect x="467.8" y="139.3" transform="matrix(0.9702 0.2424 -0.2424 0.9702 47.9122 -109.86)" fill="#F6914F" width="5.4" height="1"/>
	</g>
	<g>
		<path fill="#F6914F" d="M474.8,144.2c-1.4,0-2.6-1.1-2.6-2.6c0-1.4,1.1-2.6,2.6-2.6s2.6,1.1,2.6,2.6
			C477.4,143,476.3,144.2,474.8,144.2z M474.8,140.1c-0.9,0-1.6,0.7-1.6,1.6c0,0.9,0.7,1.6,1.6,1.6s1.6-0.7,1.6-1.6
			C476.4,140.8,475.7,140.1,474.8,140.1z"/>
	</g>
	<g>
		
			<rect x="470.7" y="140.1" transform="matrix(5.271251e-02 0.9986 -0.9986 5.271251e-02 587.8859 -336.3346)" fill="#F6914F" width="1" height="3.1"/>
	</g>
	<g>
		
			<rect x="471.5" y="142.1" transform="matrix(0.4472 0.8944 -0.8944 0.4472 389.1073 -342.8949)" fill="#F6914F" width="1" height="2.6"/>
	</g>
	<g>
		<polygon fill="#F6914F" points="476.8,143.4 476.4,142.5 478,141.8 476.3,140.7 476.8,139.9 480.1,142.1 		"/>
	</g>
	<g>
		<path fill="#F6914F" d="M490.6,147.1l-6.7-1l1.6-3.8l2.5,0.9l4.5-2.9L490.6,147.1z M485.3,145.3l4.5,0.7l1-3.4l-2.7,1.7l-2.1-0.7
			L485.3,145.3z"/>
	</g>
	<g>
		<polygon fill="#F6914F" points="494.8,148.3 490.1,147 490.4,146.1 493.2,146.8 491.2,141.6 492.2,141.3 		"/>
	</g>
	<g>
		
			<rect x="467.2" y="151" transform="matrix(0.9947 0.1029 -0.1029 0.9947 18.0915 -47.5975)" fill="#F6914F" width="6.4" height="1"/>
	</g>
	<g>
		
			<rect x="464.7" y="152.8" transform="matrix(0.9923 0.124 -0.124 0.9923 22.6408 -57.015)" fill="#F6914F" width="8.8" height="1"/>
	</g>
	<g>
		
			<rect x="467.2" y="155" transform="matrix(0.9947 0.1027 -0.1027 0.9947 18.4518 -47.4737)" fill="#F6914F" width="6.4" height="1"/>
	</g>
	<g>
		<rect x="473.1" y="150.8" fill="#F6914F" width="1" height="5.9"/>
	</g>
	<g>
		<path fill="#F6914F" d="M483.7,157.9c-2.5,0-4.6-1-6.2-3l-0.3-0.4l0.3-0.3c0.1-0.1,2.3-2.2,5-2.2c2.3,0,4.1,1.4,5.6,4.3l0.2,0.4
			L488,157C487.9,157,486,157.9,483.7,157.9z M478.7,154.7c1.3,1.5,3,2.2,5.1,2.2c1.4,0,2.7-0.4,3.3-0.6c-1.2-2.2-2.7-3.3-4.4-3.3
			C480.9,153.1,479.3,154.2,478.7,154.7z"/>
	</g>
	<g>
		<circle fill="#828282" cx="482.9" cy="155.1" r="1.2"/>
		<path fill="#F6914F" d="M482.9,156.8c-1,0-1.7-0.8-1.7-1.7c0-1,0.8-1.7,1.7-1.7c1,0,1.7,0.8,1.7,1.7
			C484.6,156,483.8,156.8,482.9,156.8z M482.9,154.3c-0.4,0-0.7,0.3-0.7,0.7c0,0.4,0.3,0.7,0.7,0.7c0.4,0,0.7-0.3,0.7-0.7
			C483.6,154.6,483.3,154.3,482.9,154.3z"/>
	</g>
	<g>
		<path fill="#F6914F" d="M466.4,167l-2.4-4.2l6.3,0.4l1.4,3.4L466.4,167z M465.8,163.9l1.2,2.1l3.3-0.3l-0.6-1.6L465.8,163.9z"/>
	</g>
	<g>
		<path fill="#F6914F" d="M478.9,168c-1.3,0-2.3-1-2.3-2.3c0-1.3,1-2.3,2.3-2.3s2.3,1,2.3,2.3C481.2,166.9,480.1,168,478.9,168z
			 M478.9,164.3c-0.7,0-1.3,0.6-1.3,1.3c0,0.7,0.6,1.3,1.3,1.3s1.3-0.6,1.3-1.3C480.2,164.9,479.6,164.3,478.9,164.3z"/>
	</g>
	<g>
		
			<rect x="471.5" y="163.3" transform="matrix(5.471246e-02 0.9985 -0.9985 5.471246e-02 610.6359 -315.5255)" fill="#F6914F" width="1" height="3"/>
	</g>
</g>
<g>
	<g>
		<path fill="#F6914F" d="M554.7,163l-3.6-6.1l3-1.7l3.6,6.1L554.7,163z M552.4,157.2l2.6,4.4l1.2-0.7l-2.6-4.4L552.4,157.2z"/>
	</g>
	<g>
		<path fill="#F6914F" d="M556.1,160.5l-2.2-3.7l10.2-6.3l2.4,4L556.1,160.5z M555.3,157.2l1.2,2l8.7-4.9l-1.3-2.3L555.3,157.2z"/>
	</g>
	<g>
		<path fill="#F6914F" d="M566,155.6l-3-5l12.7-8.1l3.5,5.9L566,155.6z M564.3,150.9l2,3.4l11.5-6.2l-2.4-4.1L564.3,150.9z"/>
	</g>
	<g>
		<path fill="#F6914F" d="M578.7,149.5l-4.2-7.1l17.7-11.7l5.3,8.9L578.7,149.5z M575.8,142.7l3.2,5.5l16.9-9l-4.2-7.1L575.8,142.7z
			"/>
	</g>
	<g>
		<path fill="#F6914F" d="M597.6,142l-7.3-12.4l3.2-1.9l7.3,12.4L597.6,142z M591.7,129.9l6.3,10.7l1.5-0.9l-6.3-10.7L591.7,129.9z"
			/>
	</g>
	<g>
		<path fill="#F6914F" d="M576.9,156c-2.4,0-4.3-1.9-4.3-4.3c0-0.3,0-0.6,0.1-0.9l1,0.2c0,0.2-0.1,0.4-0.1,0.7
			c0,1.8,1.5,3.3,3.3,3.3s3.3-1.5,3.3-3.3c0-1-0.4-1.9-1.2-2.6l0.6-0.8c1,0.8,1.6,2,1.6,3.3C581.2,154.1,579.3,156,576.9,156z"/>
	</g>
	<g>
		<path fill="#F6914F" d="M576.9,153.8c-1.1,0-2.1-0.9-2.1-2.1c0-1.1,0.9-2.1,2.1-2.1s2.1,0.9,2.1,2.1
			C579,152.9,578.1,153.8,576.9,153.8z M576.9,150.7c-0.6,0-1.1,0.5-1.1,1.1s0.5,1.1,1.1,1.1s1.1-0.5,1.1-1.1
			S577.5,150.7,576.9,150.7z"/>
	</g>
	<g>
		<path fill="#F6914F" d="M567,181.1h-2.6l10.9-25.9l0.9,0.4L567,181.1z M565.9,180.1h0.4l2.5-6.9L565.9,180.1z"/>
	</g>
	<g>
		<path fill="#F6914F" d="M589.5,181.1h-2.6l-9.2-25.6l0.9-0.4L589.5,181.1z M587.6,180.1h0.4l-2.9-6.9L587.6,180.1z"/>
	</g>
	<g>
		<path fill="#F6914F" d="M578.6,183.1l-2.2-0.3v-27.2l1,0L578.6,183.1z M577.4,181.9l0.1,0l-0.1-2.8V181.9z"/>
	</g>
	<g>
		<path fill="#F6914F" d="M600.5,127.7l-0.7-0.7l0.5-0.5l0.7,0.7L600.5,127.7z M603.7,124.3l-0.7-0.7l0.5-0.5l0.7,0.7L603.7,124.3z
			 M606.9,120.9l-0.7-0.7l0.5-0.5l0.7,0.7L606.9,120.9z M610.1,117.4l-0.7-0.7l0.5-0.5l0.7,0.7L610.1,117.4z M613.3,114l-0.7-0.7
			l0.5-0.5l0.7,0.7L613.3,114z M616.5,110.6l-0.7-0.7l0.5-0.5l0.7,0.7L616.5,110.6z M619.7,107.2l-0.7-0.7l0.5-0.5l0.7,0.7
			L619.7,107.2z"/>
	</g>
	<g>
		<path fill="#F6914F" d="M603.5,134.4l-0.4-0.9l0.6-0.3l0.4,0.9L603.5,134.4z M607.7,132.5l-0.4-0.9l0.6-0.3l0.4,0.9L607.7,132.5z
			 M612,130.6l-0.4-0.9l0.6-0.3l0.4,0.9L612,130.6z M616.3,128.6l-0.4-0.9l0.6-0.3l0.4,0.9L616.3,128.6z M620.6,126.7l-0.4-0.9
			l0.6-0.3l0.4,0.9L620.6,126.7z M624.9,124.8l-0.4-0.9l0.6-0.3l0.4,0.9L624.9,124.8z M629.1,122.9l-0.4-0.9l0.6-0.3l0.4,0.9
			L629.1,122.9z M633.4,120.9L633,120l0.6-0.3l0.4,0.9L633.4,120.9z"/>
	</g>
	<g>
		<path fill="#F6914F" d="M602.5,130.4l-0.6-0.8l0.6-0.4l0.6,0.8L602.5,130.4z M606.4,127.7l-0.6-0.8l0.6-0.4l0.6,0.8L606.4,127.7z
			 M610.3,125.1l-0.6-0.8l0.6-0.4l0.6,0.8L610.3,125.1z M614.2,122.5l-0.6-0.8l0.6-0.4l0.6,0.8L614.2,122.5z M618,119.8l-0.6-0.8
			l0.6-0.4l0.6,0.8L618,119.8z M621.9,117.2l-0.6-0.8l0.6-0.4l0.6,0.8L621.9,117.2z M625.8,114.6l-0.6-0.8l0.6-0.4l0.6,0.8
			L625.8,114.6z M629.7,111.9l-0.6-0.8l0.6-0.4l0.6,0.8L629.7,111.9z M633.6,109.3l-0.6-0.8l0.6-0.4l0.6,0.8L633.6,109.3z
			 M637.5,106.6l-0.6-0.8l0.6-0.4l0.6,0.8L637.5,106.6z"/>
	</g>
</g>
<g>
	<g>
		<path fill="#F6914F" d="M380.5,181.4c-12.8,0-23.2-10.4-23.2-23.2s10.4-23.2,23.2-23.2c12.8,0,23.2,10.4,23.2,23.2
			S393.3,181.4,380.5,181.4z M380.5,136.1c-12.2,0-22.2,10-22.2,22.2s10,22.2,22.2,22.2s22.2-10,22.2-22.2S392.7,136.1,380.5,136.1z
			"/>
	</g>
	<g opacity="0.2">
		<path fill="#F6914F" d="M367.5,158.2c0-10.8,7.6-19.8,17.7-22.1c-1.6-0.4-3.3-0.6-5-0.6c-12.5,0-22.7,10.2-22.7,22.7
			c0,12.5,10.2,22.7,22.7,22.7c1.7,0,3.4-0.2,5-0.6C375,178.1,367.5,169.1,367.5,158.2z"/>
	</g>
	<g opacity="0.2">
		<path fill="#F6914F" d="M380.5,182.5c-13.4,0-24.3-10.9-24.3-24.3s10.9-24.3,24.3-24.3c13.4,0,24.3,10.9,24.3,24.3
			S393.9,182.5,380.5,182.5z M380.5,134.9c-12.8,0-23.3,10.5-23.3,23.3s10.5,23.3,23.3,23.3s23.3-10.5,23.3-23.3
			S393.3,134.9,380.5,134.9z"/>
	</g>
	<g>
		<path fill="#F6914F" d="M371,157.3c-3.7,0-6.7-3-6.7-6.7c0-3.7,3-6.7,6.7-6.7s6.7,3,6.7,6.7C377.7,154.3,374.7,157.3,371,157.3z
			 M371,144.9c-3.1,0-5.7,2.6-5.7,5.7c0,3.1,2.6,5.7,5.7,5.7c3.1,0,5.7-2.6,5.7-5.7C376.7,147.5,374.1,144.9,371,144.9z"/>
	</g>
	<g>
		<path fill="#F6914F" d="M388,161c-3.4,0-6.2-2.6-6.2-5.8s2.8-5.8,6.2-5.8c3.4,0,6.2,2.6,6.2,5.8S391.4,161,388,161z M388,150.5
			c-2.9,0-5.2,2.1-5.2,4.8s2.3,4.8,5.2,4.8c2.9,0,5.2-2.1,5.2-4.8S390.9,150.5,388,150.5z"/>
	</g>
	<g>
		<path fill="#F6914F" d="M375.3,175c-3.1,0-5.7-2.3-5.7-5.2c0-2.9,2.6-5.2,5.7-5.2c3.1,0,5.7,2.3,5.7,5.2
			C381,172.7,378.4,175,375.3,175z M375.3,165.6c-2.6,0-4.7,1.9-4.7,4.2c0,2.3,2.1,4.2,4.7,4.2c2.6,0,4.7-1.9,4.7-4.2
			C380,167.5,377.9,165.6,375.3,165.6z"/>
	</g>
</g>
<g>
	<g>
		<g>
			<path fill="#FFFFFF" d="M717.2,155.2c0,0.7-2.9,1.2-3,1.8c-0.1,0.7,2.7,1.8,2.5,2.4c-0.1,0.6-3.1,0.5-3.3,1.2
				c-0.2,0.6,2.2,2.3,2,2.9c-0.3,0.6-3.1-0.1-3.5,0.4c-0.3,0.6,1.7,2.7,1.3,3.2c-0.4,0.5-3-0.8-3.5-0.3c-0.4,0.5,1.1,3,0.6,3.4
				c-0.5,0.4-2.8-1.4-3.3-1c-0.5,0.4,0.5,3.2-0.1,3.5c-0.6,0.3-2.5-1.9-3.1-1.7c-0.6,0.3-0.2,3.2-0.8,3.4c-0.6,0.2-2-2.4-2.6-2.3
				c-0.6,0.1-0.8,3.1-1.5,3.1c-0.6,0.1-1.4-2.8-2.1-2.8c-0.7,0-1.5,2.8-2.1,2.8c-0.7-0.1-0.9-3-1.5-3.1c-0.6-0.1-2,2.5-2.6,2.3
				c-0.6-0.2-0.2-3.1-0.8-3.4c-0.6-0.3-2.5,2-3.1,1.7c-0.6-0.3,0.5-3.1-0.1-3.5c-0.5-0.4-2.9,1.4-3.3,1c-0.5-0.4,1.1-2.9,0.6-3.4
				c-0.4-0.5-3.1,0.8-3.5,0.3c-0.4-0.5,1.7-2.6,1.3-3.2c-0.3-0.6-3.2,0.2-3.5-0.4c-0.3-0.6,2.2-2.2,2-2.9c-0.2-0.6-3.1-0.5-3.3-1.2
				c-0.1-0.6,2.6-1.7,2.5-2.4c-0.1-0.6-3-1.2-3-1.8c0-0.7,2.9-1.2,3-1.8c0.1-0.7-2.7-1.8-2.5-2.4c0.1-0.6,3.1-0.5,3.3-1.2
				c0.2-0.6-2.2-2.3-2-2.9c0.3-0.6,3.1,0.1,3.5-0.4c0.3-0.6-1.7-2.7-1.3-3.2c0.4-0.5,3,0.8,3.5,0.3c0.4-0.5-1.1-3-0.6-3.4
				c0.5-0.4,2.8,1.4,3.3,1c0.5-0.4-0.5-3.2,0.1-3.5c0.6-0.3,2.5,1.9,3.1,1.7c0.6-0.3,0.2-3.2,0.8-3.4c0.6-0.2,2,2.4,2.6,2.3
				c0.6-0.1,0.8-3.1,1.5-3.1c0.6-0.1,1.4,2.8,2.1,2.8c0.7,0,1.5-2.8,2.1-2.8c0.7,0.1,0.9,3,1.5,3.1c0.6,0.1,2-2.5,2.6-2.3
				c0.6,0.2,0.2,3.1,0.8,3.4c0.6,0.3,2.5-2,3.1-1.7c0.6,0.3-0.5,3.1,0.1,3.5c0.5,0.4,2.9-1.4,3.3-1c0.5,0.4-1.1,2.9-0.6,3.4
				c0.4,0.5,3.1-0.8,3.5-0.3c0.4,0.5-1.7,2.6-1.3,3.2c0.3,0.6,3.2-0.2,3.5,0.4c0.3,0.6-2.2,2.2-2,2.9c0.2,0.6,3.1,0.5,3.3,1.2
				c0.1,0.6-2.6,1.7-2.5,2.4C714.3,154.1,717.2,154.6,717.2,155.2z"/>
		</g>
		<g>
			<path fill="#F6914F" d="M699,175.8c-0.6,0-1-0.7-1.5-1.6c-0.2-0.3-0.4-0.8-0.6-1.1c-0.2,0.2-0.4,0.7-0.6,1.1
				c-0.5,0.9-0.9,1.6-1.5,1.6c-0.7-0.1-1-0.9-1.3-2c-0.1-0.3-0.2-0.9-0.4-1.1c-0.2,0.2-0.6,0.6-0.8,0.9c-0.7,0.8-1.1,1.3-1.6,1.3
				l-0.2,0c-0.6-0.2-0.7-1.1-0.8-2.2c0-0.4-0.1-0.9-0.1-1.2c-0.3,0.1-0.7,0.5-1,0.7c-0.8,0.7-1.6,1.2-2.1,0.9
				c-0.6-0.3-0.4-1.2-0.3-2.3c0.1-0.4,0.1-0.9,0.1-1.2c-0.3,0.1-0.7,0.3-1.1,0.5c-0.7,0.3-1.2,0.6-1.7,0.6c-0.3,0-0.5-0.1-0.6-0.2
				c-0.5-0.4-0.2-1.3,0.2-2.3c0.1-0.3,0.3-0.8,0.4-1.1c-0.3,0-0.8,0.1-1.2,0.2c-1,0.3-1.9,0.4-2.3-0.1c-0.4-0.5,0.1-1.3,0.6-2.2
				c0.2-0.3,0.5-0.8,0.6-1c-0.2,0-0.7,0-1.2,0c-0.9,0-1.9,0.1-2.2-0.5c-0.3-0.6,0.3-1.2,1.1-2c0.3-0.3,0.6-0.7,0.8-0.9
				c-0.3-0.1-0.8-0.2-1.2-0.2c-1-0.2-1.9-0.3-2.1-1c-0.1-0.7,0.6-1.1,1.5-1.7c0.3-0.2,0.8-0.5,1-0.7c-0.2-0.2-0.8-0.4-1.1-0.5
				c-1-0.4-1.8-0.7-1.8-1.4s0.8-1,1.8-1.4c0.3-0.1,0.8-0.3,1.1-0.5c-0.2-0.2-0.7-0.5-1-0.7c-0.9-0.6-1.6-1.1-1.5-1.7
				c0.1-0.7,1-0.8,2.1-1c0.4-0.1,0.9-0.2,1.2-0.2c-0.2-0.2-0.5-0.6-0.8-0.9c-0.8-0.8-1.4-1.4-1.1-2c0.3-0.7,1.3-0.6,2.2-0.5
				c0.5,0,1,0,1.2,0c-0.1-0.3-0.4-0.7-0.6-1c-0.6-0.9-1-1.6-0.6-2.2c0.3-0.5,1.2-0.3,2.3-0.1c0.4,0.1,0.9,0.2,1.2,0.2
				c0-0.3-0.2-0.8-0.4-1.1c-0.4-1-0.7-1.8-0.2-2.3c0.1-0.1,0.3-0.2,0.6-0.2c0.5,0,1,0.3,1.7,0.6c0.4,0.2,0.8,0.4,1.1,0.5
				c0-0.3-0.1-0.8-0.1-1.2c-0.2-1-0.3-1.9,0.3-2.3c0.5-0.3,1.3,0.2,2.1,0.9c0.3,0.2,0.7,0.6,1,0.7c0.1-0.3,0.1-0.8,0.1-1.2
				c0.1-1,0.1-1.9,0.8-2.2l0.2,0c0.5,0,1,0.5,1.6,1.3c0.2,0.3,0.6,0.7,0.8,0.9c0.1-0.3,0.3-0.8,0.4-1.1c0.3-1,0.5-1.9,1.2-1.9
				c0.7,0,1.1,0.7,1.6,1.6c0.2,0.3,0.4,0.8,0.6,1.1c0.2-0.2,0.4-0.7,0.6-1.1c0.5-0.9,0.9-1.6,1.5-1.6c0.7,0.1,1,0.9,1.3,2
				c0.1,0.3,0.2,0.9,0.4,1.1c0.2-0.2,0.6-0.6,0.8-0.9c0.7-0.8,1.1-1.3,1.6-1.3l0.2,0c0.6,0.2,0.7,1.1,0.8,2.2c0,0.4,0.1,0.9,0.1,1.2
				c0.3-0.1,0.7-0.5,1-0.7c0.8-0.7,1.6-1.2,2.1-0.9c0.6,0.3,0.4,1.2,0.3,2.3c-0.1,0.4-0.1,0.9-0.1,1.2c0.3-0.1,0.7-0.3,1.1-0.5
				c0.7-0.3,1.2-0.6,1.7-0.6c0.3,0,0.5,0.1,0.6,0.2c0.5,0.5,0.2,1.3-0.2,2.3c-0.1,0.3-0.3,0.8-0.4,1.1c0.3,0,0.8-0.1,1.2-0.2
				c1-0.3,1.9-0.4,2.3,0.1c0.4,0.5-0.1,1.3-0.6,2.2c-0.2,0.3-0.5,0.8-0.6,1c0.2,0,0.7,0,1.2,0c0.9,0,1.9-0.1,2.2,0.5
				c0.3,0.6-0.3,1.2-1.1,2c-0.3,0.3-0.6,0.7-0.8,0.9c0.3,0.1,0.8,0.2,1.2,0.2c1,0.2,1.9,0.3,2.1,1c0.1,0.7-0.6,1.1-1.5,1.7
				c-0.3,0.2-0.8,0.5-1,0.7c0.2,0.2,0.8,0.4,1.1,0.5c1,0.4,1.8,0.7,1.8,1.4c0,0.7-0.8,1-1.8,1.4c-0.3,0.1-0.8,0.3-1.1,0.5
				c0.2,0.2,0.7,0.5,1,0.7c0.9,0.6,1.6,1.1,1.5,1.7c-0.1,0.7-1,0.8-2.1,1c-0.4,0.1-0.9,0.2-1.2,0.2c0.2,0.2,0.6,0.6,0.8,0.9
				c0.8,0.8,1.4,1.4,1.1,2c-0.3,0.7-1.3,0.6-2.2,0.5c-0.5,0-1,0-1.2,0c0.1,0.3,0.4,0.7,0.6,1c0.6,0.9,1,1.6,0.6,2.2
				c-0.3,0.5-1.2,0.3-2.3,0.1c-0.4-0.1-0.9-0.2-1.2-0.2c0,0.3,0.2,0.8,0.4,1.1c0.4,1,0.7,1.8,0.2,2.3c-0.1,0.1-0.3,0.2-0.6,0.2
				c-0.5,0-1-0.3-1.7-0.6c-0.4-0.2-0.8-0.4-1.1-0.5c0,0.3,0.1,0.8,0.1,1.2c0.2,1,0.3,1.9-0.3,2.3c-0.5,0.3-1.3-0.2-2.1-0.9
				c-0.3-0.2-0.7-0.6-1-0.7c-0.1,0.3-0.1,0.8-0.1,1.2c-0.1,1-0.1,1.9-0.8,2.2l-0.2,0l0,0c-0.5,0-1-0.5-1.6-1.3
				c-0.2-0.3-0.6-0.7-0.8-0.9c-0.1,0.3-0.3,0.8-0.4,1.1C700,174.9,699.8,175.8,699,175.8L699,175.8L699,175.8z M697,172.1
				c0.6,0,1,0.7,1.5,1.7c0.2,0.3,0.4,0.7,0.5,1c0.1-0.3,0.3-0.8,0.3-1.1c0.3-1,0.5-1.8,1.1-1.9l0.2,0c0.5,0,1,0.5,1.7,1.3
				c0.2,0.3,0.5,0.6,0.7,0.8c0.1-0.3,0.1-0.8,0.1-1.1c0.1-1,0.1-1.9,0.7-2.1c0.5-0.2,1.2,0.3,2,0.9c0.3,0.2,0.6,0.5,0.9,0.7
				c0-0.3-0.1-0.8-0.1-1.1c-0.2-1-0.3-1.8,0.2-2.2c0.5-0.3,1.2,0,2.2,0.5c0.3,0.2,0.7,0.4,1,0.5c-0.1-0.3-0.2-0.8-0.4-1.1
				c-0.4-1-0.7-1.7-0.2-2.2c0.4-0.4,1.2-0.3,2.2,0c0.4,0.1,0.8,0.2,1.1,0.2c-0.1-0.3-0.4-0.7-0.6-1c-0.6-0.9-1-1.6-0.7-2.1
				c0.3-0.6,1.3-0.5,2.2-0.5c0.4,0,0.9,0,1.1,0c-0.2-0.2-0.5-0.6-0.8-0.8c-0.7-0.7-1.3-1.3-1.1-1.9c0.2-0.6,1-0.7,2-0.9
				c0.3-0.1,0.8-0.1,1.1-0.2c-0.2-0.2-0.6-0.5-0.9-0.6c-0.9-0.6-1.6-1-1.5-1.7c0.1-0.6,0.8-0.9,1.8-1.3c0.3-0.1,0.8-0.3,1.1-0.5
				c-0.3-0.2-0.7-0.3-1.1-0.5c-1-0.4-1.7-0.7-1.8-1.3c-0.1-0.6,0.6-1.1,1.5-1.7c0.3-0.2,0.7-0.5,0.9-0.6c-0.3-0.1-0.8-0.2-1.1-0.2
				c-1-0.2-1.8-0.3-2-0.9c-0.2-0.6,0.4-1.2,1.1-1.9c0.2-0.2,0.6-0.6,0.8-0.8c-0.2,0-0.7,0-1.1,0c-0.9,0-1.8,0.1-2.2-0.5
				c-0.3-0.5,0.1-1.2,0.7-2.1c0.2-0.3,0.4-0.7,0.6-1c-0.3,0-0.7,0.1-1.1,0.2c-1,0.3-1.9,0.4-2.2,0c-0.4-0.5-0.1-1.2,0.2-2.2
				c0.1-0.3,0.3-0.8,0.4-1.1c-0.3,0.1-0.7,0.3-1,0.5c-0.9,0.5-1.7,0.8-2.2,0.5c-0.5-0.4-0.4-1.2-0.2-2.2c0-0.3,0.1-0.8,0.1-1.1
				c-0.3,0.1-0.6,0.5-0.9,0.7c-0.8,0.6-1.5,1.1-2,0.9c-0.6-0.3-0.6-1.1-0.7-2.1c0-0.3-0.1-0.8-0.1-1.1c-0.2,0.2-0.5,0.6-0.7,0.8
				c-0.7,0.8-1.1,1.3-1.7,1.3l-0.2,0c-0.6-0.1-0.8-0.9-1.1-1.9c-0.1-0.3-0.2-0.8-0.3-1.1c-0.2,0.2-0.4,0.7-0.5,1
				c-0.5,0.9-0.9,1.7-1.5,1.7s-1-0.7-1.5-1.7c-0.2-0.3-0.4-0.7-0.5-1c-0.1,0.3-0.3,0.8-0.3,1.1c-0.3,1-0.5,1.8-1.1,1.9l-0.2,0
				c-0.5,0-1-0.5-1.7-1.3c-0.2-0.3-0.5-0.6-0.7-0.8c-0.1,0.3-0.1,0.8-0.1,1.1c-0.1,1-0.1,1.9-0.7,2.1c-0.5,0.2-1.2-0.3-2-0.9
				c-0.3-0.2-0.6-0.5-0.9-0.7c0,0.3,0.1,0.8,0.1,1.1c0.2,1,0.3,1.8-0.2,2.2c-0.5,0.3-1.2,0-2.2-0.5c-0.3-0.2-0.7-0.4-1-0.5
				c0.1,0.3,0.2,0.8,0.4,1.1c0.4,1,0.7,1.7,0.2,2.2c-0.4,0.4-1.2,0.3-2.2,0c-0.4-0.1-0.8-0.2-1.1-0.2c0.1,0.3,0.4,0.7,0.6,1
				c0.6,0.9,1,1.6,0.7,2.1c-0.3,0.6-1.3,0.5-2.2,0.5c-0.4,0-0.9,0-1.1,0c0.2,0.2,0.5,0.6,0.8,0.8c0.7,0.7,1.3,1.3,1.1,1.9
				c-0.2,0.6-1,0.7-2,0.9c-0.3,0.1-0.8,0.1-1.1,0.2c0.2,0.2,0.6,0.5,0.9,0.6c0.9,0.6,1.6,1,1.5,1.7c-0.1,0.6-0.8,0.9-1.8,1.3
				c-0.3,0.1-0.8,0.3-1.1,0.5c0.3,0.2,0.7,0.3,1.1,0.5c1,0.4,1.7,0.7,1.8,1.3c0.1,0.6-0.6,1.1-1.5,1.7c-0.3,0.2-0.7,0.5-0.9,0.6
				c0.3,0.1,0.8,0.2,1.1,0.2c1,0.2,1.8,0.3,2,0.9c0.2,0.6-0.4,1.2-1.1,1.9c-0.2,0.2-0.6,0.6-0.8,0.8c0.2,0,0.7,0,1.1,0
				c0.9,0,1.8-0.1,2.2,0.5c0.3,0.5-0.1,1.2-0.7,2.1c-0.2,0.3-0.4,0.7-0.6,1c0.3,0,0.7-0.1,1.1-0.2c1-0.3,1.9-0.4,2.2,0
				c0.4,0.5,0.1,1.2-0.2,2.2c-0.1,0.3-0.3,0.8-0.4,1.1c0.3-0.1,0.7-0.3,1-0.5c0.9-0.5,1.7-0.8,2.2-0.5c0.5,0.4,0.4,1.2,0.2,2.2
				c0,0.3-0.1,0.8-0.1,1.1c0.3-0.1,0.6-0.5,0.9-0.7c0.8-0.6,1.5-1.1,2-0.9c0.6,0.3,0.6,1.1,0.7,2.1c0,0.3,0.1,0.8,0.1,1.1
				c0.2-0.2,0.5-0.6,0.7-0.8c0.7-0.8,1.1-1.3,1.7-1.3l0.2,0c0.6,0.1,0.8,0.9,1.1,1.9c0.1,0.3,0.2,0.8,0.3,1.1c0.2-0.2,0.4-0.7,0.5-1
				C695.9,172.8,696.3,172.1,697,172.1z"/>
		</g>
	</g>
	<g>
		<circle fill="#FFFFFF" cx="697" cy="155.2" r="15.4"/>
		<path fill="#F6914F" d="M697,171.2c-8.8,0-15.9-7.1-15.9-15.9s7.1-15.9,15.9-15.9s15.9,7.1,15.9,15.9S705.7,171.2,697,171.2z
			 M697,140.3c-8.2,0-14.9,6.7-14.9,14.9s6.7,14.9,14.9,14.9c8.2,0,14.9-6.7,14.9-14.9S705.2,140.3,697,140.3z"/>
	</g>
	<g>
		<path fill="#F6914F" d="M705.4,164.7c-29.6,0-61.1-2.7-61.1-7.7c0-4.5,24.4-6.4,34.8-7l0.1,1c-24.9,1.4-33.9,4.3-33.9,6
			c0,2.7,21.4,6.7,60.1,6.7s60.1-3.9,60.1-6.7c0-2.7-19.5-6-50.9-6.6l0-1c19.3,0.3,51.9,2.3,51.9,7.6
			C766.5,162,735,164.7,705.4,164.7z"/>
	</g>
	<g>
		<circle fill="#FFFFFF" cx="736" cy="162.4" r="2.6"/>
		<path fill="#F6914F" d="M736,165.5c-1.7,0-3.1-1.4-3.1-3.1s1.4-3.1,3.1-3.1s3.1,1.4,3.1,3.1S737.7,165.5,736,165.5z M736,160.3
			c-1.1,0-2.1,0.9-2.1,2.1c0,1.1,0.9,2.1,2.1,2.1c1.1,0,2.1-0.9,2.1-2.1C738.1,161.2,737.1,160.3,736,160.3z"/>
	</g>
	<g>
		<path fill="#F6914F" d="M698,159.5c-1.6,0-39.4,0-39.4-3.8c0-0.6,0-2.4,19.8-3.3l0,1c-13.3,0.7-18,1.8-18.7,2.3
			c1.5,1.2,15.2,2.8,38.4,2.8c23.2,0,36.9-1.6,38.4-2.8c-0.8-0.6-6-1.8-20.8-2.4l0-1c21.9,0.9,21.9,2.8,21.9,3.4
			C737.5,159.4,699.6,159.5,698,159.5z"/>
	</g>
	<g>
		<circle fill="#FFFFFF" cx="669.8" cy="157.5" r="2.3"/>
		<path fill="#F6914F" d="M669.8,160.3c-1.5,0-2.8-1.3-2.8-2.8s1.3-2.8,2.8-2.8s2.8,1.3,2.8,2.8S671.4,160.3,669.8,160.3z
			 M669.8,155.7c-1,0-1.8,0.8-1.8,1.8s0.8,1.8,1.8,1.8s1.8-0.8,1.8-1.8S670.8,155.7,669.8,155.7z"/>
	</g>
</g>
<g>
	<path fill="#F6914F" d="M81.6,132.4c1.8,0,3.2-1.4,3.2-3.2c0-1.8-1.4-3.2-3.2-3.2c-1.8,0-3.2,1.4-3.2,3.2
		C78.4,131,79.8,132.4,81.6,132.4z M81.6,126.5c1.5,0,2.7,1.2,2.7,2.7c0,1.5-1.2,2.7-2.7,2.7c-1.5,0-2.7-1.2-2.7-2.7
		C78.9,127.7,80.1,126.5,81.6,126.5z"/>
	<path fill="#F6914F" d="M73.9,125c0.8,0,1.5-0.7,1.5-1.5c0-0.8-0.7-1.5-1.5-1.5c-0.8,0-1.5,0.7-1.5,1.5
		C72.4,124.3,73.1,125,73.9,125z M73.9,122.5c0.5,0,1,0.4,1,1c0,0.5-0.4,1-1,1c-0.5,0-1-0.4-1-1C73,123,73.4,122.5,73.9,122.5z"/>
	<path fill="#F6914F" d="M81.2,120.4c1.3,0,2.4-1.1,2.4-2.4c0-1.3-1.1-2.4-2.4-2.4c-1.3,0-2.4,1.1-2.4,2.4
		C78.8,119.3,79.9,120.4,81.2,120.4z M81.2,116.2c1,0,1.8,0.8,1.8,1.8c0,1-0.8,1.8-1.8,1.8c-1,0-1.8-0.8-1.8-1.8
		C79.3,117,80.2,116.2,81.2,116.2z"/>
	<path fill="#F6914F" d="M79.2,155.8c0,0.4,0.1,0.8,0.4,1.1c0.3,0.3,0.7,0.5,1.1,0.5c0.4,0,0.7-0.1,1-0.4c0.6-0.5,0.7-1.5,0.1-2.1
		c-0.5-0.6-1.5-0.6-2.1-0.1C79.4,155,79.3,155.4,79.2,155.8z M80.1,155.2c0.2-0.2,0.4-0.2,0.6-0.2c0.3,0,0.5,0.1,0.7,0.3
		c0.3,0.4,0.3,1-0.1,1.3c-0.2,0.1-0.4,0.2-0.6,0.2c-0.3,0-0.5-0.1-0.7-0.3c-0.2-0.2-0.2-0.4-0.2-0.7
		C79.8,155.5,79.9,155.3,80.1,155.2z"/>
	<path fill="#F6914F" d="M78.4,148.8c0.5,0,0.9-0.2,1.3-0.5c0.8-0.7,0.9-2,0.2-2.8c-0.7-0.8-2-0.9-2.8-0.2c-0.8,0.7-0.9,2-0.2,2.8
		C77.3,148.6,77.9,148.8,78.4,148.8z M77.5,145.8c0.3-0.2,0.6-0.4,1-0.4c0.4,0,0.8,0.2,1.1,0.5c0.5,0.6,0.5,1.5-0.1,2
		c-0.6,0.5-1.5,0.4-2-0.1C76.9,147.2,76.9,146.3,77.5,145.8z"/>
	<path fill="#F6914F" d="M88.8,168.9l-1.2-2.6l-0.1-0.1l-0.3,0c-0.3-0.1-1-0.2-2-0.2c-1.4,0-3.6,0.3-6,1.9c-0.9,0.6-2.1,1-3.4,1
		c-2.3,0-4.4-1-4.4-1l-0.2-0.1l-0.3,0.6c-1.2,2.6-2.1,4.7-2.8,6.6c-0.5,1.3-1,2.4-1.5,3.5c-0.5,1.1-0.9,2.6-0.3,3.6
		c0.5,0.8,1.4,1.1,1.8,1.2h23.5l0,0c0.4-0.1,1.3-0.4,1.7-1.2c0.6-1,0.1-2.5-0.4-3.6C91.9,175.7,90.5,172.7,88.8,168.9z M92.9,181.8
		c-0.3,0.6-1.1,0.9-1.4,0.9l-23.4,0c-0.2-0.1-1-0.3-1.4-0.9c-0.5-0.9,0-2.4,0.4-3.2c0.5-1.1,1-2.2,1.5-3.5c0.8-1.9,1.7-4,2.8-6.6
		l0.1-0.1c0.6,0.3,2.4,0.9,4.4,0.9c1.4,0,2.7-0.4,3.7-1c2.3-1.5,4.3-1.8,5.7-1.8c0.9,0,1.6,0.1,1.9,0.2l1.1,2.5
		c1.7,3.7,3,6.8,4.2,9.5C93.1,180,93.3,181.1,92.9,181.8z"/>
	<path fill="#F6914F" d="M102,144h-8.9c-0.7,0-1.2,0.6-1.2,1.4c0,0.7,0.5,1.4,1.2,1.4h0.8v25.5c-3.7-8.4-8.5-19.1-8.5-19.1l-0.1-0.3
		v-12.1c0-0.1,0.1-0.2,0.2-0.2h1.4c0.9,0,1.6-0.7,1.6-1.6c0-0.9-0.7-1.6-1.6-1.6H73.1c-0.9,0-1.6,0.7-1.6,1.6c0,0.8,0.7,1.5,1.6,1.5
		h1.3c0.1,0,0.2,0.1,0.2,0.2l0,12.1l-0.1,0.2c0,0.1-8.5,19-11.7,26.5c-0.5,1.3-0.8,2.4-0.8,3.3c0,1.7,1,3,2.9,3.4l30.2,0l0.1,0
		c0.6-0.1,1.6-0.5,2.3-1.4c0.1,0,0.1,0,0.2,0c2,0,3.6-1.6,3.6-3.6v-34.5h0.9c0.7,0,1.2-0.6,1.2-1.4C103.2,144.6,102.7,144,102,144z
		 M94.8,185.1H64.9c-0.8-0.2-2-0.8-2-2.3c0-0.8,0.2-1.7,0.7-2.9c3.2-7.3,11.7-26.3,11.7-26.5l0.1-0.2c0.1-0.1,0.1-0.3,0.1-0.5v-12.1
		c0-0.7-0.6-1.2-1.2-1.2h-1.3c-0.3,0-0.5-0.2-0.5-0.5c0-0.3,0.2-0.5,0.5-0.5h13.8c0.3,0,0.5,0.2,0.5,0.5c0,0.3-0.2,0.5-0.5,0.5h-1.4
		c-0.7,0-1.2,0.6-1.2,1.2v12.1c0,0.2,0,0.3,0.1,0.5l0.1,0.2c0,0.1,8.6,19.2,11.7,26.4c0.5,1.1,0.7,2.1,0.7,2.9
		C96.8,184.3,95.8,184.9,94.8,185.1z M97.6,184.3c0.2-0.4,0.3-0.9,0.3-1.5c0-0.9-0.3-2.1-0.8-3.3c-0.7-1.6-1.6-3.7-2.7-6.1V159
		c0.5,0.3,1.5,0.7,2.9,0.7c0.9,0,2-0.2,3.3-0.7v2.2h-1.4v0.5h1.4v5.1H98v0.5h2.5v5.1h-1.4v0.5h1.4v5.1H98v0.5h2.5v2.7
		C100.6,182.8,99.2,184.2,97.6,184.3z M100.6,155.5H98v0.5h2.5v2.3c-3.3,1.5-5.7,0.3-6.2,0v-11.8h6.2V155.5z M102,146.1h-8.9
		c-0.4,0-0.6-0.4-0.6-0.8c0-0.5,0.3-0.8,0.6-0.8h8.9c0.4,0,0.7,0.4,0.7,0.8C102.7,145.8,102.4,146.1,102,146.1z"/>
</g>
<g>
	<g>
		<g>
			<g>
				<path fill="#F6914F" d="M285.2,184.2C285.2,184.2,285.2,184.2,285.2,184.2c-3.7,0-6.8-0.9-6.9-0.9c-0.3-0.1-5.7-2.9-6-9.3
					c-0.3-6.6,4-10.5,4.2-10.7l0.2-0.2l8.7,2.3l7.2-3.3l0.2,0.2c0.2,0.1,4.6,3.5,5.3,8.5c0.9,7-3.7,10.9-3.9,11.1
					c-0.2,0.1-3.2,1.9-7.6,2.2C286.2,184.2,285.7,184.2,285.2,184.2z M278.7,182.3c0,0,3,0.9,6.5,0.9c0,0,0,0,0,0c0.5,0,1,0,1.4-0.1
					c4.1-0.3,7-2,7.1-2l0,0c0,0,4.3-3.7,3.5-10.1c-0.5-4-3.8-6.9-4.7-7.7l-7,3.2l-8.5-2.3c-0.8,0.8-4,4.4-3.7,9.7
					C273.6,179.7,278.6,182.3,278.7,182.3C278.7,182.3,278.7,182.3,278.7,182.3z"/>
			</g>
			<g>
				<path fill="#F6914F" d="M285.7,185.9c-5.5,0-8.4-3.4-8.5-3.5l0.8-0.6c0,0,3,3.5,8.6,3.1c4.7-0.3,7.4-3.8,7.4-3.8l0.4,0.3l0,0
					l0.5,0.2c-0.1,0.3-3.2,4.1-8.2,4.4C286.3,185.9,286,185.9,285.7,185.9z"/>
			</g>
			<g>
				<g>
					<g>
						<path fill="#F6914F" d="M285,163.4c-2.2,0-4.1-0.6-4.8-1.2l-0.6-0.5l1.2-0.6c0.1-0.2,0.1-0.3,0.2-0.5c0.2-0.5,0.2-1.1,0.1-1.7
							l-0.1-0.8l0.8,0.3c0.2,0.1,0.8,0.2,1.6,0.3c1.4,0.2,3.1,0,4.7-0.4l0.7-0.2l-0.1,0.7c-0.1,0.5,0,1,0.1,1.5
							c0,0.2,0.1,0.3,0.1,0.5l1.4,0.6l-0.5,0.5C289.2,162.4,287.3,163.4,285,163.4z M281.6,161.8c0.7,0.3,1.9,0.6,3.4,0.6
							c1.5,0,2.7-0.4,3.4-0.8l-0.3-0.1l-0.1-0.2c-0.1-0.3-0.2-0.6-0.2-0.8c-0.1-0.3-0.1-0.7-0.1-1.1c-1.5,0.3-3.1,0.4-4.4,0.2
							c-0.4,0-0.8-0.1-1.1-0.2c0,0.5-0.1,1-0.2,1.4c-0.1,0.3-0.2,0.5-0.3,0.8L281.6,161.8z"/>
					</g>
					<g>
						<path fill="#F6914F" d="M284.7,159.2C284.7,159.2,284.7,159.2,284.7,159.2c-0.5,0-0.9,0-1.4-0.1c-1-0.1-1.6-0.3-1.8-0.4
							l-0.2-0.1c-1.1-0.4-1.7-0.9-1.8-1.5l0-4.3c0.1-1.3,2.8-2,5.4-2c2.7,0,5.4,0.7,5.4,2.1v4.2c0,0.6-0.6,1.2-1.7,1.5v0l-0.3,0.1
							C287.1,159,285.9,159.2,284.7,159.2z M282,158.1c0.3,0.1,0.7,0.2,1.4,0.3c1.4,0.2,3,0,4.6-0.3l0.1,0c1-0.3,1.5-0.7,1.5-0.9
							v-4.2c0-0.5-1.9-1.3-4.7-1.3c-2.8,0-4.6,0.8-4.7,1.3l0,4.2c0,0.2,0.5,0.6,1.5,0.9L282,158.1z"/>
					</g>
				</g>
			</g>
		</g>
		<g>
			<path fill="#F6914F" d="M292.3,163.2c-0.8-0.4-2.4-1.2-2.9-1.2l0.1-1c0.9,0.1,3.1,1.2,3.3,1.3L292.3,163.2z"/>
		</g>
		<g>
			<path fill="#F6914F" d="M277.2,164l-0.6-0.8c0.2-0.2,2.3-1.9,3.9-2l0.1,1C279.5,162.4,277.8,163.6,277.2,164z"/>
		</g>
		<g>
			<g>
				<path fill="#F6914F" d="M265,187.2c-0.3,0-1.4-0.1-2-1.3c-0.2-0.5-0.6-0.7-0.8-0.8c-0.1-0.1-0.2-0.1-0.2-0.2
					c-0.1-0.1-0.1-0.2-0.2-0.2l-0.2-0.1l1.9-9.6c-0.4-0.8-2.5-6-3.1-12.4c0-0.4,0.4-0.7,1.8-1.4c-0.1,0-0.2,0-0.3,0
					c-1.4-0.2-1.7-0.3-1.7-0.6c-0.1-2.9,0.2-5.7,0.9-8.1c0.4-1.4,3.7-2.4,6.9-3.2c-0.5-0.2-1.2-0.5-1.8-0.8
					c-2.9-1.3-2.9-1.3-2.9-1.5l-0.1-0.2l0.1-0.1c0.8-1.7,1.9-3.4,3-5.1l0.3-0.4c1.7-2.5,3.2-4,3.2-4l4.6-4.7
					c1.6-1.7,3.1-3.3,3.6-3.7c1-1,3.6-4.1,3.6-4.2l2.1-2.8c0.1-0.1,0.4-0.3,0.8-0.3c0.5,0,0.8,0.7,0.9,0.9l0.6,3.5
					c0.3,0.5,2.3,4.2,1.3,8.7c0,0.1,0,0.3,0,0.4c0,0.3,0.1,0.7,0,1c-0.1,0.2-0.1,0.2-3,1c-0.4,0.1-0.8,0.2-1.2,0.3
					c0.2,0,0.5,0.1,0.7,0.1c2.5,0.3,2.5,0.3,2.6,0.6l0.1,0.2l-0.1,0.2c-1,2.4-2.8,5.3-4.2,7.4c0,0.1-0.2,0.4-0.4,0.7
					c-0.3,0.4-0.6,0.9-0.6,1c-1,1.5-1.7,2.4-2.3,3.2c-0.3,0.4-0.6,0.7-0.8,1.1c-0.9,1.3-2,3.2-3.2,5.5l-0.6,1.1
					c-0.6,1.2-1.1,2.3-1.7,3.4c-0.1,0.1-0.4,0.7-0.4,0.9c-0.3,0.7-0.6,1.3-0.9,1.9l-0.1,0.2l-0.3,0c0.1,0.1,0.1,0.3,0,0.5
					c-1.7,3.7-2.9,6.6-2.9,6.7l-1.1,2.5l0-1.9c0-0.2,0.1-5.2,3-14.9c0.4-1.3,0.9-2.7,1.5-4.2l0.2-0.6c0.2-0.6,0.5-1.1,0.8-1.7
					c2.5-5.5,5.2-11.4,6.9-15c-1,1.4-2.2,3.3-3.5,5.4l-0.3,0.5c-3.6,6-6.1,11.4-7.3,16c-0.6,2.5-1.2,4.8-1.7,7l-0.1,0.5
					c-1.4,6.6-1.1,10.8-1.1,10.8l-0.2,11.2l-0.3,0C265.1,187.2,265,187.2,265,187.2z M262.4,184.3c0.1,0.1,0.1,0.1,0.2,0.2
					c0.2,0.1,0.7,0.4,1.1,1.1c0.3,0.6,0.7,0.8,1.1,0.8l0.2-10.4c0-0.1-0.2-4.3,1.1-11l0.1-0.5c0.5-2.2,1-4.6,1.7-7
					c1.2-4.7,3.7-10.2,7.4-16.2l0.3-0.5c3-4.9,5.8-8.5,5.8-8.5l2-2.6l-1.4,3c0,0.1-4.5,9.9-8.4,18.5c-0.3,0.6-0.5,1.1-0.7,1.7
					l-0.2,0.6c-0.6,1.5-1.1,2.9-1.5,4.2c-1.7,5.8-2.5,9.9-2.8,12.3c0.5-1.2,1.3-3,2.2-5.1c0,0-0.1-0.1-0.1-0.1
					c-0.2-0.2-0.6-0.5-0.4-0.8l0.1-0.2l0.3,0c0.1,0,0.3,0,0.4,0c0.1,0,0.1,0,0.2,0c0.3-0.6,0.5-1.1,0.8-1.7c0.1-0.2,0.4-0.8,0.4-0.9
					c0.5-1.1,1.1-2.2,1.6-3.3l0.6-1.2c1.2-2.3,2.3-4.2,3.3-5.5c0.3-0.4,0.5-0.7,0.8-1.1c0.5-0.7,1.2-1.6,2.2-3.1
					c0-0.1,0.4-0.6,0.6-1c0.2-0.3,0.4-0.6,0.4-0.7c1.3-1.9,2.9-4.6,3.9-6.9c-0.5-0.1-1.3-0.2-1.9-0.3c-2.5-0.3-2.5-0.3-2.6-0.5
					l-0.1-0.2l0.1-0.2c0.1-0.2,0.1-0.2,3-1c0.9-0.3,2.1-0.6,2.5-0.7c0-0.1,0-0.3,0-0.4c0-0.2-0.1-0.5,0-0.7c1-4.5-1.2-8.2-1.2-8.2
					l0-0.1l-0.6-3.5c-0.1-0.1-0.2-0.3-0.3-0.4c-0.1,0-0.2,0.1-0.2,0.1l-2.1,2.8c-0.1,0.1-2.7,3.2-3.7,4.2c-0.4,0.5-1.9,2-3.6,3.7
					l-4.6,4.7c0,0-1.4,1.5-3.1,4l-0.3,0.4c-1.1,1.6-2.1,3.2-2.9,4.7c0.5,0.2,1.5,0.7,2.4,1.1c2.8,1.3,2.8,1.3,2.9,1.4l0.1,0.2
					l-0.1,0.1c-0.1,0.2-0.1,0.2-1,0.4c-4.2,1-6.4,1.9-6.6,2.7c-0.6,2.3-0.9,4.9-0.8,7.7c0.3,0.1,0.7,0.1,1,0.2
					c1.4,0.2,1.6,0.2,1.7,0.6c0,0.3-0.1,0.4-0.9,0.7c-0.4,0.2-1.4,0.6-1.6,0.8c0.6,6.7,3,12.1,3.1,12.1l0,0.1L262.4,184.3z"/>
			</g>
		</g>
		<g>
			<path fill="#F6914F" d="M273,174.1l-0.5-0.2c0.1-0.2,2.7-5.5,14.7-1.5c7,2.3,9.6-2.3,9.7-2.5l0.4,0.2c0,0.1-0.7,1.4-2.3,2.3
				c-1.5,0.9-4.1,1.7-8,0.4c-6.1-2-9.6-1.6-11.5-0.8C273.7,172.8,273,174,273,174.1z"/>
		</g>
	</g>
	<g>
		<path fill="#F6914F" d="M285.1,154.9c-1.8,0-3.7-0.5-3.7-1.4c0-1.8,7.4-1.8,7.4,0C288.8,154.4,286.9,154.9,285.1,154.9z
			 M285.1,152.6c-1.9,0-3.2,0.5-3.2,0.9c0,0.4,1.2,0.9,3.2,0.9c1.9,0,3.2-0.5,3.2-0.9C288.3,153.1,287,152.6,285.1,152.6z"/>
	</g>
</g>
</svg>
