<?xml version="1.0" encoding="utf-8"?>
<!-- Generator: Adobe Illustrator 18.1.0, SVG Export Plug-In . SVG Version: 6.00 Build 0)  -->
<svg version="1.1" id="Layer_1" xmlns="http://www.w3.org/2000/svg" xmlns:xlink="http://www.w3.org/1999/xlink" x="0px" y="0px"
	 viewBox="0 0 800 115" enable-background="new 0 0 800 115" xml:space="preserve">
<g>
	<g>
		<circle fill="#FFFFFF" cx="336.1" cy="57.5" r="42"/>
		<path fill="#818282" d="M336.1,99.9c-23.4,0-42.4-19-42.4-42.4s19-42.4,42.4-42.4s42.4,19,42.4,42.4S359.5,99.9,336.1,99.9z
			 M336.1,15.9c-22.9,0-41.6,18.7-41.6,41.6s18.7,41.6,41.6,41.6s41.6-18.7,41.6-41.6S359,15.9,336.1,15.9z"/>
	</g>
	<g>
		<g>
			<g>
				<polygon fill="#85A542" points="316.8,59.5 309.8,54.6 316.6,48.9 317.3,49.7 311.4,54.5 317.3,58.7 				"/>
			</g>
			<g>
				<polygon fill="#85A542" points="355.5,59.8 354.9,59.1 360.7,54.3 354.8,50.1 355.4,49.2 362.4,54.2 				"/>
			</g>
			<g>
				<rect x="310.6" y="54" fill="#85A542" width="50.1" height="1"/>
			</g>
		</g>
		<g>
			<g id="XMLID_17_">
				<g>
				</g>
				<g>
					<path fill="none" stroke="#85A542" stroke-miterlimit="10" d="M334.9,65.6c0,1.5-3.4,2.7-8.1,2.7c-4.7,0-8.1-1.2-8.1-2.7
						c0-1.5,3.4-2.7,8.1-2.7C331.6,62.9,334.9,64.1,334.9,65.6z"/>
					<path fill="none" stroke="#85A542" stroke-miterlimit="10" d="M318.8,77.3c0,1.5,3.4,2.7,8.1,2.7c4.7,0,8.1-1.2,8.1-2.7"/>
					<path fill="none" stroke="#85A542" stroke-miterlimit="10" d="M334.9,65.6v5.9c0,1.5-3.4,2.7-8.1,2.7c-4.7,0-8.1-1.2-8.1-2.7"
						/>
					<path fill="none" stroke="#85A542" stroke-miterlimit="10" d="M318.8,65.6v5.9v5.9v5.9c0,1.5,3.4,3.1,8.1,3.1
						c4.7,0,8.1-1.7,8.1-3.1v-5.9v-5.9"/>
				</g>
			</g>
			<g>
				<ellipse fill="#85A542" cx="320.6" cy="70.1" rx="0.3" ry="0.3"/>
			</g>
			<g>
				<ellipse fill="#85A542" cx="322.2" cy="70.6" rx="0.3" ry="0.3"/>
			</g>
			<g>
				<ellipse fill="#85A542" cx="324.1" cy="70.8" rx="0.3" ry="0.3"/>
			</g>
			<g>
				<ellipse fill="#85A542" cx="320.6" cy="76" rx="0.3" ry="0.3"/>
			</g>
			<g>
				<ellipse fill="#85A542" cx="322.2" cy="76.4" rx="0.3" ry="0.3"/>
			</g>
			<g>
				<ellipse fill="#85A542" cx="324.1" cy="76.7" rx="0.3" ry="0.3"/>
			</g>
			<g>
				<ellipse fill="#85A542" cx="320.6" cy="81.8" rx="0.3" ry="0.3"/>
			</g>
			<g>
				<ellipse fill="#85A542" cx="322.2" cy="82.3" rx="0.3" ry="0.3"/>
			</g>
			<g>
				<ellipse fill="#85A542" cx="324.1" cy="82.5" rx="0.3" ry="0.3"/>
			</g>
		</g>
		<g>
			<g id="XMLID_15_">
				<g>
				</g>
				<g>
					<path fill="none" stroke="#85A542" stroke-miterlimit="10" d="M335.9,65.6c0,1.5,3.4,2.7,8.1,2.7c4.7,0,8.1-1.2,8.1-2.7
						c0-1.5-3.4-2.7-8.1-2.7C339.3,62.9,335.9,64.1,335.9,65.6z"/>
					<path fill="none" stroke="#85A542" stroke-miterlimit="10" d="M352,77.3c0,1.5-3.4,2.7-8.1,2.7c-4.7,0-8.1-1.2-8.1-2.7"/>
					<path fill="none" stroke="#85A542" stroke-miterlimit="10" d="M335.9,65.6v5.9c0,1.5,3.4,2.7,8.1,2.7c4.7,0,8.1-1.2,8.1-2.7"/>
					<path fill="none" stroke="#85A542" stroke-miterlimit="10" d="M352,65.6v5.9v5.9v5.9c0,1.5-3.4,3.1-8.1,3.1
						c-4.7,0-8.1-1.7-8.1-3.1v-5.9v-5.9"/>
				</g>
			</g>
			<g>
				<ellipse fill="#85A542" cx="350.2" cy="70.1" rx="0.3" ry="0.3"/>
			</g>
			<g>
				<ellipse fill="#85A542" cx="348.6" cy="70.6" rx="0.3" ry="0.3"/>
			</g>
			<g>
				<ellipse fill="#85A542" cx="346.8" cy="70.8" rx="0.3" ry="0.3"/>
			</g>
			<g>
				<ellipse fill="#85A542" cx="350.2" cy="76" rx="0.3" ry="0.3"/>
			</g>
			<g>
				<ellipse fill="#85A542" cx="348.6" cy="76.4" rx="0.3" ry="0.3"/>
			</g>
			<g>
				<ellipse fill="#85A542" cx="346.8" cy="76.7" rx="0.3" ry="0.3"/>
			</g>
			<g>
				<ellipse fill="#85A542" cx="350.2" cy="81.8" rx="0.3" ry="0.3"/>
			</g>
			<g>
				<ellipse fill="#85A542" cx="348.6" cy="82.3" rx="0.3" ry="0.3"/>
			</g>
			<g>
				<ellipse fill="#85A542" cx="346.8" cy="82.5" rx="0.3" ry="0.3"/>
			</g>
		</g>
		<g>
			<g id="XMLID_11_">
				<g>
					<path fill="#FFFFFF" d="M344.7,81v6.3c0,1.6-3.6,3.4-8.7,3.4c-5.1,0-8.7-1.8-8.7-3.4V81c0,1.6,3.6,2.9,8.7,2.9
						C341,83.9,344.7,82.6,344.7,81z"/>
					<path fill="#FFFFFF" d="M344.7,74.6V81c0,1.6-3.6,2.9-8.7,2.9c-5.1,0-8.7-1.3-8.7-2.9v-6.3c0,1.6,3.6,2.9,8.7,2.9
						C341,77.5,344.7,76.2,344.7,74.6z"/>
					<path fill="#FFFFFF" d="M335.9,71.2c5.1,0,8.7-1.3,8.7-2.9v6.3c0,1.6-3.6,2.9-8.7,2.9c-5.1,0-8.7-1.3-8.7-2.9v-6.3
						C327.2,69.9,330.9,71.2,335.9,71.2z"/>
					<path fill="#FFFFFF" d="M344.7,68.3c0,1.6-3.6,2.9-8.7,2.9c-5.1,0-8.7-1.3-8.7-2.9s3.6-2.9,8.7-2.9
						C341,65.4,344.7,66.7,344.7,68.3z"/>
				</g>
				<g>
					<path fill="none" stroke="#85A542" stroke-miterlimit="10" d="M344.7,68.3c0,1.6-3.6,2.9-8.7,2.9c-5.1,0-8.7-1.3-8.7-2.9
						s3.6-2.9,8.7-2.9C341,65.4,344.7,66.7,344.7,68.3z"/>
					<path fill="none" stroke="#85A542" stroke-miterlimit="10" d="M327.2,81c0,1.6,3.6,2.9,8.7,2.9c5.1,0,8.7-1.3,8.7-2.9"/>
					<path fill="none" stroke="#85A542" stroke-miterlimit="10" d="M344.7,68.3v6.3c0,1.6-3.6,2.9-8.7,2.9c-5.1,0-8.7-1.3-8.7-2.9"
						/>
					<path fill="none" stroke="#85A542" stroke-miterlimit="10" d="M327.2,68.3v6.3V81v6.3c0,1.6,3.6,3.4,8.7,3.4
						c5.1,0,8.7-1.8,8.7-3.4V81v-6.3"/>
				</g>
			</g>
			<g>
				<ellipse fill="#85A542" cx="329.2" cy="73.2" rx="0.4" ry="0.3"/>
			</g>
			<g>
				<ellipse fill="#85A542" cx="330.9" cy="73.7" rx="0.4" ry="0.3"/>
			</g>
			<g>
				<ellipse fill="#85A542" cx="332.9" cy="74" rx="0.4" ry="0.3"/>
			</g>
			<g>
				<ellipse fill="#85A542" cx="329.2" cy="79.5" rx="0.4" ry="0.3"/>
			</g>
			<g>
				<ellipse fill="#85A542" cx="330.9" cy="80" rx="0.4" ry="0.3"/>
			</g>
			<g>
				<ellipse fill="#85A542" cx="332.9" cy="80.3" rx="0.4" ry="0.3"/>
			</g>
			<g>
				<ellipse fill="#85A542" cx="329.2" cy="85.9" rx="0.4" ry="0.3"/>
			</g>
			<g>
				<ellipse fill="#85A542" cx="330.9" cy="86.4" rx="0.4" ry="0.3"/>
			</g>
			<g>
				<ellipse fill="#85A542" cx="332.9" cy="86.6" rx="0.4" ry="0.3"/>
			</g>
		</g>
		<g>
			<g id="XMLID_10_">
				<g>
				</g>
				<g>
					<path fill="none" stroke="#85A542" stroke-miterlimit="10" d="M343.7,26.9c0,1.5-3.3,2.6-8,2.6c-4.6,0-8-1.2-8-2.6
						s3.3-2.6,8-2.6C340.4,24.3,343.7,25.5,343.7,26.9z"/>
					<path fill="none" stroke="#85A542" stroke-miterlimit="10" d="M327.8,38.5c0,1.5,3.3,2.6,8,2.6c4.6,0,8-1.2,8-2.6"/>
					<path fill="none" stroke="#85A542" stroke-miterlimit="10" d="M343.7,26.9v5.8c0,1.5-3.3,2.6-8,2.6c-4.6,0-8-1.2-8-2.6"/>
					<path fill="none" stroke="#85A542" stroke-miterlimit="10" d="M327.8,26.9v5.8v5.8v5.8c0,1.5,3.3,3.1,8,3.1c4.6,0,8-1.6,8-3.1
						v-5.8v-5.8"/>
				</g>
			</g>
			<g>
				<ellipse fill="#85A542" cx="329.6" cy="31.4" rx="0.3" ry="0.3"/>
			</g>
			<g>
				<ellipse fill="#85A542" cx="331.2" cy="31.9" rx="0.3" ry="0.3"/>
			</g>
			<g>
				<ellipse fill="#85A542" cx="333" cy="32.1" rx="0.3" ry="0.3"/>
			</g>
			<g>
				<ellipse fill="#85A542" cx="329.6" cy="37.2" rx="0.3" ry="0.3"/>
			</g>
			<g>
				<ellipse fill="#85A542" cx="331.2" cy="37.6" rx="0.3" ry="0.3"/>
			</g>
			<g>
				<ellipse fill="#85A542" cx="333" cy="37.9" rx="0.3" ry="0.3"/>
			</g>
			<g>
				<ellipse fill="#85A542" cx="329.6" cy="43" rx="0.3" ry="0.3"/>
			</g>
			<g>
				<ellipse fill="#85A542" cx="331.2" cy="43.4" rx="0.3" ry="0.3"/>
			</g>
			<g>
				<ellipse fill="#85A542" cx="333" cy="43.7" rx="0.3" ry="0.3"/>
			</g>
		</g>
	</g>
</g>
<g>
	<g>
		<circle fill="#FFFFFF" cx="58.9" cy="56.9" r="42"/>
		<path fill="#818282" d="M58.9,99.3c-23.4,0-42.4-19-42.4-42.4s19-42.4,42.4-42.4s42.4,19,42.4,42.4S82.3,99.3,58.9,99.3z
			 M58.9,15.3c-22.9,0-41.6,18.7-41.6,41.6S36,98.5,58.9,98.5s41.6-18.7,41.6-41.6S81.8,15.3,58.9,15.3z"/>
	</g>
	<g>
		<path fill="#FFFFFF" d="M39.4,49.3c3.6-7.1,10.9-12,19.5-12c12,0,21.7,9.7,21.7,21.7c0,2.8-0.5,5.6-1.5,8"/>
		<path fill="#85A542" d="M79.5,67.3l-0.9-0.4c1-2.5,1.5-5.1,1.5-7.9c0-11.7-9.5-21.2-21.2-21.2c-8.1,0-15.4,4.5-19,11.7L39,49.1
			c3.8-7.6,11.4-12.3,19.9-12.3c12.3,0,22.2,10,22.2,22.2C81.1,61.9,80.6,64.7,79.5,67.3z"/>
	</g>
	<g>
		<path fill="#FFFFFF" d="M78.3,68.9c-3.6,7.1-10.9,12-19.4,12c-12,0-21.7-9.7-21.7-21.7c0-2.8,0.5-5.5,1.5-8"/>
		<path fill="#85A542" d="M58.9,81.3c-12.3,0-22.2-10-22.2-22.2c0-2.8,0.5-5.6,1.6-8.2l0.9,0.4c-1,2.5-1.5,5.1-1.5,7.8
			c0,11.7,9.5,21.2,21.2,21.2c8.1,0,15.3-4.5,19-11.7l0.9,0.5C74.9,76.6,67.3,81.3,58.9,81.3z"/>
	</g>
	<g>
		<circle fill="#FFFFFF" cx="58.9" cy="59.1" r="1.7"/>
		<path fill="#F6914F" d="M58.9,61.3c-1.2,0-2.2-1-2.2-2.2s1-2.2,2.2-2.2s2.2,1,2.2,2.2S60.1,61.3,58.9,61.3z M58.9,57.9
			c-0.7,0-1.2,0.5-1.2,1.2c0,0.7,0.5,1.2,1.2,1.2c0.7,0,1.2-0.5,1.2-1.2C60.1,58.4,59.5,57.9,58.9,57.9z"/>
	</g>
	<g>
		<g>
			<circle fill="#FFFFFF" cx="58.9" cy="59.1" r="19.4"/>
		</g>
		<g>
			<path fill="#85A542" d="M58.9,79.5l-0.2,0l0-2.1l0.1,0c0.2,0,0.4,0,0.5,0l0.1,2.1C59.2,79.5,59.1,79.5,58.9,79.5z M49.4,77.2
				c-0.2-0.1-0.4-0.2-0.7-0.4l1.1-1.8c0.2,0.1,0.4,0.2,0.6,0.3L49.4,77.2z M68.7,77l-1-1.9c0.2-0.1,0.4-0.2,0.6-0.3l1.1,1.8
				C69.2,76.8,68.9,76.9,68.7,77z M41.7,70.2c-0.1-0.2-0.3-0.4-0.4-0.6l1.8-1.1c0.1,0.2,0.2,0.4,0.4,0.6L41.7,70.2z M76.2,69.9
				l-1.8-1.1c0.1-0.2,0.2-0.4,0.3-0.6l1.8,1.1C76.5,69.5,76.4,69.7,76.2,69.9z M38.5,60.4c0-0.2,0-0.5,0-0.7l2.1-0.1
				c0,0.2,0,0.4,0,0.7L38.5,60.4z M79.3,60l-2.1-0.1c0-0.2,0-0.4,0-0.7l2.1,0C79.3,59.5,79.3,59.8,79.3,60z M42.3,51.2l-1.9-0.9
				c0.1-0.2,0.2-0.4,0.3-0.7l1.9,1C42.5,50.8,42.4,51,42.3,51.2z M75,51c-0.1-0.2-0.2-0.4-0.4-0.6l1.8-1.2c0.1,0.2,0.3,0.4,0.4,0.6
				L75,51z M48.3,44.1L47,42.4c0.2-0.1,0.4-0.3,0.6-0.4l1.2,1.8C48.6,43.9,48.4,44,48.3,44.1z M68,43.4c-0.2-0.1-0.4-0.2-0.6-0.3
				l0.8-2c0.2,0.1,0.5,0.2,0.7,0.3L68,43.4z M57.5,40.8l-0.1-2.1c0.2,0,0.5,0,0.7,0l0,2.1C58,40.8,57.8,40.8,57.5,40.8z"/>
		</g>
	</g>
	<g>
		<circle fill="#FFFFFF" cx="58.9" cy="59.1" r="2"/>
		<path fill="#85A542" d="M58.9,61.6L58.9,61.6c-0.7,0-1.3-0.3-1.8-0.8c-0.5-0.5-0.7-1.1-0.7-1.8c0-1.4,1.1-2.5,2.5-2.5
			c0.7,0,1.3,0.3,1.8,0.8c0.5,0.5,0.7,1.1,0.7,1.8C61.4,60.5,60.2,61.6,58.9,61.6z M58.9,57.6c-0.8,0-1.5,0.7-1.5,1.5
			c0,0.4,0.2,0.8,0.4,1.1s0.7,0.4,1.1,0.5l0,0.5v-0.5c0.8,0,1.5-0.7,1.5-1.5c0-0.4-0.2-0.8-0.4-1.1S59.3,57.6,58.9,57.6z"/>
	</g>
	<g>
		<circle fill="#85A542" cx="58.9" cy="59.1" r="0.9"/>
	</g>
	<g>
		<line fill="#FFFFFF" x1="60.9" y1="56.7" x2="69.8" y2="46.7"/>
		
			<rect x="64.8" y="45" transform="matrix(0.7444 0.6677 -0.6677 0.7444 51.2047 -30.4228)" fill="#85A542" width="1" height="13.4"/>
	</g>
	<g>
		<line fill="#FFFFFF" x1="50.8" y1="49.2" x2="57.7" y2="57.9"/>
		
			<rect x="48.7" y="53" transform="matrix(0.6206 0.7841 -0.7841 0.6206 62.5578 -22.1984)" fill="#85A542" width="11.1" height="1"/>
	</g>
	<g>
		<polygon fill="#85A542" points="78.8,67.9 77.1,63.6 78,63.3 79.3,66.4 82.5,64.2 83.1,65 		"/>
	</g>
	<g>
		<polygon fill="#85A542" points="40.1,55.8 38.5,51.9 35.3,54.4 34.7,53.7 38.9,50.2 41,55.4 		"/>
	</g>
	<g>
		<circle fill="#FFFFFF" cx="71.8" cy="43.2" r="10.3"/>
		<path fill="#85A542" d="M71.8,53.9c-5.9,0-10.8-4.8-10.8-10.8s4.8-10.8,10.8-10.8s10.8,4.8,10.8,10.8S77.8,53.9,71.8,53.9z
			 M71.8,33.4c-5.4,0-9.8,4.4-9.8,9.8s4.4,9.8,9.8,9.8s9.8-4.4,9.8-9.8S77.2,33.4,71.8,33.4z"/>
	</g>
	<g>
		<polygon fill="#85A542" points="69.6,48.3 67,44.3 67.8,43.8 69.7,46.7 77.2,39.1 77.9,39.8 		"/>
	</g>
</g>
<g>
	<g>
		<circle fill="#FFFFFF" cx="197.1" cy="57.7" r="42"/>
		<path fill="#818282" d="M197.1,100.1c-23.4,0-42.4-19-42.4-42.4s19-42.4,42.4-42.4s42.4,19,42.4,42.4S220.5,100.1,197.1,100.1z
			 M197.1,16.1c-22.9,0-41.6,18.7-41.6,41.6s18.7,41.6,41.6,41.6s41.6-18.7,41.6-41.6S220,16.1,197.1,16.1z"/>
	</g>
	<g id="XMLID_9_">
		<g>
		</g>
		<g>
			<path fill="none" stroke="#85A542" stroke-miterlimit="10" d="M192.3,45.4c0,2-4.5,3.6-10.8,3.6c-6.3,0-10.8-1.6-10.8-3.6
				c0-2,4.5-3.6,10.8-3.6C187.8,41.8,192.3,43.4,192.3,45.4z"/>
			<path fill="none" stroke="#85A542" stroke-miterlimit="10" d="M170.8,61.1c0,2,4.5,3.6,10.8,3.6c6.3,0,10.8-1.6,10.8-3.6"/>
			<path fill="none" stroke="#85A542" stroke-miterlimit="10" d="M192.3,45.4v7.8c0,2-4.5,3.6-10.8,3.6c-6.3,0-10.8-1.6-10.8-3.6"/>
			<path fill="none" stroke="#85A542" stroke-miterlimit="10" d="M170.8,45.4v7.8v7.8v7.8c0,2,4.5,4.2,10.8,4.2
				c6.3,0,10.8-2.2,10.8-4.2v-7.8v-7.8"/>
		</g>
	</g>
	<g>
		<ellipse fill="#85A542" cx="173.2" cy="51.4" rx="0.5" ry="0.4"/>
	</g>
	<g>
		<ellipse fill="#85A542" cx="175.3" cy="52.1" rx="0.5" ry="0.4"/>
	</g>
	<g>
		<ellipse fill="#85A542" cx="177.8" cy="52.4" rx="0.5" ry="0.4"/>
	</g>
	<g>
		<ellipse fill="#85A542" cx="173.2" cy="59.3" rx="0.5" ry="0.4"/>
	</g>
	<g>
		<ellipse fill="#85A542" cx="175.3" cy="59.9" rx="0.5" ry="0.4"/>
	</g>
	<g>
		<ellipse fill="#85A542" cx="177.8" cy="60.2" rx="0.5" ry="0.4"/>
	</g>
	<g>
		<ellipse fill="#85A542" cx="173.2" cy="67.1" rx="0.5" ry="0.4"/>
	</g>
	<g>
		<ellipse fill="#85A542" cx="175.3" cy="67.7" rx="0.5" ry="0.4"/>
	</g>
	<g>
		<ellipse fill="#85A542" cx="177.8" cy="68" rx="0.5" ry="0.4"/>
	</g>
	<g id="XMLID_8_">
		<g>
		</g>
		<g>
			<path fill="none" stroke="#85A542" stroke-miterlimit="10" d="M223.5,45.4c0,2-4.5,3.6-10.8,3.6c-6.3,0-10.8-1.6-10.8-3.6
				c0-2,4.5-3.6,10.8-3.6C219,41.8,223.5,43.4,223.5,45.4z"/>
			<path fill="none" stroke="#85A542" stroke-miterlimit="10" d="M201.9,61.1c0,2,4.5,3.6,10.8,3.6c6.3,0,10.8-1.6,10.8-3.6"/>
			<path fill="none" stroke="#85A542" stroke-miterlimit="10" d="M223.5,45.4v7.8c0,2-4.5,3.6-10.8,3.6c-6.3,0-10.8-1.6-10.8-3.6"/>
			<path fill="none" stroke="#85A542" stroke-miterlimit="10" d="M201.9,45.4v7.8v7.8v7.8c0,2,4.5,4.2,10.8,4.2
				c6.3,0,10.8-2.2,10.8-4.2v-7.8v-7.8"/>
		</g>
	</g>
	<g>
		<ellipse fill="#85A542" cx="204.3" cy="51.4" rx="0.5" ry="0.4"/>
	</g>
	<g>
		<ellipse fill="#85A542" cx="206.5" cy="52.1" rx="0.5" ry="0.4"/>
	</g>
	<g>
		<ellipse fill="#85A542" cx="208.9" cy="52.4" rx="0.5" ry="0.4"/>
	</g>
	<g>
		<ellipse fill="#85A542" cx="204.3" cy="59.3" rx="0.5" ry="0.4"/>
	</g>
	<g>
		<ellipse fill="#85A542" cx="206.5" cy="59.9" rx="0.5" ry="0.4"/>
	</g>
	<g>
		<ellipse fill="#85A542" cx="208.9" cy="60.2" rx="0.5" ry="0.4"/>
	</g>
	<g>
		<ellipse fill="#85A542" cx="204.3" cy="67.1" rx="0.5" ry="0.4"/>
	</g>
	<g>
		<ellipse fill="#85A542" cx="206.5" cy="67.7" rx="0.5" ry="0.4"/>
	</g>
	<g>
		<ellipse fill="#85A542" cx="208.9" cy="68" rx="0.5" ry="0.4"/>
	</g>
	<g>
		<g>
			<path fill="#85A542" d="M210.4,46.3c-0.3-1.7-1-3.3-1.9-4.7c-1.9-3-5-5.1-8.5-5.9c-3.5-0.8-7.1-0.1-10.2,1.8
				c-2.5,1.6-4.4,3.9-5.4,6.8l-0.9-0.3c1.1-3,3.1-5.5,5.8-7.3c3.3-2.1,7.2-2.8,10.9-1.9c3.8,0.8,7,3.1,9.1,6.4c1,1.6,1.7,3.3,2,5.1
				L210.4,46.3z"/>
		</g>
		<g>
			<polygon fill="#85A542" points="211.1,46.9 208.5,45.1 209.1,44.3 210.7,45.4 211.6,43.3 212.5,43.7 			"/>
		</g>
	</g>
	<g>
		<path fill="#85A542" d="M198,81c-5.4,0-10.5-3-13.1-8.1c-0.8-1.7-1.3-3.4-1.4-5.3l1-0.1c0.1,1.7,0.6,3.3,1.3,4.9
			c3.3,6.7,11.4,9.5,18.1,6.2c2.7-1.3,4.8-3.4,6.2-6.1l0.9,0.4c-1.4,2.9-3.7,5.2-6.6,6.6C202.3,80.5,200.1,81,198,81z"/>
	</g>
	<g>
		<polygon fill="#85A542" points="183.2,70.5 182.3,70.1 183.8,66.7 186.7,69.3 186,70 184.1,68.4 		"/>
	</g>
</g>
<g>
	<g>
		<circle fill="#FFFFFF" cx="472" cy="57.2" r="42"/>
		<path fill="#818282" d="M472,99.6c-23.4,0-42.4-19-42.4-42.4s19-42.4,42.4-42.4s42.4,19,42.4,42.4S495.3,99.6,472,99.6z M472,15.6
			c-22.9,0-41.6,18.7-41.6,41.6S449,98.8,472,98.8s41.6-18.7,41.6-41.6S494.9,15.6,472,15.6z"/>
	</g>
	<g>
		<g>
			<rect x="453.2" y="35.4" fill="#FFFFFF" width="37.5" height="45.7"/>
			<path fill="#85A542" d="M491.2,81.6h-38.5V34.9h38.5V81.6z M453.7,80.6h36.5V35.9h-36.5V80.6z"/>
		</g>
		<g>
			<rect x="457.1" y="38" fill="#FFFFFF" width="29.8" height="39.4"/>
			<path fill="#85A542" d="M487.4,77.9h-30.8V37.5h30.8V77.9z M457.6,76.9h28.8V38.5h-28.8V76.9z"/>
		</g>
		<g>
			<path fill="#FFFFFF" d="M485.3,38.7c0-2.4-2-5.4-4.4-5.4h-5.4c0-2-1.6-3.6-3.6-3.6c-2,0-3.6,1.6-3.6,3.6h-5.6
				c-2.4,0-4.4,3-4.4,5.4H485.3z"/>
			<path fill="#85A542" d="M485.8,39.2h-28v-0.5c0-2.7,2.2-5.9,4.9-5.9h5.2c0.2-2,2-3.6,4-3.6s3.8,1.6,4,3.6h5
				c2.7,0,4.9,3.2,4.9,5.9V39.2z M458.8,38.2h25.9c-0.2-2.1-1.9-4.4-3.9-4.4H475v-0.5c0-1.7-1.4-3.1-3.1-3.1s-3.1,1.4-3.1,3.1v0.5
				h-6.1C460.7,33.8,459.1,36.2,458.8,38.2z"/>
		</g>
		<g>
			<rect x="469.7" y="44.6" fill="#85A542" width="12.7" height="1"/>
		</g>
		<g>
			<rect x="469.7" y="52.9" fill="#85A542" width="12.7" height="1"/>
		</g>
		<g>
			<rect x="469.7" y="61.3" fill="#85A542" width="12.7" height="1"/>
		</g>
		<g>
			<rect x="469.7" y="69.6" fill="#85A542" width="12.7" height="1"/>
		</g>
		<g>
			<polygon fill="#85A542" points="462.3,48.1 460.8,45.7 461.6,45.1 462.5,46.5 466.4,42.5 467.1,43.2 			"/>
		</g>
		<g>
			<polygon fill="#85A542" points="462.3,56.1 460.8,53.7 461.6,53.1 462.5,54.5 466.4,50.5 467.1,51.2 			"/>
		</g>
		<g>
			<polygon fill="#85A542" points="462.3,73.1 460.8,70.7 461.6,70.1 462.5,71.5 466.4,67.5 467.1,68.2 			"/>
		</g>
		<g>
			
				<rect x="460.7" y="61.3" transform="matrix(0.6877 0.726 -0.726 0.6877 189.7175 -317.5297)" fill="#85A542" width="6.5" height="1"/>
		</g>
		<g>
			
				<rect x="463.5" y="58.5" transform="matrix(0.7259 0.6878 -0.6878 0.7259 169.6573 -302.1845)" fill="#85A542" width="1" height="6.5"/>
		</g>
	</g>
</g>
<g>
	<g>
		<circle fill="#FFFFFF" cx="742.6" cy="56.6" r="42"/>
		<path fill="#818282" d="M742.6,99c-23.4,0-42.4-19-42.4-42.4s19-42.4,42.4-42.4s42.4,19,42.4,42.4S765.9,99,742.6,99z M742.6,15
			C719.6,15,701,33.7,701,56.6s18.7,41.6,41.6,41.6s41.6-18.7,41.6-41.6S765.5,15,742.6,15z"/>
	</g>
	<g>
		<g>
			<g>
				<g>
					<path fill="#FFFFFF" d="M760.2,74.8c0,1.7-1.3,3-3,3H728c-1.6,0-3-1.3-3-3V53.2c0-1.7,1.4-3,3-3h29.2c1.7,0,3,1.3,3,3V74.8z"/>
				</g>
				<g>
					<path fill="#85A542" d="M757.2,78.3H728c-1.9,0-3.5-1.6-3.5-3.5V53.2c0-1.9,1.6-3.5,3.5-3.5h29.2c1.9,0,3.5,1.6,3.5,3.5v21.5
						C760.7,76.7,759.1,78.3,757.2,78.3z M728,50.7c-1.4,0-2.5,1.1-2.5,2.5v21.5c0,1.4,1.1,2.5,2.5,2.5h29.2c1.4,0,2.5-1.1,2.5-2.5
						V53.2c0-1.4-1.1-2.5-2.5-2.5H728z"/>
				</g>
			</g>
			<g>
				<path fill="#85A542" d="M752.9,50.2h-1v-7.5c0-5.2-4.2-9.4-9.4-9.4s-9.4,4.2-9.4,9.4v7.5h-1v-7.5c0-5.7,4.6-10.4,10.4-10.4
					s10.4,4.6,10.4,10.4V50.2z"/>
			</g>
			<g>
				<line fill="#FFFFFF" x1="736.5" y1="57.6" x2="748.7" y2="57.6"/>
				<rect x="736.5" y="57.1" fill="#85A542" width="12.2" height="1"/>
			</g>
			<g>
				<line fill="#FFFFFF" x1="732.7" y1="63.2" x2="752.4" y2="63.2"/>
				<rect x="732.7" y="62.7" fill="#85A542" width="19.7" height="1"/>
			</g>
			<g>
				<line fill="#FFFFFF" x1="736.5" y1="68.8" x2="748.7" y2="68.8"/>
				<rect x="736.5" y="68.3" fill="#85A542" width="12.2" height="1"/>
			</g>
		</g>
	</g>
</g>
<g>
	<g>
		<circle fill="#FFFFFF" cx="608.1" cy="57.3" r="42"/>
		<path fill="#818282" d="M608.1,99.7c-23.4,0-42.4-19-42.4-42.4s19-42.4,42.4-42.4s42.4,19,42.4,42.4S631.5,99.7,608.1,99.7z
			 M608.1,15.7c-22.9,0-41.6,18.7-41.6,41.6s18.7,41.6,41.6,41.6c22.9,0,41.6-18.7,41.6-41.6S631,15.7,608.1,15.7z"/>
	</g>
	<g>
		<g>
			<path fill="#85A542" d="M608.1,47.8c-5.5,0-10.6-0.9-13.3-2.3l0.5-0.9c2.5,1.4,7.4,2.2,12.8,2.2c8.4,0,14.2-2,14.2-3.8
				s-5.9-3.8-14.2-3.8v-1c7.4,0,15.2,1.7,15.2,4.8S615.5,47.8,608.1,47.8z"/>
		</g>
		<g>
			<path fill="#85A542" d="M608.1,51.8c-7.4,0-15.2-1.7-15.2-4.8s7.9-4.8,15.2-4.8s15.2,1.7,15.2,4.8S615.5,51.8,608.1,51.8z
				 M608.1,43.3c-8.4,0-14.2,2-14.2,3.8s5.9,3.8,14.2,3.8s14.2-2,14.2-3.8S616.5,43.3,608.1,43.3z"/>
		</g>
		<g>
			<path fill="#85A542" d="M608.1,56.8c-7.4,0-15.2-1.7-15.2-4.8s7.9-4.8,15.2-4.8s15.2,1.7,15.2,4.8S615.5,56.8,608.1,56.8z
				 M608.1,48.3c-8.4,0-14.2,2-14.2,3.8s5.9,3.8,14.2,3.8s14.2-2,14.2-3.8S616.5,48.3,608.1,48.3z"/>
		</g>
		<g>
			<path fill="#85A542" d="M608.1,61.8c-7.4,0-15.2-1.7-15.2-4.8s7.9-4.8,15.2-4.8s15.2,1.7,15.2,4.8S615.5,61.8,608.1,61.8z
				 M608.1,53.3c-8.4,0-14.2,2-14.2,3.8s5.9,3.8,14.2,3.8s14.2-2,14.2-3.8S616.5,53.3,608.1,53.3z"/>
		</g>
		<g>
			<path fill="#85A542" d="M608.1,66.8c-7.4,0-15.2-1.7-15.2-4.7c0-3.1,7.9-4.8,15.2-4.8s15.2,1.7,15.2,4.8
				C623.3,65.2,615.5,66.8,608.1,66.8z M608.1,58.3c-8.4,0-14.2,2-14.2,3.8s5.9,3.7,14.2,3.7s14.2-2,14.2-3.7S616.5,58.3,608.1,58.3
				z"/>
		</g>
		<g>
			<path fill="#85A542" d="M608.1,71.8c-7.4,0-15.2-1.7-15.2-4.8c0-3.1,7.9-4.7,15.2-4.7s15.2,1.7,15.2,4.7
				C623.3,70.2,615.5,71.8,608.1,71.8z M608.1,63.3c-8.4,0-14.2,2-14.2,3.7s5.9,3.8,14.2,3.8s14.2-2,14.2-3.8S616.5,63.3,608.1,63.3
				z"/>
		</g>
		<g>
			<path fill="#85A542" d="M608.1,75.8c-7.4,0-15.2-1.7-15.2-4.8s7.9-4.8,15.2-4.8c5.5,0,10.6,0.9,13.3,2.3l-0.5,0.9
				c-2.5-1.4-7.4-2.2-12.8-2.2c-8.4,0-14.2,2-14.2,3.8s5.9,3.8,14.2,3.8V75.8z"/>
		</g>
		<g>
			<rect x="600.5" y="28.9" fill="#85A542" width="1" height="12"/>
		</g>
		<g>
			<polygon fill="#85A542" points="596.7,34.2 596,33.5 601,28.1 606,33.5 605.3,34.2 601,29.6 			"/>
		</g>
		<g>
			<rect x="614.5" y="73.9" fill="#85A542" width="1" height="12"/>
		</g>
		<g>
			<polygon fill="#85A542" points="615,86.6 610,81.2 610.7,80.5 615,85.1 619.3,80.5 620,81.2 			"/>
		</g>
	</g>
</g>
</svg>
