<?xml version="1.0" encoding="utf-8"?>
<!-- Generator: Adobe Illustrator 18.1.0, SVG Export Plug-In . SVG Version: 6.00 Build 0)  -->
<svg version="1.1" id="Layer_1" xmlns="http://www.w3.org/2000/svg" xmlns:xlink="http://www.w3.org/1999/xlink" x="0px" y="0px"
	 viewBox="0 0 1280 300" enable-background="new 0 0 1280 300" xml:space="preserve">
<rect fill="#F5F4F4" width="1280" height="300"/>
<g>
	<g>
		<path fill="#F2B345" d="M409.7,200.9c-24.1,0-43.8-19.6-43.8-43.8c0-24.1,19.6-43.8,43.8-43.8s43.8,19.6,43.8,43.8
			C453.5,181.3,433.9,200.9,409.7,200.9z M409.7,114.4c-23.6,0-42.8,19.2-42.8,42.8s19.2,42.8,42.8,42.8s42.8-19.2,42.8-42.8
			S433.3,114.4,409.7,114.4z"/>
	</g>
	<g>
		<path fill="#F2B345" d="M409.7,208.8c-28.5,0-51.6-23.1-51.6-51.6c0-28.4,23.1-51.6,51.6-51.6c28.4,0,51.6,23.1,51.6,51.6
			C461.3,185.6,438.2,208.8,409.7,208.8z M409.7,106.6c-27.9,0-50.6,22.7-50.6,50.6s22.7,50.6,50.6,50.6s50.6-22.7,50.6-50.6
			S437.6,106.6,409.7,106.6z"/>
	</g>
	<g>
		<path fill="#F2B345" d="M409.7,183.2c-14.4,0-26.1-11.7-26.1-26.1c0-14.4,11.7-26.1,26.1-26.1s26.1,11.7,26.1,26.1
			C435.8,171.5,424.1,183.2,409.7,183.2z M409.7,132.1c-13.8,0-25.1,11.2-25.1,25.1c0,13.8,11.2,25.1,25.1,25.1s25.1-11.2,25.1-25.1
			C434.8,143.3,423.6,132.1,409.7,132.1z"/>
	</g>
	<g>
		<circle fill="#F2B345" cx="409.7" cy="157.2" r="20.7"/>
	</g>
	<g>
		<path fill="#F2B345" d="M428.4,150.2l-0.6-0.8c20.4-14.7,30.3-29.2,29.6-43C456.5,89.2,439,79,438.8,78.9l0.5-0.9
			c0.2,0.1,18.1,10.6,19.1,28.3C459.1,120.6,449,135.3,428.4,150.2z"/>
	</g>
	<g>
		<path fill="#F2B345" d="M325.5,189.6l-0.9-0.4c11.1-25,24.2-39.3,38.9-42.5c14.7-3.2,25.7,6.3,25.9,6.4l-0.7,0.8
			c-0.1-0.1-10.8-9.3-25-6.2C349.3,150.9,336.5,165,325.5,189.6z"/>
	</g>
	<g>
		<path fill="#F2B345" d="M449.7,226.1c-13,0-22.7-3.4-29.1-10.3c-13.5-14.5-6.9-39.4-6.8-39.7l1,0.3c-0.1,0.2-6.5,24.7,6.6,38.7
			c9,9.7,24.9,12.3,47.4,8l0.2,1C461.9,225.4,455.5,226.1,449.7,226.1z"/>
	</g>
	<g>
		<circle fill="#F2B345" cx="321.7" cy="199" r="9.5"/>
	</g>
	<g>
		<circle fill="#F2B345" cx="430.7" cy="76.3" r="9.5"/>
	</g>
	<g>
		<circle fill="#F2B345" cx="476.2" cy="221.7" r="9.5"/>
	</g>
</g>
<g>
	<g>
		<g>
			<g>
				<polygon fill="#27B899" points="639.3,141.6 539.2,84.9 539.7,84 639.3,140.4 737,84.6 737.5,85.5 				"/>
			</g>
			<g>
				<rect x="638.8" y="141" fill="#27B899" width="1" height="101.9"/>
			</g>
			<g>
				<g>
					<polygon fill="#27B899" points="582.3,173.8 582.4,107.9 639.5,75.2 696.4,108.2 696.3,174 639.2,206.8 					"/>
				</g>
				<g>
					<path fill="#F4F3F3" d="M639.2,207.4l-0.2-0.1l-57.2-33.2l0.1-66.4l57.6-33.1l0.2,0.1l57.2,33.2l0,0.3l-0.1,66.1L639.2,207.4z
						 M582.8,173.5l56.4,32.7l56.6-32.5l0.1-65.2l-56.4-32.7l-56.6,32.5L582.8,173.5z"/>
				</g>
			</g>
			<g>
				<g>
					<polygon fill="#F5F4F4" points="604.3,161.1 604.4,120.7 639.4,100.6 674.4,120.8 674.3,161.2 639.2,181.4 					"/>
				</g>
				<g>
					<path fill="#27B899" d="M639.2,182l-0.2-0.1l-35.2-20.4l0.1-41l35.5-20.4l0.2,0.1l35.2,20.4l0,0.3l-0.1,40.7L639.2,182z
						 M604.8,160.8l34.5,20l34.5-19.8l0.1-39.8l-34.5-20L604.9,121L604.8,160.8z"/>
				</g>
			</g>
			<g>
				<path fill="#F5F4F4" d="M639.2,188l-40.7-23.6l0.1-47L639.4,94l40.7,23.6l-0.1,47L639.2,188z M600.6,163.2l38.7,22.4l38.7-22.3
					l0.1-44.7l-38.7-22.4l-38.7,22.3L600.6,163.2z"/>
			</g>
		</g>
		<g>
			<path fill="none" stroke="#F4F3F3" stroke-miterlimit="10" d="M539.4,84.4"/>
		</g>
		<g>
			<polygon fill="#27B899" points="639.3,141.6 602.8,120.9 603.3,120 639.3,140.4 675.1,120 675.6,120.8 			"/>
		</g>
		<g>
			<rect x="638.8" y="141" fill="#27B899" width="1" height="41.3"/>
		</g>
		<g>
			<g>
				<polygon fill="#27B899" points="623.9,149.8 623.9,132 639.4,123.1 654.8,132.1 654.7,149.9 639.3,158.8 				"/>
			</g>
			<g>
				<path fill="#F5F4F4" d="M639.3,159.9l-16.4-9.5l0-19l16.5-9.5l16.4,9.5l0,19L639.3,159.9z M624.9,149.3l14.4,8.4l14.5-8.3
					l0-16.7l-14.4-8.4l-14.5,8.3L624.9,149.3z"/>
			</g>
		</g>
	</g>
	<polygon fill="none" stroke="#27B899" stroke-miterlimit="10" points="612.9,156.2 613,125.7 639.4,110.5 665.8,125.8 665.7,156.3 
		639.3,171.4 	"/>
</g>
<g>
	<g>
		<g>
			<path fill="#588DA2" d="M798.5,143.7l-0.8-0.7c17.7-20.8,53.9-55.7,97.8-55.8c0,0,0.1,0,0.1,0c37.7,0,69.6,25.4,89.8,46.7
				l-0.7,0.7c-20-21.2-51.8-46.4-89.1-46.4c-0.1,0-0.1,0-0.1,0C852,88.3,816.1,123,798.5,143.7z"/>
		</g>
	</g>
	<g>
		<path fill="#588DA2" d="M901.4,211.7c-1.6,0-3.2,0-4.8-0.1c-34.5-1.5-57.7-15.9-71.2-27.8c-14.6-12.9-21.1-25.6-21.1-25.7
			l-0.1-0.3l0.2-0.2c0.4-0.6,40.2-59.6,92.7-59.6h0.1c52.5,0,92.2,58.6,92.6,59.2l0.2,0.2l-0.1,0.3c-0.1,0.1-6.5,13.7-20.5,27
			C956.4,197,934.1,211.7,901.4,211.7z M805.3,157.9c1,1.9,7.5,13.4,20.8,25.2c13.3,11.7,36.4,26,70.5,27.5c1.6,0.1,3.2,0.1,4.7,0.1
			c59.7,0,85.4-49.2,87.4-53.2c-2.8-4.1-41.4-58.5-91.6-58.5H897C846.8,99.1,808.2,153.8,805.3,157.9z"/>
	</g>
	<g>
		<path fill="#588DA2" d="M897.2,177.6c-12.5,0-22.8-10.2-22.8-22.8c0-12.5,10.2-22.8,22.8-22.8s22.8,10.2,22.8,22.8
			C920,167.4,909.8,177.6,897.2,177.6z M897.2,133.1c-12,0-21.7,9.8-21.7,21.7c0,12,9.8,21.8,21.7,21.8c12,0,21.8-9.8,21.8-21.8
			C919,142.8,909.2,133.1,897.2,133.1z"/>
	</g>
	<g>
		<circle fill="#588DA2" cx="897.2" cy="154.8" r="22.3"/>
	</g>
	<g>
		<circle fill="#F5F4F4" cx="897.2" cy="154.8" r="9.9"/>
	</g>
	<g>
		<path fill="#588DA2" d="M869.3,187.7c-49.1,0-64.9-29.2-65-29.5l0.9-0.5c0.2,0.3,15.6,29,64.1,29c48.3,0,49.7-28.9,49.7-29.2l1,0
			C920,157.8,918.6,187.7,869.3,187.7z"/>
	</g>
	<g>
		<path fill="#588DA2" d="M874.7,157.6c-0.1-0.3-2-8.1,4-15.9c7.3-9.4,22.6-14.3,45.5-14.5c25.6-0.2,42,7.8,51.1,14.6
			c9.9,7.4,13.7,14.6,13.9,15l-0.9,0.5c-0.1-0.3-15.4-29-63.2-29c-0.3,0-0.6,0-0.9,0c-22.3,0.2-37.8,5-44.7,14.1
			c-5.6,7.3-3.8,14.9-3.8,15L874.7,157.6z"/>
	</g>
	<g>
		<path fill="#588DA2" d="M896.7,211.6l-0.2-1c0.3-0.1,30.4-6.2,33.1-33.5c2.5-25.3-21.2-40.8-21.4-41l0.5-0.8
			c0.2,0.2,24.4,16,21.9,41.9C927.9,205.2,897,211.5,896.7,211.6z"/>
	</g>
	<g>
		<path fill="#588DA2" d="M885.7,174.4c-0.3-0.2-25-16-22.5-41.9c2.8-28.1,33.6-34.4,33.9-34.4l0.2,1c-0.3,0.1-30.4,6.2-33.1,33.5
			c-2.5,25.3,21.8,40.8,22,41L885.7,174.4z"/>
	</g>
	<g>
		<path fill="#588DA2" d="M892.3,177.9c-24,0-40.5-10.8-50.4-20.4c-11.8-11.5-17-23.7-17-23.8l0.9-0.4c0.1,0.1,5.2,12.2,16.8,23.5
			c10.7,10.4,29.4,22.3,57.4,19.7l0.1,1C897.4,177.8,894.8,177.9,892.3,177.9z"/>
	</g>
	<g>
		<path fill="#588DA2" d="M963.7,188.6c0-0.1-0.9-14.1-9.8-27.9c-8.2-12.7-25.1-27.8-59-27.8v-1c19,0,44.7,4.9,59.9,28.3
			c9,14,10,28.2,10,28.3L963.7,188.6z"/>
	</g>
</g>
</svg>
