<?xml version="1.0" encoding="utf-8"?>
<!-- Generator: Adobe Illustrator 17.1.0, SVG Export Plug-In . SVG Version: 6.00 Build 0)  -->
<!DOCTYPE svg PUBLIC "-//W3C//DTD SVG 1.1//EN" "http://www.w3.org/Graphics/SVG/1.1/DTD/svg11.dtd">
<svg version="1.1" id="Layer_1" xmlns="http://www.w3.org/2000/svg" xmlns:xlink="http://www.w3.org/1999/xlink" x="0px" y="0px"
	 viewBox="0 0 32.7 33.1" enable-background="new 0 0 32.7 33.1" xml:space="preserve">
<g>
	<g>
		<circle fill="#C1C1C1" cx="16.4" cy="16.7" r="16.4"/>
	</g>
	<g>
		<path fill="#FFFFFF" d="M28.5,32H4.2c-0.6,0-1-0.4-1-1V1c0-0.6,0.4-1,1-1h24.3c0.6,0,1,0.4,1,1v30C29.5,31.6,29,32,28.5,32z"/>
	</g>
	<g>
		<rect x="7.1" y="3.7" fill="#1EB8F4" width="14.2" height="2"/>
	</g>
	<g>
		<rect x="7.1" y="9.6" fill="#3F3F3F" width="14.2" height="1"/>
	</g>
	<g>
		<rect x="7.1" y="12.3" fill="#3F3F3F" width="9.7" height="1"/>
	</g>
	<g>
		<rect x="7.1" y="15" fill="#3F3F3F" width="16.9" height="1"/>
	</g>
	<g>
		<rect x="7.1" y="20.4" fill="#3F3F3F" width="7.9" height="1"/>
	</g>
	<g>
		<rect x="7.1" y="23.1" fill="#3F3F3F" width="14.2" height="1"/>
	</g>
	<g>
		<rect x="7.1" y="25.8" fill="#3F3F3F" width="12.4" height="1"/>
	</g>
</g>
</svg>
