<?xml version="1.0" encoding="utf-8"?>
<!-- Generator: Adobe Illustrator 18.1.0, SVG Export Plug-In . SVG Version: 6.00 Build 0)  -->
<svg version="1.1" id="Layer_1" xmlns="http://www.w3.org/2000/svg" xmlns:xlink="http://www.w3.org/1999/xlink" x="0px" y="0px"
	 viewBox="0 0 800 430" enable-background="new 0 0 800 430" xml:space="preserve">
<g>
	<g>
		<path fill="#588DA2" d="M289.3,58.8l-3.7-3.7h-19.2c-2.3,0-4.2-1.9-4.2-4.2V34.8c0-2.3,1.9-4.2,4.2-4.2h29.8
			c2.3,0,4.2,1.9,4.2,4.2V51c0,2.3-1.9,4.2-4.2,4.2h-3.3L289.3,58.8z M266.4,32.4c-1.4,0-2.5,1.1-2.5,2.5V51c0,1.4,1.1,2.5,2.5,2.5
			h19.9l3,3l3-3h4c1.4,0,2.5-1.1,2.5-2.5V34.8c0-1.4-1.1-2.5-2.5-2.5H266.4z"/>
	</g>
	<g>
		<path fill="#588DA2" d="M299.9,77.2l-3.5-3.5h-10.2c-2.2,0-4-1.8-4-4V56.2h1.7v13.5c0,1.3,1,2.3,2.3,2.3h10.9l2.8,2.8l2.8-2.8
			h11.8c1.3,0,2.3-1,2.3-2.3V52.1c0-1.3-1-2.3-2.3-2.3H302v-1.7h12.5c2.2,0,4,1.8,4,4v17.6c0,2.2-1.8,4-4,4h-11.1L299.9,77.2z"/>
	</g>
	<g>
		<path fill="#588DA2" d="M264.3,70.6l-2.9-2.9h-15c-1.9,0-3.4-1.5-3.4-3.4V50.2c0-1.9,1.5-3.4,3.4-3.4h14.7v1.7h-14.7
			c-0.9,0-1.7,0.8-1.7,1.7v14.1c0,0.9,0.8,1.7,1.7,1.7h15.7l2.2,2.2l2.2-2.2h10.6c0.9,0,1.7-0.8,1.7-1.7v-8.2h1.7v8.2
			c0,1.9-1.5,3.4-3.4,3.4h-9.9L264.3,70.6z"/>
	</g>
	<g>
		<polygon fill="#4EB96F" points="279.3,48.1 275.6,44.1 276.8,43 279.4,45.7 288.1,37.6 289.3,38.9 		"/>
	</g>
	<g opacity="0.2">
		<rect x="287.3" y="42.7" fill="#588DA2" width="6.5" height="1.7"/>
	</g>
	<g opacity="0.2">
		<rect x="268.8" y="42.7" fill="#588DA2" width="5" height="1.7"/>
	</g>
	<g>
		
			<rect x="299.4" y="55.9" transform="matrix(0.7432 0.669 -0.669 0.7432 118.3927 -185.0538)" fill="#E54C3C" width="1.7" height="11.6"/>
	</g>
	<g>
		
			<rect x="294.5" y="60.9" transform="matrix(0.6689 0.7433 -0.7433 0.6689 145.2941 -202.7801)" fill="#E54C3C" width="11.6" height="1.7"/>
	</g>
	<g opacity="0.2">
		<rect x="305.2" y="61" fill="#588DA2" width="7.3" height="1.7"/>
	</g>
	<g opacity="0.2">
		<rect x="288.2" y="61" fill="#588DA2" width="7.4" height="1.7"/>
	</g>
	<g>
		
			<rect x="260.2" y="54.5" transform="matrix(0.7432 0.669 -0.669 0.7432 106.3837 -159.5339)" fill="#E54C3C" width="1.7" height="8.6"/>
	</g>
	<g>
		
			<rect x="256.2" y="56.9" transform="matrix(0.669 0.7433 -0.7433 0.669 129.6516 -175.6509)" fill="#E54C3C" width="11.6" height="1.7"/>
	</g>
	<g opacity="0.2">
		<rect x="266.9" y="57.1" fill="#588DA2" width="7.3" height="1.7"/>
	</g>
	<g opacity="0.2">
		<rect x="250" y="57.1" fill="#588DA2" width="7.4" height="1.7"/>
	</g>
</g>
<g>
	<g>
		<polygon fill="#588DA2" points="523.1,79.4 467.4,79.4 467.4,46.6 469.1,46.6 469.1,77.7 523.1,77.7 		"/>
	</g>
	<g>
		<polygon fill="#588DA2" points="468.8,63.9 467.7,62.6 480.8,51.5 494.7,55.9 507.4,49.4 521,51.6 520.7,53.2 507.7,51.1 
			494.9,57.7 481.2,53.4 		"/>
	</g>
	<g>
		<polygon fill="#588DA2" points="507.5,69.9 494.6,61.1 481.2,63.4 468.6,69.9 467.9,68.4 480.8,61.7 495,59.3 507.5,67.9 
			520.3,59.3 521.3,60.7 		"/>
	</g>
	<g>
		<polygon fill="#588DA2" points="468.8,78.3 467.7,77.1 480.7,64.2 494.7,66.9 508.7,59.1 520.5,55.1 521.1,56.7 509.3,60.7 
			495,68.7 481.2,66 		"/>
	</g>
	<g>
		<path fill="#4EB96F" d="M543.1,32c-0.3-0.3-0.7-0.2-1,0l-2.3,2.6l-2.6-2.7c-0.3-0.3-0.7-0.3-1,0c-0.3,0.3-0.3,0.7,0,1l2.9,3.1
			c-0.3,2.2-1.2,4.2-2.6,5.9c-1.3-0.5-4.2-1.5-5.9-2c0-0.1,0-0.4,0-0.5c0-0.5,0.2-1,0.4-1.4c0.2-0.5,0.5-1.3,0.6-2.1
			c0.3-0.3,0.7-1,0.9-2.2c0.2-1.1,0.1-1.5,0-1.9c0,0,0-0.1,0-0.1c0-0.2,0-1.5,0.2-2.5c0.1-0.7,0-2.3-1-3.5c-0.6-0.8-1.8-1.8-4-1.9
			l-1.2,0c-2.1,0.1-3.3,1.1-3.9,1.9c-1,1.3-1.1,2.8-1,3.5c0.2,1,0.2,2.3,0.2,2.5c0,0,0,0.1,0,0.1c-0.2,0.4-0.3,0.8,0,1.9
			c0.2,1.2,0.6,1.9,0.9,2.2c0.1,0.8,0.4,1.6,0.6,2.1c0.2,0.3,0.2,0.8,0.2,1.5c0,0.2,0,0.5,0,0.5c-1.8,0.5-4.7,1.6-5.9,2.1
			c-1.1-1.3-1.9-2.9-2.4-4.5l0-0.1l-0.6-0.4l-0.7,1.3l0,0.1c1.8,5.8,7.1,9.7,13.2,9.7c7,0,12.8-5.2,13.7-12.1l2.6-2.8
			C543.4,32.7,543.4,32.3,543.1,32z M526.9,46.4c-3.1,0-6.1-1.2-8.4-3.3c1.3-0.5,3.7-1.4,5.2-1.8c1.1-0.3,1.1-1.3,1.1-2
			c0-0.6,0-1.4-0.4-2.1c-0.2-0.5-0.5-1.2-0.5-1.8c0-0.2-0.1-0.4-0.3-0.5c-0.1-0.1-0.4-0.6-0.6-1.6c-0.2-0.8-0.1-0.9,0-1.1
			c0-0.1,0.1-0.2,0.1-0.2c0.2-0.6,0-2.3-0.2-3.1c-0.1-0.4,0-1.4,0.7-2.3c0.6-0.8,1.6-1.2,2.8-1.3l1.1,0c1.3,0.1,2.2,0.5,2.8,1.3
			c0.7,0.9,0.8,2,0.7,2.3c-0.1,0.8-0.3,2.6-0.2,3.1c0,0.1,0.1,0.2,0.1,0.2c0.1,0.1,0.1,0.3,0,1.1c-0.2,1-0.5,1.5-0.6,1.6
			c-0.1,0.1-0.2,0.3-0.3,0.5c-0.1,0.6-0.3,1.4-0.5,1.8c-0.3,0.6-0.6,1.3-0.6,2.1c0,0.7,0,1.6,1.1,2c1.5,0.4,3.8,1.2,5.2,1.8
			C533.1,45.2,530.1,46.4,526.9,46.4z"/>
		<path fill="#4EB96F" d="M516.6,36.6c0.2,0.2,0.6,0.2,0.8,0c0.2-0.2,0.2-0.6,0-0.8l-2.7-2.4c0.4-6.4,5.8-11.5,12.2-11.5
			c5.8,0,10.8,4.1,12,9.7l0,0.1l0.9,0.6l0.5-1l0-0.1c-1.4-6.3-7-10.8-13.5-10.8c-7.6,0-13.8,6.2-13.8,13.8l-1.6,2
			c-0.2,0.3-0.1,0.6,0.1,0.8c0.1,0.1,0.2,0.1,0.3,0.1c0.2,0,0.4-0.1,0.5-0.2l1.8-2.3L516.6,36.6z"/>
	</g>
	<g>
		<circle fill="#FFFFFF" cx="507.5" cy="50.3" r="3.2"/>
		<path fill="#4EB96F" d="M507.5,54.3c-2.2,0-4.1-1.8-4.1-4.1s1.8-4.1,4.1-4.1c2.2,0,4.1,1.8,4.1,4.1S509.8,54.3,507.5,54.3z
			 M507.5,47.9c-1.3,0-2.4,1.1-2.4,2.4s1.1,2.4,2.4,2.4c1.3,0,2.4-1.1,2.4-2.4S508.8,47.9,507.5,47.9z"/>
	</g>
	<g opacity="0.2">
		<line fill="#FFFFFF" x1="510.8" y1="47.9" x2="516.6" y2="43.9"/>
		
			<rect x="512.8" y="42.3" transform="matrix(0.5664 0.8242 -0.8242 0.5664 260.5512 -403.4573)" fill="#588DA2" width="1.7" height="7.1"/>
	</g>
</g>
<g>
	<g>
		<rect x="30.4" y="71.9" fill="#588DA2" width="70" height="1.9"/>
	</g>
	<g>
		<rect x="64.8" y="32.9" fill="#588DA2" width="1.9" height="40.2"/>
	</g>
	<g>
		<path fill="#588DA2" d="M61.9,84.1l-1.2-2.2h-1v2.2h-1.3v-6.2h2.9c1.3,0,2.1,0.8,2.1,2c0,1.1-0.7,1.7-1.4,1.8l1.4,2.4H61.9z
			 M62,79.9c0-0.5-0.4-0.8-0.9-0.8h-1.4v1.7h1.4C61.6,80.8,62,80.4,62,79.9z"/>
		<path fill="#588DA2" d="M64.1,81c0-1.9,1.4-3.2,3.3-3.2c1.9,0,3.2,1.3,3.2,3.2s-1.4,3.2-3.2,3.2C65.4,84.3,64.1,82.9,64.1,81z
			 M69.2,81c0-1.2-0.7-2-1.9-2c-1.2,0-1.9,0.9-1.9,2c0,1.2,0.7,2,1.9,2C68.5,83.1,69.2,82.2,69.2,81z"/>
		<path fill="#588DA2" d="M71.5,84.1v-6.2h1.3v6.2H71.5z"/>
	</g>
	<g>
		<polygon fill="#4EB96F" points="96.8,46.3 67.5,46.3 67.5,44.3 94.8,44.3 94.8,39.5 67.5,39.5 67.5,37.5 96.8,37.5 		"/>
	</g>
	<g>
		<polygon fill="#4EB96F" points="76.4,63.2 67.5,63.2 67.5,61.3 74.5,61.3 74.5,56.4 67.5,56.4 67.5,54.5 76.4,54.5 		"/>
	</g>
	<g>
		<polygon fill="#E54C3C" points="64.1,56.4 46.2,56.4 46.2,47.7 64.1,47.7 64.1,49.7 48.1,49.7 48.1,54.5 64.1,54.5 		"/>
	</g>
</g>
<g>
	<g>
		<path fill="#588DA2" d="M770.7,69.2h-99.9c-3.5,0-6.4-2.9-6.4-6.4v-18c0-3.5,2.9-6.4,6.4-6.4h99.9c3.5,0,6.4,2.9,6.4,6.4v18
			C777.1,66.3,774.2,69.2,770.7,69.2z M670.7,40.4c-2.4,0-4.4,2-4.4,4.4v18c0,2.4,2,4.4,4.4,4.4h99.9c2.4,0,4.4-2,4.4-4.4v-18
			c0-2.4-2-4.4-4.4-4.4H670.7z"/>
	</g>
	<g>
		<path fill="#588DA2" d="M681.6,60.9c-0.7-0.1-1.4-0.3-2-0.6l1.6-3.5c0.3,0.1,0.6,0.2,0.9,0.3L681.6,60.9z M683.7,60.9l-0.6-3.8
			c0.3,0,0.6-0.1,0.9-0.3l1.6,3.5C685,60.6,684.4,60.8,683.7,60.9z M677.8,59.2c-0.5-0.5-1-1-1.4-1.6l3.2-2.1
			c0.2,0.3,0.4,0.5,0.7,0.7L677.8,59.2z M687.4,59.2l-2.5-2.9c0.2-0.2,0.5-0.5,0.6-0.7l3.2,2.1C688.4,58.2,688,58.8,687.4,59.2z
			 M675.6,55.8c-0.2-0.7-0.3-1.4-0.3-2.1l3.9,0c0,0.3,0.1,0.7,0.1,1L675.6,55.8z M689.7,55.7l-3.7-1.1c0.1-0.3,0.1-0.6,0.1-1
			l3.3-0.1l0.6,0C689.9,54.4,689.8,55.1,689.7,55.7z M679.3,52.7l-3.7-1.1c0.2-0.7,0.5-1.3,0.9-1.9l3.3,2.1
			C679.5,52.1,679.4,52.4,679.3,52.7z M685.9,52.7c-0.1-0.3-0.2-0.6-0.4-0.9l3.2-2.1c0.4,0.6,0.7,1.2,0.9,1.9L685.9,52.7z
			 M680.3,51.1l-2.5-2.9c0.5-0.5,1.1-0.8,1.7-1.1l1.6,3.5C680.9,50.7,680.6,50.9,680.3,51.1z M684.9,51c-0.3-0.2-0.5-0.4-0.8-0.5
			l1.6-3.5c0.6,0.3,1.2,0.7,1.8,1.1L684.9,51z M682.1,50.3l-0.6-3.8c0.7-0.1,1.4-0.1,2.1,0l-0.5,3.8
			C682.8,50.2,682.4,50.2,682.1,50.3z"/>
	</g>
	<g>
		<path fill="#588DA2" d="M697.8,57.2v-5.8h4.1v1.1H699v1.2h2.8v1.1H699v1.3h2.8v1.1H697.8z"/>
		<path fill="#588DA2" d="M706.6,57.2l-1.4-2.1l-1.4,2.1h-1.5l2.1-3l-2-2.8h1.5l1.3,2l1.3-2h1.5l-2,2.8l2.1,3H706.6z"/>
		<path fill="#588DA2" d="M708.6,57.2v-5.8h2.7c1.3,0,1.9,0.8,1.9,1.9c0,1-0.7,1.8-1.9,1.8h-1.5v2.1H708.6z M711.9,53.3
			c0-0.5-0.4-0.8-0.9-0.8h-1.3v1.5h1.3C711.6,54.1,711.9,53.8,711.9,53.3z"/>
		<path fill="#588DA2" d="M713.7,54.4c0-1.7,1.3-3,3-3c1.7,0,3,1.2,3,3s-1.3,3-3,3C715,57.3,713.7,56.1,713.7,54.4z M718.4,54.4
			c0-1.1-0.7-1.9-1.7-1.9c-1.1,0-1.8,0.8-1.8,1.9c0,1.1,0.7,1.9,1.8,1.9C717.8,56.2,718.4,55.4,718.4,54.4z"/>
		<path fill="#588DA2" d="M723.8,57.2l-1.1-2h-0.9v2h-1.2v-5.8h2.7c1.2,0,1.9,0.8,1.9,1.9c0,1-0.6,1.6-1.3,1.7l1.3,2.2H723.8z
			 M723.9,53.3c0-0.5-0.4-0.8-0.9-0.8h-1.3v1.6h1.3C723.6,54.1,723.9,53.8,723.9,53.3z"/>
		<path fill="#588DA2" d="M727.4,57.2v-4.7h-1.7v-1.1h4.6v1.1h-1.7v4.7H727.4z"/>
		<path fill="#588DA2" d="M731.1,57.2v-5.8h1.2v5.8H731.1z"/>
		<path fill="#588DA2" d="M737.4,57.2l-2.7-3.8v3.8h-1.2v-5.8h1.3l2.7,3.6v-3.6h1.2v5.8H737.4z"/>
		<path fill="#588DA2" d="M739.4,54.4c0-1.8,1.4-3,3.1-3c1.2,0,1.9,0.6,2.4,1.3l-1,0.6c-0.3-0.4-0.8-0.8-1.4-0.8
			c-1.1,0-1.8,0.8-1.8,1.9c0,1.1,0.8,1.9,1.8,1.9c0.5,0,1-0.2,1.2-0.4v-0.7h-1.5V54h2.7v2.2c-0.6,0.7-1.4,1.1-2.4,1.1
			C740.8,57.3,739.4,56.2,739.4,54.4z"/>
		<path fill="#588DA2" d="M747.9,54.4c0-1.8,1.3-3,3.1-3c1.3,0,2,0.7,2.4,1.4l-1.1,0.5c-0.2-0.5-0.8-0.8-1.3-0.8
			c-1.1,0-1.8,0.8-1.8,1.9c0,1.1,0.8,1.9,1.8,1.9c0.6,0,1.1-0.4,1.3-0.8l1.1,0.5c-0.4,0.7-1.1,1.4-2.4,1.4
			C749.2,57.3,747.9,56.1,747.9,54.4z"/>
		<path fill="#588DA2" d="M753.7,56.4l0.7-1c0.4,0.4,1,0.8,1.8,0.8c0.7,0,1-0.3,1-0.6c0-1-3.3-0.3-3.3-2.5c0-1,0.8-1.8,2.2-1.8
			c0.9,0,1.7,0.3,2.2,0.8l-0.7,0.9c-0.5-0.4-1.1-0.6-1.7-0.6c-0.5,0-0.8,0.2-0.8,0.6c0,0.9,3.3,0.3,3.3,2.4c0,1.1-0.8,1.8-2.3,1.8
			C755,57.3,754.2,57,753.7,56.4z"/>
		<path fill="#588DA2" d="M760.9,57.2l-2.2-5.8h1.4l1.6,4.4l1.6-4.4h1.4l-2.2,5.8H760.9z"/>
	</g>
	<g>
		
			<rect x="718.1" y="26.8" transform="matrix(0.7433 0.669 -0.669 0.7433 220.3724 -468.2078)" fill="#FFFFFF" width="4.2" height="52.4"/>
	</g>
	<g>
		
			<rect x="694" y="50.9" transform="matrix(0.6689 0.7433 -0.7433 0.6689 277.8362 -517.7872)" fill="#FFFFFF" width="52.4" height="4.2"/>
	</g>
	<g>
		
			<rect x="719.1" y="26.8" transform="matrix(0.7433 0.669 -0.669 0.7433 220.3724 -468.2078)" fill="#E54C3C" width="2.1" height="52.4"/>
	</g>
	<g>
		
			<rect x="694" y="52" transform="matrix(0.6689 0.7433 -0.7433 0.6689 277.8362 -517.7872)" fill="#E54C3C" width="52.4" height="2.1"/>
	</g>
</g>
<g>
	<g>
		<path fill="#588DA2" d="M35.9,189.6v-6.2h2.5c2,0,3.3,1.2,3.3,3.1c0,1.9-1.4,3.1-3.3,3.1H35.9z M40.3,186.5c0-1.1-0.7-1.9-1.9-1.9
			h-1.1v3.9h1.1C39.5,188.5,40.3,187.6,40.3,186.5z"/>
		<path fill="#588DA2" d="M42.6,189.6v-6.2H47v1.2h-3.1v1.3h3v1.2h-3v1.4H47v1.2H42.6z"/>
		<path fill="#588DA2" d="M48,189.6v-6.2h2.9c1.4,0,2.1,0.9,2.1,2c0,1.1-0.7,2-2.1,2h-1.6v2.2H48z M51.6,185.4
			c0-0.5-0.4-0.8-0.9-0.8h-1.4v1.7h1.4C51.2,186.3,51.6,185.9,51.6,185.4z"/>
		<path fill="#588DA2" d="M55.3,189.6v-5.1h-1.8v-1.2h5v1.2h-1.8v5.1H55.3z"/>
		<path fill="#588DA2" d="M61.4,186.5c0-2,1.5-3.2,3.3-3.2c1.3,0,2.1,0.7,2.6,1.4l-1.1,0.6c-0.3-0.4-0.8-0.8-1.5-0.8
			c-1.1,0-2,0.9-2,2c0,1.2,0.8,2,2,2c0.5,0,1.1-0.2,1.3-0.5v-0.7h-1.6v-1.2h3v2.4c-0.6,0.7-1.5,1.2-2.6,1.2
			C62.8,189.8,61.4,188.5,61.4,186.5z"/>
		<path fill="#588DA2" d="M68.1,186.5c0-1.9,1.4-3.2,3.3-3.2c1.9,0,3.2,1.3,3.2,3.2c0,1.9-1.4,3.2-3.2,3.2
			C69.4,189.8,68.1,188.4,68.1,186.5z M73.2,186.5c0-1.2-0.7-2-1.9-2c-1.2,0-1.9,0.9-1.9,2c0,1.2,0.7,2,1.9,2
			C72.5,188.6,73.2,187.7,73.2,186.5z"/>
		<path fill="#588DA2" d="M79.5,189.6l-0.4-1.1h-2.7l-0.4,1.1h-1.5l2.4-6.2h1.7l2.4,6.2H79.5z M77.8,184.8l-1,2.7h1.9L77.8,184.8z"
			/>
		<path fill="#588DA2" d="M81.5,189.6v-6.2h1.3v5.1h2.6v1.2H81.5z"/>
		<path fill="#588DA2" d="M85.9,188.8l0.7-1c0.4,0.5,1.1,0.8,2,0.8c0.7,0,1.1-0.3,1.1-0.7c0-1.1-3.6-0.3-3.6-2.7
			c0-1,0.9-1.9,2.4-1.9c1,0,1.8,0.3,2.4,0.9l-0.7,1c-0.5-0.5-1.2-0.7-1.8-0.7c-0.6,0-0.9,0.2-0.9,0.6c0,1,3.6,0.3,3.6,2.6
			c0,1.1-0.8,2-2.5,2C87.4,189.8,86.5,189.4,85.9,188.8z"/>
	</g>
	<g>
		<g>
			<polygon fill="#4EB96F" points="37.1,167.8 36,166.5 49.1,155.4 63.1,159.8 75.7,153.4 90.7,150.4 91,152.1 76.2,155 63.2,161.7 
				49.5,157.3 			"/>
		</g>
		<g opacity="0.2">
			<line fill="#FFFFFF" x1="68.7" y1="149.6" x2="71.5" y2="152.4"/>
			
				<rect x="68.1" y="150.2" transform="matrix(0.7194 0.6946 -0.6946 0.7194 124.5706 -6.3201)" fill="#588DA2" width="4" height="1.7"/>
		</g>
		<g>
			<path fill="#588DA2" d="M36.5,172.5l0-1.7c0.3,0,35-0.7,52.8-24.3l1.4,1C72.3,171.8,36.8,172.5,36.5,172.5z"/>
		</g>
		<g>
			<circle fill="#FFFFFF" cx="74.2" cy="154.7" r="3.2"/>
			<path fill="#4EB96F" d="M74.2,158.8c-2.2,0-4.1-1.8-4.1-4.1c0-2.2,1.8-4.1,4.1-4.1c2.2,0,4.1,1.8,4.1,4.1
				C78.3,157,76.4,158.8,74.2,158.8z M74.2,152.4c-1.3,0-2.4,1.1-2.4,2.4c0,1.3,1.1,2.4,2.4,2.4s2.4-1.1,2.4-2.4
				C76.6,153.4,75.5,152.4,74.2,152.4z"/>
		</g>
		<g>
			<polygon fill="#588DA2" points="91.4,178.3 35.7,178.3 35.7,145.5 37.4,145.5 37.4,176.6 91.4,176.6 			"/>
		</g>
	</g>
	<g>
		<polygon fill="#4EB96F" points="58.5,146.5 54.8,142.5 56,141.4 58.5,144.1 67.3,136 68.4,137.3 		"/>
	</g>
	<g>
		<path fill="#4EB96F" d="M61,153c-6.5,0-11.9-5.3-11.9-11.9c0-6.5,5.3-11.9,11.9-11.9s11.9,5.3,11.9,11.9
			C72.9,147.7,67.6,153,61,153z M61,131c-5.6,0-10.2,4.6-10.2,10.2c0,5.6,4.6,10.2,10.2,10.2s10.2-4.6,10.2-10.2
			C71.2,135.5,66.7,131,61,131z"/>
	</g>
</g>
<g>
	<g>
		<path fill="#588DA2" d="M304.2,161.8L287.8,146c-1.2-1.1-3.1-1.2-4.4-0.1l-16.7,15.1l-1-1.1l16.7-15.1c1.8-1.6,4.6-1.6,6.4,0.1
			l16.4,15.8L304.2,161.8z"/>
	</g>
	<g>
		<polygon fill="#FFFFFF" points="301.1,178.3 269.7,178.3 268.2,140.2 294.1,140.2 302.3,147.5 		"/>
		<path fill="#588DA2" d="M301.8,179.1H269l-1.5-39.6h26.9l8.6,7.6L301.8,179.1z M270.4,177.6h30l1.2-29.8l-7.7-6.8H269L270.4,177.6
			z"/>
	</g>
	<g>
		<polyline fill="#FFFFFF" points="291.2,171.2 304.7,162 304.7,181.6 266.2,181.6 266.2,161.3 279.1,170.8 		"/>
		<polygon fill="#588DA2" points="305.5,182.4 265.5,182.4 265.5,159.8 279.5,170.2 278.6,171.4 267,162.7 267,180.9 304,180.9 
			304,163.4 291.6,171.8 290.8,170.6 305.5,160.6 		"/>
	</g>
	<g>
		<g>
			<path fill="#FFFFFF" d="M266.2,180.9l16.6-13c1.6-1.2,4.2-1.2,5.8,0l16.2,12.9"/>
		</g>
		<g>
			<path fill="#588DA2" d="M266.7,181.5l-0.9-1.2l16.6-13c1.8-1.4,4.8-1.4,6.7,0l16.2,12.9l-0.9,1.1l-16.2-12.9
				c-1.3-1-3.5-1.1-4.8,0L266.7,181.5z"/>
		</g>
	</g>
	<g>
		<line fill="#FFFFFF" x1="273.6" y1="146.2" x2="297.8" y2="146.2"/>
		<rect x="273.6" y="145.5" fill="#588DA2" width="24.2" height="1.5"/>
	</g>
	<g>
		<line fill="#FFFFFF" x1="273.6" y1="149.5" x2="281.4" y2="149.5"/>
		<rect x="273.6" y="148.7" fill="#588DA2" width="7.8" height="1.5"/>
	</g>
	<g>
		<polyline fill="#FFFFFF" points="274.7,153.4 275,164.4 297,164.4 		"/>
		<polygon fill="#588DA2" points="297,165 274.5,165 274.1,153.5 275.2,153.4 275.5,163.9 297,163.9 		"/>
	</g>
	<g>
		<polygon fill="#E54C3C" points="275.4,160.9 274.7,159.9 280.4,155.7 287.1,157.6 291.8,155.4 295.7,156.1 295.4,157.3 292,156.7 
			287.2,158.9 280.7,157 		"/>
	</g>
	<g>
		<polygon fill="#4EB96F" points="275.2,163.6 274.9,162.4 280.9,161 287.4,152.9 293.3,158.4 296.2,159.5 295.7,160.6 292.7,159.5 
			287.6,154.7 281.6,162.1 		"/>
	</g>
	<g>
		<polyline fill="#FFFFFF" points="293.7,140.9 294.9,148.3 301.5,148.3 		"/>
		<polygon fill="#588DA2" points="301.5,149 294.3,149 293,141 294.4,140.8 295.6,147.5 301.5,147.5 		"/>
	</g>
	<g>
		<line fill="#FFFFFF" x1="243.7" y1="165.9" x2="265" y2="165.9"/>
		<rect x="243.7" y="165.3" fill="#588DA2" width="21.3" height="1.2"/>
	</g>
	<g>
		<line fill="#FFFFFF" x1="251.9" y1="170" x2="265" y2="170"/>
		<rect x="251.9" y="169.4" fill="#588DA2" width="13.1" height="1.2"/>
	</g>
	<g>
		<line fill="#FFFFFF" x1="260.1" y1="174.9" x2="265" y2="174.9"/>
		<rect x="260.1" y="174.3" fill="#588DA2" width="4.9" height="1.2"/>
	</g>
</g>
<g>
	<g>
		<g>
			<path fill="#588DA2" d="M497.2,169.2c-4.6,0-8.3-3.7-8.3-8.3c0-4.6,3.7-8.3,8.3-8.3c4.6,0,8.3,3.7,8.3,8.3
				C505.6,165.5,501.8,169.2,497.2,169.2z M497.2,154.3c-3.7,0-6.6,3-6.6,6.6c0,3.7,3,6.6,6.6,6.6s6.6-3,6.6-6.6
				C503.9,157.3,500.9,154.3,497.2,154.3z"/>
		</g>
		<g>
			<path fill="#588DA2" d="M503.9,187.2c-2.9,0-5.3-2.4-5.3-5.3s2.4-5.3,5.3-5.3c2.9,0,5.3,2.4,5.3,5.3S506.8,187.2,503.9,187.2z
				 M503.9,178.3c-2,0-3.6,1.6-3.6,3.6s1.6,3.6,3.6,3.6s3.6-1.6,3.6-3.6S505.8,178.3,503.9,178.3z"/>
		</g>
		<g>
			
				<rect x="495.6" y="172.1" transform="matrix(0.3315 0.9434 -0.9434 0.3315 498.0418 -357.0415)" fill="#588DA2" width="10.8" height="1.7"/>
		</g>
		<g>
			<path fill="#588DA2" d="M519.6,144.6c-2.9,0-5.3-2.4-5.3-5.3s2.4-5.3,5.3-5.3c2.9,0,5.3,2.4,5.3,5.3S522.6,144.6,519.6,144.6z
				 M519.6,135.8c-2,0-3.6,1.6-3.6,3.6s1.6,3.6,3.6,3.6s3.6-1.6,3.6-3.6S521.6,135.8,519.6,135.8z"/>
		</g>
		<g>
			<path fill="#588DA2" d="M525,168.3c-2.1,0-3.8-1.7-3.8-3.8s1.7-3.8,3.8-3.8s3.8,1.7,3.8,3.8S527.1,168.3,525,168.3z M525,162.4
				c-1.1,0-2.1,0.9-2.1,2.1c0,1.1,0.9,2.1,2.1,2.1c1.1,0,2.1-0.9,2.1-2.1C527.1,163.4,526.1,162.4,525,162.4z"/>
		</g>
		<g>
			<path fill="#588DA2" d="M487.1,149.6c-2.1,0-3.8-1.7-3.8-3.8s1.7-3.8,3.8-3.8s3.8,1.7,3.8,3.8S489.2,149.6,487.1,149.6z
				 M487.1,143.7c-1.1,0-2.1,0.9-2.1,2.1s0.9,2.1,2.1,2.1c1.1,0,2.1-0.9,2.1-2.1S488.3,143.7,487.1,143.7z"/>
		</g>
		<g>
			<path fill="#588DA2" d="M474.5,174.8c-2.1,0-3.8-1.7-3.8-3.8s1.7-3.8,3.8-3.8s3.8,1.7,3.8,3.8S476.6,174.8,474.5,174.8z
				 M474.5,169c-1.1,0-2.1,0.9-2.1,2.1c0,1.1,0.9,2.1,2.1,2.1c1.1,0,2.1-0.9,2.1-2.1C476.6,169.9,475.6,169,474.5,169z"/>
		</g>
		<g>
			
				<rect x="508.8" y="140" transform="matrix(0.6953 0.7187 -0.7187 0.6953 263.0014 -320.6048)" fill="#588DA2" width="1.7" height="19.8"/>
		</g>
		<g>
			
				<rect x="505.2" y="162" transform="matrix(0.9952 9.747706e-02 -9.747706e-02 0.9952 18.3191 -49.2955)" fill="#588DA2" width="16.9" height="1.7"/>
		</g>
		<g>
			
				<rect x="486.9" y="151.4" transform="matrix(0.5329 0.8462 -0.8462 0.5329 358.1492 -344.3141)" fill="#588DA2" width="8" height="1.7"/>
		</g>
		<g>
			
				<rect x="483" y="159.6" transform="matrix(0.4364 0.8997 -0.8997 0.4364 422.7527 -341.3481)" fill="#588DA2" width="1.7" height="14.4"/>
		</g>
	</g>
	<g>
		<path fill="#4EB96F" d="M496.9,164.6c-1-0.1-1.7-0.5-2.2-1l0.7-1c0.3,0.4,0.9,0.7,1.5,0.8v-1.4c-1-0.2-2-0.6-2-1.9
			c0-0.9,0.7-1.7,2-1.9v-0.9h0.9v0.9c0.8,0.1,1.4,0.4,1.9,0.8l-0.7,1c-0.3-0.3-0.7-0.5-1.2-0.6v1.3c1,0.2,2.1,0.6,2.1,1.9
			c0,1-0.7,1.8-2.1,2v0.8h-0.9V164.6z M496.9,160.5v-1.1c-0.4,0.1-0.6,0.3-0.6,0.6C496.3,160.2,496.5,160.4,496.9,160.5z
			 M497.8,162.1v1.2c0.5-0.1,0.7-0.4,0.7-0.7C498.5,162.4,498.2,162.3,497.8,162.1z"/>
	</g>
</g>
<g>
	<g>
		<path fill="#4EB96F" d="M738.6,186.7h-40.2l9.8-34.9h20.7L738.6,186.7z M700.5,185.2h36.1l-8.9-31.8h-18.3L700.5,185.2z"/>
	</g>
	<g>
		<polygon fill="#4EB96F" points="727,182.6 710,182.6 711.9,169.4 713.5,169.6 711.8,181.1 725.3,181.1 723.6,169.7 725.1,169.4 		
			"/>
	</g>
	<g>
		<polygon fill="#4EB96F" points="714.4,162.9 712.9,162.7 713.9,155.9 723.2,155.9 724.1,162.6 722.6,162.8 721.8,157.4 
			715.2,157.4 		"/>
	</g>
	<g>
		<polygon fill="#4EB96F" points="736.5,189.8 700.6,189.8 701.3,187.2 702.8,187.6 702.6,188.3 734.5,188.3 734.3,187.7 
			735.8,187.3 		"/>
	</g>
	<g>
		<polygon fill="#4EB96F" points="734.7,192.4 702.4,192.4 703.1,189.9 704.6,190.4 704.4,190.9 732.7,190.9 732.5,190.4 734,190 		
			"/>
	</g>
	<g>
		<polygon fill="#588DA2" points="724,151.8 722.4,151.8 722.4,143.5 713.4,143.5 713.4,151.8 711.8,151.8 711.8,142 724,142 		"/>
	</g>
	<g>
		<polygon fill="#588DA2" points="704,166.7 696.4,166.7 696.4,154.1 702.2,145.6 702.2,158.3 705.7,158.3 705.7,159.9 700.7,159.9 
			700.7,150.6 698,154.5 698,165.1 704,165.1 		"/>
	</g>
	<g>
		
			<rect x="698.5" y="158.5" transform="matrix(0.8481 0.5298 -0.5298 0.8481 192.3028 -345.8179)" fill="#588DA2" width="1.5" height="8"/>
	</g>
	<g>
		<polygon fill="#588DA2" points="700.3,179.4 689,179.4 689,164.8 695.5,155.2 695.5,169.9 702.3,169.9 702.3,171.4 694,171.4 
			694,160.2 690.5,165.2 690.5,177.8 700.3,177.8 		"/>
	</g>
	<g>
		
			<rect x="691.5" y="169.9" transform="matrix(0.8481 0.5298 -0.5298 0.8481 197.6576 -340.243)" fill="#588DA2" width="1.5" height="9.4"/>
	</g>
	<g>
		<polygon fill="#588DA2" points="740.6,165 733,165 733,163.4 739,163.4 739,152.8 736.3,148.9 736.3,158.2 731.3,158.2 
			731.3,156.6 734.8,156.6 734.8,143.9 740.6,152.4 		"/>
	</g>
	<g>
		<rect x="733.7" y="160" transform="matrix(0.53 0.848 -0.848 0.53 483.0713 -549.9781)" fill="#588DA2" width="8" height="1.5"/>
	</g>
	<g>
		<polygon fill="#588DA2" points="748.8,181.1 737.6,181.1 737.6,179.5 747.3,179.5 747.3,166.9 743.9,161.9 743.9,173.1 
			735.6,173.1 735.6,171.6 742.3,171.6 742.3,156.9 748.8,166.5 		"/>
	</g>
	<g>
		
			<rect x="740.9" y="175.6" transform="matrix(0.53 0.848 -0.848 0.53 499.9278 -549.3737)" fill="#588DA2" width="9.4" height="1.5"/>
	</g>
	<g>
		<rect x="693.6" y="178.9" fill="#588DA2" width="1.5" height="5.1"/>
	</g>
	<g>
		<polygon fill="#588DA2" points="689.7,186.4 689.1,185 694.2,182.8 698.9,183.9 698.5,185.4 694.3,184.4 		"/>
	</g>
	<g>
		
			<rect x="692.8" y="184.4" transform="matrix(6.651906e-02 0.9978 -0.9978 6.651906e-02 832.9101 -519.998)" fill="#588DA2" width="3.2" height="1.5"/>
	</g>
	<g>
		<rect x="743" y="180.6" fill="#588DA2" width="1.5" height="5.1"/>
	</g>
	<g>
		<polygon fill="#588DA2" points="748.4,188.1 743.8,186.1 739.6,187.1 739.2,185.6 743.9,184.4 749,186.7 		"/>
	</g>
	<g>
		
			<rect x="743" y="185.2" transform="matrix(0.9978 6.669897e-02 -6.669897e-02 0.9978 14.1183 -49.1918)" fill="#588DA2" width="1.5" height="3.2"/>
	</g>
	<g>
		<path fill="#4EB96F" d="M718.6,171.3c-5.2,0-9.2-2.2-9.2-5c0-2.8,4.1-5,9.2-5c5.2,0,9.2,2.2,9.2,5
			C727.9,169.1,723.8,171.3,718.6,171.3z M718.6,162.8c-4.5,0-7.7,1.8-7.7,3.5c0,1.6,3.2,3.5,7.7,3.5c4.5,0,7.7-1.8,7.7-3.5
			C726.4,164.6,723.2,162.8,718.6,162.8z"/>
	</g>
</g>
<g>
	<g>
		<path fill="#588DA2" d="M304.2,383.4l-16.4-15.8c-1.2-1.1-3.1-1.2-4.4-0.1l-16.7,15.1l-1-1.1l16.7-15.1c1.8-1.6,4.6-1.6,6.4,0.1
			l16.4,15.8L304.2,383.4z"/>
	</g>
	<g>
		<polygon fill="#FFFFFF" points="301.1,400 269.7,400 268.2,361 302.3,361 		"/>
		<path fill="#588DA2" d="M301.8,400.7H269l-1.5-40.4H303L301.8,400.7z M270.4,399.2h30l1.2-37.4H269L270.4,399.2z"/>
	</g>
	<g>
		<g>
			<g>
				<line fill="#FFFFFF" x1="278" y1="369.3" x2="292.1" y2="369.3"/>
				<rect x="278" y="368.5" fill="#4EB96E" width="14.1" height="1.5"/>
			</g>
			<g>
				<line fill="#FFFFFF" x1="278" y1="373.1" x2="290.2" y2="373.1"/>
				<rect x="278" y="372.3" fill="#4EB96E" width="12.2" height="1.5"/>
			</g>
			<g>
				<line fill="#FFFFFF" x1="278" y1="376.9" x2="291.2" y2="376.9"/>
				<rect x="278" y="376.1" fill="#4EB96E" width="13.2" height="1.5"/>
			</g>
			<g>
				<line fill="#FFFFFF" x1="278" y1="380.7" x2="286.5" y2="380.7"/>
				<rect x="278" y="379.9" fill="#4EB96E" width="8.5" height="1.5"/>
			</g>
		</g>
		<g>
			<path fill="#4EB96E" d="M294.1,364.9l-2.3-0.1l0,0.9l2.3,0.1c1.6,0.1,2.8,1.6,2.7,3.5l-0.4,9.1c-0.1,1.7,0.4,2.8,1.5,3.3l0.3,0.1
				l-0.3,0.1c-1.2,0.4-1.7,1.4-1.8,3.2l-0.4,9.1c-0.1,1.9-1.4,3.3-3,3.3l-2.3-0.1l0,0.9l2.3,0.1c1.8,0.1,3.8-1.5,3.9-4.1l0.4-9.1
				c0.1-1.4,0.7-2.8,2.1-2.9l0-0.9c-1.4-0.1-2-1.6-1.9-3l0.4-9.1C297.7,366.7,295.8,365,294.1,364.9z"/>
			<path fill="#4EB96E" d="M292.8,398.8L292.8,398.8l-0.1,0l-2.6-0.1l0.1-1.6l2.7,0.1c1.4,0,2.5-1.3,2.5-2.9l0.4-9.1
				c0.1-1.7,0.6-2.8,1.7-3.3c-1-0.6-1.4-1.8-1.4-3.5l0.4-9.1c0.1-1.7-1-3.1-2.4-3.1l-2.6-0.1l0.1-1.6l2.6,0.1c1,0,2,0.5,2.7,1.4
				c0.8,0.9,1.2,2.1,1.1,3.4l-0.4,9.1c-0.1,1.2,0.4,2.6,1.6,2.7l0.3,0l-0.1,1.5l-0.3,0c-1.2,0-1.8,1.3-1.8,2.5l-0.4,9.1
				C296.8,397.1,294.7,398.8,292.8,398.8z M290.8,398l2,0.1c1.6,0,3.3-1.4,3.4-3.8l0.4-9.1c0-1.2,0.5-2.4,1.5-2.9l-0.1,0.1
				c-1,0.4-1.5,1.3-1.6,2.9l-0.4,9.1c-0.1,2-1.5,3.6-3.2,3.6l-0.1,0l-1.9-0.1L290.8,398z M292.1,365.4l1.9,0.1
				c1.7,0.1,3.1,1.8,3,3.8l-0.4,9.1c-0.1,1.6,0.3,2.5,1.3,3l0.1,0.1c-0.9-0.6-1.3-1.9-1.3-3.1l0.4-9.1c0-1.1-0.3-2.2-1-2.9
				c-0.6-0.7-1.4-1.1-2.2-1.1l-1.9-0.1L292.1,365.4z"/>
		</g>
		<g>
			<path fill="#4EB96E" d="M276.8,364.9l2.3-0.1l0,0.9l-2.3,0.1c-1.6,0.1-2.8,1.6-2.7,3.5l0.4,9.1c0.1,1.7-0.4,2.8-1.5,3.3l-0.3,0.1
				l0.3,0.1c1.2,0.4,1.7,1.4,1.8,3.2l0.4,9.1c0.1,1.9,1.4,3.3,3,3.3l2.3-0.1l0,0.9l-2.3,0.1c-1.8,0.1-3.8-1.5-3.9-4.1l-0.4-9.1
				c-0.1-1.4-0.7-2.8-2.1-2.9l0-0.9c1.4-0.1,2-1.6,1.9-3l-0.4-9.1C273.2,366.7,275,365,276.8,364.9z"/>
			<path fill="#4EB96E" d="M278.1,398.8c-1.9,0-4-1.7-4.1-4.4l-0.4-9.1c-0.1-1.2-0.6-2.5-1.8-2.5l-0.3,0l-0.1-1.5l0.3,0
				c1.2-0.1,1.7-1.4,1.6-2.7l-0.4-9.1c-0.1-1.3,0.4-2.5,1.1-3.4c0.7-0.8,1.7-1.3,2.7-1.4l2.6-0.1l0.1,1.6l-2.6,0.1
				c-1.4,0.1-2.4,1.5-2.4,3.1l0.4,9.1c0.1,1.7-0.4,2.8-1.4,3.5c1,0.6,1.6,1.6,1.7,3.3l0.4,9.1c0.1,1.7,1.2,2.9,2.5,2.9l2.7-0.1
				l0.1,1.6L278.1,398.8z M272.8,382.3c1,0.5,1.5,1.7,1.5,2.9l0.4,9.1c0.1,2.4,1.8,3.8,3.4,3.8l2-0.1l0-0.2l-2.1,0.1
				c-1.7,0-3.1-1.5-3.2-3.6l-0.4-9.1c-0.1-1.6-0.6-2.5-1.6-2.9L272.8,382.3z M278.8,365.2l-1.9,0.1c-0.8,0-1.6,0.4-2.2,1.1
				c-0.7,0.8-1,1.8-1,2.9l0.4,9.1c0,1.2-0.3,2.5-1.3,3.1l0.1-0.1c1-0.5,1.4-1.4,1.3-3l-0.4-9.1c-0.1-2.1,1.3-3.8,3-3.9l1.9-0.1
				L278.8,365.2z"/>
		</g>
	</g>
	<g>
		<polyline fill="#FFFFFF" points="291.2,392.8 304.7,383.6 304.7,403.3 266.2,403.3 266.2,382.9 279.1,392.4 		"/>
		<polygon fill="#588DA2" points="305.5,404 265.5,404 265.5,381.4 279.5,391.8 278.6,393 267,384.4 267,402.5 304,402.5 304,385 
			291.6,393.4 290.8,392.2 305.5,382.2 		"/>
	</g>
	<g>
		<g>
			<path fill="#FFFFFF" d="M266.2,402.5l16.6-13c1.6-1.2,4.2-1.2,5.8,0l16.2,12.9"/>
		</g>
		<g>
			<path fill="#588DA2" d="M266.7,403.1l-0.9-1.2l16.6-13c1.8-1.4,4.8-1.4,6.7,0l16.2,12.9l-0.9,1.1l-16.2-12.9
				c-1.3-1-3.5-1.1-4.8,0L266.7,403.1z"/>
		</g>
	</g>
	<g>
		<line fill="#FFFFFF" x1="243.7" y1="387.5" x2="265" y2="387.5"/>
		<rect x="243.7" y="386.9" fill="#588DA2" width="21.3" height="1.2"/>
	</g>
	<g>
		<line fill="#FFFFFF" x1="251.9" y1="391.6" x2="265" y2="391.6"/>
		<rect x="251.9" y="391" fill="#588DA2" width="13.1" height="1.2"/>
	</g>
	<g>
		<line fill="#FFFFFF" x1="260.1" y1="396.5" x2="265" y2="396.5"/>
		<rect x="260.1" y="395.9" fill="#588DA2" width="4.9" height="1.2"/>
	</g>
</g>
<g>
	<g>
		<g>
			<polygon fill="#588DA2" points="94.7,294.5 39,294.5 39,261.7 40.7,261.7 40.7,292.8 94.7,292.8 			"/>
		</g>
		<g>
			<polygon fill="#588DA2" points="40.3,279 39.4,277.7 52.5,268.2 66.3,274.3 78.9,264.5 92.6,266.7 92.3,268.3 79.4,266.3 
				66.5,276.3 52.7,270.2 			"/>
		</g>
		<g>
			<polygon fill="#588DA2" points="66.4,290.4 52.6,279.6 40.4,290 39.3,288.7 52.5,277.4 66.5,288.3 78.9,280.6 92.3,279.4 
				92.5,281.1 79.4,282.3 			"/>
		</g>
		<g>
			<polygon fill="#588DA2" points="40.3,293.5 39.4,292 52.3,284.5 66.1,282.1 80.7,274 93,285.6 91.8,286.9 80.4,276.1 66.7,283.7 
				52.9,286.1 			"/>
		</g>
		<g>
			<circle fill="#FFFFFF" cx="66.8" cy="273.9" r="3.2"/>
			<path fill="#E64E3C" d="M66.8,278c-2.2,0-4.1-1.8-4.1-4.1s1.8-4.1,4.1-4.1s4.1,1.8,4.1,4.1S69,278,66.8,278z M66.8,271.5
				c-1.3,0-2.4,1.1-2.4,2.4s1.1,2.4,2.4,2.4s2.4-1.1,2.4-2.4S68.1,271.5,66.8,271.5z"/>
		</g>
		<g opacity="0.2">
			<line fill="#FFFFFF" x1="62.4" y1="264.5" x2="65.4" y2="270.7"/>
			
				<rect x="60.4" y="266.8" transform="matrix(0.4392 0.8984 -0.8984 0.4392 276.2365 92.6579)" fill="#588DA2" width="6.9" height="1.7"/>
		</g>
	</g>
	<g>
		<path fill="#E64E3C" d="M57.7,244.9l-11.7,20.4h23.5L57.7,244.9z M57.7,248.2l8.9,15.4H48.8L57.7,248.2z"/>
		<polygon fill="#E64E3C" points="58.7,252.9 56.6,252.9 57.2,259.3 58.1,259.3 		"/>
		<circle fill="#E64E3C" cx="57.7" cy="261.1" r="0.8"/>
	</g>
</g>
<g>
	<path fill="#588EA3" d="M295.8,283.9l-10.5,0l-0.8-3.4l-3.1,0l0,1.3l2,0l2.2,9.1c-0.5,0.3-0.8,0.8-0.8,1.4c0,0.4,0.2,0.9,0.5,1.2
		c0.3,0.3,0.7,0.5,1.2,0.5c0.9,0,1.6-0.7,1.6-1.6c0-0.1,0-0.2,0-0.3l2.1,0c0,0.1,0,0.2,0,0.3c0,0.4,0.2,0.9,0.5,1.2
		c0.3,0.3,0.7,0.5,1.2,0.5h0c0.9,0,1.6-0.7,1.6-1.6c0-0.9-0.7-1.6-1.6-1.6l-4.9,0l0-0.1l6.6,0L295.8,283.9z M291.6,292.6
		c-0.1-0.1-0.1-0.1-0.1-0.2c0-0.2,0.1-0.3,0.3-0.3c0.2,0,0.3,0.1,0.3,0.3C292.1,292.6,291.8,292.8,291.6,292.6z M286.7,292.1
		c0.1,0.1,0.1,0.1,0.1,0.2c0,0.2-0.1,0.3-0.3,0.3c-0.2,0-0.3-0.1-0.3-0.3c0-0.2,0.1-0.3,0.3-0.3l0-0.4l0,0.4
		C286.5,292.1,286.6,292.1,286.7,292.1z M286.6,289.3l-1-4l8.3,0l-1.4,4L286.6,289.3z"/>
	<path fill="#4EB96F" d="M308.5,252.3l-3.9-0.6c0-0.1,0-0.1,0-0.2l0.5-3.7c0.1-0.7-0.1-1.2-0.4-1.5c-0.3-0.4-0.7-0.6-1.2-0.7
		c-0.9-0.1-1.9,0.4-2.1,1.6l-0.2,1.6c-0.1,0.4-0.3,0.6-0.3,0.7c-0.5,0.5-1.7,1.6-2.7,2.4l-4.8-0.7l-1.3,9.1l5,0.7l0-0.3
		c0.4,0.3,0.7,0.4,1.1,0.5l7.6,1.1c0.1,0,0.3,0,0.4,0c1,0,1.7-0.6,1.9-1.6c0-0.2,0-0.4,0-0.5c0.5-0.2,0.8-0.7,0.9-1.3
		c0-0.2,0-0.5,0-0.7c0.5-0.3,0.9-0.8,1-1.5c0.1-0.4,0-0.8-0.2-1.1c0.2-0.2,0.4-0.6,0.5-1.1C310.5,253.6,309.7,252.5,308.5,252.3z
		 M308.5,254.9C308.5,254.9,308.5,254.9,308.5,254.9l-1.8-0.3l-0.2,1.5l1.9,0.3c0.1,0,0.2,0,0.2,0.3c0,0.3-0.2,0.4-0.3,0.4l-1.9-0.3
		l-0.2,1.5l1.3,0.2c0,0,0.1,0.2,0.1,0.4c0,0.1-0.1,0.2-0.1,0.2l-2-0.3l-0.2,1.5l1.3,0.2c0.1,0,0.1,0.3,0.1,0.3
		c0,0.2-0.1,0.3-0.4,0.3c-0.1,0-0.1,0-0.2,0l-7.6-1.1c-0.4-0.1-0.8-0.5-1.1-1l0.7-4.8c1.3-1,3.8-3.4,3.8-3.4
		c0.1-0.1,0.6-0.6,0.8-1.5l0.2-1.6c0-0.3,0.2-0.4,0.4-0.4l0.1,0c0.1,0,0.2,0.1,0.2,0.1c0.1,0.1,0.1,0.2,0.1,0.4l-0.5,3.6
		c0,0.1-0.2,0.3-0.3,0.5l-0.8,1l6.2,0.9c0.2,0,0.4,0.1,0.5,0.2c0.1,0.1,0.1,0.3,0.1,0.5C308.8,254.7,308.7,254.9,308.5,254.9z
		 M295.9,258.9l-0.1,0.3l0,0.1l-0.1,0.4l-2-0.3l0.9-6.2l2,0.3L295.9,258.9z"/>
	<g>
		<g>
			<path fill="#588EA3" d="M264.8,268.8l-1.7-15.9l-5.5,5.7l-9,1l0.7,6.1l2.2-0.2l0.5,4.5l1.6-0.2l-0.5-4.5l5.2-0.6L264.8,268.8z
				 M258.3,260l3.5-3.6l1,9.2l-4.2-2.7l-4.2,0.5l-0.3-2.9L258.3,260z M252.9,263.6l-2.1,0.2l-0.3-2.9l2.1-0.2L252.9,263.6z"/>
			<g>
				<path fill="#588EA3" d="M272.2,259.9c-0.3-2.6-1.7-5-4-6.4l-0.3-0.2l-1,1.3l0.4,0.3c1.9,1.2,3.1,3.1,3.3,5.2
					c0.2,2.2-0.6,4.4-2.2,5.9l-0.4,0.3l1.3,1l0.3-0.3C271.6,265.3,272.5,262.6,272.2,259.9z"/>
				<path fill="#588EA3" d="M268.9,260.3c-0.2-1.7-1.2-3.3-2.8-4.1l-0.3-0.2l-1,1.3l0.5,0.2c1.2,0.6,1.9,1.7,2.1,2.9
					c0.1,1.3-0.4,2.6-1.5,3.4l-0.4,0.3l1.3,1l0.3-0.2C268.3,263.9,269.1,262.1,268.9,260.3z"/>
			</g>
		</g>
	</g>
	<path fill="#588DA2" d="M301,270c8.4,0,15.2-6.8,15.2-15.2c0-8.4-6.8-15.2-15.2-15.2c-8.4,0-15.2,6.8-15.2,15.2
		c0,0.7,0.1,1.4,0.2,2.1l-7.5,1.1c-1.7-7.9-8.7-13.8-17-13.8c-9.6,0-17.4,7.8-17.4,17.4c0,9.6,7.8,17.4,17.4,17.4
		c4.6,0,8.7-1.8,11.8-4.6l5.4,5.5c-1.3,2-2.1,4.4-2.1,6.9c0,7,5.7,12.6,12.6,12.6c7,0,12.6-5.7,12.6-12.6c0-5.4-3.4-9.9-8.1-11.8
		l2.5-5.7C297.7,269.7,299.3,270,301,270z M301,241.2c7.5,0,13.5,6.1,13.5,13.5s-6.1,13.5-13.5,13.5c-7.5,0-13.5-6.1-13.5-13.5
		S293.5,241.2,301,241.2z M261.3,277.3c-8.7,0-15.7-7.1-15.7-15.7s7.1-15.7,15.7-15.7c8.7,0,15.7,7.1,15.7,15.7
		S270,277.3,261.3,277.3z M300.1,286.7c0,6-4.9,10.9-10.9,10.9c-6,0-10.9-4.9-10.9-10.9c0-6,4.9-10.9,10.9-10.9
		C295.2,275.8,300.1,280.7,300.1,286.7z M292.1,274.4c-0.9-0.2-1.9-0.4-2.9-0.4c-3.8,0-7.2,1.7-9.5,4.4l-5.2-5.3
		c2.8-3.1,4.4-7.1,4.4-11.6c0-0.7,0-1.3-0.1-1.9l7.6-1.1c1.1,4.5,4.3,8.2,8.4,10.1L292.1,274.4z"/>
</g>
<g>
	<ellipse fill="#4EB96F" cx="481.7" cy="269.1" rx="0.9" ry="0.7"/>
	<ellipse fill="#4EB96F" cx="485.1" cy="270" rx="0.9" ry="0.7"/>
	<ellipse fill="#4EB96F" cx="488.9" cy="270.5" rx="0.9" ry="0.7"/>
	<ellipse fill="#4EB96F" cx="481.7" cy="278.6" rx="0.9" ry="0.7"/>
	<ellipse fill="#4EB96F" cx="485.1" cy="279.6" rx="0.9" ry="0.7"/>
	<ellipse fill="#4EB96F" cx="488.9" cy="280.1" rx="0.9" ry="0.7"/>
	<ellipse fill="#4EB96F" cx="481.7" cy="288.2" rx="0.9" ry="0.7"/>
	<ellipse fill="#4EB96F" cx="485.1" cy="289.2" rx="0.9" ry="0.7"/>
	<ellipse fill="#4EB96F" cx="488.9" cy="289.6" rx="0.9" ry="0.7"/>
	<path fill="#588EA3" d="M517.2,248.7l-0.9,1.3l1.8,1.2h-15v-3.7h6.5l-2,1.3l0.8,1.3l4.9-3.1l-4.9-3.4l-0.9,1.3l1.7,1.2h-6.1v-5.2
		H515l-1.7,1.1l0.8,1.3l4.9-3.1l-4.9-3.4l-0.9,1.3l2,1.4h-13.6v6.7h-5.8v5.2h-6v3.2c-1.1,0.1-2.2,0.2-3.1,0.4v-11.4h4.3l-1.9,1.2
		l0.8,1.3l4.9-3.1l-4.9-3.4l-0.9,1.3l1.8,1.2H485v13.2c-4.9,1.1-7.9,3-7.9,5.4v28.7c0,3.9,8,7.3,17.6,7.3c9.5,0,17.6-3.3,17.6-7.3
		v-28.7c0-2.6-3.5-4.7-9.2-5.7v-2.1h15.2l-1.9,1.2l0.8,1.3l4.9-3.1L517.2,248.7z M497.2,247.5h4.3v3.7h-4.3V247.5z M491.2,252.8h4.5
		v1.5c-0.3,0-0.7,0-1,0c-1.2,0-2.4,0-3.5,0.1V252.8z M494.7,295c-9.8,0-16-3.4-16-5.8v-6.8c2.6,2.2,8.5,3.6,16,3.6
		c7.5,0,13.4-1.4,16-3.6v6.8C510.7,291.5,504.5,295,494.7,295z M494.7,284.4c-9.6,0-16-2.5-16-4.8v-6.8c2.6,2.2,8.5,3.6,16,3.6
		c7.5,0,13.4-1.4,16-3.6v6.8C510.7,282,504.3,284.4,494.7,284.4z M494.7,274.9c-9.6,0-16-2.5-16-4.8v-6.8c2.6,2.2,8.5,3.6,16,3.6
		c7.5,0,13.4-1.4,16-3.6v6.8C510.7,272.4,504.3,274.9,494.7,274.9z M510.7,260.5c0,2.3-6.4,4.8-16,4.8c-9.6,0-16-2.5-16-4.8
		c0-1.4,2.4-2.9,6.3-3.8v2h1.5v-2.3c1-0.2,2-0.3,3.1-0.4v7h1.5v-7.1c1.1-0.1,2.3-0.1,3.5-0.1c0.3,0,0.7,0,1,0v6.1h1.5v-6
		c1.5,0.1,3,0.2,4.3,0.4v3.4h1.5v-3.1C507.9,257.4,510.7,259,510.7,260.5z M501.5,254.6c-1.3-0.2-2.8-0.3-4.3-0.4v-1.5h4.3V254.6z"
		/>
</g>
<g>
	<g>
		<rect x="687.3" y="264.1" fill="#588EA3" width="72.2" height="1.5"/>
	</g>
	<g>
		<rect x="687.3" y="280.5" fill="#588EA3" width="72.2" height="1.5"/>
	</g>
	<g>
		<g>
			<path fill="#588DA2" d="M693,276.3v-5.8h1.2v5.8H693z"/>
		</g>
		<g>
			<path fill="#588DA2" d="M698.1,276.3v-2.5c0-0.6-0.3-0.8-0.8-0.8c-0.4,0-0.8,0.2-0.9,0.5v2.8h-1.1v-4.2h1.1v0.5
				c0.3-0.3,0.8-0.6,1.5-0.6c0.9,0,1.4,0.5,1.4,1.3v2.9H698.1z"/>
		</g>
		<g>
			<path fill="#588DA2" d="M701.7,276.3l-1.7-4.2h1.2l1.1,2.9l1.1-2.9h1.2l-1.7,4.2H701.7z"/>
		</g>
		<g>
			<path fill="#588DA2" d="M704.8,274.2c0-1.2,0.9-2.2,2.2-2.2c1.3,0,2.1,0.9,2.1,2.3v0.3h-3.1c0.1,0.5,0.5,0.9,1.2,0.9
				c0.4,0,0.8-0.1,1.1-0.4l0.5,0.7c-0.4,0.4-1.1,0.6-1.7,0.6C705.8,276.4,704.8,275.6,704.8,274.2z M707,272.9c-0.7,0-1,0.5-1,0.9
				h2.1C708,273.4,707.7,272.9,707,272.9z"/>
		</g>
		<g>
			<path fill="#588DA2" d="M709.5,275.8l0.5-0.8c0.3,0.3,0.9,0.6,1.4,0.6c0.5,0,0.7-0.2,0.7-0.4c0-0.7-2.5-0.1-2.5-1.8
				c0-0.7,0.6-1.3,1.7-1.3c0.7,0,1.3,0.2,1.7,0.6l-0.4,0.8c-0.3-0.3-0.7-0.5-1.2-0.5c-0.4,0-0.7,0.2-0.7,0.4c0,0.6,2.5,0.1,2.5,1.8
				c0,0.8-0.7,1.3-1.8,1.3C710.6,276.4,709.9,276.2,709.5,275.8z"/>
		</g>
		<g>
			<path fill="#588DA2" d="M714.2,275.3v-2.2h-0.7v-1h0.7V271h1.1v1.1h0.8v1h-0.8v1.9c0,0.3,0.1,0.5,0.4,0.5c0.2,0,0.3-0.1,0.4-0.1
				l0.2,0.8c-0.2,0.1-0.5,0.3-0.9,0.3C714.6,276.4,714.2,276,714.2,275.3z"/>
		</g>
		<g>
			<path fill="#588DA2" d="M716.6,274.2c0-1.2,0.8-2.2,2.2-2.2c1.4,0,2.2,1,2.2,2.2c0,1.2-0.8,2.2-2.2,2.2
				C717.4,276.4,716.6,275.4,716.6,274.2z M719.9,274.2c0-0.6-0.4-1.2-1.1-1.2c-0.7,0-1.1,0.6-1.1,1.2c0,0.7,0.4,1.2,1.1,1.2
				C719.5,275.4,719.9,274.9,719.9,274.2z"/>
		</g>
		<g>
			<path fill="#588DA2" d="M721.8,276.3v-4.2h1.1v0.6c0.3-0.4,0.8-0.7,1.3-0.7v1.1c-0.1,0-0.2,0-0.3,0c-0.4,0-0.8,0.2-1,0.5v2.8
				H721.8z"/>
		</g>
	</g>
	<g>
		<g>
			<path fill="#588DA2" d="M692.7,290.4c0-1.8,1.3-3,3.1-3c1.3,0,2,0.7,2.4,1.4l-1.1,0.5c-0.2-0.5-0.8-0.8-1.3-0.8
				c-1.1,0-1.8,0.8-1.8,1.9c0,1.1,0.8,1.9,1.8,1.9c0.6,0,1.1-0.4,1.3-0.8l1.1,0.5c-0.4,0.7-1.1,1.4-2.4,1.4
				C694,293.4,692.7,292.2,692.7,290.4z"/>
		</g>
		<g>
			<path fill="#588DA2" d="M699.2,293.3v-5.8h4.1v1.1h-2.8v1.2h2.8v1.1h-2.8v2.4H699.2z"/>
		</g>
		<g>
			<path fill="#588DA2" d="M704.2,290.4c0-1.7,1.3-3,3-3c1.7,0,3,1.2,3,3s-1.3,3-3,3C705.5,293.4,704.2,292.1,704.2,290.4z
				 M709,290.4c0-1.1-0.7-1.9-1.7-1.9c-1.1,0-1.8,0.8-1.8,1.9c0,1.1,0.7,1.9,1.8,1.9C708.3,292.3,709,291.5,709,290.4z"/>
		</g>
	</g>
	<path fill="#588EA3" d="M755.7,250.1h-45.4l-4.2-5l-4.7,5h-10.2c-2.5,0-4.6,2.1-4.6,4.6v38.8c0,2.5,2.1,4.6,4.6,4.6h64.5
		c2.5,0,4.6-2.1,4.6-4.6v-38.8C760.3,252.2,758.2,250.1,755.7,250.1z M755.7,296.7h-64.5c-1.7,0-3.1-1.4-3.1-3.1v-28.7h70.7v28.7
		C758.8,295.3,757.4,296.7,755.7,296.7z"/>
	<g>
		<g>
			<path fill="#FFFFFF" d="M692.6,260.5l0.7-1c0.4,0.4,1,0.8,1.8,0.8c0.7,0,1-0.3,1-0.6c0-1-3.3-0.3-3.3-2.5c0-1,0.8-1.8,2.2-1.8
				c0.9,0,1.7,0.3,2.2,0.8l-0.7,0.9c-0.5-0.4-1.1-0.6-1.7-0.6c-0.5,0-0.8,0.2-0.8,0.6c0,0.9,3.3,0.3,3.3,2.4c0,1.1-0.8,1.8-2.3,1.8
				C693.9,261.4,693.1,261,692.6,260.5z"/>
		</g>
		<g>
			<path fill="#FFFFFF" d="M702.1,261.3v-2.4h-2.7v2.4h-1.2v-5.8h1.2v2.3h2.7v-2.3h1.2v5.8H702.1z"/>
		</g>
		<g>
			<path fill="#FFFFFF" d="M708.4,261.3l-0.4-1h-2.5l-0.4,1h-1.4l2.2-5.8h1.5l2.2,5.8H708.4z M706.8,256.8l-0.9,2.5h1.8L706.8,256.8
				z"/>
		</g>
		<g>
			<path fill="#FFFFFF" d="M713.6,261.3l-1.1-2h-0.9v2h-1.2v-5.8h2.7c1.2,0,1.9,0.8,1.9,1.9c0,1-0.6,1.6-1.3,1.7l1.3,2.2H713.6z
				 M713.7,257.4c0-0.5-0.4-0.8-0.9-0.8h-1.3v1.6h1.3C713.4,258.2,713.7,257.9,713.7,257.4z"/>
		</g>
		<g>
			<path fill="#FFFFFF" d="M715.9,261.3v-5.8h4.1v1.1h-2.8v1.2h2.8v1.1h-2.8v1.3h2.8v1.1H715.9z"/>
		</g>
	</g>
	<g>
		<circle fill="#FFFFFF" cx="745.6" cy="273" r="5"/>
		<path fill="#4EB96F" d="M745.6,278.6c-3.1,0-5.6-2.5-5.6-5.6c0-3.1,2.5-5.6,5.6-5.6c3.1,0,5.6,2.5,5.6,5.6
			C751.2,276.1,748.7,278.6,745.6,278.6z M745.6,268.6c-2.4,0-4.3,1.9-4.3,4.3c0,2.4,1.9,4.3,4.3,4.3c2.4,0,4.3-1.9,4.3-4.3
			C750,270.6,748,268.6,745.6,268.6z"/>
	</g>
	<g>
		<g>
			<path fill="#4EB96F" d="M746.1,273.6v2h-1v-2h-1.8v-0.9h1.8v-1.9h1v1.9h1.8v0.9H746.1z"/>
		</g>
	</g>
	<g>
		<circle fill="#FFFFFF" cx="745.6" cy="289.3" r="5"/>
		<path fill="#4EB96F" d="M745.6,294.9c-3.1,0-5.6-2.5-5.6-5.6c0-3.1,2.5-5.6,5.6-5.6c3.1,0,5.6,2.5,5.6,5.6
			C751.3,292.4,748.7,294.9,745.6,294.9z M745.6,285c-2.4,0-4.3,1.9-4.3,4.3s1.9,4.3,4.3,4.3s4.3-1.9,4.3-4.3S748,285,745.6,285z"/>
	</g>
	<g>
		<g>
			<path fill="#4EB96F" d="M746.2,289.9v2h-1v-2h-1.8V289h1.8v-1.9h1v1.9h1.8v0.9H746.2z"/>
		</g>
	</g>
</g>
<g>
	<g>
		<path fill="#588EA3" d="M62.7,379c-10.3,0-17.6-2.6-17.6-6.3c0-3.4,6.1-6.2,13.7-6.2c0.4,0,0.8,0.3,0.8,0.8c0,0.4-0.3,0.8-0.8,0.8
			c-7.5,0-12.1,2.7-12.1,4.7c0,2.3,6.4,4.8,16,4.8s16-2.5,16-4.8c0-1.8-4.2-4.1-12.1-4.7c-0.4,0-0.7-0.4-0.7-0.8
			c0-0.4,0.4-0.7,0.8-0.7c8.2,0.6,13.5,3,13.5,6.2C80.2,376.4,73,379,62.7,379z"/>
	</g>
	<g>
		<path fill="#588EA3" d="M62.7,388.6c-10.3,0-17.6-2.6-17.6-6.3h1.5c0,2.3,6.4,4.8,16,4.8s16-2.5,16-4.8h1.5
			C80.2,386,73,388.6,62.7,388.6z"/>
	</g>
	<g>
		<path fill="#588EA3" d="M62.7,398.1c-10.3,0-17.6-2.6-17.6-6.3h1.5c0,2.3,6.4,4.8,16,4.8s16-2.5,16-4.8h1.5
			C80.2,395.5,73,398.1,62.7,398.1z"/>
	</g>
	<g>
		<path fill="#588EA3" d="M62.7,408.6c-9.5,0-17.6-3.3-17.6-7.3v-28.7h1.5v28.7c0,2.3,6.2,5.8,16,5.8s16-3.4,16-5.8v-28.7h1.5v28.7
			C80.2,405.3,72.2,408.6,62.7,408.6z"/>
	</g>
	<ellipse fill="#4EB96F" cx="49.7" cy="381.2" rx="0.9" ry="0.7"/>
	<ellipse fill="#4EB96F" cx="53" cy="382.2" rx="0.9" ry="0.7"/>
	<ellipse fill="#4EB96F" cx="56.9" cy="382.7" rx="0.9" ry="0.7"/>
	<ellipse fill="#4EB96F" cx="49.7" cy="390.8" rx="0.9" ry="0.7"/>
	<ellipse fill="#4EB96F" cx="53" cy="391.7" rx="0.9" ry="0.7"/>
	<ellipse fill="#4EB96F" cx="56.9" cy="392.2" rx="0.9" ry="0.7"/>
	<ellipse fill="#4EB96F" cx="49.7" cy="400.3" rx="0.9" ry="0.7"/>
	<ellipse fill="#4EB96F" cx="53" cy="401.3" rx="0.9" ry="0.7"/>
	<ellipse fill="#4EB96F" cx="56.9" cy="401.8" rx="0.9" ry="0.7"/>
	<g>
		<path fill="none" stroke="#588EA3" stroke-width="1.8" stroke-miterlimit="10" d="M58.4,369.3"/>
	</g>
</g>
<g>
	<path fill="#4EB96F" d="M61.8,375.1c0.2,0.3,0.6,0.7,0.8,0.7c0.3,0,0.7-0.6,0.7-0.6l4.3-4.4c0.3-0.3,0.3-0.7,0-1
		c-0.3-0.3-0.7-0.3-1,0l-3.4,3.4v-20l3.4,3.4c0.3,0.3,0.7,0.3,1,0c0.3-0.3,0.3-0.7,0-1l-4.6-4.6c-0.3-0.3-0.7-0.3-1,0l-4.7,4.7
		c-0.3,0.3-0.3,0.7,0,1c0.3,0.3,0.7,0.3,1,0l3.6-3.6v20.4l-3.6-3.6c-0.1-0.1-0.3-0.2-0.5-0.2s-0.4,0.1-0.5,0.2c-0.3,0.3-0.3,0.7,0,1
		L61.8,375.1z"/>
	<path fill="#588EA3" d="M67.6,362.7h4.7c4.5,0,8.2-3.7,8.2-8.2c0-3.5-2.2-6.6-5.6-7.7l-0.1,0l0-0.1c-0.7-4.5-4.6-7.7-9.1-7.7
		c-4.4,0-8.2,3.2-9.1,7.5l0,0.2l-0.2-0.1c-0.8-0.4-1.6-0.6-2.5-0.6c-2.4,0-4.5,1.5-5.2,3.8l0,0.1l-0.1,0c-2.6,1.1-4.3,3.5-4.3,6.3
		c0,5,5.7,6.4,8.6,6.5l0.1,0h5.3c0.4,0,0.7-0.3,0.7-0.7s-0.3-0.7-0.7-0.7h-5.1c-3,0-7.4-1.3-7.4-5c0-2.3,1.5-4.4,3.7-5.1
		c0.2-0.1,0.4-0.3,0.5-0.5c0.5-1.8,2.1-3.1,3.9-3.1c1.1,0,2.1,0.4,2.8,1.2c0.2,0.2,0.5,0.3,0.8,0.2c0.3-0.1,0.4-0.4,0.5-0.7
		c0.1-4.2,3.6-7.7,7.8-7.7c4,0,7.3,3,7.7,7c0,0.3,0.3,0.6,0.6,0.6c3,0.7,5,3.4,5,6.5c0,3.7-3,6.7-6.7,6.7h-4.7
		c-0.4,0-0.7,0.3-0.7,0.7S67.2,362.7,67.6,362.7z"/>
</g>
<g>
	<g>
		<rect x="496.4" y="378.8" fill="#4EB96E" width="1.5" height="13.5"/>
	</g>
	<g>
		<polygon fill="#4EB96E" points="520.9,392.3 519.4,392.3 519.4,388.4 475,388.4 475,392.3 473.4,392.3 473.4,386.9 520.9,386.9 		
			"/>
	</g>
	<g>
		<path fill="#588DA2" d="M510.6,379.9h-26.8v-21.8h26.8V379.9z M485.4,378.2h23.4v-18.5h-23.4V378.2z"/>
	</g>
	<g>
		<path fill="#588DA2" d="M483.6,406.8h-18.7v-15.3h18.7V406.8z M466.5,405.1h15.3v-12h-15.3V405.1z"/>
	</g>
	<g>
		<path fill="#588DA2" d="M506.5,406.8h-18.7v-15.3h18.7V406.8z M489.5,405.1h15.3v-12h-15.3V405.1z"/>
	</g>
	<g>
		<path fill="#588DA2" d="M529.5,406.8h-18.7v-15.3h18.7V406.8z M512.5,405.1h15.3v-12h-15.3V405.1z"/>
	</g>
</g>
<g>
	<g>
		<path fill="#588EA3" d="M693.2,383.6c-6,0-10.2-1.6-10.2-3.8c0-2.2,4.2-3.8,10.2-3.8c6,0,10.2,1.6,10.2,3.8
			C703.4,382,699.2,383.6,693.2,383.6z M693.2,377.3c-5.8,0-8.9,1.5-8.9,2.5c0,1,3.2,2.5,8.9,2.5c5.8,0,8.9-1.5,8.9-2.5
			C702.2,378.8,699,377.3,693.2,377.3z"/>
	</g>
	<g>
		<path fill="#588EA3" d="M693.2,389.1c-6,0-10.2-1.6-10.2-3.8h1.3c0,1,3.2,2.5,8.9,2.5c5.8,0,8.9-1.5,8.9-2.5h1.3
			C703.4,387.5,699.2,389.1,693.2,389.1z"/>
	</g>
	<g>
		<path fill="#588EA3" d="M693.2,394.5c-6,0-10.2-1.6-10.2-3.8h1.3c0,1,3.2,2.5,8.9,2.5c5.8,0,8.9-1.5,8.9-2.5h1.3
			C703.4,393,699.2,394.5,693.2,394.5z"/>
	</g>
	<g>
		<path fill="#588EA3" d="M693.2,400.5c-5.6,0-10.2-2-10.2-4.4v-16.4h1.3v16.4c0,1,3.2,3.1,8.9,3.1c5.8,0,8.9-2,8.9-3.1v-16.4h1.3
			v16.4C703.4,398.6,698.9,400.5,693.2,400.5z"/>
	</g>
	<ellipse fill="#4EB96F" cx="685.8" cy="384.7" rx="0.5" ry="0.4"/>
	<ellipse fill="#4EB96F" cx="687.7" cy="385.2" rx="0.5" ry="0.4"/>
	<ellipse fill="#4EB96F" cx="689.9" cy="385.5" rx="0.5" ry="0.4"/>
	<ellipse fill="#4EB96F" cx="685.8" cy="390.1" rx="0.5" ry="0.4"/>
	<ellipse fill="#4EB96F" cx="687.7" cy="390.7" rx="0.5" ry="0.4"/>
	<ellipse fill="#4EB96F" cx="689.9" cy="391" rx="0.5" ry="0.4"/>
	<ellipse fill="#4EB96F" cx="685.8" cy="395.6" rx="0.5" ry="0.4"/>
	<ellipse fill="#4EB96F" cx="687.7" cy="396.1" rx="0.5" ry="0.4"/>
	<ellipse fill="#4EB96F" cx="689.9" cy="396.4" rx="0.5" ry="0.4"/>
	<g>
		<path fill="none" stroke="#588EA3" stroke-width="1.0274" stroke-miterlimit="10" d="M690.8,377.9"/>
	</g>
</g>
<g>
	<g>
		<path fill="#588EA3" d="M742.8,376.1c-10.3,0-17.6-2.6-17.6-6.3s7.2-6.3,17.6-6.3c10.3,0,17.6,2.6,17.6,6.3
			S753.2,376.1,742.8,376.1z M742.8,365c-9.6,0-16,2.5-16,4.8s6.4,4.8,16,4.8c9.6,0,16-2.5,16-4.8S752.4,365,742.8,365z"/>
	</g>
	<g>
		<path fill="#588EA3" d="M742.8,385.7c-10.3,0-17.6-2.6-17.6-6.3h1.5c0,2.3,6.4,4.8,16,4.8c9.6,0,16-2.5,16-4.8h1.5
			C760.4,383.1,753.2,385.7,742.8,385.7z"/>
	</g>
	<g>
		<path fill="#588EA3" d="M742.8,395.2c-10.3,0-17.6-2.6-17.6-6.3h1.5c0,2.3,6.4,4.8,16,4.8c9.6,0,16-2.5,16-4.8h1.5
			C760.4,392.6,753.2,395.2,742.8,395.2z"/>
	</g>
	<g>
		<path fill="#588EA3" d="M742.8,405.7c-9.5,0-17.6-3.3-17.6-7.3v-28.7h1.5v28.7c0,2.3,6.2,5.8,16,5.8s16-3.4,16-5.8v-28.7h1.5v28.7
			C760.4,402.4,752.3,405.7,742.8,405.7z"/>
	</g>
	<ellipse fill="#4EB96F" cx="729.8" cy="378.3" rx="0.9" ry="0.7"/>
	<ellipse fill="#4EB96F" cx="733.2" cy="379.3" rx="0.9" ry="0.7"/>
	<ellipse fill="#4EB96F" cx="737" cy="379.8" rx="0.9" ry="0.7"/>
	<ellipse fill="#4EB96F" cx="729.8" cy="387.9" rx="0.9" ry="0.7"/>
	<ellipse fill="#4EB96F" cx="733.2" cy="388.8" rx="0.9" ry="0.7"/>
	<ellipse fill="#4EB96F" cx="737" cy="389.3" rx="0.9" ry="0.7"/>
	<ellipse fill="#4EB96F" cx="729.8" cy="397.4" rx="0.9" ry="0.7"/>
	<ellipse fill="#4EB96F" cx="733.2" cy="398.4" rx="0.9" ry="0.7"/>
	<ellipse fill="#4EB96F" cx="737" cy="398.9" rx="0.9" ry="0.7"/>
	<g>
		<path fill="none" stroke="#588EA3" stroke-width="1.8" stroke-miterlimit="10" d="M738.6,366.4"/>
	</g>
</g>
<path fill="#4EB96F" d="M706.5,388.5H720l-3.4,3.4c-0.3,0.3-0.3,0.7,0,1c0.3,0.3,0.7,0.3,1,0l4.6-4.6c0.3-0.3,0.3-0.7,0-1l-4.7-4.7
	c-0.3-0.3-0.7-0.3-1,0c-0.3,0.3-0.3,0.7,0,1l3.6,3.6h-13.7c0,0-0.5,0.2-0.5,0.7S706.5,388.5,706.5,388.5z"/>
</svg>
