<?xml version="1.0" encoding="utf-8"?>
<!-- Generator: Adobe Illustrator 17.1.0, SVG Export Plug-In . SVG Version: 6.00 Build 0)  -->
<!DOCTYPE svg PUBLIC "-//W3C//DTD SVG 1.1//EN" "http://www.w3.org/Graphics/SVG/1.1/DTD/svg11.dtd">
<svg version="1.1" id="Layer_1" xmlns="http://www.w3.org/2000/svg" xmlns:xlink="http://www.w3.org/1999/xlink" x="0px" y="0px"
	 viewBox="0 0 46.3 32.7" enable-background="new 0 0 46.3 32.7" xml:space="preserve">
<g>
	<g>
		<circle fill="#C1C1C1" cx="28" cy="16.4" r="16.4"/>
	</g>
	<g>
		<g>
			<polyline fill="#FFFFFF" points="17.3,5.3 45.8,5.3 45.8,26 11,26 11,11.4 			"/>
			<polygon fill="#C1C1C1" points="46.3,26.5 10.5,26.5 10.5,11.4 11.5,11.4 11.5,25.5 45.3,25.5 45.3,5.8 17.3,5.8 17.3,4.8 
				46.3,4.8 			"/>
		</g>
		<g>
			<line fill="#FFFFFF" x1="33.5" y1="15.9" x2="45.4" y2="25.6"/>
			
				<rect x="31.7" y="20.2" transform="matrix(0.7776 0.6287 -0.6287 0.7776 21.8093 -20.1904)" fill="#C1C1C1" width="15.4" height="1"/>
		</g>
		<g>
			<line fill="#FFFFFF" x1="23.1" y1="15.9" x2="11.3" y2="25.6"/>
			
				<rect x="16.7" y="13.1" transform="matrix(0.6338 0.7735 -0.7735 0.6338 22.3391 -5.7171)" fill="#C1C1C1" width="1" height="15.3"/>
		</g>
		<g>
			<polyline fill="#FFFFFF" points="16.9,10.5 28.4,19.3 45.8,5.3 			"/>
			<polygon fill="#C1C1C1" points="28.4,19.9 16.6,10.9 17.2,10.1 28.4,18.6 45.4,4.9 46.1,5.7 			"/>
		</g>
		<g>
			<circle fill="#FFFFFF" cx="14" cy="9.1" r="4.7"/>
			<path fill="#1EB8F4" d="M14,14.8c-3.1,0-5.7-2.5-5.7-5.7s2.5-5.7,5.7-5.7s5.7,2.5,5.7,5.7S17.1,14.8,14,14.8z M14,5.4
				c-2,0-3.7,1.6-3.7,3.7c0,2,1.6,3.7,3.7,3.7c2,0,3.7-1.6,3.7-3.7C17.6,7.1,16,5.4,14,5.4z"/>
		</g>
		<g>
			<path fill="#1EB8F4" d="M8.8,6.4c-1,0-2.1-0.3-3-1.1C2.9,3,1,5.2,0.9,5.3c-0.2,0.2-0.5,0.2-0.7,0C0,5.1-0.1,4.8,0.1,4.6
				c0,0,2.7-3,6.3-0.1C8,5.8,9.8,5.3,10.1,5.2c0.3-0.1,0.5,0,0.6,0.3c0.1,0.3,0,0.5-0.3,0.6C10,6.3,9.4,6.4,8.8,6.4z"/>
		</g>
		<g>
			<path fill="#1EB8F4" d="M7.5,8.6c-0.9,0-1.9-0.2-2.9-0.9C3.7,7.1,2.9,6.8,2.2,6.9C1.4,7.1,0.9,7.8,0.9,7.8C0.8,8,0.5,8.1,0.2,7.9
				C0,7.8-0.1,7.5,0.1,7.2c0,0,0.7-1,1.9-1.3c1-0.2,2.1,0.1,3.2,1C6.7,8,8.6,7.6,9.1,7.3c0.2-0.1,0.5,0,0.7,0.2
				c0.1,0.2,0,0.5-0.2,0.7C9.2,8.4,8.4,8.6,7.5,8.6z"/>
		</g>
		<g>
			<path fill="#1EB8F4" d="M7.4,11c-0.7,0-1.6-0.2-2.5-0.8c-1-0.6-1.9-0.8-2.6-0.6c-0.9,0.2-1.4,1-1.4,1c-0.1,0.2-0.4,0.3-0.7,0.2
				c-0.2-0.1-0.3-0.4-0.2-0.7c0,0,0.6-1.2,2-1.5c1-0.3,2.2,0,3.4,0.8c2.2,1.4,3.8-0.1,3.9-0.1c0.2-0.2,0.5-0.2,0.7,0
				c0.2,0.2,0.2,0.5,0,0.7C9.5,10.5,8.6,11,7.4,11z"/>
		</g>
	</g>
</g>
</svg>
