<?xml version="1.0" encoding="utf-8"?>
<!-- Generator: Adobe Illustrator 18.1.0, SVG Export Plug-In . SVG Version: 6.00 Build 0)  -->
<svg version="1.1" id="Layer_1" xmlns="http://www.w3.org/2000/svg" xmlns:xlink="http://www.w3.org/1999/xlink" x="0px" y="0px"
	 viewBox="0 0 800 140" enable-background="new 0 0 800 140" xml:space="preserve">
<g>
	<g>
		<g>
			<path fill="#27B899" d="M213.1,110h-27.3c-6.1,0-11-4.9-11-11V80.3c0-0.6,0.4-1,1-1s1,0.4,1,1V99c0,5,4,9,9,9h27.3c5,0,9-4,9-9
				V37.1c0-5-4-9-9-9h-27.3c-4.9,0-9,2.7-9,6v7c0,0.6-0.4,1-1,1s-1-0.4-1-1v-7c0-4.4,4.9-8,11-8h27.3c6.1,0,11,4.9,11,11V99
				C224.1,105,219.2,110,213.1,110z"/>
		</g>
		<g>
			<path fill="#27B899" d="M219.4,98.1h-39.8V82.5c0-0.6,0.4-1,1-1s1,0.4,1,1v13.6h35.8v-59h-35.8v6.1c0,0.6-0.4,1-1,1s-1-0.4-1-1
				v-8.1h39.8V98.1z"/>
		</g>
		<g>
			<path fill="#27B899" d="M199.2,107.6c-2.4,0-4.3-1.9-4.3-4.3s1.9-4.3,4.3-4.3s4.3,1.9,4.3,4.3S201.6,107.6,199.2,107.6z
				 M199.2,99.9c-1.8,0-3.3,1.5-3.3,3.3s1.5,3.3,3.3,3.3s3.3-1.5,3.3-3.3S201.1,99.9,199.2,99.9z"/>
		</g>
		<g>
			<path fill="#27B899" d="M199.2,106.9c-2,0-3.7-1.6-3.7-3.7s1.6-3.7,3.7-3.7s3.7,1.6,3.7,3.7S201.3,106.9,199.2,106.9z
				 M199.2,100.6c-1.5,0-2.7,1.2-2.7,2.7s1.2,2.7,2.7,2.7s2.7-1.2,2.7-2.7S200.7,100.6,199.2,100.6z"/>
		</g>
		<g>
			<path fill="#27B899" d="M204.1,34.5h-9.8c-0.6,0-1-0.4-1-1s0.4-1,1-1h9.8c0.6,0,1,0.4,1,1S204.7,34.5,204.1,34.5z"/>
		</g>
		<g>
			<path fill="#27B899" d="M199.3,32.4c-1,0-1.7-0.8-1.7-1.7s0.8-1.7,1.7-1.7c1,0,1.7,0.8,1.7,1.7S200.3,32.4,199.3,32.4z
				 M199.3,30.4c-0.2,0-0.3,0.1-0.3,0.3c0,0.3,0.5,0.3,0.5,0C199.6,30.5,199.5,30.4,199.3,30.4z"/>
		</g>
		<g>
			<circle fill="#27B899" cx="190.8" cy="33.5" r="0.6"/>
		</g>
	</g>
	<g>
		<g>
			<path fill="#27B899" d="M199,91.2c-0.8,0-1.7-0.2-2.4-0.5l-43.8-19.6c-1.5-0.7-2.6-1.8-3.2-3.3c-0.6-1.5-0.5-3.1,0.1-4.6
				l10.6-23.6c1-2.2,3.1-3.5,5.5-3.5c0.8,0,1.7,0.2,2.4,0.5L212,56.1c3,1.4,4.4,4.9,3,7.9l-10.6,23.6
				C203.5,89.8,201.4,91.2,199,91.2z M165.8,38c-1.6,0-3,0.9-3.7,2.4L151.6,64c-0.4,1-0.5,2.1-0.1,3.1c0.4,1,1.1,1.8,2.1,2.2
				l43.8,19.6c0.5,0.2,1.1,0.3,1.6,0.3c1.6,0,3-0.9,3.7-2.4l10.6-23.6c0.9-2,0-4.4-2-5.3l-43.8-19.6C166.9,38.2,166.4,38,165.8,38z"
				/>
		</g>
		<g>
			<path fill="#27B899" d="M188.8,76.1l-33.2-14.8l3.9-8.7l33.2,14.8L188.8,76.1z M158.2,60.3l29.6,13.2l2.2-5l-29.6-13.2
				L158.2,60.3z"/>
		</g>
		<g>
			<path fill="#27B899" d="M211.4,72.1l-54.7-24.5l3.8-8.5l54.7,24.5L211.4,72.1z M159.4,46.6l51.1,22.8l2.2-4.9l-51.1-22.8
				L159.4,46.6z"/>
		</g>
		<g>
			<path fill="#27B899" d="M170.9,64.4c-0.1,0-0.2,0-0.3,0c-0.3-0.1-0.6-0.3-0.9-0.4l-0.3-0.1c-0.1,0-0.2-0.1-0.3-0.1
				c-0.4-0.2-0.9-0.4-1.3-0.8c-0.2-0.2-0.3-0.4-0.3-0.6c-0.1,0-0.3,0-0.4,0l-0.1,0c-0.1,0-0.3,0-0.4,0c-0.3,1.1-1.2,1.1-1.4,1.1
				c-0.7,0-1.5-0.4-1.9-1c-0.5,0.1-1,0-1.5-0.2c-0.8-0.4-1.4-1.2-1.6-2.1c-0.2-0.8-0.1-1.6,0.4-2.2c0.5-0.6,1.1-1,1.9-1
				c0.8,0,1.5,0.4,2,0.6c0.2,0.1,0.5,0.3,0.7,0.4c0.7,0.5,0.8,1.2,0.8,1.7c0.2,0.1,0.3,0.1,0.4,0.2c0.2,0.2,0.4,0.3,0.5,0.5
				c0.1,0,0.1,0,0.2,0l0.2,0c0.1,0,0.1,0,0.1,0c0.2,0,0.6-0.1,1,0.1c0.6,0.2,0.8,0.8,0.9,1.1c0,0.1,0,0.1,0.1,0.2
				c0,0,0.3,0.2,0.5,0.2c0.1,0.1,0.3,0.1,0.4,0.2c0.1,0.1,0.2,0.1,0.3,0.2c0.2,0.1,0.4,0.2,0.6,0.3c0.5,0.2,0.8,0.7,0.7,1.3
				C171.7,64.1,171.3,64.4,170.9,64.4z"/>
		</g>
	</g>
</g>
<g>
	<g>
		<g>
			<path fill="#B16BAA" d="M422.8,81.1h-58.5c-11,0-20-8.8-20-19.6c0-6.1,3.8-12.4,9.7-16.2c2.5-13.8,13.6-23.3,27.2-23.3
				c6.4,0,11.8,2,16.9,6.2c1.1-0.1,2.4-0.2,3.4-0.2c8.8,0,16.8,5.7,19.7,14c0.5,0,1-0.1,1.6-0.1c11.3,0,20.9,9,20.9,19.6
				C443.7,72.2,434.2,81.1,422.8,81.1z M381.2,24c-12.8,0-23.2,9.1-25.3,22.1l-0.1,0.4l-0.4,0.2c-5.5,3.4-9.1,9.2-9.1,14.8
				c0,9.7,8.1,17.6,18,17.6h58.5c10.3,0,18.9-8.1,18.9-17.6c0-9.5-8.7-17.6-18.9-17.6c-0.7,0-1.5,0-2.2,0.1l-0.8,0.1l-0.2-0.8
				c-2.4-7.9-9.8-13.4-18.1-13.4c-1.1,0-2.5,0.1-3.6,0.2l-0.4,0.1l-0.3-0.3C392.3,25.9,387.2,24,381.2,24z"/>
		</g>
		<g>
			<path fill="#B16BAA" d="M408.3,56.3c-0.1,0-0.1,0-0.2,0c-0.5-0.1-0.9-0.7-0.8-1.2c2.4-10.4,12.6-12.9,13-13
				c0.5-0.1,1.1,0.2,1.2,0.8c0.1,0.5-0.2,1.1-0.8,1.2c-0.4,0.1-9.4,2.3-11.5,11.5C409.2,56,408.8,56.3,408.3,56.3z"/>
		</g>
		<g>
			<path fill="#B16BAA" d="M350.8,50.2c-0.3,0-0.5-0.1-0.7-0.3c-0.4-0.4-0.4-1,0-1.4c0.1-0.1,10.7-9.9,21.2-3.6
				c0.5,0.3,0.6,0.9,0.3,1.4c-0.3,0.5-0.9,0.6-1.4,0.3c-3.9-2.3-8.2-2.4-12.8-0.4c-3.6,1.5-6,3.8-6,3.8
				C351.3,50.1,351.1,50.2,350.8,50.2z"/>
		</g>
	</g>
	<g>
		<defs>
			<rect id="SVGID_1_" x="363.4" y="80.2" width="61.3" height="30.9"/>
		</defs>
		<clipPath id="SVGID_2_">
			<use xlink:href="#SVGID_1_"  overflow="visible"/>
		</clipPath>
		<g clip-path="url(#SVGID_2_)">
			<path fill="#B16BAA" d="M391.4,109.1c-1.2,0-2.1-0.9-2.2-2.1l-0.2-2.9c-1.9-0.4-3.8-1.1-5.5-2l-1.8,2.1c-0.4,0.4-0.9,0.7-1.5,0.8
				l-0.2,0c-0.5,0-1.1-0.2-1.5-0.5l-5.4-4.7c-0.9-0.8-1-2.2-0.2-3.1l2-2.3c-1-1.6-1.9-3.4-2.5-5.2l-3,0.2c-0.5,0-1.1-0.2-1.5-0.5
				c-0.4-0.4-0.7-0.9-0.8-1.5l-0.5-7.1c0-0.2,0-0.4,0-0.6c0.2-1,1-1.7,2-1.8l3.1-0.2c0.4-2,1.1-3.8,1.9-5.5l-2.1-1.8
				c-0.4-0.4-0.7-0.9-0.8-1.5c0-0.6,0.1-1.2,0.5-1.6l4.7-5.4c0.8-0.9,2.2-1,3.1-0.2l2.2,1.9c1.6-1.1,3.4-1.9,5.3-2.6l-0.2-2.7
				c0-0.6,0.2-1.2,0.5-1.6c0.4-0.5,0.9-0.7,1.5-0.8l7.3-0.5c1.2,0,2.1,0.9,2.2,2.1l0.2,2.8c2,0.4,3.9,1.1,5.7,2l1.6-1.9
				c0.4-0.5,0.9-0.7,1.5-0.8l0.2,0c0.5,0,1.1,0.2,1.5,0.5l5.4,4.7c0.4,0.4,0.7,0.9,0.8,1.5s-0.1,1.2-0.5,1.6l-1.7,2
				c1.1,1.7,2,3.6,2.6,5.5l2.5-0.2c1.2,0,2.1,0.9,2.2,2.1l0.5,7.1c0.1,1.2-0.8,2.3-2.1,2.4l-2.6,0.2c-0.5,2.1-1.2,4-2.1,5.8l1.8,1.6
				c0.4,0.4,0.7,0.9,0.8,1.5c0,0.6-0.2,1.2-0.5,1.6l-4.7,5.4c-0.4,0.5-1,0.8-1.7,0.8l0,0c-0.5,0-1-0.2-1.5-0.5l-2.1-1.8
				c-1.7,1.1-3.5,1.9-5.5,2.5l0.2,2.5c0,0.6-0.1,1.2-0.5,1.6c-0.4,0.4-0.9,0.7-1.5,0.8L391.4,109.1z M383,99.6l0.7,0.4
				c2,1.1,4.1,1.9,6.4,2.4l0.8,0.1l0.3,4.4c0,0.1,0.1,0.2,0.2,0.2v1l0-1l7.1-0.5c0.1,0,0.1,0,0.2-0.1c0-0.1,0.1-0.1,0.1-0.2
				l-0.3-4.2l0.8-0.2c2.3-0.6,4.4-1.6,6.3-2.9l0.6-0.4l3.2,2.8c0.1,0.1,0.2,0.1,0.3,0l4.7-5.4c0,0,0.1-0.1,0.1-0.2
				c0-0.1,0-0.1-0.1-0.1l-3-2.6l0.4-0.7c1.1-1.9,1.9-4.1,2.4-6.6l0.2-0.7l4.1-0.3c0.1,0,0.2-0.1,0.2-0.3l-0.5-7.1
				c0-0.1-0.1-0.2-0.2-0.2l-4,0.3l-0.2-0.8c-0.6-2.3-1.7-4.5-3-6.4l-0.5-0.6l2.7-3.1c0.1-0.1,0.1-0.1,0.1-0.2c0,0,0-0.1-0.1-0.2
				l-5.4-4.7c0,0-0.1-0.1-0.2-0.1c-0.1,0-0.1,0-0.2,0.1l-2.7,3.1l-0.7-0.4c-2.1-1.1-4.3-1.9-6.6-2.3l-0.8-0.1l-0.3-4.3
				c0-0.1-0.1-0.2-0.2-0.2l-7.1,0.5c-0.1,0-0.1,0-0.2,0.1c0,0-0.1,0.1-0.1,0.2l0.3,4.2l-0.8,0.2c-2.2,0.6-4.3,1.6-6.1,3l-0.6,0.5
				l-3.4-2.9c-0.1-0.1-0.2-0.1-0.3,0l-4.7,5.4c0,0-0.1,0.1-0.1,0.2c0,0.1,0,0.1,0.1,0.2l3.3,2.9l-0.4,0.7c-1.1,2-1.8,4-2.3,6.3
				l-0.1,0.8l-4.6,0.3c-0.1,0-0.2,0.1-0.2,0.2l0.5,7.2c0,0.1,0,0.1,0.1,0.2c0,0,0.1,0.1,0.1,0.1l4.5-0.3l0.2,0.8
				c0.6,2.2,1.6,4.2,2.8,6.1l0.4,0.6l-3,3.5c-0.1,0.1-0.1,0.2,0,0.3l5.4,4.7c0,0,0.1,0.1,0.2,0.1c0.1,0,0.1,0,0.2-0.1L383,99.6z
				 M393.8,92c-2.4,0-4.6-0.8-6.4-2.4c-2-1.7-3.2-4.1-3.4-6.8c-0.1-0.9,0-1.8,0.2-2.6c0.8-4.4,4.5-7.6,9-8
				c5.5-0.4,10.2,3.8,10.6,9.1c0.1,0.9,0,1.8-0.2,2.6c-0.8,4.4-4.5,7.6-9,7.9C394.3,92,394.1,92,393.8,92z M393.9,74.3
				c-0.2,0-0.4,0-0.6,0c-3.5,0.3-6.5,2.9-7.2,6.4c-0.1,0.7-0.2,1.4-0.1,2.1c0.2,2.1,1.1,4,2.7,5.4c1.6,1.4,3.6,2,5.7,1.9
				c3.5-0.3,6.5-2.9,7.2-6.3c0.1-0.7,0.2-1.4,0.1-2.1C401.4,77.5,398,74.3,393.9,74.3z"/>
		</g>
	</g>
</g>
<g>
	<g>
		<path fill="#F2B345" d="M623.3,117.3l-55.6-10.6l4.6-65.1l51,8.8V117.3z M569.8,105l51.4,9.9V52l-47.1-8.1L569.8,105z"/>
	</g>
	<g>
		<polygon fill="#F2B345" points="636.8,106.4 632.9,45.4 580.6,37.9 580.9,35.9 634.8,43.6 638.8,106.3 		"/>
	</g>
	<g>
		<polygon fill="#F2B345" points="622.9,52 621.7,50.4 626.7,46.5 633.4,43.6 634.2,45.4 627.6,48.3 		"/>
	</g>
	<g>
		<polygon fill="#F2B345" points="622.9,116.9 621.6,115.3 628.5,109.5 637.4,105.4 638.3,107.2 629.5,111.2 		"/>
	</g>
	<g>
		<polygon fill="#F2B345" points="573.5,43.6 572.9,41.7 579,39.7 579.8,36.7 581.7,37.2 580.7,41.2 		"/>
	</g>
	<g>
		
			<rect x="596.5" y="77.9" transform="matrix(3.007121e-02 0.9995 -0.9995 3.007121e-02 688.0036 -551.1663)" fill="#F2B345" width="63" height="2"/>
	</g>
	<g>
		<path fill="#F2B345" d="M618.6,42.4l-2-0.2c0-0.2,1.8-19.9-8.8-21.2c-2.2-0.2-3.9,0.3-5.5,1.7c-5.1,4.6-5.1,16.4-5.1,16.5l-2,0
			c0-0.5,0-12.9,5.7-18c1.9-1.7,4.3-2.5,7-2.2c5.3,0.6,8.8,4.9,10.1,12.4C619.1,37,618.6,42.2,618.6,42.4z"/>
	</g>
	<g>
		<path fill="#F2B345" d="M611.3,53.7l-2-0.2c0-0.2,2.1-23.9-10.3-25.3c-2.5-0.3-4.6,0.4-6.4,1.9c-5.9,5.3-5.9,19.3-5.9,19.4l-2,0
			c0-0.6,0-15,6.6-20.9c2.2-2,4.9-2.8,7.9-2.4c6,0.7,10,5.7,11.5,14.6C611.9,47.3,611.4,53.4,611.3,53.7z"/>
	</g>
	<g>
		<path fill="#F2B345" d="M585.5,53c-1.2,0-2.2-1-2.2-2.2s1-2.2,2.2-2.2s2.2,1,2.2,2.2S586.8,53,585.5,53z M585.5,50.6
			c-0.1,0-0.2,0.1-0.2,0.2c0,0.2,0.4,0.2,0.4,0C585.8,50.7,585.7,50.6,585.5,50.6z"/>
	</g>
	<g>
		<path fill="#F2B345" d="M610.1,57.4c-1.4,0-2.5-1.1-2.5-2.5s1.1-2.5,2.5-2.5s2.5,1.1,2.5,2.5S611.5,57.4,610.1,57.4z M610.1,54.5
			c-0.3,0-0.5,0.2-0.5,0.5s0.2,0.5,0.5,0.5s0.5-0.2,0.5-0.5S610.3,54.5,610.1,54.5z"/>
	</g>
	<g>
		
			<rect x="578.7" y="40.5" transform="matrix(0.9901 0.1401 -0.1401 0.9901 11.6104 -80.8086)" fill="#F2B345" width="2" height="3.2"/>
	</g>
	<g>
		<path fill="#F2B345" d="M597.4,78.8l-0.2-0.1l0.5-14.6l0.6,0.2c2.2,0.7,4,2,5.4,3.9l0.4-0.3c-1.5-2-3.5-3.4-6-4.2l-0.3-0.1
			l0.1-4.3l-0.6-0.1l-0.1,4.3l-0.5-0.1c-0.3-0.1-0.7-0.1-1-0.1c-4.3-0.1-5.9,2.8-6,5.5c-0.2,4.7,3.2,7.3,6.8,10l0.2,0.1L596,95
			l-0.5-0.1c-2.8-0.7-5.3-2.5-7-5l-0.5,0.4c1.8,2.6,4.5,4.5,7.6,5.2l0.4,0.1l-0.1,4.2l0.6,0.1l0.1-4.3l0.5,0.1
			c0.3,0,0.6,0.1,0.8,0.1l0,0c2,0.1,3.5-0.5,4.6-1.8c0.9-1.1,1.5-2.6,1.5-4.3C604.3,84.6,601,81.7,597.4,78.8z M596.6,78.2l-0.7-0.5
			c-3.2-2.5-5.8-4.9-5.7-8.6c0.1-3.3,2.4-5.4,5.6-5.3c0.3,0,0.5,0,0.8,0.1l0.4,0.1L596.6,78.2z M597.6,95.1c-0.2,0-0.3,0-0.5,0
			l-0.4,0l0.5-15.7l0.7,0.6c2.8,2.2,5.7,4.9,5.6,9.4C603.4,92.2,601.8,95.2,597.6,95.1z"/>
		<path fill="#F2B345" d="M597,100.4l-1.6-0.4l0.1-4.2c-3.2-0.8-6-2.7-7.9-5.4l-0.3-0.4l1.3-1l0.3,0.4c1.5,2.4,4,4.1,6.6,4.8
			l0.5-15.2c-3.7-2.8-7.2-5.5-7-10.4c0.1-2.9,1.8-6,6.2-6l0.3,0c0.3,0,0.7,0,1,0.1l0.1-4.4l1.6,0.4l-0.1,4.4
			c2.6,0.8,4.7,2.2,6.2,4.3l0.3,0.4l-1.2,1l-0.3-0.4c-1.3-1.8-3-3-5.1-3.7l-0.4,13.7c3.8,2.9,7.1,6,6.9,11.2
			c-0.1,1.8-0.7,3.5-1.7,4.6c-1.1,1.3-2.7,1.9-4.7,1.9l0,0l-0.3,0c-0.3,0-0.5,0-0.8-0.1L597,100.4z M597.2,94.6c0.1,0,0.3,0,0.4,0
			l0.2,0c4.6,0,5.1-4.1,5.1-5.3c0.1-4.2-2.7-6.8-5.3-8.9L597.2,94.6z M595.6,64.3c-2.9,0-4.8,1.9-4.9,4.8c-0.1,3.5,2.4,5.7,5.4,8.1
			l0.4-12.9c-0.2,0-0.5,0-0.7-0.1L595.6,64.3z"/>
	</g>
</g>
</svg>
