<?xml version="1.0" encoding="utf-8"?>
<!-- Generator: Adobe Illustrator 17.1.0, SVG Export Plug-In . SVG Version: 6.00 Build 0)  -->
<!DOCTYPE svg PUBLIC "-//W3C//DTD SVG 1.1//EN" "http://www.w3.org/Graphics/SVG/1.1/DTD/svg11.dtd">
<svg version="1.1" id="Layer_1" xmlns="http://www.w3.org/2000/svg" xmlns:xlink="http://www.w3.org/1999/xlink" x="0px" y="0px"
	 viewBox="0 0 800 800" enable-background="new 0 0 800 800" xml:space="preserve">
<g>
	
		<image overflow="visible" enable-background="new    " width="1209" height="1209" xlink:href="1D78452A7026BC55.jpeg"  transform="matrix(0.5418 0 0 0.5418 72.514 72.498)">
	</image>
	<g>
		<g>
			<defs>
				<path id="SVGID_1_" d="M414,108c168,0,304,136,304,304S582,716,414,716S110,580,110,412S246,108,414,108L414,108z"/>
			</defs>
			<clipPath id="SVGID_2_">
				<use xlink:href="#SVGID_1_"  overflow="visible"/>
			</clipPath>
			<g transform="matrix(1 0 0 1 -2.384186e-07 0)" clip-path="url(#SVGID_2_)">
				
					<image overflow="visible" enable-background="new    " width="1209" height="1209" xlink:href="1D78452A7026BC57.jpeg"  transform="matrix(0.5418 0 0 0.5418 72.514 72.498)">
				</image>
			</g>
		</g>
	</g>
	<g>
		<g>
			<defs>
				<path id="SVGID_3_" d="M400,726C220,726,74,580,74,400C74,220,220,74,400,74s326,146,326,326S580,726,400,726L400,726z M674,444
					c-10-4-86-26-174-12c36,100,52,182,54,198C618,588,662,522,674,444L674,444z M508,656c-4-24-20-110-60-210h-2
					c-156,54-214,164-218,174c48,36,106,58,170,58C438,678,476,670,508,656L508,656z M194,586c6-10,82-136,226-182c4-2,8-2,10-4
					c-6-16-14-32-22-48c-138,42-274,40-286,40c0,2,0,6,0,8C122,472,148,538,194,586L194,586z M128,344c12,0,128,0,258-34
					c-46-82-96-150-104-160C204,186,146,258,128,344L128,344z M334,130c8,10,58,80,104,162c98-38,140-94,146-100
					c-48-42-114-70-184-70C378,122,356,126,334,130L334,130z M616,224c-6,8-52,68-156,110c6,14,12,26,18,40c2,4,4,10,6,14
					c92-12,184,8,194,8C678,332,654,272,616,224L616,224z"/>
			</defs>
			<clipPath id="SVGID_4_">
				<use xlink:href="#SVGID_3_"  overflow="visible"/>
			</clipPath>
			<g transform="matrix(1 0 0 1 -2.384186e-07 0)" clip-path="url(#SVGID_4_)">
				
					<image overflow="visible" enable-background="new    " width="1209" height="1209" xlink:href="1D78452A7026BC55.jpeg"  transform="matrix(0.5418 0 0 0.5418 72.514 72.498)">
				</image>
			</g>
		</g>
	</g>
	<g>
		<g>
			<defs>
				<path id="SVGID_5_" d="M400,726L400,726c-90-2-170-38-230-96c-58-60-94-140-94-230l0,0c0-90,36-170,94-228s140-94,230-94
					s170,36,230,94c58,58,96,140,96,228s-38,170-96,230C570,688,490,724,400,726L400,726L400,726c180,2,328-146,328-326
					S582,72,400,72C220,72,72,218,72,400l0,0C72,580,220,728,400,726L400,726L400,726L400,726z M674,444L674,444c-6-4-54-18-116-18
					c-18,0-38,2-58,4h-2v2c36,100,52,182,54,198v2l2-2C620,590,664,522,674,444L674,444L674,444L674,444L674,444
					c-14,76-58,144-120,184v2h2c-2-16-18-98-54-198h-2v2c20-4,40-4,58-4C620,430,668,444,674,444L674,444L674,444L674,444L674,444
					L674,444z M508,656L508,656c-2-24-18-110-58-212v-2h-2h-2c-158,54-214,164-220,174v2h2c48,36,108,60,172,60
					C438,680,476,672,508,656L508,656L508,656L508,656L508,656c-34,12-70,20-108,20c-64,0-122-22-170-58l-2,2h2c4-10,60-118,218-172
					h2v-2h-2C486,548,502,632,508,656L508,656L508,656L508,656L508,656L508,656z M194,586L194,586c6-10,84-136,226-182c4-2,8-2,10-4
					h2v-2c-8-16-14-32-22-48v-2h-2c-122,36-242,40-276,40c-4,0-8,0-8,0l-4,2v2c0,2,0,6,0,8C120,472,148,538,194,586v2V586L194,586
					L194,586c-42-50-70-114-70-186c0-2,0-6,0-8h-2v2c2,0,4,0,8,0c34,0,154-2,278-40v-2h-2c8,16,16,32,22,48h2v-2c-4,2-8,2-12,4
					C274,448,198,574,194,586L194,586L194,586L194,586L194,586L194,586z M128,344L128,344c0,2,2,2,4,2c26,0,132-2,252-34h2l0-2
					c-46-82-96-150-104-160v-2h-2C202,184,144,256,128,344l-2,2L128,344L128,344L128,344c20-86,78-156,154-194v-2l-2,2
					c8,10,58,78,104,160h2v-2c-120,32-226,34-252,34C130,342,128,342,128,344L128,344L128,344L128,344L128,344L128,344z M334,130
					L334,130c6,12,56,80,102,164v2h2c100-38,142-94,146-102v-2h-2c-50-44-114-70-186-70C378,122,356,124,334,130h-2H334L334,130
					L334,130c22-4,42-6,66-6c70,0,134,26,184,70l2-2h-2c-4,6-46,62-146,100v2h2C394,208,344,140,334,130L334,130L334,130L334,130
					L334,130L334,130z M616,224L616,224c-8,6-54,66-156,108h-2v2c6,14,12,26,18,40c2,4,4,10,6,14v2h2c22-2,44-4,64-4
					c66,0,122,12,130,12h2v-2C680,332,656,272,616,224v-2V224L616,224L616,224c38,48,60,108,62,174h2v-2c-8-2-62-12-130-12
					c-20,0-42,2-64,4v2h2c-2-4-4-10-6-14c-6-14-12-28-18-40h-2v2C564,294,610,234,616,224L616,224L616,224L616,224L616,224L616,224z
					"/>
			</defs>
			<clipPath id="SVGID_6_">
				<use xlink:href="#SVGID_5_"  overflow="visible"/>
			</clipPath>
			<g transform="matrix(1 0 0 1 -2.384186e-07 0)" clip-path="url(#SVGID_6_)">
				
					<image overflow="visible" enable-background="new    " width="1209" height="1209" xlink:href="1D78452A7026BC53.jpeg"  transform="matrix(0.5418 0 0 0.5418 72.514 72.498)">
				</image>
			</g>
		</g>
	</g>
</g>
</svg>
