<?xml version="1.0" encoding="utf-8"?>
<!-- Generator: Adobe Illustrator 18.1.0, SVG Export Plug-In . SVG Version: 6.00 Build 0)  -->
<svg version="1.1" id="Layer_1" xmlns="http://www.w3.org/2000/svg" xmlns:xlink="http://www.w3.org/1999/xlink" x="0px" y="0px"
	 viewBox="0 260 800 140" enable-background="new 0 260 800 140" xml:space="preserve">
<g>
	<path fill="#4D4D4D" d="M226.5,357.1c0.2-1.9,0-56.5,0-56.5l21.4-21.4v77.9c0,3.3-0.4,6.4-1.3,9.4c-0.9,3-2.2,5.5-4,7.5
		s-3.7,3.5-5.7,4.4s-3.7,1.5-5.2,1.8c-1.5,0.3-3.2,0.4-5.1,0.4H218v-18.7h5.1C226.9,361.8,226.3,359,226.5,357.1z"/>
	<path fill="#4D4D4D" d="M250,331.4l52.4-52.7h18.4v78.1h-21.4v-10.1h-36.6l19.1-19h17.5V307L250,356.7V331.4z"/>
	<path fill="#4D4D4D" d="M323,279l21.2-0.4v78H323V279z M364.9,278.6c7.8,0,14.1,2.1,18.8,6.2c4.8,4.1,7.1,10.3,7.1,18.4
		c0,7-2.3,12.8-7,17.4c-4.6,4.7-10.8,7-18.4,7h-1.6c-0.6,0-1.2-0.1-1.9-0.2c-0.6-0.2-1-0.3-1.2-0.4c-0.1-0.1-0.2-0.2-0.2-0.3
		l0.6-0.5l1.2-0.6l-12.7-9.9h9.6c3.2,0,5.6-0.8,7.3-2.3c1.7-1.6,2.5-3.8,2.5-6.6c0-2.5-0.8-4.5-2.3-6s-4-2.2-7.5-2.2h-15v-20
		L364.9,278.6L364.9,278.6z M390.3,357.2L348.9,316h25.4l16,16.4V357.2z"/>
	<path fill="#4D4D4D" d="M392.5,279h20.6v33l33.3-33h24.3l-78.2,78.1V279z"/>
	<path fill="#F37E20" d="M511.9,327.4c0,8.2-3.1,15.4-9.3,21.3c-6.2,6-13.7,9-22.3,9c-8.5,0-15.8-3-21.9-8.9
		c-6.1-6-9.1-13.1-9.1-21.4v-23.3l21.4-21.4v44.9c0,2.7,1,4.9,3,6.8c2,1.8,4.4,2.8,7,2.8s4.9-0.9,7-2.7c2.1-1.8,3.1-4.1,3.1-6.8v-49
		h21.1v10.6L511.9,327.4L511.9,327.4z"/>
	<path fill="#F37E20" d="M542.1,308.5c7.5,0,13.6,2.2,18.3,6.7s7,10.1,7,17c0,6.6-2.3,12.3-7,17.2s-10.3,7.4-16.9,7.4h-47.4
		c0,0-0.2-0.1,1.7-1c10.4-5.2,15.4-17.5,15.4-17.5l28.2-0.7c1.3,0,2.4-0.5,3.3-1.6c0.9-1.1,1.4-2.3,1.4-3.7c0-2.8-1.9-4.2-5.7-4.2
		c-7.6,0-13.9-2.5-18.9-7.6c-5-5.1-7.5-11.2-7.5-18.3c0-6.3,2.5-11.7,7.6-16.4c5-4.7,10.8-7,17.4-7h48L566.7,299h-28.5
		c-1.2,0-2.3,0.3-3.2,1s-1.4,1.6-1.4,2.9c0,2.2,0.7,3.7,2.2,4.5C537.7,308.1,539.8,308.5,542.1,308.5z"/>
</g>
<g>
	<path fill="#4D4D4D" d="M262.7,364.7v13.5h-2v-13.5H262.7z"/>
	<path fill="#4D4D4D" d="M283.8,378.2v-14.4l9.8,10.3v-9.4h2V379l-9.8-10.3v9.4h-2V378.2z"/>
	<path fill="#4D4D4D" d="M316.7,378.2v-14.4l9.8,10.3v-9.4h2V379l-9.8-10.3v9.4h-2V378.2z"/>
	<path fill="#4D4D4D" d="M349.1,371.4c0-1.9,0.7-3.5,2.1-4.9s3-2,5-2c1.9,0,3.6,0.7,4.9,2.1c1.4,1.4,2.1,3,2.1,4.9s-0.7,3.6-2.1,4.9
		c-1.4,1.4-3.1,2-5,2c-1.7,0-3.3-0.6-4.7-1.8C349.9,375.3,349.1,373.6,349.1,371.4z M351.2,371.4c0,1.5,0.5,2.7,1.5,3.7
		s2.1,1.4,3.4,1.4c1.4,0,2.6-0.5,3.6-1.5s1.5-2.2,1.5-3.6c0-1.4-0.5-2.6-1.4-3.6c-1-1-2.1-1.5-3.5-1.5s-2.6,0.5-3.6,1.5
		S351.2,370,351.2,371.4z"/>
	<path fill="#4D4D4D" d="M383.7,364.7l3.7,9.3l3.8-9.3h2.2l-6,14.5l-5.9-14.5H383.7z"/>
	<path fill="#4D4D4D" d="M419.8,374.9H414l-1.5,3.3h-2.2l6.7-14.3l6.4,14.3h-2.2L419.8,374.9z M418.9,373l-2-4.6l-2.1,4.6H418.9z"/>
	<path fill="#4D4D4D" d="M445.9,366.6v11.6h-2v-11.6h-3.1v-1.9h8.2v1.9H445.9z"/>
	<path fill="#4D4D4D" d="M470.7,364.7v13.5h-2v-13.5H470.7z"/>
	<path fill="#4D4D4D" d="M491.2,371.4c0-1.9,0.7-3.5,2.1-4.9s3-2,5-2c1.9,0,3.6,0.7,4.9,2.1c1.4,1.4,2.1,3,2.1,4.9s-0.7,3.6-2.1,4.9
		c-1.4,1.4-3.1,2-5,2c-1.7,0-3.3-0.6-4.7-1.8C491.9,375.3,491.2,373.6,491.2,371.4z M493.2,371.4c0,1.5,0.5,2.7,1.5,3.7
		s2.1,1.4,3.4,1.4c1.4,0,2.6-0.5,3.6-1.5s1.5-2.2,1.5-3.6c0-1.4-0.5-2.6-1.4-3.6c-1-1-2.1-1.5-3.5-1.5s-2.6,0.5-3.6,1.5
		S493.2,370,493.2,371.4z"/>
	<path fill="#4D4D4D" d="M525.7,378.2v-14.4l9.8,10.3v-9.4h2V379l-9.8-10.3v9.4h-2V378.2z"/>
	<path fill="#4D4D4D" d="M566.2,366.7l-1.6,1c-0.3-0.5-0.6-0.9-0.9-1c-0.3-0.2-0.7-0.3-1.1-0.3c-0.6,0-1,0.2-1.4,0.5
		s-0.6,0.7-0.6,1.2c0,0.7,0.5,1.2,1.5,1.6l1.3,0.5c1.1,0.4,1.9,1,2.4,1.6c0.5,0.6,0.8,1.4,0.8,2.3c0,1.2-0.4,2.3-1.2,3.1
		s-1.9,1.2-3.1,1.2c-1.2,0-2.1-0.3-2.9-1c-0.8-0.7-1.2-1.7-1.4-2.9l2.1-0.5c0.1,0.8,0.3,1.3,0.5,1.6c0.4,0.6,1,0.9,1.8,0.9
		c0.6,0,1.2-0.2,1.6-0.6c0.4-0.4,0.6-1,0.6-1.6c0-0.3,0-0.5-0.1-0.7s-0.2-0.4-0.3-0.6c-0.2-0.2-0.4-0.4-0.6-0.5
		c-0.2-0.2-0.5-0.3-0.9-0.5l-1.3-0.5c-1.8-0.8-2.8-1.9-2.8-3.4c0-1,0.4-1.9,1.2-2.5c0.8-0.7,1.7-1,2.9-1
		C564.2,364.5,565.4,365.2,566.2,366.7z"/>
</g>
</svg>
