<?xml version="1.0" encoding="utf-8"?>
<!-- Generator: Adobe Illustrator 18.1.0, SVG Export Plug-In . SVG Version: 6.00 Build 0)  -->
<svg version="1.1" id="Layer_1" xmlns="http://www.w3.org/2000/svg" xmlns:xlink="http://www.w3.org/1999/xlink" x="0px" y="0px"
	 viewBox="0 0 800 100" enable-background="new 0 0 800 100" xml:space="preserve">
<path fill="#4D4D4D" d="M86.9,16.5c18.4,0,33.5,15.1,33.5,33.5s-15.1,33.5-33.5,33.5S53.4,68.4,53.4,50S68.5,16.5,86.9,16.5z"/>
<path fill="#BBBDBF" d="M243.7,16.5c18.4,0,33.5,15.1,33.5,33.5s-15.1,33.5-33.5,33.5S210.2,68.4,210.2,50S225.3,16.5,243.7,16.5z"
	/>
<path fill="#F47E20" d="M400.5,16.5c18.4,0,33.5,15.1,33.5,33.5s-15.1,33.5-33.5,33.5S367,68.4,367,50S382.1,16.5,400.5,16.5z"/>
<g>
	<path fill="#FFFFFF" d="M714.1,16.5c18.4,0,33.5,15.1,33.5,33.5s-15.1,33.5-33.5,33.5S680.6,68.4,680.6,50S695.6,16.5,714.1,16.5z"
		/>
	<path fill="none" stroke="#BBBDBF" d="M714.1,16.5c18.4,0,33.5,15.1,33.5,33.5s-15.1,33.5-33.5,33.5S680.6,68.4,680.6,50
		S695.6,16.5,714.1,16.5z"/>
</g>
<path fill="#FCB912" d="M557.3,16.5c18.4,0,33.5,15.1,33.5,33.5s-15.1,33.5-33.5,33.5c-18.4,0-33.5-15.1-33.5-33.5
	S538.8,16.5,557.3,16.5z"/>
</svg>
