<?xml version="1.0" encoding="utf-8"?>
<!-- Generator: Adobe Illustrator 18.1.0, SVG Export Plug-In . SVG Version: 6.00 Build 0)  -->
<svg version="1.1" id="Layer_1" xmlns="http://www.w3.org/2000/svg" xmlns:xlink="http://www.w3.org/1999/xlink" x="0px" y="0px"
	 viewBox="0 0 800 316" enable-background="new 0 0 800 316" xml:space="preserve">
<rect x="339.5" y="217" fill="#F0F0F0" width="460" height="97.6"/>
<g>
	<rect x="465.4" y="262" fill="#AFAFAF" width="5.7" height="13.6"/>
	<rect x="474.5" y="255.7" fill="#AFAFAF" width="5.7" height="19.9"/>
	<rect x="456.5" y="268.3" fill="#AFAFAF" width="5.7" height="7.3"/>
</g>
<g>
	<path fill="#AFAFAF" d="M397.3,256.8c-3.7,1.2-6.3,4.7-6.3,8.8c0,5.1,4.1,9.2,9.2,9.2c3.1,0,5.8-1.5,7.4-3.8l-8.2-4.7L397.3,256.8z
		"/>
	<path fill="#AFAFAF" d="M405.6,253c-1.1-0.4-2.3-0.7-3.6-0.7c-1.1,0-2.2,0.2-3.2,0.5l2.3,10.4L405.6,253z"/>
	<path fill="#AFAFAF" d="M407.1,255.4l-4.6,10.4l9.1,5.2c1.2-1.7,2-3.8,2-6.1C413.6,260.6,410.9,256.9,407.1,255.4z"/>
</g>
<g>
	<g>
		<path fill="#AFAFAF" d="M677.8,253.9v3.1h-22.4v-3.1H677.8 M678.5,253.2h-23.8v4.5h23.8V253.2L678.5,253.2z"/>
	</g>
	<rect x="654.8" y="259.7" fill="#AFAFAF" width="7.1" height="4.2"/>
	<rect x="663.2" y="259.7" fill="#AFAFAF" width="7" height="4.2"/>
	<rect x="671.5" y="259.7" fill="#AFAFAF" width="7" height="4.2"/>
	<rect x="654.8" y="265.4" fill="#AFAFAF" width="7.1" height="4.2"/>
	<rect x="663.2" y="265.5" fill="#AFAFAF" width="7" height="4.2"/>
	<rect x="671.5" y="265.5" fill="#AFAFAF" width="7" height="4.2"/>
	<rect x="654.8" y="271.4" fill="#AFAFAF" width="7.1" height="4.2"/>
	<rect x="663.2" y="271.4" fill="#AFAFAF" width="7" height="4.2"/>
	<rect x="671.5" y="271.4" fill="#AFAFAF" width="7" height="4.2"/>
</g>
<g>
	<path fill="#42BC4E" d="M589.6,264.9l1.6,0.4l1.2-1.9l-2.3-0.6c-0.6-0.1-1.2,0.2-1.3,0.8C588.7,264.1,589,264.7,589.6,264.9z
		 M610.5,265.2l-5.3,4.7l-6.2-4.8c-0.1-0.1-0.3-0.2-0.4-0.2l-0.8-0.2l-1.2,1.9l1.3,0.3l6.7,5.2c0.2,0.1,0.4,0.2,0.7,0.2
		c0.3,0,0.5-0.1,0.7-0.3l5.9-5.3c0.4-0.4,0.5-1.1,0.1-1.5C611.7,264.8,611,264.8,610.5,265.2z M599,260l5.8,3.7
		c0.5,0.3,1.1,0.2,1.5-0.3l5.9-8.5c0.3-0.5,0.2-1.1-0.3-1.5c-0.5-0.3-1.2-0.2-1.5,0.3l-5.3,7.7l-5.8-3.7c-0.2-0.2-0.5-0.2-0.8-0.1
		c-0.3,0.1-0.5,0.2-0.7,0.5l-8.8,13.9c-0.3,0.5-0.2,1.2,0.3,1.5c0.2,0.1,0.4,0.2,0.6,0.2c0.4,0,0.7-0.2,0.9-0.5L599,260z"/>
</g>
<g>
	<rect x="531.4" y="270.2" fill="#AFAFAF" width="5.7" height="5.4"/>
	<rect x="540.6" y="266.9" fill="#AFAFAF" width="5.7" height="8.7"/>
	<rect x="522.6" y="273.2" fill="#AFAFAF" width="5.7" height="2.4"/>
	<g>
		<path fill="#AFAFAF" d="M536.2,263.4v4.7h-3.8v-4.7H536.2 M537.1,262.5h-5.7v6.6h5.7V262.5L537.1,262.5z"/>
	</g>
	<g>
		<path fill="#AFAFAF" d="M545.4,256.9v7.9h-3.8v-7.9H545.4 M546.3,255.9h-5.7v9.8h5.7V255.9L546.3,255.9z"/>
	</g>
	<g>
		<path fill="#AFAFAF" d="M527.4,269.6v1.7h-3.8v-1.7H527.4 M528.3,268.7h-5.7v3.6h5.7V268.7L528.3,268.7z"/>
	</g>
</g>
<g>
	<polygon fill="#AFAFAF" points="721.5,272.5 729.7,267 736.9,270.8 744,269.4 744,275 721.5,275 	"/>
	<polygon fill="#AFAFAF" points="721.5,269.4 729.7,263.9 736.9,267.7 744,266.3 744,253.2 737.1,259.4 729.8,256.9 721.5,264.7 	
		"/>
</g>
<g>
	<g>
		<path fill="#FFFFFF" d="M5.4,315.3c-2.6,0-4.6-2.1-4.6-4.6V5.6c0-2.6,2.1-4.6,4.6-4.6h255.1c2.6,0,4.6,2.1,4.6,4.6v305
			c0,2.6-2.1,4.6-4.6,4.6H5.4z"/>
		<path fill="#AFAFAF" d="M260.5,1.2c2.4,0,4.4,2,4.4,4.4v305c0,2.4-2,4.4-4.4,4.4H5.4C3,315,1,313,1,310.6V5.6c0-2.4,2-4.4,4.4-4.4
			H260.5 M260.5,0.7H5.4c-2.7,0-4.9,2.2-4.9,4.9v305c0,2.7,2.2,4.9,4.9,4.9h255.1c2.7,0,4.9-2.2,4.9-4.9V5.6
			C265.4,2.9,263.2,0.7,260.5,0.7L260.5,0.7z"/>
	</g>
	<path fill="#F0F0F0" d="M1,30.6v-25c0-2.4,2-4.4,4.4-4.4h255.1c2.4,0,4.4,2,4.4,4.4v25"/>
	<path fill="#F0F0F0" d="M264.9,274.3v36c0,2.4-2,4.4-4.4,4.4H5.4c-2.4,0-4.4-2-4.4-4.4v-36"/>
	<g>
		<g>
			<path fill="#444444" d="M18.4,20.6v-6l-2.4,6h-0.6l-2.4-6v6h-1.4v-7.8h1.9l2.1,5.4l2.1-5.4h1.9v7.8H18.4z"/>
			<path fill="#444444" d="M21,17.8c0-1.6,1.2-3,2.9-3c1.7,0,2.8,1.3,2.8,3.1v0.3h-4.4c0.1,0.8,0.7,1.6,1.8,1.6
				c0.6,0,1.2-0.2,1.6-0.6l0.6,0.8c-0.6,0.5-1.4,0.8-2.3,0.8C22.3,20.8,21,19.6,21,17.8z M23.9,15.8c-1,0-1.5,0.8-1.6,1.5h3.2
				C25.5,16.7,25,15.8,23.9,15.8z"/>
			<path fill="#444444" d="M27.4,19.9L28,19c0.4,0.4,1.2,0.8,1.9,0.8c0.7,0,1.1-0.3,1.1-0.8c0-1.1-3.4-0.3-3.4-2.5
				c0-0.9,0.8-1.7,2.2-1.7c1,0,1.7,0.3,2.2,0.8l-0.5,0.9c-0.3-0.4-1-0.7-1.7-0.7c-0.6,0-1,0.3-1,0.7c0,1,3.4,0.2,3.4,2.5
				c0,1-0.8,1.8-2.4,1.8C28.9,20.8,28,20.5,27.4,19.9z"/>
			<path fill="#444444" d="M33,19.9l0.6-0.9c0.4,0.4,1.2,0.8,1.9,0.8c0.7,0,1.1-0.3,1.1-0.8c0-1.1-3.4-0.3-3.4-2.5
				c0-0.9,0.8-1.7,2.2-1.7c1,0,1.7,0.3,2.2,0.8L37,16.5c-0.3-0.4-1-0.7-1.7-0.7c-0.6,0-1,0.3-1,0.7c0,1,3.4,0.2,3.4,2.5
				c0,1-0.8,1.8-2.4,1.8C34.4,20.8,33.5,20.5,33,19.9z"/>
			<path fill="#444444" d="M42.4,20.6V20c-0.4,0.5-1.1,0.8-1.8,0.8c-0.9,0-2-0.6-2-1.9c0-1.3,1-1.9,2-1.9c0.8,0,1.4,0.2,1.8,0.7
				v-0.8c0-0.7-0.6-1.1-1.3-1.1c-0.6,0-1.2,0.2-1.7,0.7l-0.5-0.9c0.7-0.6,1.5-0.9,2.4-0.9c1.3,0,2.4,0.5,2.4,2v3.8H42.4z M42.4,19.3
				v-0.9c-0.3-0.4-0.8-0.6-1.3-0.6c-0.7,0-1.2,0.4-1.2,1c0,0.6,0.5,1,1.2,1C41.6,19.9,42.2,19.7,42.4,19.3z"/>
			<path fill="#444444" d="M45.2,22.1l0.6-0.9c0.5,0.5,1.1,0.7,1.8,0.7c0.8,0,1.7-0.4,1.7-1.6v-0.6c-0.4,0.6-1.1,1-1.8,1
				c-1.4,0-2.5-1-2.5-2.9c0-1.8,1-2.9,2.5-2.9c0.7,0,1.4,0.3,1.8,0.9V15h1.2v5.4c0,2-1.5,2.6-2.9,2.6C46.6,22.9,45.9,22.7,45.2,22.1
				z M49.3,18.8v-2.1c-0.3-0.4-0.9-0.8-1.5-0.8c-1,0-1.6,0.7-1.6,1.8c0,1.1,0.6,1.8,1.6,1.8C48.4,19.5,49,19.2,49.3,18.8z"/>
			<path fill="#444444" d="M51.7,17.8c0-1.6,1.2-3,2.9-3c1.7,0,2.8,1.3,2.8,3.1v0.3H53c0.1,0.8,0.7,1.6,1.8,1.6
				c0.6,0,1.2-0.2,1.6-0.6l0.6,0.8c-0.6,0.5-1.4,0.8-2.3,0.8C53,20.8,51.7,19.6,51.7,17.8z M54.6,15.8c-1,0-1.5,0.8-1.6,1.5h3.2
				C56.2,16.7,55.7,15.8,54.6,15.8z"/>
			<path fill="#444444" d="M63.5,20.6V14h-2.4v-1.2h6.1V14h-2.4v6.6H63.5z"/>
			<path fill="#444444" d="M68.3,13.5c0-0.4,0.3-0.8,0.8-0.8c0.4,0,0.8,0.3,0.8,0.8c0,0.4-0.3,0.8-0.8,0.8
				C68.6,14.3,68.3,13.9,68.3,13.5z M68.4,20.6V15h1.2v5.7H68.4z"/>
			<path fill="#444444" d="M71.5,19.3V16h-0.9V15h0.9v-1.5h1.2V15h1.2V16h-1.2v3c0,0.4,0.2,0.7,0.5,0.7c0.2,0,0.4-0.1,0.5-0.2
				l0.3,0.9c-0.2,0.2-0.6,0.4-1.2,0.4C72,20.8,71.5,20.3,71.5,19.3z"/>
			<path fill="#444444" d="M75,20.6v-7.8h1.2v7.8H75z"/>
			<path fill="#444444" d="M77.5,17.8c0-1.6,1.2-3,2.9-3c1.7,0,2.8,1.3,2.8,3.1v0.3h-4.4c0.1,0.8,0.7,1.6,1.8,1.6
				c0.6,0,1.2-0.2,1.6-0.6l0.6,0.8c-0.6,0.5-1.4,0.8-2.3,0.8C78.7,20.8,77.5,19.6,77.5,17.8z M80.3,15.8c-1,0-1.5,0.8-1.6,1.5h3.2
				C81.9,16.7,81.4,15.8,80.3,15.8z"/>
		</g>
	</g>
	<g>
		<g>
			<path fill="#444444" d="M18.1,52.6v-7.2h-2.6v-0.9h6.1v0.9h-2.6v7.2H18.1z"/>
			<path fill="#444444" d="M26.9,52.6v-3.9c0-1-0.5-1.3-1.3-1.3c-0.7,0-1.4,0.4-1.7,0.9v4.3H23v-8.1h0.9v3.1c0.4-0.5,1.2-1,2.1-1
				c1.2,0,1.9,0.6,1.9,1.9v4.1H26.9z"/>
			<path fill="#444444" d="M29.5,45.3c0-0.3,0.3-0.6,0.6-0.6s0.6,0.3,0.6,0.6c0,0.3-0.3,0.6-0.6,0.6S29.5,45.7,29.5,45.3z
				 M29.6,52.6v-5.9h0.9v5.9H29.6z"/>
			<path fill="#444444" d="M31.9,51.9l0.5-0.7c0.4,0.4,1.1,0.8,1.9,0.8c0.9,0,1.4-0.4,1.4-1c0-1.4-3.6-0.5-3.6-2.7
				c0-0.9,0.8-1.7,2.2-1.7c1,0,1.7,0.4,2.2,0.8l-0.4,0.6c-0.4-0.4-1-0.7-1.7-0.7c-0.8,0-1.3,0.4-1.3,0.9c0,1.3,3.6,0.4,3.6,2.7
				c0,1-0.8,1.8-2.3,1.8C33.3,52.8,32.5,52.5,31.9,51.9z"/>
			<path fill="#444444" d="M41,45.3c0-0.3,0.3-0.6,0.6-0.6s0.6,0.3,0.6,0.6c0,0.3-0.3,0.6-0.6,0.6S41,45.7,41,45.3z M41.1,52.6v-5.9
				H42v5.9H41.1z"/>
			<path fill="#444444" d="M43.4,51.9l0.5-0.7c0.4,0.4,1.1,0.8,1.9,0.8c0.9,0,1.4-0.4,1.4-1c0-1.4-3.6-0.5-3.6-2.7
				c0-0.9,0.8-1.7,2.2-1.7c1,0,1.7,0.4,2.2,0.8l-0.4,0.6c-0.4-0.4-1-0.7-1.7-0.7c-0.8,0-1.3,0.4-1.3,0.9c0,1.3,3.6,0.4,3.6,2.7
				c0,1-0.8,1.8-2.3,1.8C44.8,52.8,44,52.5,43.4,51.9z"/>
			<path fill="#444444" d="M57.7,52.6l-1.5-4.7l-1.5,4.7h-0.9l-1.9-5.9h0.9l1.4,4.7l1.5-4.7h0.8l1.5,4.7l1.4-4.7h1l-1.9,5.9H57.7z"
				/>
			<path fill="#444444" d="M65.5,52.6v-3.9c0-1-0.5-1.3-1.3-1.3c-0.7,0-1.4,0.4-1.7,0.9v4.3h-0.9v-8.1h0.9v3.1c0.4-0.5,1.2-1,2.1-1
				c1.2,0,1.9,0.6,1.9,1.9v4.1H65.5z"/>
			<path fill="#444444" d="M71.9,52.6V52c-0.5,0.5-1.2,0.8-1.9,0.8c-1,0-2-0.7-2-1.9c0-1.3,1-1.9,2-1.9c0.8,0,1.5,0.3,1.9,0.8v-1.1
				c0-0.8-0.6-1.2-1.5-1.2c-0.7,0-1.3,0.2-1.8,0.8l-0.4-0.6c0.6-0.7,1.4-1,2.3-1c1.2,0,2.3,0.6,2.3,2v4H71.9z M71.9,51.4v-1.1
				c-0.4-0.5-1-0.7-1.6-0.7c-0.9,0-1.5,0.5-1.5,1.3c0,0.8,0.6,1.3,1.5,1.3C70.9,52.1,71.5,51.9,71.9,51.4z"/>
			<path fill="#444444" d="M74.8,51.4v-3.8h-1v-0.8h1v-1.6h0.9v1.6h1.2v0.8h-1.2v3.6c0,0.4,0.2,0.8,0.6,0.8c0.3,0,0.5-0.1,0.6-0.3
				l0.3,0.7c-0.2,0.2-0.6,0.4-1.1,0.4C75.2,52.8,74.8,52.3,74.8,51.4z"/>
			<path fill="#444444" d="M81.3,52.6v-8.1h0.9v3.1c0.5-0.6,1.2-1,2-1c1.5,0,2.6,1.2,2.6,3.1c0,1.9-1.1,3.1-2.6,3.1
				c-0.8,0-1.5-0.4-2-1v0.9H81.3z M84,52c1.2,0,1.9-1,1.9-2.3c0-1.3-0.7-2.3-1.9-2.3c-0.7,0-1.4,0.4-1.8,0.9V51
				C82.5,51.6,83.2,52,84,52z"/>
			<path fill="#444444" d="M87.9,49.7c0-1.7,1.1-3.1,2.9-3.1s2.9,1.4,2.9,3.1s-1.1,3.1-2.9,3.1S87.9,51.4,87.9,49.7z M92.8,49.7
				c0-1.2-0.7-2.3-1.9-2.3s-1.9,1.1-1.9,2.3c0,1.2,0.7,2.3,1.9,2.3S92.8,50.9,92.8,49.7z"/>
			<path fill="#444444" d="M99.4,52.6v-0.9c-0.4,0.6-1.2,1-2,1c-1.5,0-2.6-1.2-2.6-3.1c0-1.9,1.1-3.1,2.6-3.1c0.8,0,1.5,0.4,2,1
				v-3.1h0.9v8.1H99.4z M99.4,51v-2.6c-0.3-0.5-1-0.9-1.7-0.9c-1.2,0-1.9,1-1.9,2.3c0,1.3,0.7,2.3,1.9,2.3
				C98.4,52,99.1,51.5,99.4,51z"/>
			<path fill="#444444" d="M102,54.1c0.1,0.1,0.4,0.1,0.5,0.1c0.4,0,0.7-0.1,0.9-0.6l0.4-0.9l-2.4-5.9h1l1.9,4.8l2-4.8h1l-2.9,7
				c-0.4,0.8-0.9,1.2-1.7,1.2c-0.2,0-0.5,0-0.7-0.1L102,54.1z"/>
			<path fill="#444444" d="M110.9,49.7c0-1.7,1.2-3.1,2.9-3.1c1.1,0,1.7,0.4,2.1,1l-0.6,0.5c-0.4-0.5-0.9-0.8-1.5-0.8
				c-1.2,0-2,1-2,2.3c0,1.3,0.8,2.3,2,2.3c0.6,0,1.1-0.2,1.5-0.8l0.6,0.6c-0.4,0.6-1.1,1-2.1,1C112.1,52.8,110.9,51.4,110.9,49.7z"
				/>
			<path fill="#444444" d="M116.9,49.7c0-1.7,1.1-3.1,2.9-3.1s2.9,1.4,2.9,3.1s-1.1,3.1-2.9,3.1S116.9,51.4,116.9,49.7z M121.7,49.7
				c0-1.2-0.7-2.3-1.9-2.3s-1.9,1.1-1.9,2.3c0,1.2,0.7,2.3,1.9,2.3S121.7,50.9,121.7,49.7z"/>
			<path fill="#444444" d="M125.1,51.8v3.1h-0.9v-8.1h0.9v0.9c0.4-0.6,1.2-1,2-1c1.5,0,2.6,1.2,2.6,3.1c0,1.9-1.1,3.1-2.6,3.1
				C126.2,52.8,125.6,52.4,125.1,51.8z M128.7,49.7c0-1.3-0.7-2.3-1.9-2.3c-0.7,0-1.4,0.4-1.7,0.9V51c0.3,0.5,1,0.9,1.7,0.9
				C128,52,128.7,51,128.7,49.7z"/>
			<path fill="#444444" d="M130.9,54.1c0.1,0.1,0.4,0.1,0.5,0.1c0.4,0,0.7-0.1,0.9-0.6l0.4-0.9l-2.4-5.9h1l1.9,4.8l2-4.8h1l-2.9,7
				c-0.4,0.8-0.9,1.2-1.7,1.2c-0.2,0-0.5,0-0.7-0.1L130.9,54.1z"/>
			<path fill="#444444" d="M140,45.3c0-0.3,0.3-0.6,0.6-0.6s0.6,0.3,0.6,0.6c0,0.3-0.3,0.6-0.6,0.6S140,45.7,140,45.3z M140.2,52.6
				v-5.9h0.9v5.9H140.2z"/>
			<path fill="#444444" d="M146.9,52.6v-3.8c0-1-0.5-1.4-1.3-1.4c-0.7,0-1.4,0.4-1.7,0.9v4.3h-0.9v-5.9h0.9v0.8c0.4-0.5,1.2-1,2.1-1
				c1.2,0,1.9,0.6,1.9,1.9v4.1H146.9z"/>
			<path fill="#444444" d="M149.1,51.9l0.5-0.7c0.4,0.4,1.1,0.8,1.9,0.8c0.9,0,1.4-0.4,1.4-1c0-1.4-3.6-0.5-3.6-2.7
				c0-0.9,0.8-1.7,2.2-1.7c1,0,1.7,0.4,2.2,0.8l-0.4,0.6c-0.4-0.4-1-0.7-1.7-0.7c-0.8,0-1.3,0.4-1.3,0.9c0,1.3,3.6,0.4,3.6,2.7
				c0,1-0.8,1.8-2.3,1.8C150.5,52.8,149.7,52.5,149.1,51.9z"/>
			<path fill="#444444" d="M155.1,45.3c0-0.3,0.3-0.6,0.6-0.6s0.6,0.3,0.6,0.6c0,0.3-0.3,0.6-0.6,0.6S155.1,45.7,155.1,45.3z
				 M155.2,52.6v-5.9h0.9v5.9H155.2z"/>
			<path fill="#444444" d="M162.2,52.6v-0.9c-0.4,0.6-1.2,1-2,1c-1.5,0-2.6-1.2-2.6-3.1c0-1.9,1.1-3.1,2.6-3.1c0.8,0,1.5,0.4,2,1
				v-3.1h0.9v8.1H162.2z M162.2,51v-2.6c-0.3-0.5-1-0.9-1.7-0.9c-1.2,0-1.9,1-1.9,2.3c0,1.3,0.7,2.3,1.9,2.3
				C161.1,52,161.9,51.5,162.2,51z"/>
			<path fill="#444444" d="M164.6,49.7c0-1.7,1.2-3.1,2.9-3.1c1.8,0,2.8,1.4,2.8,3.1V50h-4.7c0.1,1.1,0.8,2,2.1,2
				c0.7,0,1.3-0.3,1.8-0.8l0.4,0.6c-0.6,0.6-1.4,0.9-2.3,0.9C165.8,52.8,164.6,51.5,164.6,49.7z M167.4,47.4c-1.2,0-1.9,1.1-1.9,1.9
				h3.8C169.3,48.5,168.8,47.4,167.4,47.4z"/>
			<path fill="#444444" d="M174.5,49.7c0-1.7,1.1-3.1,2.9-3.1s2.9,1.4,2.9,3.1s-1.1,3.1-2.9,3.1S174.5,51.4,174.5,49.7z M179.4,49.7
				c0-1.2-0.7-2.3-1.9-2.3s-1.9,1.1-1.9,2.3c0,1.2,0.7,2.3,1.9,2.3S179.4,50.9,179.4,49.7z"/>
			<path fill="#444444" d="M182,52.6v-5.1h-1v-0.8h1v-0.4c0-1.2,0.7-1.9,1.7-1.9c0.5,0,0.9,0.1,1.2,0.4l-0.4,0.6
				c-0.2-0.2-0.4-0.3-0.7-0.3c-0.6,0-0.9,0.4-0.9,1.2v0.4h1.2v0.8h-1.2v5.1H182z"/>
			<path fill="#444444" d="M192,52.6V52c-0.5,0.5-1.2,0.8-1.9,0.8c-1,0-2-0.7-2-1.9c0-1.3,1-1.9,2-1.9c0.8,0,1.5,0.3,1.9,0.8v-1.1
				c0-0.8-0.6-1.2-1.5-1.2c-0.7,0-1.3,0.2-1.8,0.8l-0.4-0.6c0.6-0.7,1.4-1,2.3-1c1.2,0,2.3,0.6,2.3,2v4H192z M192,51.4v-1.1
				c-0.4-0.5-1-0.7-1.6-0.7c-0.9,0-1.5,0.5-1.5,1.3c0,0.8,0.6,1.3,1.5,1.3C191.1,52.1,191.7,51.9,192,51.4z"/>
			<path fill="#444444" d="M205,52.6v-4c0-0.7-0.3-1.2-1.1-1.2c-0.6,0-1.2,0.4-1.6,0.9v4.3h-0.9v-4c0-0.7-0.3-1.2-1.1-1.2
				c-0.6,0-1.2,0.4-1.5,0.9v4.3h-0.9v-5.9h0.9v0.8c0.3-0.4,1-1,1.9-1c0.9,0,1.4,0.5,1.6,1.1c0.3-0.5,1.1-1.1,2-1.1
				c1.1,0,1.6,0.6,1.6,1.8v4.2H205z"/>
			<path fill="#444444" d="M207.3,49.7c0-1.7,1.1-3.1,2.9-3.1s2.9,1.4,2.9,3.1s-1.1,3.1-2.9,3.1S207.3,51.4,207.3,49.7z M212.2,49.7
				c0-1.2-0.7-2.3-1.9-2.3s-1.9,1.1-1.9,2.3c0,1.2,0.7,2.3,1.9,2.3S212.2,50.9,212.2,49.7z"/>
			<path fill="#444444" d="M218.9,52.6v-0.9c-0.4,0.6-1.2,1-2,1c-1.5,0-2.6-1.2-2.6-3.1c0-1.9,1.1-3.1,2.6-3.1c0.8,0,1.5,0.4,2,1
				v-3.1h0.9v8.1H218.9z M218.9,51v-2.6c-0.3-0.5-1-0.9-1.7-0.9c-1.2,0-1.9,1-1.9,2.3c0,1.3,0.7,2.3,1.9,2.3
				C217.8,52,218.5,51.5,218.9,51z"/>
			<path fill="#444444" d="M225.2,52.6V52c-0.5,0.5-1.2,0.8-1.9,0.8c-1,0-2-0.7-2-1.9c0-1.3,1-1.9,2-1.9c0.8,0,1.5,0.3,1.9,0.8v-1.1
				c0-0.8-0.6-1.2-1.5-1.2c-0.7,0-1.3,0.2-1.8,0.8l-0.4-0.6c0.6-0.7,1.4-1,2.3-1c1.2,0,2.3,0.6,2.3,2v4H225.2z M225.2,51.4v-1.1
				c-0.4-0.5-1-0.7-1.6-0.7c-0.9,0-1.5,0.5-1.5,1.3c0,0.8,0.6,1.3,1.5,1.3C224.3,52.1,224.9,51.9,225.2,51.4z"/>
			<path fill="#444444" d="M228,52.6v-8.1h0.9v8.1H228z"/>
			<path fill="#444444" d="M21.1,67.2l-1.5-4.7l-1.5,4.7h-0.9l-1.9-5.9h0.9l1.4,4.7l1.5-4.7H20l1.5,4.7l1.4-4.7h1L22,67.2H21.1z"/>
			<path fill="#444444" d="M24.8,59.9c0-0.3,0.3-0.6,0.6-0.6s0.6,0.3,0.6,0.6c0,0.3-0.3,0.6-0.6,0.6S24.8,60.2,24.8,59.9z
				 M24.9,67.2v-5.9h0.9v5.9H24.9z"/>
			<path fill="#444444" d="M27.7,67.2v-8.1h0.9v8.1H27.7z"/>
			<path fill="#444444" d="M30.4,67.2v-8.1h0.9v8.1H30.4z"/>
			<path fill="#444444" d="M36.2,67.2v-8.1h0.9v8.1H36.2z"/>
			<path fill="#444444" d="M38.6,64.2c0-1.7,1.1-3.1,2.9-3.1s2.9,1.4,2.9,3.1s-1.1,3.1-2.9,3.1S38.6,65.9,38.6,64.2z M43.5,64.2
				c0-1.2-0.7-2.3-1.9-2.3s-1.9,1.1-1.9,2.3c0,1.2,0.7,2.3,1.9,2.3S43.5,65.4,43.5,64.2z"/>
			<path fill="#444444" d="M45.6,64.2c0-1.7,1.1-3.1,2.9-3.1s2.9,1.4,2.9,3.1s-1.1,3.1-2.9,3.1S45.6,65.9,45.6,64.2z M50.4,64.2
				c0-1.2-0.7-2.3-1.9-2.3s-1.9,1.1-1.9,2.3c0,1.2,0.7,2.3,1.9,2.3S50.4,65.4,50.4,64.2z"/>
			<path fill="#444444" d="M56.8,67.2l-2.1-2.6l-1,1v1.7h-0.9v-8.1h0.9v5.3l3.1-3.1H58L55.4,64l2.6,3.2H56.8z"/>
			<path fill="#444444" d="M62.2,67.2v-8.1h0.9v8.1H62.2z"/>
			<path fill="#444444" d="M64.8,59.9c0-0.3,0.3-0.6,0.6-0.6s0.6,0.3,0.6,0.6c0,0.3-0.3,0.6-0.6,0.6S64.8,60.2,64.8,59.9z
				 M64.9,67.2v-5.9h0.9v5.9H64.9z"/>
			<path fill="#444444" d="M71.6,67.2l-2.1-2.6l-1,1v1.7h-0.9v-8.1h0.9v5.3l3.1-3.1h1.2L70.2,64l2.6,3.2H71.6z"/>
			<path fill="#444444" d="M73.5,64.2c0-1.7,1.2-3.1,2.9-3.1c1.8,0,2.8,1.4,2.8,3.1v0.2h-4.7c0.1,1.1,0.8,2,2.1,2
				c0.7,0,1.3-0.3,1.8-0.8l0.4,0.6c-0.6,0.6-1.4,0.9-2.3,0.9C74.7,67.3,73.5,66.1,73.5,64.2z M76.4,61.9c-1.2,0-1.9,1.1-1.9,1.9h3.8
				C78.3,63,77.7,61.9,76.4,61.9z"/>
			<path fill="#444444" d="M80.4,66.6c0-0.4,0.3-0.7,0.7-0.7s0.7,0.3,0.7,0.7s-0.3,0.7-0.7,0.7S80.4,67,80.4,66.6z"/>
			<path fill="#444444" d="M86.1,66l0.6-0.8c0.5,0.6,1.4,1.2,2.5,1.2c1.4,0,1.9-0.8,1.9-1.4c0-2.1-4.8-0.9-4.8-3.8
				c0-1.3,1.2-2.3,2.8-2.3c1.2,0,2.2,0.4,2.9,1.1l-0.6,0.7c-0.6-0.7-1.5-1-2.3-1c-1,0-1.7,0.5-1.7,1.3c0,1.8,4.8,0.8,4.8,3.8
				c0,1.2-0.8,2.4-3,2.4C87.8,67.3,86.7,66.8,86.1,66z"/>
			<path fill="#444444" d="M93.3,64.2c0-1.7,1.1-3.1,2.9-3.1s2.9,1.4,2.9,3.1s-1.1,3.1-2.9,3.1S93.3,65.9,93.3,64.2z M98.1,64.2
				c0-1.2-0.7-2.3-1.9-2.3s-1.9,1.1-1.9,2.3c0,1.2,0.7,2.3,1.9,2.3S98.1,65.4,98.1,64.2z"/>
			<path fill="#444444" d="M104.2,67.2v-0.7c-0.5,0.5-1.2,0.8-1.9,0.8c-1,0-2-0.7-2-1.9c0-1.3,1-1.9,2-1.9c0.8,0,1.5,0.3,1.9,0.8
				v-1.1c0-0.8-0.6-1.2-1.5-1.2c-0.7,0-1.3,0.2-1.8,0.8l-0.4-0.6c0.6-0.7,1.4-1,2.3-1c1.2,0,2.3,0.6,2.3,2v4H104.2z M104.2,65.9
				v-1.1c-0.4-0.5-1-0.7-1.6-0.7c-0.9,0-1.5,0.5-1.5,1.3c0,0.8,0.6,1.3,1.5,1.3C103.2,66.7,103.8,66.4,104.2,65.9z"/>
			<path fill="#444444" d="M110.9,67.2l-2.1-2.6l-1,1v1.7h-0.9v-8.1h0.9v5.3l3.1-3.1h1.2l-2.6,2.7l2.6,3.2H110.9z"/>
			<path fill="#444444" d="M116.1,59.9c0-0.3,0.3-0.6,0.6-0.6s0.6,0.3,0.6,0.6c0,0.3-0.3,0.6-0.6,0.6S116.1,60.2,116.1,59.9z
				 M116.3,67.2v-5.9h0.9v5.9H116.3z"/>
			<path fill="#444444" d="M123,67.2v-3.8c0-1-0.5-1.4-1.3-1.4c-0.7,0-1.4,0.4-1.7,0.9v4.3H119v-5.9h0.9v0.8c0.4-0.5,1.2-1,2.1-1
				c1.2,0,1.9,0.6,1.9,1.9v4.1H123z"/>
			<path fill="#444444" d="M128.3,66.4l0.5-0.7c0.4,0.4,1.1,0.8,1.9,0.8c0.9,0,1.4-0.4,1.4-1c0-1.4-3.6-0.5-3.6-2.7
				c0-0.9,0.8-1.7,2.2-1.7c1,0,1.7,0.4,2.2,0.8l-0.4,0.6c-0.4-0.4-1-0.7-1.7-0.7c-0.8,0-1.3,0.4-1.3,0.9c0,1.3,3.6,0.4,3.6,2.7
				c0,1-0.8,1.8-2.3,1.8C129.7,67.3,128.9,67,128.3,66.4z"/>
			<path fill="#444444" d="M134.1,64.2c0-1.7,1.1-3.1,2.9-3.1s2.9,1.4,2.9,3.1s-1.1,3.1-2.9,3.1S134.1,65.9,134.1,64.2z M139,64.2
				c0-1.2-0.7-2.3-1.9-2.3s-1.9,1.1-1.9,2.3c0,1.2,0.7,2.3,1.9,2.3S139,65.4,139,64.2z"/>
			<path fill="#444444" d="M148.5,67.2v-4c0-0.7-0.3-1.2-1.1-1.2c-0.6,0-1.2,0.4-1.6,0.9v4.3h-0.9v-4c0-0.7-0.3-1.2-1.1-1.2
				c-0.6,0-1.2,0.4-1.5,0.9v4.3h-0.9v-5.9h0.9v0.8c0.3-0.4,1-1,1.9-1c0.9,0,1.4,0.5,1.6,1.1c0.3-0.5,1.1-1.1,2-1.1
				c1.1,0,1.6,0.6,1.6,1.8v4.2H148.5z"/>
			<path fill="#444444" d="M150.8,64.2c0-1.7,1.2-3.1,2.9-3.1c1.8,0,2.8,1.4,2.8,3.1v0.2h-4.7c0.1,1.1,0.8,2,2.1,2
				c0.7,0,1.3-0.3,1.8-0.8l0.4,0.6c-0.6,0.6-1.4,0.9-2.3,0.9C152.1,67.3,150.8,66.1,150.8,64.2z M153.7,61.9c-1.2,0-1.9,1.1-1.9,1.9
				h3.8C155.6,63,155,61.9,153.7,61.9z"/>
			<path fill="#444444" d="M160.8,64.2c0-1.7,1.1-3.1,2.9-3.1s2.9,1.4,2.9,3.1s-1.1,3.1-2.9,3.1S160.8,65.9,160.8,64.2z M165.6,64.2
				c0-1.2-0.7-2.3-1.9-2.3s-1.9,1.1-1.9,2.3c0,1.2,0.7,2.3,1.9,2.3S165.6,65.4,165.6,64.2z"/>
			<path fill="#444444" d="M168.3,67.2v-5.1h-1v-0.8h1v-0.4c0-1.2,0.7-1.9,1.7-1.9c0.5,0,0.9,0.1,1.2,0.4l-0.4,0.6
				c-0.2-0.2-0.4-0.3-0.7-0.3c-0.6,0-0.9,0.4-0.9,1.2v0.4h1.2v0.8h-1.2v5.1H168.3z"/>
			<path fill="#444444" d="M174.8,65.9v-3.8h-1v-0.8h1v-1.6h0.9v1.6h1.2v0.8h-1.2v3.6c0,0.4,0.2,0.8,0.6,0.8c0.3,0,0.5-0.1,0.6-0.3
				l0.3,0.7c-0.2,0.2-0.6,0.4-1.1,0.4C175.3,67.3,174.8,66.8,174.8,65.9z"/>
			<path fill="#444444" d="M182.2,67.2v-3.9c0-1-0.5-1.3-1.3-1.3c-0.7,0-1.4,0.4-1.7,0.9v4.3h-0.9v-8.1h0.9v3.1c0.4-0.5,1.2-1,2.1-1
				c1.2,0,1.9,0.6,1.9,1.9v4.1H182.2z"/>
			<path fill="#444444" d="M188.6,67.2v-0.7c-0.5,0.5-1.2,0.8-1.9,0.8c-1,0-2-0.7-2-1.9c0-1.3,1-1.9,2-1.9c0.8,0,1.5,0.3,1.9,0.8
				v-1.1c0-0.8-0.6-1.2-1.5-1.2c-0.7,0-1.3,0.2-1.8,0.8l-0.4-0.6c0.6-0.7,1.4-1,2.3-1c1.2,0,2.3,0.6,2.3,2v4H188.6z M188.6,65.9
				v-1.1c-0.4-0.5-1-0.7-1.6-0.7c-0.9,0-1.5,0.5-1.5,1.3c0,0.8,0.6,1.3,1.5,1.3C187.6,66.7,188.2,66.4,188.6,65.9z"/>
			<path fill="#444444" d="M191.5,65.9v-3.8h-1v-0.8h1v-1.6h0.9v1.6h1.2v0.8h-1.2v3.6c0,0.4,0.2,0.8,0.6,0.8c0.3,0,0.5-0.1,0.6-0.3
				l0.3,0.7c-0.2,0.2-0.6,0.4-1.1,0.4C191.9,67.3,191.5,66.8,191.5,65.9z"/>
			<path fill="#444444" d="M205.1,67.2v-4c0-0.7-0.3-1.2-1.1-1.2c-0.6,0-1.2,0.4-1.6,0.9v4.3h-0.9v-4c0-0.7-0.3-1.2-1.1-1.2
				c-0.6,0-1.2,0.4-1.5,0.9v4.3H198v-5.9h0.9v0.8c0.3-0.4,1-1,1.9-1c0.9,0,1.4,0.5,1.6,1.1c0.3-0.5,1.1-1.1,2-1.1
				c1.1,0,1.6,0.6,1.6,1.8v4.2H205.1z"/>
			<path fill="#444444" d="M207.4,64.2c0-1.7,1.2-3.1,2.9-3.1c1.8,0,2.8,1.4,2.8,3.1v0.2h-4.7c0.1,1.1,0.8,2,2.1,2
				c0.7,0,1.3-0.3,1.8-0.8l0.4,0.6c-0.6,0.6-1.4,0.9-2.3,0.9C208.7,67.3,207.4,66.1,207.4,64.2z M210.3,61.9c-1.2,0-1.9,1.1-1.9,1.9
				h3.8C212.2,63,211.6,61.9,210.3,61.9z"/>
			<path fill="#444444" d="M214.1,66.4l0.5-0.7c0.4,0.4,1.1,0.8,1.9,0.8c0.9,0,1.4-0.4,1.4-1c0-1.4-3.6-0.5-3.6-2.7
				c0-0.9,0.8-1.7,2.2-1.7c1,0,1.7,0.4,2.2,0.8l-0.4,0.6c-0.4-0.4-1-0.7-1.7-0.7c-0.8,0-1.3,0.4-1.3,0.9c0,1.3,3.6,0.4,3.6,2.7
				c0,1-0.8,1.8-2.3,1.8C215.5,67.3,214.7,67,214.1,66.4z"/>
			<path fill="#444444" d="M219.7,66.4l0.5-0.7c0.4,0.4,1.1,0.8,1.9,0.8c0.9,0,1.4-0.4,1.4-1c0-1.4-3.6-0.5-3.6-2.7
				c0-0.9,0.8-1.7,2.2-1.7c1,0,1.7,0.4,2.2,0.8l-0.4,0.6c-0.4-0.4-1-0.7-1.7-0.7c-0.8,0-1.3,0.4-1.3,0.9c0,1.3,3.6,0.4,3.6,2.7
				c0,1-0.8,1.8-2.3,1.8C221.1,67.3,220.3,67,219.7,66.4z"/>
			<path fill="#444444" d="M229.5,67.2v-0.7c-0.5,0.5-1.2,0.8-1.9,0.8c-1,0-2-0.7-2-1.9c0-1.3,1-1.9,2-1.9c0.8,0,1.5,0.3,1.9,0.8
				v-1.1c0-0.8-0.6-1.2-1.5-1.2c-0.7,0-1.3,0.2-1.8,0.8l-0.4-0.6c0.6-0.7,1.4-1,2.3-1c1.2,0,2.3,0.6,2.3,2v4H229.5z M229.5,65.9
				v-1.1c-0.4-0.5-1-0.7-1.6-0.7c-0.9,0-1.5,0.5-1.5,1.3c0,0.8,0.6,1.3,1.5,1.3C228.5,66.7,229.2,66.4,229.5,65.9z"/>
			<path fill="#444444" d="M232.2,68.7l0.5-0.7c0.5,0.6,1.1,0.8,1.9,0.8c1,0,1.9-0.5,1.9-1.7v-0.9c-0.4,0.6-1.2,1-2,1
				c-1.5,0-2.6-1.1-2.6-3c0-1.9,1.1-3,2.6-3c0.8,0,1.5,0.4,2,1v-0.9h0.9v5.8c0,1.9-1.4,2.5-2.8,2.5
				C233.6,69.5,232.9,69.4,232.2,68.7z M236.5,65.5v-2.6c-0.3-0.5-1-0.9-1.7-0.9c-1.2,0-1.9,0.9-1.9,2.2c0,1.3,0.7,2.2,1.9,2.2
				C235.5,66.4,236.2,66,236.5,65.5z"/>
			<path fill="#444444" d="M238.9,64.2c0-1.7,1.2-3.1,2.9-3.1c1.8,0,2.8,1.4,2.8,3.1v0.2h-4.7c0.1,1.1,0.8,2,2.1,2
				c0.7,0,1.3-0.3,1.8-0.8l0.4,0.6c-0.6,0.6-1.4,0.9-2.3,0.9C240.1,67.3,238.9,66.1,238.9,64.2z M241.8,61.9c-1.2,0-1.9,1.1-1.9,1.9
				h3.8C243.7,63,243.1,61.9,241.8,61.9z"/>
			<path fill="#444444" d="M245.8,66.6c0-0.4,0.3-0.7,0.7-0.7s0.7,0.3,0.7,0.7s-0.3,0.7-0.7,0.7S245.8,67,245.8,66.6z"/>
			<path fill="#444444" d="M21.8,81.7l-4.7-6.4v6.4h-1v-8.1h1l4.7,6.3v-6.3h1v8.1H21.8z"/>
			<path fill="#444444" d="M24.3,78.8c0-1.7,1.1-3.1,2.9-3.1s2.9,1.4,2.9,3.1s-1.1,3.1-2.9,3.1S24.3,80.5,24.3,78.8z M29.1,78.8
				c0-1.2-0.7-2.3-1.9-2.3s-1.9,1.1-1.9,2.3c0,1.2,0.7,2.3,1.9,2.3S29.1,80,29.1,78.8z"/>
			<path fill="#444444" d="M36.6,81.7L35.1,77l-1.5,4.7h-0.9l-1.9-5.9h0.9l1.4,4.7l1.5-4.7h0.8l1.5,4.7l1.4-4.7h1l-1.9,5.9H36.6z"/>
			<path fill="#444444" d="M40.1,83.2l-0.5-0.4c0.4-0.3,0.7-0.7,0.8-1.1c0,0-0.1,0-0.2,0c-0.3,0-0.6-0.3-0.6-0.6
				c0-0.4,0.3-0.7,0.6-0.7c0.4,0,0.8,0.3,0.8,0.9C41.1,82.2,40.7,82.8,40.1,83.2z"/>
			<path fill="#444444" d="M45.8,81.7v-8.1h0.9v8.1H45.8z"/>
			<path fill="#444444" d="M48.2,78.8c0-1.7,1.2-3.1,2.9-3.1c1.8,0,2.8,1.4,2.8,3.1v0.2h-4.7c0.1,1.1,0.8,2,2.1,2
				c0.7,0,1.3-0.3,1.8-0.8l0.4,0.6c-0.6,0.6-1.4,0.9-2.3,0.9C49.5,81.9,48.2,80.6,48.2,78.8z M51.1,76.5c-1.2,0-1.9,1.1-1.9,1.9H53
				C53,77.5,52.4,76.5,51.1,76.5z"/>
			<path fill="#444444" d="M55.6,80.5v-3.8h-1v-0.8h1v-1.6h0.9v1.6h1.2v0.8h-1.2v3.6c0,0.4,0.2,0.8,0.6,0.8c0.3,0,0.5-0.1,0.6-0.3
				l0.3,0.7c-0.2,0.2-0.6,0.4-1.1,0.4C56,81.9,55.6,81.4,55.6,80.5z"/>
			<path fill="#444444" d="M59.2,76.3l-0.5-0.4c0.4-0.3,0.7-0.7,0.8-1.1c0,0-0.1,0-0.2,0c-0.3,0-0.6-0.3-0.6-0.6s0.3-0.7,0.6-0.7
				c0.4,0,0.8,0.3,0.8,0.9C60.2,75.2,59.7,75.9,59.2,76.3z"/>
			<path fill="#444444" d="M60.9,80.9l0.5-0.7c0.4,0.4,1.1,0.8,1.9,0.8c0.9,0,1.4-0.4,1.4-1c0-1.4-3.6-0.5-3.6-2.7
				c0-0.9,0.8-1.7,2.2-1.7c1,0,1.7,0.4,2.2,0.8l-0.4,0.6c-0.4-0.4-1-0.7-1.7-0.7c-0.8,0-1.3,0.4-1.3,0.9c0,1.3,3.6,0.4,3.6,2.7
				c0,1-0.8,1.8-2.3,1.8C62.3,81.9,61.5,81.5,60.9,80.9z"/>
			<path fill="#444444" d="M69.6,80.9l0.5-0.7c0.4,0.4,1.1,0.8,1.9,0.8c0.9,0,1.4-0.4,1.4-1c0-1.4-3.6-0.5-3.6-2.7
				c0-0.9,0.8-1.7,2.2-1.7c1,0,1.7,0.4,2.2,0.8l-0.4,0.6c-0.4-0.4-1-0.7-1.7-0.7c-0.8,0-1.3,0.4-1.3,0.9c0,1.3,3.6,0.4,3.6,2.7
				c0,1-0.8,1.8-2.3,1.8C71,81.9,70.2,81.5,69.6,80.9z"/>
			<path fill="#444444" d="M75.4,78.8c0-1.7,1.2-3.1,2.9-3.1c1.8,0,2.8,1.4,2.8,3.1v0.2h-4.7c0.1,1.1,0.8,2,2.1,2
				c0.7,0,1.3-0.3,1.8-0.8l0.4,0.6c-0.6,0.6-1.4,0.9-2.3,0.9C76.7,81.9,75.4,80.6,75.4,78.8z M78.3,76.5c-1.2,0-1.9,1.1-1.9,1.9h3.8
				C80.2,77.5,79.6,76.5,78.3,76.5z"/>
			<path fill="#444444" d="M82.2,78.8c0-1.7,1.2-3.1,2.9-3.1c1.8,0,2.8,1.4,2.8,3.1v0.2h-4.7c0.1,1.1,0.8,2,2.1,2
				c0.7,0,1.3-0.3,1.8-0.8l0.4,0.6c-0.6,0.6-1.4,0.9-2.3,0.9C83.5,81.9,82.2,80.6,82.2,78.8z M85.1,76.5c-1.2,0-1.9,1.1-1.9,1.9H87
				C87,77.5,86.4,76.5,85.1,76.5z"/>
			<path fill="#444444" d="M97.6,81.7L96.1,77l-1.5,4.7h-0.9l-1.9-5.9h0.9l1.4,4.7l1.5-4.7h0.8l1.5,4.7l1.4-4.7h1l-1.9,5.9H97.6z"/>
			<path fill="#444444" d="M105.4,81.7v-3.9c0-1-0.5-1.3-1.3-1.3c-0.7,0-1.4,0.4-1.7,0.9v4.3h-0.9v-8.1h0.9v3.1c0.4-0.5,1.2-1,2.1-1
				c1.2,0,1.9,0.6,1.9,1.9v4.1H105.4z"/>
			<path fill="#444444" d="M111.8,81.7V81c-0.5,0.5-1.2,0.8-1.9,0.8c-1,0-2-0.7-2-1.9c0-1.3,1-1.9,2-1.9c0.8,0,1.5,0.3,1.9,0.8v-1.1
				c0-0.8-0.6-1.2-1.5-1.2c-0.7,0-1.3,0.2-1.8,0.8l-0.4-0.6c0.6-0.7,1.4-1,2.3-1c1.2,0,2.3,0.6,2.3,2v4H111.8z M111.8,80.5v-1.1
				c-0.4-0.5-1-0.7-1.6-0.7c-0.9,0-1.5,0.5-1.5,1.3c0,0.8,0.6,1.3,1.5,1.3C110.8,81.2,111.4,81,111.8,80.5z"/>
			<path fill="#444444" d="M114.7,80.5v-3.8h-1v-0.8h1v-1.6h0.9v1.6h1.2v0.8h-1.2v3.6c0,0.4,0.2,0.8,0.6,0.8c0.3,0,0.5-0.1,0.6-0.3
				l0.3,0.7c-0.2,0.2-0.6,0.4-1.1,0.4C115.1,81.9,114.7,81.4,114.7,80.5z"/>
			<path fill="#444444" d="M121,83.2c0.1,0.1,0.4,0.1,0.5,0.1c0.4,0,0.7-0.1,0.9-0.6l0.4-0.9l-2.4-5.9h1l1.9,4.8l2-4.8h1l-2.9,7
				c-0.4,0.8-0.9,1.2-1.7,1.2c-0.2,0-0.5,0-0.7-0.1L121,83.2z"/>
			<path fill="#444444" d="M126.8,78.8c0-1.7,1.1-3.1,2.9-3.1c1.8,0,2.9,1.4,2.9,3.1s-1.1,3.1-2.9,3.1
				C127.9,81.9,126.8,80.5,126.8,78.8z M131.6,78.8c0-1.2-0.7-2.3-1.9-2.3s-1.9,1.1-1.9,2.3c0,1.2,0.7,2.3,1.9,2.3
				S131.6,80,131.6,78.8z"/>
			<path fill="#444444" d="M138,81.7v-0.8c-0.4,0.5-1.2,1-2.1,1c-1.2,0-1.9-0.6-1.9-1.9v-4.1h0.9v3.9c0,1,0.5,1.3,1.3,1.3
				c0.7,0,1.4-0.4,1.7-0.9v-4.3h0.9v5.9H138z"/>
			<path fill="#444444" d="M140.7,81.7v-5.9h0.9v0.9c0.5-0.6,1.2-1.1,2-1.1v0.9c-0.1,0-0.2,0-0.4,0c-0.6,0-1.3,0.5-1.6,0.9v4.1
				H140.7z"/>
			<path fill="#444444" d="M147.5,78.8c0-1.7,1.1-3.1,2.9-3.1s2.9,1.4,2.9,3.1s-1.1,3.1-2.9,3.1S147.5,80.5,147.5,78.8z M152.4,78.8
				c0-1.2-0.7-2.3-1.9-2.3s-1.9,1.1-1.9,2.3c0,1.2,0.7,2.3,1.9,2.3S152.4,80,152.4,78.8z"/>
			<path fill="#444444" d="M155.7,80.8v3.1h-0.9v-8.1h0.9v0.9c0.4-0.6,1.2-1,2-1c1.5,0,2.6,1.2,2.6,3.1c0,1.9-1.1,3.1-2.6,3.1
				C156.9,81.9,156.2,81.5,155.7,80.8z M159.3,78.8c0-1.3-0.7-2.3-1.9-2.3c-0.7,0-1.4,0.4-1.7,0.9v2.6c0.3,0.5,1,0.9,1.7,0.9
				C158.6,81,159.3,80.1,159.3,78.8z"/>
			<path fill="#444444" d="M161.9,80.5v-3.8h-1v-0.8h1v-1.6h0.9v1.6h1.2v0.8h-1.2v3.6c0,0.4,0.2,0.8,0.6,0.8c0.3,0,0.5-0.1,0.6-0.3
				l0.3,0.7c-0.2,0.2-0.6,0.4-1.1,0.4C162.4,81.9,161.9,81.4,161.9,80.5z"/>
			<path fill="#444444" d="M165.1,74.4c0-0.3,0.3-0.6,0.6-0.6s0.6,0.3,0.6,0.6c0,0.3-0.3,0.6-0.6,0.6S165.1,74.8,165.1,74.4z
				 M165.3,81.7v-5.9h0.9v5.9H165.3z"/>
			<path fill="#444444" d="M167.7,78.8c0-1.7,1.1-3.1,2.9-3.1s2.9,1.4,2.9,3.1s-1.1,3.1-2.9,3.1S167.7,80.5,167.7,78.8z M172.5,78.8
				c0-1.2-0.7-2.3-1.9-2.3s-1.9,1.1-1.9,2.3c0,1.2,0.7,2.3,1.9,2.3S172.5,80,172.5,78.8z"/>
			<path fill="#444444" d="M178.9,81.7v-3.8c0-1-0.5-1.4-1.3-1.4c-0.7,0-1.4,0.4-1.7,0.9v4.3H175v-5.9h0.9v0.8c0.4-0.5,1.2-1,2.1-1
				c1.2,0,1.9,0.6,1.9,1.9v4.1H178.9z"/>
			<path fill="#444444" d="M181.1,80.9l0.5-0.7c0.4,0.4,1.1,0.8,1.9,0.8c0.9,0,1.4-0.4,1.4-1c0-1.4-3.6-0.5-3.6-2.7
				c0-0.9,0.8-1.7,2.2-1.7c1,0,1.7,0.4,2.2,0.8l-0.4,0.6c-0.4-0.4-1-0.7-1.7-0.7c-0.8,0-1.3,0.4-1.3,0.9c0,1.3,3.6,0.4,3.6,2.7
				c0,1-0.8,1.8-2.3,1.8C182.5,81.9,181.7,81.5,181.1,80.9z"/>
			<path fill="#444444" d="M194.1,81.7V81c-0.5,0.5-1.2,0.8-1.9,0.8c-1,0-2-0.7-2-1.9c0-1.3,1-1.9,2-1.9c0.8,0,1.5,0.3,1.9,0.8v-1.1
				c0-0.8-0.6-1.2-1.5-1.2c-0.7,0-1.3,0.2-1.8,0.8l-0.4-0.6c0.6-0.7,1.4-1,2.3-1c1.2,0,2.3,0.6,2.3,2v4H194.1z M194.1,80.5v-1.1
				c-0.4-0.5-1-0.7-1.6-0.7c-0.9,0-1.5,0.5-1.5,1.3c0,0.8,0.6,1.3,1.5,1.3C193.1,81.2,193.7,81,194.1,80.5z"/>
			<path fill="#444444" d="M196.8,81.7v-5.9h0.9v0.9c0.5-0.6,1.2-1.1,2-1.1v0.9c-0.1,0-0.2,0-0.4,0c-0.6,0-1.3,0.5-1.6,0.9v4.1
				H196.8z"/>
			<path fill="#444444" d="M200.5,78.8c0-1.7,1.2-3.1,2.9-3.1c1.8,0,2.8,1.4,2.8,3.1v0.2h-4.7c0.1,1.1,0.8,2,2.1,2
				c0.7,0,1.3-0.3,1.8-0.8l0.4,0.6c-0.6,0.6-1.4,0.9-2.3,0.9C201.7,81.9,200.5,80.6,200.5,78.8z M203.3,76.5c-1.2,0-1.9,1.1-1.9,1.9
				h3.8C205.2,77.5,204.7,76.5,203.3,76.5z"/>
			<path fill="#444444" d="M207.4,76.4c0-0.4,0.3-0.7,0.7-0.7s0.7,0.3,0.7,0.7c0,0.4-0.3,0.7-0.7,0.7S207.4,76.8,207.4,76.4z
				 M207.4,81.2c0-0.4,0.3-0.7,0.7-0.7s0.7,0.3,0.7,0.7s-0.3,0.7-0.7,0.7S207.4,81.5,207.4,81.2z"/>
		</g>
	</g>
	<line fill="none" stroke="#AFAFAF" stroke-width="0.25" stroke-miterlimit="10" x1="13.3" y1="211.7" x2="253.8" y2="211.7"/>
	<line fill="none" stroke="#AFAFAF" stroke-width="0.25" stroke-miterlimit="10" x1="1" y1="30.6" x2="265" y2="30.6"/>
	<path fill="#F0F0F0" stroke="#AFAFAF" stroke-width="0.25" stroke-miterlimit="10" d="M249.5,96.6c-0.3-2.1-2.1-3.7-4.3-3.7H19.4
		c-2.2,0-4,1.6-4.3,3.7H15v0.7v13.2v0.7H15c0.3,2.1,2.2,3.7,4.3,3.7h225.7c2.2,0,4-1.6,4.3-3.7h0.1v-0.7V97.3L249.5,96.6L249.5,96.6
		z"/>
	<path fill="#F0F0F0" stroke="#AFAFAF" stroke-width="0.25" stroke-miterlimit="10" d="M15,148.7v-17.6c0-2.4,2-4.4,4.4-4.4h225.8
		c2.4,0,4.4,2,4.4,4.4v17.6"/>
	<polygon fill="none" stroke="#AFAFAF" stroke-width="0.25" stroke-miterlimit="10" points="14.9,148.7 249.6,148.7 249.6,199.8 
		15,199.8 	"/>
	<line fill="none" stroke="#AFAFAF" stroke-width="0.25" stroke-miterlimit="10" x1="1.6" y1="274.8" x2="264.1" y2="274.8"/>
	<linearGradient id="SVGID_1_" gradientUnits="userSpaceOnUse" x1="227.3013" y1="306.5221" x2="227.3013" y2="284.5293">
		<stop  offset="0" style="stop-color:#00A544"/>
		<stop  offset="1" style="stop-color:#2DC800"/>
	</linearGradient>
	<path fill="url(#SVGID_1_)" d="M253,301.6c0,2.7-1.9,4.9-4.3,4.9h-42.7c-2.4,0-4.3-2.2-4.3-4.9v-12.2c0-2.7,1.9-4.9,4.3-4.9h42.7
		c2.4,0,4.3,2.2,4.3,4.9V301.6z"/>
	<g>
		<path fill="#FFFFFF" d="M217,298l0.5-0.6c0.4,0.5,1.1,0.9,2,0.9c1.1,0,1.5-0.6,1.5-1.1c0-1.6-3.8-0.7-3.8-3c0-1,0.9-1.8,2.2-1.8
			c1,0,1.7,0.3,2.3,0.9l-0.5,0.6c-0.5-0.5-1.1-0.8-1.8-0.8c-0.8,0-1.3,0.4-1.3,1c0,1.4,3.8,0.6,3.8,3c0,0.9-0.6,1.9-2.3,1.9
			C218.3,299,217.5,298.6,217,298z"/>
		<path fill="#FFFFFF" d="M225.8,298.9v-0.5c-0.4,0.4-0.9,0.6-1.5,0.6c-0.8,0-1.6-0.5-1.6-1.5c0-1,0.8-1.5,1.6-1.5
			c0.6,0,1.2,0.2,1.5,0.6v-0.8c0-0.6-0.5-1-1.2-1c-0.6,0-1,0.2-1.4,0.6l-0.3-0.5c0.5-0.5,1.1-0.8,1.8-0.8c1,0,1.8,0.4,1.8,1.6v3.2
			H225.8z M225.8,297.9v-0.9c-0.3-0.4-0.8-0.6-1.3-0.6c-0.7,0-1.1,0.4-1.1,1c0,0.6,0.5,1,1.1,1C225,298.5,225.5,298.3,225.8,297.9z"
			/>
		<path fill="#FFFFFF" d="M229.2,298.9l-1.9-4.6h0.8l1.5,3.8l1.5-3.8h0.8l-1.9,4.6H229.2z"/>
		<path fill="#FFFFFF" d="M232.4,296.6c0-1.3,1-2.4,2.3-2.4c1.4,0,2.2,1.1,2.2,2.5v0.2h-3.7c0.1,0.9,0.7,1.6,1.7,1.6
			c0.5,0,1.1-0.2,1.4-0.6l0.3,0.5c-0.5,0.5-1.1,0.7-1.8,0.7C233.3,299,232.4,298.1,232.4,296.6z M234.6,294.8c-1,0-1.5,0.8-1.5,1.5
			h3C236.1,295.6,235.7,294.8,234.6,294.8z"/>
	</g>
	<path fill="#D03D2C" d="M190.6,301.6c0,2.7-1.9,4.9-4.3,4.9h-42.7c-2.4,0-4.3-2.2-4.3-4.9v-12.2c0-2.7,1.9-4.9,4.3-4.9h42.7
		c2.4,0,4.3,2.2,4.3,4.9V301.6z"/>
	<g>
		<path fill="#FFFFFF" d="M150.4,295.7c0-2,1.4-3.3,3.3-3.3c1.1,0,1.9,0.5,2.4,1.3l-0.7,0.4c-0.4-0.5-1-0.9-1.8-0.9
			c-1.4,0-2.5,1.1-2.5,2.6c0,1.5,1.1,2.6,2.5,2.6c0.7,0,1.4-0.4,1.8-0.9l0.7,0.4c-0.5,0.7-1.3,1.3-2.4,1.3
			C151.8,299,150.4,297.7,150.4,295.7z"/>
		<path fill="#FFFFFF" d="M159.9,298.9v-0.5c-0.4,0.4-0.9,0.6-1.5,0.6c-0.8,0-1.6-0.5-1.6-1.5c0-1,0.8-1.5,1.6-1.5
			c0.6,0,1.2,0.2,1.5,0.6v-0.8c0-0.6-0.5-1-1.2-1c-0.6,0-1,0.2-1.4,0.6L157,295c0.5-0.5,1.1-0.8,1.8-0.8c1,0,1.8,0.4,1.8,1.6v3.2
			H159.9z M159.9,297.9v-0.9c-0.3-0.4-0.8-0.6-1.3-0.6c-0.7,0-1.1,0.4-1.1,1c0,0.6,0.5,1,1.1,1C159.1,298.5,159.6,298.3,159.9,297.9
			z"/>
		<path fill="#FFFFFF" d="M165.2,298.9v-3c0-0.8-0.4-1.1-1-1.1c-0.6,0-1.1,0.3-1.4,0.7v3.4h-0.7v-4.6h0.7v0.7c0.3-0.4,1-0.8,1.6-0.8
			c1,0,1.5,0.5,1.5,1.5v3.2H165.2z"/>
		<path fill="#FFFFFF" d="M167,296.6c0-1.4,0.9-2.4,2.3-2.4c0.8,0,1.3,0.3,1.7,0.8l-0.5,0.4c-0.3-0.4-0.7-0.6-1.2-0.6
			c-1,0-1.6,0.8-1.6,1.8s0.6,1.8,1.6,1.8c0.5,0,0.9-0.2,1.2-0.6l0.5,0.4c-0.4,0.5-0.8,0.8-1.7,0.8C168,299,167,298,167,296.6z"/>
		<path fill="#FFFFFF" d="M171.8,296.6c0-1.3,1-2.4,2.3-2.4c1.4,0,2.2,1.1,2.2,2.5v0.2h-3.7c0.1,0.9,0.7,1.6,1.7,1.6
			c0.5,0,1.1-0.2,1.4-0.6l0.3,0.5c-0.5,0.5-1.1,0.7-1.8,0.7C172.8,299,171.8,298.1,171.8,296.6z M174,294.8c-1,0-1.5,0.8-1.5,1.5h3
			C175.5,295.6,175.1,294.8,174,294.8z"/>
		<path fill="#FFFFFF" d="M177.4,298.9v-6.4h0.7v6.4H177.4z"/>
	</g>
	<line fill="none" stroke="#F0F0F0" stroke-miterlimit="10" x1="271.3" y1="0.9" x2="279.7" y2="0.9"/>
	<line fill="none" stroke="#F0F0F0" stroke-miterlimit="10" x1="271.3" y1="29.5" x2="279.7" y2="29.5"/>
	<line fill="none" stroke="#F0F0F0" stroke-miterlimit="10" x1="275.5" y1="0.9" x2="275.5" y2="29.4"/>
	<g>
		<path fill="#FFFFFF" stroke="#DCDCDB" stroke-width="0.5" stroke-miterlimit="10" d="M285.4,17.7v-1.8h-3.1v-0.5l2.9-4.3h0.8v4.3
			h1v0.5h-1v1.8H285.4z M285.4,11.7l-2.5,3.7h2.5V11.7z"/>
		<path fill="#FFFFFF" stroke="#DCDCDB" stroke-width="0.5" stroke-miterlimit="10" d="M287.9,14.4c0-1.6,0.7-3.4,2.4-3.4
			c1.8,0,2.4,1.8,2.4,3.4c0,1.6-0.7,3.4-2.4,3.4C288.5,17.9,287.9,16,287.9,14.4z M292.1,14.4c0-1.4-0.4-2.9-1.8-2.9
			c-1.4,0-1.9,1.5-1.9,2.9c0,1.4,0.5,2.9,1.9,2.9C291.7,17.3,292.1,15.8,292.1,14.4z"/>
		<path fill="#FFFFFF" stroke="#DCDCDB" stroke-width="0.5" stroke-miterlimit="10" d="M294.6,17v2.6h-0.5V13h0.5v0.8
			c0.3-0.5,1-0.9,1.7-0.9c1.3,0,2.1,1,2.1,2.5c0,1.5-0.9,2.5-2.1,2.5C295.6,17.9,295,17.5,294.6,17z M297.9,15.3c0-1.2-0.6-2-1.7-2
			c-0.7,0-1.3,0.4-1.6,0.9v2.4c0.3,0.5,0.9,0.9,1.6,0.9C297.3,17.4,297.9,16.5,297.9,15.3z"/>
		<path fill="#FFFFFF" stroke="#DCDCDB" stroke-width="0.5" stroke-miterlimit="10" d="M302.5,17.7l-1.6-2.1l-1.6,2.1h-0.6l1.9-2.5
			l-1.8-2.3h0.6l1.5,2l1.5-2h0.6l-1.8,2.3l1.9,2.5H302.5z"/>
	</g>
	<line fill="none" stroke="#F0F0F0" stroke-miterlimit="10" x1="271.3" y1="93.1" x2="279.7" y2="93.1"/>
	<line fill="none" stroke="#F0F0F0" stroke-miterlimit="10" x1="271.3" y1="114.4" x2="279.7" y2="114.4"/>
	<line fill="none" stroke="#F0F0F0" stroke-miterlimit="10" x1="275.5" y1="93.1" x2="275.5" y2="114.3"/>
	<g>
		<path fill="#FFFFFF" stroke="#DCDCDB" stroke-width="0.5" stroke-miterlimit="10" d="M282.2,106.1l0.4-0.3c0.4,0.5,1,0.9,1.9,0.9
			c1,0,1.7-0.5,1.7-1.4c0-1-0.8-1.3-1.8-1.3c-0.3,0-0.5,0-0.6,0v-0.5c0.1,0,0.3,0,0.6,0c0.9,0,1.7-0.4,1.7-1.3
			c0-0.8-0.7-1.3-1.6-1.3c-0.8,0-1.3,0.3-1.8,0.8l-0.4-0.4c0.5-0.6,1.2-1,2.2-1c1.1,0,2.1,0.6,2.1,1.7c0,1-0.9,1.4-1.4,1.5
			c0.6,0.1,1.5,0.6,1.5,1.6c0,1.1-0.8,1.9-2.2,1.9C283.4,107.2,282.6,106.7,282.2,106.1z"/>
		<path fill="#FFFFFF" stroke="#DCDCDB" stroke-width="0.5" stroke-miterlimit="10" d="M287.9,103.7c0-1.6,0.7-3.4,2.4-3.4
			c1.8,0,2.4,1.8,2.4,3.4c0,1.6-0.7,3.4-2.4,3.4C288.5,107.2,287.9,105.3,287.9,103.7z M292.2,103.7c0-1.4-0.4-2.9-1.8-2.9
			c-1.4,0-1.9,1.5-1.9,2.9c0,1.4,0.5,2.9,1.9,2.9C291.7,106.6,292.2,105.1,292.2,103.7z"/>
		<path fill="#FFFFFF" stroke="#DCDCDB" stroke-width="0.5" stroke-miterlimit="10" d="M294.7,106.3v2.6h-0.5v-6.6h0.5v0.8
			c0.3-0.5,1-0.9,1.7-0.9c1.3,0,2.1,1,2.1,2.5c0,1.5-0.9,2.5-2.1,2.5C295.6,107.2,295,106.8,294.7,106.3z M297.9,104.6
			c0-1.2-0.6-2-1.7-2c-0.7,0-1.3,0.4-1.6,0.9v2.4c0.3,0.5,0.9,0.9,1.6,0.9C297.3,106.7,297.9,105.8,297.9,104.6z"/>
		<path fill="#FFFFFF" stroke="#DCDCDB" stroke-width="0.5" stroke-miterlimit="10" d="M302.5,107l-1.6-2.1l-1.6,2.1h-0.6l1.9-2.5
			l-1.8-2.3h0.6l1.5,2l1.5-2h0.6l-1.8,2.3l1.9,2.5H302.5z"/>
	</g>
	<line fill="none" stroke="#F0F0F0" stroke-miterlimit="10" x1="271.3" y1="202.2" x2="279.7" y2="202.2"/>
	<line fill="none" stroke="#F0F0F0" stroke-miterlimit="10" x1="271.3" y1="212.5" x2="279.7" y2="212.5"/>
	<line fill="none" stroke="#F0F0F0" stroke-miterlimit="10" x1="275.5" y1="202.2" x2="275.5" y2="212.4"/>
	<g>
		<path fill="#FFFFFF" stroke="#DCDCDB" stroke-width="0.5" stroke-miterlimit="10" d="M282.7,209.7l0.4-0.4c0.4,0.6,1,0.9,1.9,0.9
			c1,0,1.7-0.7,1.7-1.6c0-1-0.7-1.6-1.6-1.6c-0.6,0-1.1,0.2-1.6,0.6l-0.4-0.2V204h3.8v0.5h-3.2v2.6c0.3-0.3,0.9-0.6,1.6-0.6
			c1.1,0,2.1,0.7,2.1,2.1c0,1.3-1,2.1-2.2,2.1C283.8,210.8,283.1,210.3,282.7,209.7z"/>
		<path fill="#FFFFFF" stroke="#DCDCDB" stroke-width="0.5" stroke-miterlimit="10" d="M289,209.9v2.6h-0.5v-6.6h0.5v0.8
			c0.3-0.5,1-0.9,1.7-0.9c1.3,0,2.1,1,2.1,2.5c0,1.5-0.9,2.5-2.1,2.5C290,210.8,289.4,210.4,289,209.9z M292.3,208.2
			c0-1.2-0.6-2-1.7-2c-0.7,0-1.3,0.4-1.6,0.9v2.4c0.3,0.5,0.9,0.9,1.6,0.9C291.6,210.3,292.3,209.4,292.3,208.2z"/>
		<path fill="#FFFFFF" stroke="#DCDCDB" stroke-width="0.5" stroke-miterlimit="10" d="M296.9,210.6l-1.6-2.1l-1.6,2.1h-0.6l1.9-2.5
			l-1.8-2.3h0.6l1.5,2l1.5-2h0.6l-1.8,2.3l1.9,2.5H296.9z"/>
	</g>
	<line fill="none" stroke="#F0F0F0" stroke-miterlimit="10" x1="271.3" y1="275.4" x2="279.7" y2="275.4"/>
	<line fill="none" stroke="#F0F0F0" stroke-miterlimit="10" x1="271.3" y1="315.7" x2="279.7" y2="315.7"/>
	<line fill="none" stroke="#F0F0F0" stroke-miterlimit="10" x1="275.5" y1="275.4" x2="275.5" y2="315.7"/>
	<g>
		<path fill="#FFFFFF" stroke="#DCDCDB" stroke-width="0.5" stroke-miterlimit="10" d="M282.7,297.2l0.4-0.4c0.4,0.6,1,0.9,1.9,0.9
			c1,0,1.7-0.7,1.7-1.6c0-1-0.7-1.6-1.6-1.6c-0.6,0-1.1,0.2-1.6,0.6l-0.4-0.2v-3.5h3.8v0.5h-3.2v2.6c0.3-0.3,0.9-0.6,1.6-0.6
			c1.1,0,2.1,0.7,2.1,2.1c0,1.3-1,2.1-2.2,2.1C283.8,298.2,283.1,297.8,282.7,297.2z"/>
		<path fill="#FFFFFF" stroke="#DCDCDB" stroke-width="0.5" stroke-miterlimit="10" d="M288.4,297.2l0.4-0.4c0.4,0.6,1,0.9,1.9,0.9
			c1,0,1.7-0.7,1.7-1.6c0-1-0.7-1.6-1.6-1.6c-0.6,0-1.1,0.2-1.6,0.6l-0.4-0.2v-3.5h3.8v0.5h-3.2v2.6c0.3-0.3,0.9-0.6,1.6-0.6
			c1.1,0,2.1,0.7,2.1,2.1c0,1.3-1,2.1-2.2,2.1C289.5,298.2,288.9,297.8,288.4,297.2z"/>
		<path fill="#FFFFFF" stroke="#DCDCDB" stroke-width="0.5" stroke-miterlimit="10" d="M294.8,297.3v2.6h-0.5v-6.6h0.5v0.8
			c0.3-0.5,1-0.9,1.7-0.9c1.3,0,2.1,1,2.1,2.5c0,1.5-0.9,2.5-2.1,2.5C295.8,298.2,295.2,297.9,294.8,297.3z M298,295.7
			c0-1.2-0.6-2-1.7-2c-0.7,0-1.3,0.4-1.6,0.9v2.4c0.3,0.5,0.9,0.9,1.6,0.9C297.4,297.8,298,296.9,298,295.7z"/>
		<path fill="#FFFFFF" stroke="#DCDCDB" stroke-width="0.5" stroke-miterlimit="10" d="M302.6,298.1l-1.6-2.1l-1.6,2.1h-0.6l1.9-2.5
			l-1.8-2.3h0.6l1.5,2l1.5-2h0.6l-1.8,2.3l1.9,2.5H302.6z"/>
	</g>
	<polygon fill="#444444" points="251.6,15.9 253.8,18.1 254.5,17.4 252.3,15.2 254.5,12.9 253.8,12.2 251.6,14.4 249.4,12.2 
		248.6,13 250.8,15.2 248.6,17.4 249.3,18.1 	"/>
	<g>
		<g>
			<path fill="#444444" d="M30,108.3l-0.7-1.8h-4l-0.7,1.8h-1.2l3.3-8.1h1.2l3.2,8.1H30z M27.2,101.3l-1.7,4.4H29L27.2,101.3z"/>
			<path fill="#444444" d="M32.2,107.1v-3.8h-1v-0.8h1v-1.6h0.9v1.6h1.2v0.8h-1.2v3.6c0,0.4,0.2,0.8,0.6,0.8c0.3,0,0.5-0.1,0.6-0.3
				l0.3,0.7c-0.2,0.2-0.6,0.4-1.1,0.4C32.6,108.5,32.2,108,32.2,107.1z"/>
			<path fill="#444444" d="M35.7,107.1v-3.8h-1v-0.8h1v-1.6h0.9v1.6h1.2v0.8h-1.2v3.6c0,0.4,0.2,0.8,0.6,0.8c0.3,0,0.5-0.1,0.6-0.3
				l0.3,0.7c-0.2,0.2-0.6,0.4-1.1,0.4C36.2,108.5,35.7,108,35.7,107.1z"/>
			<path fill="#444444" d="M39.1,108.3v-5.9H40v0.9c0.5-0.6,1.2-1.1,2-1.1v0.9c-0.1,0-0.2,0-0.4,0c-0.6,0-1.3,0.5-1.6,0.9v4.1H39.1z
				"/>
			<path fill="#444444" d="M43,101c0-0.3,0.3-0.6,0.6-0.6s0.6,0.3,0.6,0.6c0,0.3-0.3,0.6-0.6,0.6S43,101.4,43,101z M43.1,108.3v-5.9
				H44v5.9H43.1z"/>
			<path fill="#444444" d="M45.8,108.3v-8.1h0.9v3.1c0.5-0.6,1.2-1,2-1c1.5,0,2.6,1.2,2.6,3.1c0,1.9-1.1,3.1-2.6,3.1
				c-0.8,0-1.5-0.4-2-1v0.9H45.8z M48.5,107.7c1.2,0,1.9-1,1.9-2.3c0-1.3-0.7-2.3-1.9-2.3c-0.7,0-1.4,0.4-1.8,0.9v2.7
				C47.1,107.2,47.8,107.7,48.5,107.7z"/>
			<path fill="#444444" d="M56.8,108.3v-0.8c-0.4,0.5-1.2,1-2.1,1c-1.2,0-1.9-0.6-1.9-1.9v-4.1h0.9v3.9c0,1,0.5,1.3,1.3,1.3
				c0.7,0,1.4-0.4,1.7-0.9v-4.3h0.9v5.9H56.8z"/>
			<path fill="#444444" d="M59.7,107.1v-3.8h-1v-0.8h1v-1.6h0.9v1.6h1.2v0.8h-1.2v3.6c0,0.4,0.2,0.8,0.6,0.8c0.3,0,0.5-0.1,0.6-0.3
				l0.3,0.7c-0.2,0.2-0.6,0.4-1.1,0.4C60.1,108.5,59.7,108,59.7,107.1z"/>
			<path fill="#444444" d="M62.7,105.4c0-1.7,1.2-3.1,2.9-3.1c1.8,0,2.8,1.4,2.8,3.1v0.2h-4.7c0.1,1.1,0.8,2,2.1,2
				c0.7,0,1.3-0.3,1.8-0.8l0.4,0.6c-0.6,0.6-1.4,0.9-2.3,0.9C63.9,108.5,62.7,107.2,62.7,105.4z M65.6,103.1c-1.2,0-1.9,1.1-1.9,1.9
				h3.8C67.5,104.1,66.9,103.1,65.6,103.1z"/>
			<path fill="#444444" d="M69.4,107.5l0.5-0.7c0.4,0.4,1.1,0.8,1.9,0.8c0.9,0,1.4-0.4,1.4-1c0-1.4-3.6-0.5-3.6-2.7
				c0-0.9,0.8-1.7,2.2-1.7c1,0,1.7,0.4,2.2,0.8l-0.4,0.6c-0.4-0.4-1-0.7-1.7-0.7c-0.8,0-1.3,0.4-1.3,0.9c0,1.3,3.6,0.4,3.6,2.7
				c0,1-0.8,1.8-2.3,1.8C70.8,108.5,70,108.2,69.4,107.5z"/>
		</g>
	</g>
	<polygon fill="#444444" points="239.5,103 237.7,105.3 236,103 	"/>
	<g>
		<g>
			<path fill="#444444" d="M28.9,142.1l-2-3.2h-1.6v3.2h-1V134h3.2c1.5,0,2.5,0.9,2.5,2.4c0,1.5-1,2.3-2.1,2.4l2.2,3.3H28.9z
				 M28.9,136.4c0-0.9-0.7-1.5-1.6-1.5h-2.1v3.1h2.1C28.3,138,28.9,137.3,28.9,136.4z"/>
			<path fill="#444444" d="M30.8,139.1c0-1.7,1.2-3.1,2.9-3.1c1.8,0,2.8,1.4,2.8,3.1v0.2h-4.7c0.1,1.1,0.8,2,2.1,2
				c0.7,0,1.3-0.3,1.8-0.8l0.4,0.6c-0.6,0.6-1.4,0.9-2.3,0.9C32.1,142.2,30.8,141,30.8,139.1z M33.7,136.8c-1.2,0-1.9,1.1-1.9,1.9
				h3.8C35.6,137.9,35,136.8,33.7,136.8z"/>
			<path fill="#444444" d="M37.5,141.3l0.5-0.7c0.4,0.4,1.1,0.8,1.9,0.8c0.9,0,1.4-0.4,1.4-1c0-1.4-3.6-0.5-3.6-2.7
				c0-0.9,0.8-1.7,2.2-1.7c1,0,1.7,0.4,2.2,0.8l-0.4,0.6c-0.4-0.4-1-0.7-1.7-0.7c-0.8,0-1.3,0.4-1.3,0.9c0,1.3,3.6,0.4,3.6,2.7
				c0,1-0.8,1.8-2.3,1.8C38.9,142.2,38.1,141.9,37.5,141.3z"/>
			<path fill="#444444" d="M43.8,140.8V137h-1v-0.8h1v-1.6h0.9v1.6h1.2v0.8h-1.2v3.6c0,0.4,0.2,0.8,0.6,0.8c0.3,0,0.5-0.1,0.6-0.3
				l0.3,0.7c-0.2,0.2-0.6,0.4-1.1,0.4C44.2,142.2,43.8,141.7,43.8,140.8z"/>
			<path fill="#444444" d="M47.2,142.1v-5.9h0.9v0.9c0.5-0.6,1.2-1.1,2-1.1v0.9c-0.1,0-0.2,0-0.4,0c-0.6,0-1.3,0.5-1.6,0.9v4.1H47.2
				z"/>
			<path fill="#444444" d="M51,134.8c0-0.3,0.3-0.6,0.6-0.6s0.6,0.3,0.6,0.6c0,0.3-0.3,0.6-0.6,0.6S51,135.1,51,134.8z M51.2,142.1
				v-5.9h0.9v5.9H51.2z"/>
			<path fill="#444444" d="M53.6,139.1c0-1.7,1.2-3.1,2.9-3.1c1.1,0,1.7,0.4,2.1,1l-0.6,0.5c-0.4-0.5-0.9-0.8-1.5-0.8
				c-1.2,0-2,1-2,2.3c0,1.3,0.8,2.3,2,2.3c0.6,0,1.1-0.2,1.5-0.8l0.6,0.6c-0.4,0.6-1.1,1-2.1,1C54.7,142.2,53.6,140.9,53.6,139.1z"
				/>
			<path fill="#444444" d="M60.1,140.8V137h-1v-0.8h1v-1.6H61v1.6h1.2v0.8H61v3.6c0,0.4,0.2,0.8,0.6,0.8c0.3,0,0.5-0.1,0.6-0.3
				l0.3,0.7c-0.2,0.2-0.6,0.4-1.1,0.4C60.5,142.2,60.1,141.7,60.1,140.8z"/>
			<path fill="#444444" d="M63.3,134.8c0-0.3,0.3-0.6,0.6-0.6s0.6,0.3,0.6,0.6c0,0.3-0.3,0.6-0.6,0.6S63.3,135.1,63.3,134.8z
				 M63.5,142.1v-5.9h0.9v5.9H63.5z"/>
			<path fill="#444444" d="M65.9,139.1c0-1.7,1.1-3.1,2.9-3.1s2.9,1.4,2.9,3.1s-1.1,3.1-2.9,3.1S65.9,140.8,65.9,139.1z M70.7,139.1
				c0-1.2-0.7-2.3-1.9-2.3s-1.9,1.1-1.9,2.3c0,1.2,0.7,2.3,1.9,2.3S70.7,140.3,70.7,139.1z"/>
			<path fill="#444444" d="M77.1,142.1v-3.8c0-1-0.5-1.4-1.3-1.4c-0.7,0-1.4,0.4-1.7,0.9v4.3h-0.9v-5.9H74v0.8c0.4-0.5,1.2-1,2.1-1
				c1.2,0,1.9,0.6,1.9,1.9v4.1H77.1z"/>
			<path fill="#444444" d="M79.3,141.3l0.5-0.7c0.4,0.4,1.1,0.8,1.9,0.8c0.9,0,1.4-0.4,1.4-1c0-1.4-3.6-0.5-3.6-2.7
				c0-0.9,0.8-1.7,2.2-1.7c1,0,1.7,0.4,2.2,0.8l-0.4,0.6c-0.4-0.4-1-0.7-1.7-0.7c-0.8,0-1.3,0.4-1.3,0.9c0,1.3,3.6,0.4,3.6,2.7
				c0,1-0.8,1.8-2.3,1.8C80.7,142.2,79.9,141.9,79.3,141.3z"/>
		</g>
	</g>
	<polygon fill="#444444" points="239.5,135.3 237.7,137.6 236,135.3 	"/>
	<path fill="#444445" d="M98.9,132.1c-2.8,0-5.1,2.3-5.1,5.1c0,2.8,2.3,5.1,5.1,5.1c2.8,0,5.1-2.3,5.1-5.1
		C104.1,134.4,101.8,132.1,98.9,132.1z M99.6,140c0,0.1-0.1,0.3-0.2,0.4c-0.1,0.1-0.3,0.2-0.5,0.2c-0.2,0-0.4-0.1-0.5-0.2
		c-0.1-0.1-0.2-0.2-0.2-0.4v-0.3c0-0.1,0.1-0.3,0.2-0.4c0.1-0.1,0.3-0.2,0.5-0.2c0.2,0,0.4,0.1,0.5,0.2c0.1,0.1,0.2,0.2,0.2,0.4V140
		z M101,136.2c-0.1,0.2-0.2,0.3-0.3,0.4c-0.1,0.1-0.3,0.2-0.4,0.3c-0.1,0.1-0.3,0.2-0.4,0.3c-0.1,0.1-0.2,0.2-0.3,0.3
		c-0.1,0.1-0.1,0.2-0.1,0.4v0.2c0,0.1-0.1,0.2-0.2,0.3c-0.1,0.1-0.2,0.2-0.4,0.2l0,0c-0.2,0-0.3-0.1-0.4-0.1
		c-0.1-0.1-0.2-0.2-0.2-0.3c0-0.3,0-0.5,0.1-0.7c0.1-0.2,0.2-0.4,0.3-0.5c0.1-0.1,0.2-0.3,0.4-0.4c0.1-0.1,0.3-0.2,0.4-0.3
		c0.1-0.1,0.2-0.2,0.3-0.3c0.1-0.1,0.1-0.2,0.1-0.3c0-0.2-0.1-0.4-0.2-0.5c-0.1-0.1-0.3-0.2-0.5-0.2c-0.1,0-0.3,0-0.4,0
		c-0.1,0-0.2,0-0.3,0.1c-0.1,0-0.2,0.1-0.2,0.2c-0.1,0.1-0.1,0.2-0.2,0.3c-0.1,0.1-0.2,0.2-0.3,0.2c-0.1,0-0.3,0-0.5,0
		c-0.1-0.1-0.2-0.2-0.3-0.3c0-0.1,0-0.2,0-0.3c0-0.1,0.1-0.2,0.2-0.4c0.1-0.1,0.2-0.3,0.4-0.4c0.2-0.1,0.4-0.2,0.6-0.3
		c0.3-0.1,0.6-0.1,0.9-0.1c0.3,0,0.6,0.1,0.9,0.2c0.2,0.1,0.4,0.2,0.6,0.4c0.1,0.2,0.3,0.4,0.3,0.6c0.1,0.2,0.1,0.4,0.1,0.7
		C101.1,135.9,101,136.1,101,136.2z"/>
	<path fill="#444445" d="M88.7,99c-2.8,0-5.1,2.3-5.1,5.1c0,2.8,2.3,5.1,5.1,5.1c2.8,0,5.1-2.3,5.1-5.1C93.8,101.3,91.5,99,88.7,99z
		 M89.3,107c0,0.1-0.1,0.3-0.2,0.4c-0.1,0.1-0.3,0.2-0.5,0.2c-0.2,0-0.4-0.1-0.5-0.2c-0.1-0.1-0.2-0.2-0.2-0.4v-0.3
		c0-0.1,0.1-0.3,0.2-0.4c0.1-0.1,0.3-0.2,0.5-0.2c0.2,0,0.4,0.1,0.5,0.2c0.1,0.1,0.2,0.2,0.2,0.4V107z M90.7,103.2
		c-0.1,0.2-0.2,0.3-0.3,0.4c-0.1,0.1-0.3,0.2-0.4,0.3c-0.1,0.1-0.3,0.2-0.4,0.3c-0.1,0.1-0.2,0.2-0.3,0.3c-0.1,0.1-0.1,0.2-0.1,0.4
		v0.2c0,0.1-0.1,0.2-0.2,0.3c-0.1,0.1-0.2,0.2-0.4,0.2l0,0c-0.2,0-0.3,0-0.4-0.1c-0.1-0.1-0.2-0.2-0.2-0.3c0-0.3,0-0.5,0.1-0.7
		c0.1-0.2,0.2-0.4,0.3-0.5c0.1-0.1,0.2-0.3,0.4-0.4c0.1-0.1,0.3-0.2,0.4-0.3c0.1-0.1,0.2-0.2,0.3-0.3c0.1-0.1,0.1-0.2,0.1-0.3
		c0-0.2-0.1-0.4-0.2-0.5c-0.1-0.1-0.3-0.2-0.5-0.2c-0.1,0-0.3,0-0.4,0c-0.1,0-0.2,0-0.3,0.1c-0.1,0-0.2,0.1-0.2,0.2
		c-0.1,0.1-0.1,0.2-0.2,0.3c-0.1,0.1-0.2,0.2-0.3,0.2c-0.1,0-0.3,0-0.5,0c-0.1-0.1-0.2-0.2-0.3-0.3c0-0.1,0-0.2,0-0.3
		c0-0.1,0.1-0.2,0.2-0.4c0.1-0.1,0.2-0.3,0.4-0.4c0.2-0.1,0.4-0.2,0.6-0.3c0.3-0.1,0.6-0.1,0.9-0.1c0.3,0,0.6,0.1,0.9,0.2
		c0.2,0.1,0.4,0.2,0.6,0.4c0.1,0.2,0.3,0.4,0.3,0.6c0.1,0.2,0.1,0.4,0.1,0.7C90.8,102.9,90.8,103.1,90.7,103.2z"/>
	<g>
		<path fill="#FCF9EB" stroke="#F9EAAC" stroke-miterlimit="10" d="M250.1,253.9c0,2.7-2.1,4.9-4.8,4.9h-225c-2.6,0-4.8-2.2-4.8-4.9
			v-22.6c0-2.7,2.1-4.9,4.8-4.9h225c2.6,0,4.8,2.2,4.8,4.9V253.9z"/>
		<g>
			<path fill="#444444" d="M63.2,246.5l-0.7-1.8h-4l-0.7,1.8h-1.2l3.3-8.1h1.2l3.2,8.1H63.2z M60.5,239.5l-1.7,4.4h3.4L60.5,239.5z"
				/>
			<path fill="#444444" d="M65.4,246.5v-5.9h0.9v0.9c0.5-0.6,1.2-1.1,2-1.1v0.9c-0.1,0-0.2,0-0.4,0c-0.6,0-1.3,0.5-1.6,0.9v4.1H65.4
				z"/>
			<path fill="#444444" d="M69,243.6c0-1.7,1.2-3.1,2.9-3.1c1.8,0,2.8,1.4,2.8,3.1v0.2H70c0.1,1.1,0.8,2,2.1,2
				c0.7,0,1.3-0.3,1.8-0.8l0.4,0.6c-0.6,0.6-1.4,0.9-2.3,0.9C70.3,246.7,69,245.4,69,243.6z M71.9,241.3c-1.2,0-1.9,1.1-1.9,1.9h3.8
				C73.8,242.4,73.2,241.3,71.9,241.3z"/>
			<path fill="#444444" d="M79.1,248c0.1,0.1,0.4,0.1,0.5,0.1c0.4,0,0.7-0.1,0.9-0.6l0.4-0.9l-2.4-5.9h1l1.9,4.8l2-4.8h1l-2.9,7
				c-0.4,0.8-0.9,1.2-1.7,1.2c-0.2,0-0.5,0-0.7-0.1L79.1,248z"/>
			<path fill="#444444" d="M84.9,243.6c0-1.7,1.1-3.1,2.9-3.1s2.9,1.4,2.9,3.1s-1.1,3.1-2.9,3.1S84.9,245.3,84.9,243.6z M89.8,243.6
				c0-1.2-0.7-2.3-1.9-2.3s-1.9,1.1-1.9,2.3c0,1.2,0.7,2.3,1.9,2.3S89.8,244.8,89.8,243.6z"/>
			<path fill="#444444" d="M96.1,246.5v-0.8c-0.4,0.5-1.2,1-2.1,1c-1.2,0-1.9-0.6-1.9-1.9v-4.1h0.9v3.9c0,1,0.5,1.3,1.3,1.3
				c0.7,0,1.4-0.4,1.7-0.9v-4.3H97v5.9H96.1z"/>
			<path fill="#444444" d="M101.5,245.8l0.5-0.7c0.4,0.4,1.1,0.8,1.9,0.8c0.9,0,1.4-0.4,1.4-1c0-1.4-3.6-0.5-3.6-2.7
				c0-0.9,0.8-1.7,2.2-1.7c1,0,1.7,0.4,2.2,0.8l-0.4,0.6c-0.4-0.4-1-0.7-1.7-0.7c-0.8,0-1.3,0.4-1.3,0.9c0,1.3,3.6,0.4,3.6,2.7
				c0,1-0.8,1.8-2.3,1.8C102.9,246.7,102.1,246.4,101.5,245.8z"/>
			<path fill="#444444" d="M111.6,246.5v-0.8c-0.4,0.5-1.2,1-2.1,1c-1.2,0-1.9-0.6-1.9-1.9v-4.1h0.9v3.9c0,1,0.5,1.3,1.3,1.3
				c0.7,0,1.4-0.4,1.7-0.9v-4.3h0.9v5.9H111.6z"/>
			<path fill="#444444" d="M114.3,246.5v-5.9h0.9v0.9c0.5-0.6,1.2-1.1,2-1.1v0.9c-0.1,0-0.2,0-0.4,0c-0.6,0-1.3,0.5-1.6,0.9v4.1
				H114.3z"/>
			<path fill="#444444" d="M118,243.6c0-1.7,1.2-3.1,2.9-3.1c1.8,0,2.8,1.4,2.8,3.1v0.2h-4.7c0.1,1.1,0.8,2,2.1,2
				c0.7,0,1.3-0.3,1.8-0.8l0.4,0.6c-0.6,0.6-1.4,0.9-2.3,0.9C119.2,246.7,118,245.4,118,243.6z M120.8,241.3c-1.2,0-1.9,1.1-1.9,1.9
				h3.8C122.7,242.4,122.2,241.3,120.8,241.3z"/>
			<path fill="#444444" d="M128.1,248c0.1,0.1,0.4,0.1,0.5,0.1c0.4,0,0.7-0.1,0.9-0.6l0.4-0.9l-2.4-5.9h1l1.9,4.8l2-4.8h1l-2.9,7
				c-0.4,0.8-0.9,1.2-1.7,1.2c-0.2,0-0.5,0-0.7-0.1L128.1,248z"/>
			<path fill="#444444" d="M133.9,243.6c0-1.7,1.1-3.1,2.9-3.1s2.9,1.4,2.9,3.1s-1.1,3.1-2.9,3.1S133.9,245.3,133.9,243.6z
				 M138.7,243.6c0-1.2-0.7-2.3-1.9-2.3s-1.9,1.1-1.9,2.3c0,1.2,0.7,2.3,1.9,2.3S138.7,244.8,138.7,243.6z"/>
			<path fill="#444444" d="M145.1,246.5v-0.8c-0.4,0.5-1.2,1-2.1,1c-1.2,0-1.9-0.6-1.9-1.9v-4.1h0.9v3.9c0,1,0.5,1.3,1.3,1.3
				c0.7,0,1.4-0.4,1.7-0.9v-4.3h0.9v5.9H145.1z"/>
			<path fill="#444444" d="M156,246.5l-1.5-4.7l-1.5,4.7H152l-1.9-5.9h0.9l1.4,4.7l1.5-4.7h0.8l1.5,4.7l1.4-4.7h1l-1.9,5.9H156z"/>
			<path fill="#444444" d="M163.5,246.5v-0.7c-0.5,0.5-1.2,0.8-1.9,0.8c-1,0-2-0.7-2-1.9c0-1.3,1-1.9,2-1.9c0.8,0,1.5,0.3,1.9,0.8
				v-1.1c0-0.8-0.6-1.2-1.5-1.2c-0.7,0-1.3,0.2-1.8,0.8l-0.4-0.6c0.6-0.7,1.4-1,2.3-1c1.2,0,2.3,0.6,2.3,2v4H163.5z M163.5,245.3
				v-1.1c-0.4-0.5-1-0.7-1.6-0.7c-0.9,0-1.5,0.5-1.5,1.3c0,0.8,0.6,1.3,1.5,1.3C162.5,246,163.1,245.8,163.5,245.3z"/>
			<path fill="#444444" d="M170.2,246.5v-3.8c0-1-0.5-1.4-1.3-1.4c-0.7,0-1.4,0.4-1.7,0.9v4.3h-0.9v-5.9h0.9v0.8
				c0.4-0.5,1.2-1,2.1-1c1.2,0,1.9,0.6,1.9,1.9v4.1H170.2z"/>
			<path fill="#444444" d="M173.1,245.3v-3.8h-1v-0.8h1v-1.6h0.9v1.6h1.2v0.8H174v3.6c0,0.4,0.2,0.8,0.6,0.8c0.3,0,0.5-0.1,0.6-0.3
				l0.3,0.7c-0.2,0.2-0.6,0.4-1.1,0.4C173.5,246.7,173.1,246.2,173.1,245.3z"/>
			<path fill="#444444" d="M179.8,245.3v-3.8h-1v-0.8h1v-1.6h0.9v1.6h1.2v0.8h-1.2v3.6c0,0.4,0.2,0.8,0.6,0.8c0.3,0,0.5-0.1,0.6-0.3
				l0.3,0.7c-0.2,0.2-0.6,0.4-1.1,0.4C180.2,246.7,179.8,246.2,179.8,245.3z"/>
			<path fill="#444444" d="M182.8,243.6c0-1.7,1.1-3.1,2.9-3.1s2.9,1.4,2.9,3.1s-1.1,3.1-2.9,3.1S182.8,245.3,182.8,243.6z
				 M187.7,243.6c0-1.2-0.7-2.3-1.9-2.3s-1.9,1.1-1.9,2.3c0,1.2,0.7,2.3,1.9,2.3S187.7,244.8,187.7,243.6z"/>
			<path fill="#444444" d="M197.5,246.5v-0.9c-0.4,0.6-1.2,1-2,1c-1.5,0-2.6-1.2-2.6-3.1c0-1.9,1.1-3.1,2.6-3.1c0.8,0,1.5,0.4,2,1
				v-3.1h0.9v8.1H197.5z M197.5,244.9v-2.6c-0.3-0.5-1-0.9-1.7-0.9c-1.2,0-1.9,1-1.9,2.3c0,1.3,0.7,2.3,1.9,2.3
				C196.4,245.9,197.2,245.4,197.5,244.9z"/>
			<path fill="#444444" d="M199.9,243.6c0-1.7,1.1-3.1,2.9-3.1s2.9,1.4,2.9,3.1s-1.1,3.1-2.9,3.1S199.9,245.3,199.9,243.6z
				 M204.7,243.6c0-1.2-0.7-2.3-1.9-2.3s-1.9,1.1-1.9,2.3c0,1.2,0.7,2.3,1.9,2.3S204.7,244.8,204.7,243.6z"/>
			<path fill="#444444" d="M210.4,245.3v-3.8h-1v-0.8h1v-1.6h0.9v1.6h1.2v0.8h-1.2v3.6c0,0.4,0.2,0.8,0.6,0.8c0.3,0,0.5-0.1,0.6-0.3
				l0.3,0.7c-0.2,0.2-0.6,0.4-1.1,0.4C210.9,246.7,210.4,246.2,210.4,245.3z"/>
			<path fill="#444444" d="M217.8,246.5v-3.9c0-1-0.5-1.3-1.3-1.3c-0.7,0-1.4,0.4-1.7,0.9v4.3h-0.9v-8.1h0.9v3.1
				c0.4-0.5,1.2-1,2.1-1c1.2,0,1.9,0.6,1.9,1.9v4.1H217.8z"/>
			<path fill="#444444" d="M224.2,246.5v-0.7c-0.5,0.5-1.2,0.8-1.9,0.8c-1,0-2-0.7-2-1.9c0-1.3,1-1.9,2-1.9c0.8,0,1.5,0.3,1.9,0.8
				v-1.1c0-0.8-0.6-1.2-1.5-1.2c-0.7,0-1.3,0.2-1.8,0.8l-0.4-0.6c0.6-0.7,1.4-1,2.3-1c1.2,0,2.3,0.6,2.3,2v4H224.2z M224.2,245.3
				v-1.1c-0.4-0.5-1-0.7-1.6-0.7c-0.9,0-1.5,0.5-1.5,1.3c0,0.8,0.6,1.3,1.5,1.3C223.2,246,223.8,245.8,224.2,245.3z"/>
			<path fill="#444444" d="M227.1,245.3v-3.8h-1v-0.8h1v-1.6h0.9v1.6h1.2v0.8H228v3.6c0,0.4,0.2,0.8,0.6,0.8c0.3,0,0.5-0.1,0.6-0.3
				l0.3,0.7c-0.2,0.2-0.6,0.4-1.1,0.4C227.5,246.7,227.1,246.2,227.1,245.3z"/>
			<path fill="#444444" d="M231.6,243.3c0-1.5,2.2-1.7,2.2-2.9c0-0.6-0.5-1.1-1.4-1.1c-0.9,0-1.5,0.4-1.9,1l-0.6-0.7
				c0.6-0.8,1.5-1.2,2.6-1.2c1.5,0,2.4,0.8,2.4,1.9c0,1.8-2.3,2-2.3,3.2c0,0.2,0.1,0.4,0.3,0.6l-0.7,0.3
				C231.7,244,231.6,243.7,231.6,243.3z M231.6,246c0-0.4,0.3-0.7,0.7-0.7s0.7,0.3,0.7,0.7s-0.3,0.7-0.7,0.7S231.6,246.3,231.6,246z
				"/>
		</g>
		<path fill="#F0C708" d="M42.6,246.9l-6.2-11c-0.3-0.5-0.9-0.9-1.5-0.9c-0.6,0-1.2,0.3-1.5,0.9l-6.2,11c-0.3,0.5-0.3,1.2,0,1.7
			c0.3,0.5,0.9,0.8,1.5,0.8h12.5c0.6,0,1.2-0.3,1.5-0.8C42.9,248.1,42.9,247.5,42.6,246.9z M35.8,247.5c-0.2,0.2-0.5,0.3-0.7,0.3
			c-0.3,0-0.5-0.1-0.7-0.3c-0.2-0.2-0.3-0.5-0.3-0.8c0-0.3,0.1-0.5,0.3-0.7c0.2-0.2,0.5-0.3,0.7-0.3c0.3,0,0.5,0.1,0.8,0.3
			c0.2,0.2,0.3,0.5,0.3,0.7C36.1,247,36,247.3,35.8,247.5z M36,240.4l-0.3,3.1c0,0.4-0.1,0.7-0.2,0.9c-0.1,0.2-0.3,0.4-0.6,0.4
			c-0.3,0-0.5-0.1-0.6-0.4c-0.1-0.2-0.2-0.5-0.2-0.9l-0.2-3c0-0.6-0.1-1-0.1-1.3c0-0.4,0.1-0.7,0.3-0.9c0.2-0.2,0.5-0.3,0.8-0.3
			c0.4,0,0.7,0.1,0.8,0.4c0.1,0.3,0.2,0.6,0.2,1.1C36.1,239.8,36.1,240.1,36,240.4z"/>
	</g>
</g>
<g>
	<path fill="#FCF9EB" stroke="#F9EAAC" stroke-miterlimit="10" d="M797.6,28.8c0,2.7-2.1,4.9-4.8,4.9H345.3c-2.6,0-4.8-2.2-4.8-4.9
		V6.2c0-2.7,2.1-4.9,4.8-4.9h447.5c2.6,0,4.8,2.2,4.8,4.9V28.8z"/>
	<g>
		<path fill="#444444" d="M382,17.4c0-2.5,1.8-4.2,4.2-4.2c1.4,0,2.4,0.7,3.1,1.6l-0.8,0.5c-0.5-0.7-1.3-1.2-2.2-1.2
			c-1.8,0-3.1,1.3-3.1,3.3c0,1.9,1.3,3.3,3.1,3.3c0.9,0,1.8-0.5,2.2-1.2l0.8,0.5c-0.7,0.9-1.6,1.6-3.1,1.6
			C383.9,21.6,382,19.9,382,17.4z"/>
		<path fill="#444444" d="M394.2,21.5v-0.7c-0.5,0.5-1.2,0.8-1.9,0.8c-1,0-2-0.7-2-1.9c0-1.3,1-1.9,2-1.9c0.8,0,1.5,0.3,1.9,0.8
			v-1.1c0-0.8-0.6-1.2-1.5-1.2c-0.7,0-1.3,0.2-1.8,0.8l-0.4-0.6c0.6-0.7,1.4-1,2.3-1c1.2,0,2.3,0.6,2.3,2v4H394.2z M394.2,20.2v-1.1
			c-0.4-0.5-1-0.7-1.6-0.7c-0.9,0-1.5,0.5-1.5,1.3c0,0.8,0.6,1.3,1.5,1.3C393.2,21,393.8,20.7,394.2,20.2z"/>
		<path fill="#444444" d="M396.9,21.5v-5.9h0.9v0.9c0.5-0.6,1.2-1.1,2-1.1v0.9c-0.1,0-0.2,0-0.4,0c-0.6,0-1.3,0.5-1.6,0.9v4.1H396.9
			z"/>
		<path fill="#444444" d="M400.6,18.5c0-1.7,1.2-3.1,2.9-3.1c1.8,0,2.8,1.4,2.8,3.1v0.2h-4.7c0.1,1.1,0.8,2,2.1,2
			c0.7,0,1.3-0.3,1.8-0.8l0.4,0.6c-0.6,0.6-1.4,0.9-2.3,0.9C401.8,21.6,400.6,20.4,400.6,18.5z M403.4,16.2c-1.2,0-1.9,1.1-1.9,1.9
			h3.8C405.4,17.3,404.8,16.2,403.4,16.2z"/>
		<path fill="#444444" d="M408,21.5v-5.1h-1v-0.8h1v-0.4c0-1.2,0.7-1.9,1.7-1.9c0.5,0,0.9,0.1,1.2,0.4l-0.4,0.6
			c-0.2-0.2-0.4-0.3-0.7-0.3c-0.6,0-0.9,0.4-0.9,1.2v0.4h1.2v0.8h-1.2v5.1H408z"/>
		<path fill="#444444" d="M415.1,21.5v-0.8c-0.4,0.5-1.2,1-2.1,1c-1.2,0-1.9-0.6-1.9-1.9v-4.1h0.9v3.9c0,1,0.5,1.3,1.3,1.3
			c0.7,0,1.4-0.4,1.7-0.9v-4.3h0.9v5.9H415.1z"/>
		<path fill="#444444" d="M417.8,21.5v-8.1h0.9v8.1H417.8z"/>
		<path fill="#444444" d="M423.9,20.2v-3.8h-1v-0.8h1V14h0.9v1.6h1.2v0.8h-1.2V20c0,0.4,0.2,0.8,0.6,0.8c0.3,0,0.5-0.1,0.6-0.3
			l0.3,0.7c-0.2,0.2-0.6,0.4-1.1,0.4C424.3,21.6,423.9,21.1,423.9,20.2z"/>
		<path fill="#444444" d="M431.2,21.5v-3.9c0-1-0.5-1.3-1.3-1.3c-0.7,0-1.4,0.4-1.7,0.9v4.3h-0.9v-8.1h0.9v3.1c0.4-0.5,1.2-1,2.1-1
			c1.2,0,1.9,0.6,1.9,1.9v4.1H431.2z"/>
		<path fill="#444444" d="M433.6,18.5c0-1.7,1.2-3.1,2.9-3.1c1.8,0,2.8,1.4,2.8,3.1v0.2h-4.7c0.1,1.1,0.8,2,2.1,2
			c0.7,0,1.3-0.3,1.8-0.8l0.4,0.6c-0.6,0.6-1.4,0.9-2.3,0.9C434.9,21.6,433.6,20.4,433.6,18.5z M436.5,16.2c-1.2,0-1.9,1.1-1.9,1.9
			h3.8C438.4,17.3,437.8,16.2,436.5,16.2z"/>
		<path fill="#444444" d="M440.8,21.5v-5.9h0.9v0.9c0.5-0.6,1.2-1.1,2-1.1v0.9c-0.1,0-0.2,0-0.4,0c-0.6,0-1.3,0.5-1.6,0.9v4.1H440.8
			z"/>
		<path fill="#444444" d="M444.4,18.5c0-1.7,1.2-3.1,2.9-3.1c1.8,0,2.8,1.4,2.8,3.1v0.2h-4.7c0.1,1.1,0.8,2,2.1,2
			c0.7,0,1.3-0.3,1.8-0.8l0.4,0.6c-0.6,0.6-1.4,0.9-2.3,0.9C445.7,21.6,444.4,20.4,444.4,18.5z M447.3,16.2c-1.2,0-1.9,1.1-1.9,1.9
			h3.8C449.2,17.3,448.6,16.2,447.3,16.2z"/>
		<path fill="#444444" d="M454.9,20.2v-3.8h-1v-0.8h1V14h0.9v1.6h1.2v0.8h-1.2V20c0,0.4,0.2,0.8,0.6,0.8c0.3,0,0.5-0.1,0.6-0.3
			l0.3,0.7c-0.2,0.2-0.6,0.4-1.1,0.4C455.3,21.6,454.9,21.1,454.9,20.2z"/>
		<path fill="#444444" d="M458.1,14.2c0-0.3,0.3-0.6,0.6-0.6s0.6,0.3,0.6,0.6c0,0.3-0.3,0.6-0.6,0.6S458.1,14.5,458.1,14.2z
			 M458.3,21.5v-5.9h0.9v5.9H458.3z"/>
		<path fill="#444444" d="M461,23l0.5-0.7c0.5,0.6,1.1,0.8,1.9,0.8c1,0,1.9-0.5,1.9-1.7v-0.9c-0.4,0.6-1.2,1-2,1
			c-1.5,0-2.6-1.1-2.6-3c0-1.9,1.1-3,2.6-3c0.8,0,1.5,0.4,2,1v-0.9h0.9v5.8c0,1.9-1.4,2.5-2.8,2.5C462.4,23.8,461.7,23.6,461,23z
			 M465.3,19.8v-2.6c-0.3-0.5-1-0.9-1.7-0.9c-1.2,0-1.9,0.9-1.9,2.2c0,1.3,0.7,2.2,1.9,2.2C464.2,20.7,464.9,20.3,465.3,19.8z"/>
		<path fill="#444444" d="M467.6,18.5c0-1.7,1.2-3.1,2.9-3.1c1.8,0,2.8,1.4,2.8,3.1v0.2h-4.7c0.1,1.1,0.8,2,2.1,2
			c0.7,0,1.3-0.3,1.8-0.8l0.4,0.6c-0.6,0.6-1.4,0.9-2.3,0.9C468.9,21.6,467.6,20.4,467.6,18.5z M470.5,16.2c-1.2,0-1.9,1.1-1.9,1.9
			h3.8C472.4,17.3,471.8,16.2,470.5,16.2z"/>
		<path fill="#444444" d="M474.8,21.5v-5.9h0.9v0.9c0.5-0.6,1.2-1.1,2-1.1v0.9c-0.1,0-0.2,0-0.4,0c-0.6,0-1.3,0.5-1.6,0.9v4.1H474.8
			z"/>
		<path fill="#444444" d="M478,23l-0.5-0.4c0.4-0.3,0.7-0.7,0.8-1.1c0,0-0.1,0-0.2,0c-0.3,0-0.6-0.3-0.6-0.6c0-0.4,0.3-0.7,0.6-0.7
			c0.4,0,0.8,0.3,0.8,0.9C479,21.9,478.6,22.6,478,23z"/>
		<path fill="#444444" d="M483.5,22.9c0.1,0.1,0.4,0.1,0.5,0.1c0.4,0,0.7-0.1,0.9-0.6l0.4-0.9l-2.4-5.9h1l1.9,4.8l2-4.8h1l-2.9,7
			c-0.4,0.8-0.9,1.2-1.7,1.2c-0.2,0-0.5,0-0.7-0.1L483.5,22.9z"/>
		<path fill="#444444" d="M489.3,18.5c0-1.7,1.1-3.1,2.9-3.1s2.9,1.4,2.9,3.1s-1.1,3.1-2.9,3.1S489.3,20.2,489.3,18.5z M494.1,18.5
			c0-1.2-0.7-2.3-1.9-2.3s-1.9,1.1-1.9,2.3c0,1.2,0.7,2.3,1.9,2.3S494.1,19.7,494.1,18.5z"/>
		<path fill="#444444" d="M500.5,21.5v-0.8c-0.4,0.5-1.2,1-2.1,1c-1.2,0-1.9-0.6-1.9-1.9v-4.1h0.9v3.9c0,1,0.5,1.3,1.3,1.3
			c0.7,0,1.4-0.4,1.7-0.9v-4.3h0.9v5.9H500.5z"/>
		<path fill="#444444" d="M513.5,21.5v-4c0-0.7-0.3-1.2-1.1-1.2c-0.6,0-1.2,0.4-1.6,0.9v4.3h-0.9v-4c0-0.7-0.3-1.2-1.1-1.2
			c-0.6,0-1.2,0.4-1.5,0.9v4.3h-0.9v-5.9h0.9v0.8c0.3-0.4,1-1,1.9-1c0.9,0,1.4,0.5,1.6,1.1c0.3-0.5,1.1-1.1,2-1.1
			c1.1,0,1.6,0.6,1.6,1.8v4.2H513.5z"/>
		<path fill="#444444" d="M519.8,21.5v-0.7c-0.5,0.5-1.2,0.8-1.9,0.8c-1,0-2-0.7-2-1.9c0-1.3,1-1.9,2-1.9c0.8,0,1.5,0.3,1.9,0.8
			v-1.1c0-0.8-0.6-1.2-1.5-1.2c-0.7,0-1.3,0.2-1.8,0.8l-0.4-0.6c0.6-0.7,1.4-1,2.3-1c1.2,0,2.3,0.6,2.3,2v4H519.8z M519.8,20.2v-1.1
			c-0.4-0.5-1-0.7-1.6-0.7c-0.9,0-1.5,0.5-1.5,1.3c0,0.8,0.6,1.3,1.5,1.3C518.9,21,519.5,20.7,519.8,20.2z"/>
		<path fill="#444444" d="M522.4,22.9c0.1,0.1,0.4,0.1,0.5,0.1c0.4,0,0.7-0.1,0.9-0.6l0.4-0.9l-2.4-5.9h1l1.9,4.8l2-4.8h1l-2.9,7
			c-0.4,0.8-0.9,1.2-1.7,1.2c-0.2,0-0.5,0-0.7-0.1L522.4,22.9z"/>
		<path fill="#444444" d="M531.3,18.5c0-1.7,1.2-3.1,2.9-3.1c1.8,0,2.8,1.4,2.8,3.1v0.2h-4.7c0.1,1.1,0.8,2,2.1,2
			c0.7,0,1.3-0.3,1.8-0.8l0.4,0.6c-0.6,0.6-1.4,0.9-2.3,0.9C532.5,21.6,531.3,20.4,531.3,18.5z M534.2,16.2c-1.2,0-1.9,1.1-1.9,1.9
			h3.8C536.1,17.3,535.5,16.2,534.2,16.2z"/>
		<path fill="#444444" d="M538.7,21.5v-5.1h-1v-0.8h1v-0.4c0-1.2,0.7-1.9,1.7-1.9c0.5,0,0.9,0.1,1.2,0.4l-0.4,0.6
			c-0.2-0.2-0.4-0.3-0.7-0.3c-0.6,0-0.9,0.4-0.9,1.2v0.4h1.2v0.8h-1.2v5.1H538.7z M542.2,21.5v-5.1h-1v-0.8h1v-0.4
			c0-1.2,0.7-1.9,1.7-1.9c0.5,0,0.9,0.1,1.2,0.4l-0.4,0.6c-0.2-0.2-0.4-0.3-0.7-0.3c-0.6,0-0.9,0.4-0.9,1.2v0.4h1.2v0.8h-1.2v5.1
			H542.2z"/>
		<path fill="#444444" d="M545,18.5c0-1.7,1.2-3.1,2.9-3.1c1.8,0,2.8,1.4,2.8,3.1v0.2H546c0.1,1.1,0.8,2,2.1,2
			c0.7,0,1.3-0.3,1.8-0.8l0.4,0.6c-0.6,0.6-1.4,0.9-2.3,0.9C546.2,21.6,545,20.4,545,18.5z M547.9,16.2c-1.2,0-1.9,1.1-1.9,1.9h3.8
			C549.8,17.3,549.2,16.2,547.9,16.2z"/>
		<path fill="#444444" d="M551.8,18.5c0-1.7,1.2-3.1,2.9-3.1c1.1,0,1.7,0.4,2.1,1l-0.6,0.5c-0.4-0.5-0.9-0.8-1.5-0.8
			c-1.2,0-2,1-2,2.3c0,1.3,0.8,2.3,2,2.3c0.6,0,1.1-0.2,1.5-0.8l0.6,0.6c-0.4,0.6-1.1,1-2.1,1C553,21.6,551.8,20.3,551.8,18.5z"/>
		<path fill="#444444" d="M558.3,20.2v-3.8h-1v-0.8h1V14h0.9v1.6h1.2v0.8h-1.2V20c0,0.4,0.2,0.8,0.6,0.8c0.3,0,0.5-0.1,0.6-0.3
			l0.3,0.7c-0.2,0.2-0.6,0.4-1.1,0.4C558.8,21.6,558.3,21.1,558.3,20.2z"/>
		<path fill="#444444" d="M564.5,18.5c0-1.7,1.1-3.1,2.9-3.1s2.9,1.4,2.9,3.1s-1.1,3.1-2.9,3.1S564.5,20.2,564.5,18.5z M569.3,18.5
			c0-1.2-0.7-2.3-1.9-2.3s-1.9,1.1-1.9,2.3c0,1.2,0.7,2.3,1.9,2.3S569.3,19.7,569.3,18.5z"/>
		<path fill="#444444" d="M572,20.2v-3.8h-1v-0.8h1V14h0.9v1.6h1.2v0.8h-1.2V20c0,0.4,0.2,0.8,0.6,0.8c0.3,0,0.5-0.1,0.6-0.3
			l0.3,0.7c-0.2,0.2-0.6,0.4-1.1,0.4C572.4,21.6,572,21.1,572,20.2z"/>
		<path fill="#444444" d="M579.3,21.5v-3.9c0-1-0.5-1.3-1.3-1.3c-0.7,0-1.4,0.4-1.7,0.9v4.3h-0.9v-8.1h0.9v3.1c0.4-0.5,1.2-1,2.1-1
			c1.2,0,1.9,0.6,1.9,1.9v4.1H579.3z"/>
		<path fill="#444444" d="M581.7,18.5c0-1.7,1.2-3.1,2.9-3.1c1.8,0,2.8,1.4,2.8,3.1v0.2h-4.7c0.1,1.1,0.8,2,2.1,2
			c0.7,0,1.3-0.3,1.8-0.8l0.4,0.6c-0.6,0.6-1.4,0.9-2.3,0.9C582.9,21.6,581.7,20.4,581.7,18.5z M584.6,16.2c-1.2,0-1.9,1.1-1.9,1.9
			h3.8C586.5,17.3,585.9,16.2,584.6,16.2z"/>
		<path fill="#444444" d="M588.8,21.5v-5.9h0.9v0.9c0.5-0.6,1.2-1.1,2-1.1v0.9c-0.1,0-0.2,0-0.4,0c-0.6,0-1.3,0.5-1.6,0.9v4.1H588.8
			z"/>
		<path fill="#444444" d="M595.6,18.5c0-1.7,1.2-3.1,2.9-3.1c1.1,0,1.7,0.4,2.1,1l-0.6,0.5c-0.4-0.5-0.9-0.8-1.5-0.8
			c-1.2,0-2,1-2,2.3c0,1.3,0.8,2.3,2,2.3c0.6,0,1.1-0.2,1.5-0.8l0.6,0.6c-0.4,0.6-1.1,1-2.1,1C596.8,21.6,595.6,20.3,595.6,18.5z"/>
		<path fill="#444444" d="M606,21.5v-3.9c0-1-0.5-1.3-1.3-1.3c-0.7,0-1.4,0.4-1.7,0.9v4.3H602v-8.1h0.9v3.1c0.4-0.5,1.2-1,2.1-1
			c1.2,0,1.9,0.6,1.9,1.9v4.1H606z"/>
		<path fill="#444444" d="M612.3,21.5v-0.7c-0.5,0.5-1.2,0.8-1.9,0.8c-1,0-2-0.7-2-1.9c0-1.3,1-1.9,2-1.9c0.8,0,1.5,0.3,1.9,0.8
			v-1.1c0-0.8-0.6-1.2-1.5-1.2c-0.7,0-1.3,0.2-1.8,0.8l-0.4-0.6c0.6-0.7,1.4-1,2.3-1c1.2,0,2.3,0.6,2.3,2v4H612.3z M612.3,20.2v-1.1
			c-0.4-0.5-1-0.7-1.6-0.7c-0.9,0-1.5,0.5-1.5,1.3c0,0.8,0.6,1.3,1.5,1.3C611.4,21,612,20.7,612.3,20.2z"/>
		<path fill="#444444" d="M615.1,21.5v-5.9h0.9v0.9c0.5-0.6,1.2-1.1,2-1.1v0.9c-0.1,0-0.2,0-0.4,0c-0.6,0-1.3,0.5-1.6,0.9v4.1H615.1
			z"/>
		<path fill="#444444" d="M619.3,20.2v-3.8h-1v-0.8h1V14h0.9v1.6h1.2v0.8h-1.2V20c0,0.4,0.2,0.8,0.6,0.8c0.3,0,0.5-0.1,0.6-0.3
			l0.3,0.7c-0.2,0.2-0.6,0.4-1.1,0.4C619.7,21.6,619.3,21.1,619.3,20.2z"/>
		<path fill="#444444" d="M622.1,20.7l0.5-0.7c0.4,0.4,1.1,0.8,1.9,0.8c0.9,0,1.4-0.4,1.4-1c0-1.4-3.6-0.5-3.6-2.7
			c0-0.9,0.8-1.7,2.2-1.7c1,0,1.7,0.4,2.2,0.8l-0.4,0.6c-0.4-0.4-1-0.7-1.7-0.7c-0.8,0-1.3,0.4-1.3,0.9c0,1.3,3.6,0.4,3.6,2.7
			c0,1-0.8,1.8-2.3,1.8C623.5,21.6,622.7,21.3,622.1,20.7z"/>
		<path fill="#444444" d="M636.5,21.5l-1.5-4.7l-1.5,4.7h-0.9l-1.9-5.9h0.9l1.4,4.7l1.5-4.7h0.8l1.5,4.7l1.4-4.7h1l-1.9,5.9H636.5z"
			/>
		<path fill="#444444" d="M640.1,14.2c0-0.3,0.3-0.6,0.6-0.6s0.6,0.3,0.6,0.6c0,0.3-0.3,0.6-0.6,0.6S640.1,14.5,640.1,14.2z
			 M640.3,21.5v-5.9h0.9v5.9H640.3z"/>
		<path fill="#444444" d="M643.2,20.2v-3.8h-1v-0.8h1V14h0.9v1.6h1.2v0.8h-1.2V20c0,0.4,0.2,0.8,0.6,0.8c0.3,0,0.5-0.1,0.6-0.3
			l0.3,0.7c-0.2,0.2-0.6,0.4-1.1,0.4C643.6,21.6,643.2,21.1,643.2,20.2z"/>
		<path fill="#444444" d="M650.5,21.5v-3.9c0-1-0.5-1.3-1.3-1.3c-0.7,0-1.4,0.4-1.7,0.9v4.3h-0.9v-8.1h0.9v3.1c0.4-0.5,1.2-1,2.1-1
			c1.2,0,1.9,0.6,1.9,1.9v4.1H650.5z"/>
		<path fill="#444444" d="M656.6,20.2v-3.8h-1v-0.8h1V14h0.9v1.6h1.2v0.8h-1.2V20c0,0.4,0.2,0.8,0.6,0.8c0.3,0,0.5-0.1,0.6-0.3
			l0.3,0.7c-0.2,0.2-0.6,0.4-1.1,0.4C657,21.6,656.6,21.1,656.6,20.2z"/>
		<path fill="#444444" d="M663.9,21.5v-3.9c0-1-0.5-1.3-1.3-1.3c-0.7,0-1.4,0.4-1.7,0.9v4.3H660v-8.1h0.9v3.1c0.4-0.5,1.2-1,2.1-1
			c1.2,0,1.9,0.6,1.9,1.9v4.1H663.9z"/>
		<path fill="#444444" d="M666.5,14.2c0-0.3,0.3-0.6,0.6-0.6s0.6,0.3,0.6,0.6c0,0.3-0.3,0.6-0.6,0.6S666.5,14.5,666.5,14.2z
			 M666.6,21.5v-5.9h0.9v5.9H666.6z"/>
		<path fill="#444444" d="M668.9,20.7l0.5-0.7c0.4,0.4,1.1,0.8,1.9,0.8c0.9,0,1.4-0.4,1.4-1c0-1.4-3.6-0.5-3.6-2.7
			c0-0.9,0.8-1.7,2.2-1.7c1,0,1.7,0.4,2.2,0.8l-0.4,0.6c-0.4-0.4-1-0.7-1.7-0.7c-0.8,0-1.3,0.4-1.3,0.9c0,1.3,3.6,0.4,3.6,2.7
			c0,1-0.8,1.8-2.3,1.8C670.3,21.6,669.5,21.3,668.9,20.7z"/>
		<path fill="#444444" d="M677.8,18.5c0-1.7,1.2-3.1,2.9-3.1c1.1,0,1.7,0.4,2.1,1l-0.6,0.5c-0.4-0.5-0.9-0.8-1.5-0.8
			c-1.2,0-2,1-2,2.3c0,1.3,0.8,2.3,2,2.3c0.6,0,1.1-0.2,1.5-0.8l0.6,0.6c-0.4,0.6-1.1,1-2.1,1C679,21.6,677.8,20.3,677.8,18.5z"/>
		<path fill="#444444" d="M688.1,21.5v-3.9c0-1-0.5-1.3-1.3-1.3c-0.7,0-1.4,0.4-1.7,0.9v4.3h-0.9v-8.1h0.9v3.1c0.4-0.5,1.2-1,2.1-1
			c1.2,0,1.9,0.6,1.9,1.9v4.1H688.1z"/>
		<path fill="#444444" d="M694.5,21.5v-0.7c-0.5,0.5-1.2,0.8-1.9,0.8c-1,0-2-0.7-2-1.9c0-1.3,1-1.9,2-1.9c0.8,0,1.5,0.3,1.9,0.8
			v-1.1c0-0.8-0.6-1.2-1.5-1.2c-0.7,0-1.3,0.2-1.8,0.8l-0.4-0.6c0.6-0.7,1.4-1,2.3-1c1.2,0,2.3,0.6,2.3,2v4H694.5z M694.5,20.2v-1.1
			c-0.4-0.5-1-0.7-1.6-0.7c-0.9,0-1.5,0.5-1.5,1.3c0,0.8,0.6,1.3,1.5,1.3C693.5,21,694.1,20.7,694.5,20.2z"/>
		<path fill="#444444" d="M701.2,21.5v-3.8c0-1-0.5-1.4-1.3-1.4c-0.7,0-1.4,0.4-1.7,0.9v4.3h-0.9v-5.9h0.9v0.8c0.4-0.5,1.2-1,2.1-1
			c1.2,0,1.9,0.6,1.9,1.9v4.1H701.2z"/>
		<path fill="#444444" d="M703.9,23l0.5-0.7c0.5,0.6,1.1,0.8,1.9,0.8c1,0,1.9-0.5,1.9-1.7v-0.9c-0.4,0.6-1.2,1-2,1
			c-1.5,0-2.6-1.1-2.6-3c0-1.9,1.1-3,2.6-3c0.8,0,1.5,0.4,2,1v-0.9h0.9v5.8c0,1.9-1.4,2.5-2.8,2.5C705.3,23.8,704.6,23.6,703.9,23z
			 M708.2,19.8v-2.6c-0.3-0.5-1-0.9-1.7-0.9c-1.2,0-1.9,0.9-1.9,2.2c0,1.3,0.7,2.2,1.9,2.2C707.1,20.7,707.8,20.3,708.2,19.8z"/>
		<path fill="#444444" d="M710.5,18.5c0-1.7,1.2-3.1,2.9-3.1c1.8,0,2.8,1.4,2.8,3.1v0.2h-4.7c0.1,1.1,0.8,2,2.1,2
			c0.7,0,1.3-0.3,1.8-0.8l0.4,0.6c-0.6,0.6-1.4,0.9-2.3,0.9C711.8,21.6,710.5,20.4,710.5,18.5z M713.4,16.2c-1.2,0-1.9,1.1-1.9,1.9
			h3.8C715.3,17.3,714.7,16.2,713.4,16.2z"/>
		<path fill="#444444" d="M717.4,20.9c0-0.4,0.3-0.7,0.7-0.7s0.7,0.3,0.7,0.7s-0.3,0.7-0.7,0.7S717.4,21.3,717.4,20.9z"/>
	</g>
	<path fill="#F0C708" d="M367.5,21.9l-6.2-11c-0.3-0.5-0.9-0.9-1.5-0.9c-0.6,0-1.2,0.3-1.5,0.9l-6.2,11c-0.3,0.5-0.3,1.2,0,1.7
		c0.3,0.5,0.9,0.8,1.5,0.8h12.5c0.6,0,1.2-0.3,1.5-0.8C367.8,23.1,367.8,22.4,367.5,21.9z M360.7,22.4c-0.2,0.2-0.5,0.3-0.7,0.3
		c-0.3,0-0.5-0.1-0.7-0.3c-0.2-0.2-0.3-0.5-0.3-0.8c0-0.3,0.1-0.5,0.3-0.7c0.2-0.2,0.5-0.3,0.7-0.3c0.3,0,0.5,0.1,0.8,0.3
		c0.2,0.2,0.3,0.5,0.3,0.7C361,22,360.9,22.2,360.7,22.4z M361,15.3l-0.3,3.1c0,0.4-0.1,0.7-0.2,0.9c-0.1,0.2-0.3,0.4-0.6,0.4
		c-0.3,0-0.5-0.1-0.6-0.4c-0.1-0.2-0.2-0.5-0.2-0.9l-0.2-3c0-0.6-0.1-1-0.1-1.3c0-0.4,0.1-0.7,0.3-0.9c0.2-0.2,0.5-0.3,0.8-0.3
		c0.4,0,0.7,0.1,0.8,0.4c0.1,0.3,0.2,0.6,0.2,1.1C361,14.8,361,15.1,361,15.3z"/>
</g>
<g>
	<path fill="#EEFDFF" stroke="#CDEBFC" stroke-miterlimit="10" d="M797.6,79.4c0,2.7-2.2,4.8-4.8,4.8H345.4c-2.7,0-4.8-2.2-4.8-4.8
		V56.8c0-2.7,2.2-4.8,4.8-4.8h447.4c2.7,0,4.8,2.2,4.8,4.8V79.4z"/>
	<g>
		<g>
			<path fill="#444444" d="M380.4,71.1l0.5-0.8c0.3,0.4,0.8,0.8,1.5,0.8c1,0,1.6-0.7,1.6-1.7v-5.6h1v5.6c0,1.7-1.1,2.6-2.6,2.6
				C381.7,72,381,71.7,380.4,71.1z"/>
			<path fill="#444444" d="M390.9,71.9v-0.8c-0.4,0.5-1.2,1-2.1,1c-1.2,0-1.9-0.6-1.9-1.9V66h0.9v3.9c0,1,0.5,1.3,1.3,1.3
				c0.7,0,1.4-0.4,1.7-0.9V66h0.9v5.9H390.9z"/>
			<path fill="#444444" d="M393.1,71.1l0.5-0.7c0.4,0.4,1.1,0.8,1.9,0.8c0.9,0,1.4-0.4,1.4-1c0-1.4-3.6-0.5-3.6-2.7
				c0-0.9,0.8-1.7,2.2-1.7c1,0,1.7,0.4,2.2,0.8l-0.4,0.6c-0.4-0.4-1-0.7-1.7-0.7c-0.8,0-1.3,0.4-1.3,0.9c0,1.3,3.6,0.4,3.6,2.7
				c0,1-0.8,1.8-2.3,1.8C394.5,72,393.7,71.7,393.1,71.1z"/>
			<path fill="#444444" d="M399.4,70.7v-3.8h-1V66h1v-1.6h0.9V66h1.2v0.8h-1.2v3.6c0,0.4,0.2,0.8,0.6,0.8c0.3,0,0.5-0.1,0.6-0.3
				l0.3,0.7c-0.2,0.2-0.6,0.4-1.1,0.4C399.9,72,399.4,71.5,399.4,70.7z"/>
			<path fill="#444444" d="M405.8,64.6c0-0.3,0.3-0.6,0.6-0.6s0.6,0.3,0.6,0.6c0,0.3-0.3,0.6-0.6,0.6S405.8,64.9,405.8,64.6z
				 M405.9,71.9V66h0.9v5.9H405.9z"/>
			<path fill="#444444" d="M412.6,71.9v-3.8c0-1-0.5-1.4-1.3-1.4c-0.7,0-1.4,0.4-1.7,0.9v4.3h-0.9V66h0.9v0.8c0.4-0.5,1.2-1,2.1-1
				c1.2,0,1.9,0.6,1.9,1.9v4.1H412.6z"/>
			<path fill="#444444" d="M418.1,68.9c0-1.7,1.2-3.1,2.9-3.1c1.1,0,1.7,0.4,2.1,1l-0.6,0.5c-0.4-0.5-0.9-0.8-1.5-0.8
				c-1.2,0-2,1-2,2.3c0,1.3,0.8,2.3,2,2.3c0.6,0,1.1-0.2,1.5-0.8l0.6,0.6c-0.4,0.6-1.1,1-2.1,1C419.3,72,418.1,70.7,418.1,68.9z"/>
			<path fill="#444444" d="M428.2,71.9v-0.7c-0.5,0.5-1.2,0.8-1.9,0.8c-1,0-2-0.7-2-1.9c0-1.3,1-1.9,2-1.9c0.8,0,1.5,0.3,1.9,0.8
				v-1.1c0-0.8-0.6-1.2-1.5-1.2c-0.7,0-1.3,0.2-1.8,0.8l-0.4-0.6c0.6-0.7,1.4-1,2.3-1c1.2,0,2.3,0.6,2.3,2v4H428.2z M428.2,70.6
				v-1.1c-0.4-0.5-1-0.7-1.6-0.7c-0.9,0-1.5,0.5-1.5,1.3c0,0.8,0.6,1.3,1.5,1.3C427.2,71.4,427.8,71.1,428.2,70.6z"/>
			<path fill="#444444" d="M430.4,71.1l0.5-0.7c0.4,0.4,1.1,0.8,1.9,0.8c0.9,0,1.4-0.4,1.4-1c0-1.4-3.6-0.5-3.6-2.7
				c0-0.9,0.8-1.7,2.2-1.7c1,0,1.7,0.4,2.2,0.8l-0.4,0.6c-0.4-0.4-1-0.7-1.7-0.7c-0.8,0-1.3,0.4-1.3,0.9c0,1.3,3.6,0.4,3.6,2.7
				c0,1-0.8,1.8-2.3,1.8C431.8,72,431,71.7,430.4,71.1z"/>
			<path fill="#444444" d="M436.2,68.9c0-1.7,1.2-3.1,2.9-3.1c1.8,0,2.8,1.4,2.8,3.1v0.2h-4.7c0.1,1.1,0.8,2,2.1,2
				c0.7,0,1.3-0.3,1.8-0.8l0.4,0.6c-0.6,0.6-1.4,0.9-2.3,0.9C437.4,72,436.2,70.8,436.2,68.9z M439.1,66.6c-1.2,0-1.9,1.1-1.9,1.9
				h3.8C441,67.7,440.4,66.6,439.1,66.6z"/>
			<path fill="#444444" d="M446.3,73.3c0.1,0.1,0.4,0.1,0.5,0.1c0.4,0,0.7-0.1,0.9-0.6l0.4-0.9l-2.4-5.9h1l1.9,4.8l2-4.8h1l-2.9,7
				c-0.4,0.8-0.9,1.2-1.7,1.2c-0.2,0-0.5,0-0.7-0.1L446.3,73.3z"/>
			<path fill="#444444" d="M452.1,68.9c0-1.7,1.1-3.1,2.9-3.1s2.9,1.4,2.9,3.1S456.8,72,455,72S452.1,70.6,452.1,68.9z M456.9,68.9
				c0-1.2-0.7-2.3-1.9-2.3s-1.9,1.1-1.9,2.3c0,1.2,0.7,2.3,1.9,2.3S456.9,70.1,456.9,68.9z"/>
			<path fill="#444444" d="M463.3,71.9v-0.8c-0.4,0.5-1.2,1-2.1,1c-1.2,0-1.9-0.6-1.9-1.9V66h0.9v3.9c0,1,0.5,1.3,1.3,1.3
				c0.7,0,1.4-0.4,1.7-0.9V66h0.9v5.9H463.3z"/>
			<path fill="#444444" d="M469.4,71.9v-5.1h-1V66h1v-0.4c0-1.2,0.7-1.9,1.7-1.9c0.5,0,0.9,0.1,1.2,0.4l-0.4,0.6
				c-0.2-0.2-0.4-0.3-0.7-0.3c-0.6,0-0.9,0.4-0.9,1.2V66h1.2v0.8h-1.2v5.1H469.4z"/>
			<path fill="#444444" d="M472.3,68.9c0-1.7,1.1-3.1,2.9-3.1s2.9,1.4,2.9,3.1s-1.1,3.1-2.9,3.1S472.3,70.6,472.3,68.9z M477.1,68.9
				c0-1.2-0.7-2.3-1.9-2.3s-1.9,1.1-1.9,2.3c0,1.2,0.7,2.3,1.9,2.3S477.1,70.1,477.1,68.9z"/>
			<path fill="#444444" d="M479.5,71.9V66h0.9V67c0.5-0.6,1.2-1.1,2-1.1v0.9c-0.1,0-0.2,0-0.4,0c-0.6,0-1.3,0.5-1.6,0.9v4.1H479.5z"
				/>
			<path fill="#444444" d="M483.5,73.4l0.5-0.7c0.5,0.6,1.1,0.8,1.9,0.8c1,0,1.9-0.5,1.9-1.7v-0.9c-0.4,0.6-1.2,1-2,1
				c-1.5,0-2.6-1.1-2.6-3c0-1.9,1.1-3,2.6-3c0.8,0,1.5,0.4,2,1V66h0.9v5.8c0,1.9-1.4,2.5-2.8,2.5C484.9,74.3,484.2,74.1,483.5,73.4z
				 M487.8,70.2v-2.6c-0.3-0.5-1-0.9-1.7-0.9c-1.2,0-1.9,0.9-1.9,2.2c0,1.3,0.7,2.2,1.9,2.2C486.7,71.1,487.4,70.7,487.8,70.2z"/>
			<path fill="#444444" d="M490.1,68.9c0-1.7,1.1-3.1,2.9-3.1s2.9,1.4,2.9,3.1S494.8,72,493,72S490.1,70.6,490.1,68.9z M495,68.9
				c0-1.2-0.7-2.3-1.9-2.3s-1.9,1.1-1.9,2.3c0,1.2,0.7,2.3,1.9,2.3S495,70.1,495,68.9z"/>
			<path fill="#444444" d="M497.6,70.7v-3.8h-1V66h1v-1.6h0.9V66h1.2v0.8h-1.2v3.6c0,0.4,0.2,0.8,0.6,0.8c0.3,0,0.5-0.1,0.6-0.3
				l0.3,0.7c-0.2,0.2-0.6,0.4-1.1,0.4C498,72,497.6,71.5,497.6,70.7z"/>
			<path fill="#444444" d="M501.2,73.4l-0.5-0.4c0.4-0.3,0.7-0.7,0.8-1.1c0,0-0.1,0-0.2,0c-0.3,0-0.6-0.3-0.6-0.6
				c0-0.4,0.3-0.7,0.6-0.7c0.4,0,0.8,0.3,0.8,0.9C502.2,72.3,501.8,73,501.2,73.4z"/>
			<path fill="#444444" d="M507.1,70.7v-3.8h-1V66h1v-1.6h0.9V66h1.2v0.8H508v3.6c0,0.4,0.2,0.8,0.6,0.8c0.3,0,0.5-0.1,0.6-0.3
				l0.3,0.7c-0.2,0.2-0.6,0.4-1.1,0.4C507.5,72,507.1,71.5,507.1,70.7z"/>
			<path fill="#444444" d="M514.4,71.9V68c0-1-0.5-1.3-1.3-1.3c-0.7,0-1.4,0.4-1.7,0.9v4.3h-0.9v-8.1h0.9v3.1c0.4-0.5,1.2-1,2.1-1
				c1.2,0,1.9,0.6,1.9,1.9v4.1H514.4z"/>
			<path fill="#444444" d="M517,64.6c0-0.3,0.3-0.6,0.6-0.6s0.6,0.3,0.6,0.6c0,0.3-0.3,0.6-0.6,0.6S517,64.9,517,64.6z M517.1,71.9
				V66h0.9v5.9H517.1z"/>
			<path fill="#444444" d="M519.4,71.1l0.5-0.7c0.4,0.4,1.1,0.8,1.9,0.8c0.9,0,1.4-0.4,1.4-1c0-1.4-3.6-0.5-3.6-2.7
				c0-0.9,0.8-1.7,2.2-1.7c1,0,1.7,0.4,2.2,0.8l-0.4,0.6c-0.4-0.4-1-0.7-1.7-0.7c-0.8,0-1.3,0.4-1.3,0.9c0,1.3,3.6,0.4,3.6,2.7
				c0,1-0.8,1.8-2.3,1.8C520.8,72,520,71.7,519.4,71.1z"/>
			<path fill="#444444" d="M528.5,64.6c0-0.3,0.3-0.6,0.6-0.6s0.6,0.3,0.6,0.6c0,0.3-0.3,0.6-0.6,0.6S528.5,64.9,528.5,64.6z
				 M528.6,71.9V66h0.9v5.9H528.6z"/>
			<path fill="#444444" d="M530.9,71.1l0.5-0.7c0.4,0.4,1.1,0.8,1.9,0.8c0.9,0,1.4-0.4,1.4-1c0-1.4-3.6-0.5-3.6-2.7
				c0-0.9,0.8-1.7,2.2-1.7c1,0,1.7,0.4,2.2,0.8l-0.4,0.6c-0.4-0.4-1-0.7-1.7-0.7c-0.8,0-1.3,0.4-1.3,0.9c0,1.3,3.6,0.4,3.6,2.7
				c0,1-0.8,1.8-2.3,1.8C532.3,72,531.5,71.7,530.9,71.1z"/>
			<path fill="#444444" d="M540.4,71.9v-5.1h-1V66h1v-0.4c0-1.2,0.7-1.9,1.7-1.9c0.5,0,0.9,0.1,1.2,0.4l-0.4,0.6
				c-0.2-0.2-0.4-0.3-0.7-0.3c-0.6,0-0.9,0.4-0.9,1.2V66h1.2v0.8h-1.2v5.1H540.4z"/>
			<path fill="#444444" d="M543.2,68.9c0-1.7,1.1-3.1,2.9-3.1s2.9,1.4,2.9,3.1s-1.1,3.1-2.9,3.1S543.2,70.6,543.2,68.9z M548.1,68.9
				c0-1.2-0.7-2.3-1.9-2.3s-1.9,1.1-1.9,2.3c0,1.2,0.7,2.3,1.9,2.3S548.1,70.1,548.1,68.9z"/>
			<path fill="#444444" d="M550.5,71.9V66h0.9V67c0.5-0.6,1.2-1.1,2-1.1v0.9c-0.1,0-0.2,0-0.4,0c-0.6,0-1.3,0.5-1.6,0.9v4.1H550.5z"
				/>
			<path fill="#444444" d="M557.3,68.9c0-1.7,1.2-3.1,2.9-3.1c1.8,0,2.8,1.4,2.8,3.1v0.2h-4.7c0.1,1.1,0.8,2,2.1,2
				c0.7,0,1.3-0.3,1.8-0.8l0.4,0.6c-0.6,0.6-1.4,0.9-2.3,0.9C558.5,72,557.3,70.8,557.3,68.9z M560.2,66.6c-1.2,0-1.9,1.1-1.9,1.9
				h3.8C562.1,67.7,561.5,66.6,560.2,66.6z"/>
			<path fill="#444444" d="M568.3,71.9l-1.8-2.4l-1.8,2.4h-1l2.2-3l-2.1-2.8h1.1l1.6,2.2l1.6-2.2h1l-2.1,2.8l2.3,3H568.3z"/>
			<path fill="#444444" d="M570.5,70.7v-3.8h-1V66h1v-1.6h0.9V66h1.2v0.8h-1.2v3.6c0,0.4,0.2,0.8,0.6,0.8c0.3,0,0.5-0.1,0.6-0.3
				l0.3,0.7c-0.2,0.2-0.6,0.4-1.1,0.4C571,72,570.5,71.5,570.5,70.7z"/>
			<path fill="#444444" d="M573.9,71.9V66h0.9V67c0.5-0.6,1.2-1.1,2-1.1v0.9c-0.1,0-0.2,0-0.4,0c-0.6,0-1.3,0.5-1.6,0.9v4.1H573.9z"
				/>
			<path fill="#444444" d="M581.6,71.9v-0.7c-0.5,0.5-1.2,0.8-1.9,0.8c-1,0-2-0.7-2-1.9c0-1.3,1-1.9,2-1.9c0.8,0,1.5,0.3,1.9,0.8
				v-1.1c0-0.8-0.6-1.2-1.5-1.2c-0.7,0-1.3,0.2-1.8,0.8l-0.4-0.6c0.6-0.7,1.4-1,2.3-1c1.2,0,2.3,0.6,2.3,2v4H581.6z M581.6,70.6
				v-1.1c-0.4-0.5-1-0.7-1.6-0.7c-0.9,0-1.5,0.5-1.5,1.3c0,0.8,0.6,1.3,1.5,1.3C580.6,71.4,581.2,71.1,581.6,70.6z"/>
			<path fill="#444444" d="M587.3,64.6c0-0.3,0.3-0.6,0.6-0.6s0.6,0.3,0.6,0.6c0,0.3-0.3,0.6-0.6,0.6S587.3,64.9,587.3,64.6z
				 M587.4,71.9V66h0.9v5.9H587.4z"/>
			<path fill="#444444" d="M594.1,71.9v-3.8c0-1-0.5-1.4-1.3-1.4c-0.7,0-1.4,0.4-1.7,0.9v4.3h-0.9V66h0.9v0.8c0.4-0.5,1.2-1,2.1-1
				c1.2,0,1.9,0.6,1.9,1.9v4.1H594.1z"/>
			<path fill="#444444" d="M597.1,71.9v-5.1h-1V66h1v-0.4c0-1.2,0.7-1.9,1.7-1.9c0.5,0,0.9,0.1,1.2,0.4l-0.4,0.6
				c-0.2-0.2-0.4-0.3-0.7-0.3c-0.6,0-0.9,0.4-0.9,1.2V66h1.2v0.8H598v5.1H597.1z"/>
			<path fill="#444444" d="M600,68.9c0-1.7,1.1-3.1,2.9-3.1s2.9,1.4,2.9,3.1s-1.1,3.1-2.9,3.1S600,70.6,600,68.9z M604.8,68.9
				c0-1.2-0.7-2.3-1.9-2.3s-1.9,1.1-1.9,2.3c0,1.2,0.7,2.3,1.9,2.3S604.8,70.1,604.8,68.9z"/>
			<path fill="#444444" d="M610.2,73.3c0.1,0.1,0.4,0.1,0.5,0.1c0.4,0,0.7-0.1,0.9-0.6l0.4-0.9l-2.4-5.9h1l1.9,4.8l2-4.8h1l-2.9,7
				c-0.4,0.8-0.9,1.2-1.7,1.2c-0.2,0-0.5,0-0.7-0.1L610.2,73.3z"/>
			<path fill="#444444" d="M616,68.9c0-1.7,1.1-3.1,2.9-3.1s2.9,1.4,2.9,3.1s-1.1,3.1-2.9,3.1S616,70.6,616,68.9z M620.8,68.9
				c0-1.2-0.7-2.3-1.9-2.3s-1.9,1.1-1.9,2.3c0,1.2,0.7,2.3,1.9,2.3S620.8,70.1,620.8,68.9z"/>
			<path fill="#444444" d="M627.2,71.9v-0.8c-0.4,0.5-1.2,1-2.1,1c-1.2,0-1.9-0.6-1.9-1.9V66h0.9v3.9c0,1,0.5,1.3,1.3,1.3
				c0.7,0,1.4-0.4,1.7-0.9V66h0.9v5.9H627.2z"/>
			<path fill="#444444" d="M640.1,71.9v-4c0-0.7-0.3-1.2-1.1-1.2c-0.6,0-1.2,0.4-1.6,0.9v4.3h-0.9v-4c0-0.7-0.3-1.2-1.1-1.2
				c-0.6,0-1.2,0.4-1.5,0.9v4.3H633V66h0.9v0.8c0.3-0.4,1-1,1.9-1c0.9,0,1.4,0.5,1.6,1.1c0.3-0.5,1.1-1.1,2-1.1
				c1.1,0,1.6,0.6,1.6,1.8v4.2H640.1z"/>
			<path fill="#444444" d="M646.5,71.9v-0.7c-0.5,0.5-1.2,0.8-1.9,0.8c-1,0-2-0.7-2-1.9c0-1.3,1-1.9,2-1.9c0.8,0,1.5,0.3,1.9,0.8
				v-1.1c0-0.8-0.6-1.2-1.5-1.2c-0.7,0-1.3,0.2-1.8,0.8l-0.4-0.6c0.6-0.7,1.4-1,2.3-1c1.2,0,2.3,0.6,2.3,2v4H646.5z M646.5,70.6
				v-1.1c-0.4-0.5-1-0.7-1.6-0.7c-0.9,0-1.5,0.5-1.5,1.3c0,0.8,0.6,1.3,1.5,1.3C645.5,71.4,646.1,71.1,646.5,70.6z"/>
			<path fill="#444444" d="M649,73.3c0.1,0.1,0.4,0.1,0.5,0.1c0.4,0,0.7-0.1,0.9-0.6l0.4-0.9l-2.4-5.9h1l1.9,4.8l2-4.8h1l-2.9,7
				c-0.4,0.8-0.9,1.2-1.7,1.2c-0.2,0-0.5,0-0.7-0.1L649,73.3z"/>
			<path fill="#444444" d="M662.3,71.9v-3.8c0-1-0.5-1.4-1.3-1.4c-0.7,0-1.4,0.4-1.7,0.9v4.3h-0.9V66h0.9v0.8c0.4-0.5,1.2-1,2.1-1
				c1.2,0,1.9,0.6,1.9,1.9v4.1H662.3z"/>
			<path fill="#444444" d="M664.6,68.9c0-1.7,1.1-3.1,2.9-3.1s2.9,1.4,2.9,3.1s-1.1,3.1-2.9,3.1S664.6,70.6,664.6,68.9z M669.5,68.9
				c0-1.2-0.7-2.3-1.9-2.3s-1.9,1.1-1.9,2.3c0,1.2,0.7,2.3,1.9,2.3S669.5,70.1,669.5,68.9z"/>
			<path fill="#444444" d="M672.1,70.7v-3.8h-1V66h1v-1.6h0.9V66h1.2v0.8H673v3.6c0,0.4,0.2,0.8,0.6,0.8c0.3,0,0.5-0.1,0.6-0.3
				l0.3,0.7c-0.2,0.2-0.6,0.4-1.1,0.4C672.5,72,672.1,71.5,672.1,70.7z"/>
			<path fill="#444444" d="M682.6,71.9l-2.1-2.6l-1,1v1.7h-0.9v-8.1h0.9v5.3l3.1-3.1h1.2l-2.6,2.7l2.6,3.2H682.6z"/>
			<path fill="#444444" d="M688.8,71.9v-3.8c0-1-0.5-1.4-1.3-1.4c-0.7,0-1.4,0.4-1.7,0.9v4.3h-0.9V66h0.9v0.8c0.4-0.5,1.2-1,2.1-1
				c1.2,0,1.9,0.6,1.9,1.9v4.1H688.8z"/>
			<path fill="#444444" d="M691.2,68.9c0-1.7,1.1-3.1,2.9-3.1s2.9,1.4,2.9,3.1s-1.1,3.1-2.9,3.1S691.2,70.6,691.2,68.9z M696,68.9
				c0-1.2-0.7-2.3-1.9-2.3s-1.9,1.1-1.9,2.3c0,1.2,0.7,2.3,1.9,2.3S696,70.1,696,68.9z"/>
			<path fill="#444444" d="M703.5,71.9l-1.5-4.7l-1.5,4.7h-0.9l-1.9-5.9h0.9l1.4,4.7l1.5-4.7h0.8l1.5,4.7l1.4-4.7h1l-1.9,5.9H703.5z
				"/>
			<path fill="#444444" d="M706.6,71.3c0-0.4,0.3-0.7,0.7-0.7s0.7,0.3,0.7,0.7s-0.3,0.7-0.7,0.7S706.6,71.7,706.6,71.3z"/>
		</g>
	</g>
	<path fill="#2E86CE" d="M359.8,60.4c-4.3,0-7.9,3.5-7.9,7.9s3.5,7.9,7.9,7.9c4.3,0,7.9-3.5,7.9-7.9S364.2,60.4,359.8,60.4z
		 M360,62.8c1,0,1.7,0.8,1.7,1.7c0,1-0.8,1.7-1.7,1.7c-1,0-1.7-0.8-1.7-1.7C358.3,63.6,359.1,62.8,360,62.8z M362.4,73.2
		c-0.1,0.1-0.3,0.2-0.4,0.2h-4c-0.1,0-0.2,0-0.4-0.2c-0.1-0.1-0.2-0.3-0.2-0.4c0-0.2,0.1-0.3,0.2-0.5c0.1-0.2,0.3-0.2,0.4-0.2h0.5
		v-3.3h-0.5c-0.1,0-0.2,0-0.4-0.2c-0.1-0.1-0.2-0.3-0.2-0.4c0-0.2,0.1-0.3,0.2-0.5c0.1-0.2,0.3-0.2,0.4-0.2h3.3
		c0.1,0,0.2,0.1,0.2,0.2v4.4h0.5c0.1,0,0.3,0,0.4,0.2c0.1,0.1,0.2,0.3,0.2,0.5C362.6,72.9,362.5,73.1,362.4,73.2z"/>
</g>
<g>
	<path fill="#E8FCF0" stroke="#C1F7C1" stroke-miterlimit="10" d="M797.5,180.7c0,2.7-2.2,4.8-4.8,4.8H345.4c-2.7,0-4.8-2.2-4.8-4.8
		V158c0-2.7,2.2-4.8,4.8-4.8h447.3c2.7,0,4.8,2.2,4.8,4.8V180.7z"/>
	<g>
		<g>
			<path fill="#444444" d="M383,173.4V170l-3.2-4.7h1.2l2.5,3.8l2.5-3.8h1.2L384,170v3.4H383z"/>
			<path fill="#444444" d="M386.3,170.5c0-1.7,1.1-3.1,2.9-3.1s2.9,1.4,2.9,3.1s-1.1,3.1-2.9,3.1S386.3,172.2,386.3,170.5z
				 M391.1,170.5c0-1.2-0.7-2.3-1.9-2.3s-1.9,1.1-1.9,2.3c0,1.2,0.7,2.3,1.9,2.3S391.1,171.7,391.1,170.5z"/>
			<path fill="#444444" d="M397.5,173.4v-0.8c-0.4,0.5-1.2,1-2.1,1c-1.2,0-1.9-0.6-1.9-1.9v-4.1h0.9v3.9c0,1,0.5,1.3,1.3,1.3
				c0.7,0,1.4-0.4,1.7-0.9v-4.3h0.9v5.9H397.5z"/>
			<path fill="#444444" d="M401.3,175.3l0.3-0.7c0.2,0.2,0.5,0.4,0.8,0.4c0.5,0,0.9-0.3,0.9-1.1v-6.4h0.9v6.4c0,1.2-0.6,1.8-1.7,1.8
				C402,175.8,401.7,175.6,401.3,175.3z M403.2,166.1c0-0.3,0.3-0.6,0.6-0.6s0.6,0.3,0.6,0.6c0,0.3-0.3,0.6-0.6,0.6
				S403.2,166.4,403.2,166.1z"/>
			<path fill="#444444" d="M410.1,173.4v-0.8c-0.4,0.5-1.2,1-2.1,1c-1.2,0-1.9-0.6-1.9-1.9v-4.1h0.9v3.9c0,1,0.5,1.3,1.3,1.3
				c0.7,0,1.4-0.4,1.7-0.9v-4.3h0.9v5.9H410.1z"/>
			<path fill="#444444" d="M412.3,172.6l0.5-0.7c0.4,0.4,1.1,0.8,1.9,0.8c0.9,0,1.4-0.4,1.4-1c0-1.4-3.6-0.5-3.6-2.7
				c0-0.9,0.8-1.7,2.2-1.7c1,0,1.7,0.4,2.2,0.8l-0.4,0.6c-0.4-0.4-1-0.7-1.7-0.7c-0.8,0-1.3,0.4-1.3,0.9c0,1.3,3.6,0.4,3.6,2.7
				c0,1-0.8,1.8-2.3,1.8C413.7,173.5,412.9,173.2,412.3,172.6z"/>
			<path fill="#444444" d="M418.6,172.2v-3.8h-1v-0.8h1v-1.6h0.9v1.6h1.2v0.8h-1.2v3.6c0,0.4,0.2,0.8,0.6,0.8c0.3,0,0.5-0.1,0.6-0.3
				l0.3,0.7c-0.2,0.2-0.6,0.4-1.1,0.4C419,173.5,418.6,173,418.6,172.2z"/>
			<path fill="#444444" d="M429.1,173.4v-3.9c0-1-0.5-1.3-1.3-1.3c-0.7,0-1.4,0.4-1.7,0.9v4.3h-0.9v-8.1h0.9v3.1
				c0.4-0.5,1.2-1,2.1-1c1.2,0,1.9,0.6,1.9,1.9v4.1H429.1z"/>
			<path fill="#444444" d="M431.5,170.5c0-1.7,1.1-3.1,2.9-3.1s2.9,1.4,2.9,3.1s-1.1,3.1-2.9,3.1S431.5,172.2,431.5,170.5z
				 M436.3,170.5c0-1.2-0.7-2.3-1.9-2.3s-1.9,1.1-1.9,2.3c0,1.2,0.7,2.3,1.9,2.3S436.3,171.7,436.3,170.5z"/>
			<path fill="#444444" d="M438.4,170.5c0-1.7,1.1-3.1,2.9-3.1s2.9,1.4,2.9,3.1s-1.1,3.1-2.9,3.1S438.4,172.2,438.4,170.5z
				 M443.2,170.5c0-1.2-0.7-2.3-1.9-2.3s-1.9,1.1-1.9,2.3c0,1.2,0.7,2.3,1.9,2.3S443.2,171.7,443.2,170.5z"/>
			<path fill="#444444" d="M449.6,173.4l-2.1-2.6l-1,1v1.7h-0.9v-8.1h0.9v5.3l3.1-3.1h1.2l-2.6,2.7l2.6,3.2H449.6z"/>
			<path fill="#444444" d="M451.5,170.5c0-1.7,1.2-3.1,2.9-3.1c1.8,0,2.8,1.4,2.8,3.1v0.2h-4.7c0.1,1.1,0.8,2,2.1,2
				c0.7,0,1.3-0.3,1.8-0.8l0.4,0.6c-0.6,0.6-1.4,0.9-2.3,0.9C452.8,173.5,451.5,172.3,451.5,170.5z M454.4,168.1
				c-1.2,0-1.9,1.1-1.9,1.9h3.8C456.3,169.2,455.7,168.1,454.4,168.1z"/>
			<path fill="#444444" d="M462.9,173.4v-0.9c-0.4,0.6-1.2,1-2,1c-1.5,0-2.6-1.2-2.6-3.1c0-1.9,1.1-3.1,2.6-3.1c0.8,0,1.5,0.4,2,1
				v-3.1h0.9v8.1H462.9z M462.9,171.8v-2.6c-0.3-0.5-1-0.9-1.7-0.9c-1.2,0-1.9,1-1.9,2.3c0,1.3,0.7,2.3,1.9,2.3
				C461.9,172.7,462.6,172.3,462.9,171.8z"/>
			<path fill="#444444" d="M472.7,173.4v-0.8c-0.4,0.5-1.2,1-2.1,1c-1.2,0-1.9-0.6-1.9-1.9v-4.1h0.9v3.9c0,1,0.5,1.3,1.3,1.3
				c0.7,0,1.4-0.4,1.7-0.9v-4.3h0.9v5.9H472.7z"/>
			<path fill="#444444" d="M476.4,172.5v3.1h-0.9v-8.1h0.9v0.9c0.4-0.6,1.2-1,2-1c1.5,0,2.6,1.2,2.6,3.1c0,1.9-1.1,3.1-2.6,3.1
				C477.5,173.5,476.8,173.1,476.4,172.5z M480,170.5c0-1.3-0.7-2.3-1.9-2.3c-0.7,0-1.4,0.4-1.7,0.9v2.6c0.3,0.5,1,0.9,1.7,0.9
				C479.3,172.7,480,171.8,480,170.5z"/>
			<path fill="#444444" d="M485.3,174.9c0.1,0.1,0.4,0.1,0.5,0.1c0.4,0,0.7-0.1,0.9-0.6l0.4-0.9l-2.4-5.9h1l1.9,4.8l2-4.8h1l-2.9,7
				c-0.4,0.8-0.9,1.2-1.7,1.2c-0.2,0-0.5,0-0.7-0.1L485.3,174.9z"/>
			<path fill="#444444" d="M491.1,170.5c0-1.7,1.1-3.1,2.9-3.1s2.9,1.4,2.9,3.1s-1.1,3.1-2.9,3.1S491.1,172.2,491.1,170.5z
				 M495.9,170.5c0-1.2-0.7-2.3-1.9-2.3s-1.9,1.1-1.9,2.3c0,1.2,0.7,2.3,1.9,2.3S495.9,171.7,495.9,170.5z"/>
			<path fill="#444444" d="M502.3,173.4v-0.8c-0.4,0.5-1.2,1-2.1,1c-1.2,0-1.9-0.6-1.9-1.9v-4.1h0.9v3.9c0,1,0.5,1.3,1.3,1.3
				c0.7,0,1.4-0.4,1.7-0.9v-4.3h0.9v5.9H502.3z"/>
			<path fill="#444444" d="M505,173.4v-5.9h0.9v0.9c0.5-0.6,1.2-1.1,2-1.1v0.9c-0.1,0-0.2,0-0.4,0c-0.6,0-1.3,0.5-1.6,0.9v4.1H505z"
				/>
			<path fill="#444444" d="M512.4,173.4v-5.1h-1v-0.8h1v-0.4c0-1.2,0.7-1.9,1.7-1.9c0.4,0,0.7,0.1,0.9,0.2l-0.2,0.7
				c-0.1-0.1-0.3-0.1-0.5-0.1c-0.6,0-0.9,0.4-0.9,1.2v0.4h1.2v0.8h-1.2v5.1H512.4z M515.5,166.1c0-0.3,0.3-0.6,0.6-0.6
				c0.3,0,0.6,0.3,0.6,0.6c0,0.3-0.3,0.6-0.6,0.6C515.7,166.7,515.5,166.4,515.5,166.1z M515.6,173.4v-5.9h0.9v5.9H515.6z"/>
			<path fill="#444444" d="M518.3,173.4v-5.9h0.9v0.9c0.5-0.6,1.2-1.1,2-1.1v0.9c-0.1,0-0.2,0-0.4,0c-0.6,0-1.3,0.5-1.6,0.9v4.1
				H518.3z"/>
			<path fill="#444444" d="M521.8,172.6l0.5-0.7c0.4,0.4,1.1,0.8,1.9,0.8c0.9,0,1.4-0.4,1.4-1c0-1.4-3.6-0.5-3.6-2.7
				c0-0.9,0.8-1.7,2.2-1.7c1,0,1.7,0.4,2.2,0.8l-0.4,0.6c-0.4-0.4-1-0.7-1.7-0.7c-0.8,0-1.3,0.4-1.3,0.9c0,1.3,3.6,0.4,3.6,2.7
				c0,1-0.8,1.8-2.3,1.8C523.2,173.5,522.4,173.2,521.8,172.6z"/>
			<path fill="#444444" d="M528.2,172.2v-3.8h-1v-0.8h1v-1.6h0.9v1.6h1.2v0.8h-1.2v3.6c0,0.4,0.2,0.8,0.6,0.8c0.3,0,0.5-0.1,0.6-0.3
				l0.3,0.7c-0.2,0.2-0.6,0.4-1.1,0.4C528.6,173.5,528.2,173,528.2,172.2z"/>
			<path fill="#444444" d="M538.9,173.4v-0.9c-0.4,0.6-1.2,1-2,1c-1.5,0-2.6-1.2-2.6-3.1c0-1.9,1.1-3.1,2.6-3.1c0.8,0,1.5,0.4,2,1
				v-3.1h0.9v8.1H538.9z M538.9,171.8v-2.6c-0.3-0.5-1-0.9-1.7-0.9c-1.2,0-1.9,1-1.9,2.3c0,1.3,0.7,2.3,1.9,2.3
				C537.9,172.7,538.6,172.3,538.9,171.8z"/>
			<path fill="#444444" d="M545.3,173.4v-0.7c-0.5,0.5-1.2,0.8-1.9,0.8c-1,0-2-0.7-2-1.9c0-1.3,1-1.9,2-1.9c0.8,0,1.5,0.3,1.9,0.8
				v-1.1c0-0.8-0.6-1.2-1.5-1.2c-0.7,0-1.3,0.2-1.8,0.8l-0.4-0.6c0.6-0.7,1.4-1,2.3-1c1.2,0,2.3,0.6,2.3,2v4H545.3z M545.3,172.2
				V171c-0.4-0.5-1-0.7-1.6-0.7c-0.9,0-1.5,0.5-1.5,1.3c0,0.8,0.6,1.3,1.5,1.3C544.3,172.9,544.9,172.6,545.3,172.2z"/>
			<path fill="#444444" d="M548.2,172.2v-3.8h-1v-0.8h1v-1.6h0.9v1.6h1.2v0.8h-1.2v3.6c0,0.4,0.2,0.8,0.6,0.8c0.3,0,0.5-0.1,0.6-0.3
				l0.3,0.7c-0.2,0.2-0.6,0.4-1.1,0.4C548.7,173.5,548.2,173,548.2,172.2z"/>
			<path fill="#444444" d="M555.3,173.4v-0.7c-0.5,0.5-1.2,0.8-1.9,0.8c-1,0-2-0.7-2-1.9c0-1.3,1-1.9,2-1.9c0.8,0,1.5,0.3,1.9,0.8
				v-1.1c0-0.8-0.6-1.2-1.5-1.2c-0.7,0-1.3,0.2-1.8,0.8l-0.4-0.6c0.6-0.7,1.4-1,2.3-1c1.2,0,2.3,0.6,2.3,2v4H555.3z M555.3,172.2
				V171c-0.4-0.5-1-0.7-1.6-0.7c-0.9,0-1.5,0.5-1.5,1.3c0,0.8,0.6,1.3,1.5,1.3C554.3,172.9,554.9,172.6,555.3,172.2z"/>
			<path fill="#444444" d="M560.8,170.5c0-1.7,1.2-3.1,2.9-3.1c1.1,0,1.7,0.4,2.1,1l-0.6,0.5c-0.4-0.5-0.9-0.8-1.5-0.8
				c-1.2,0-2,1-2,2.3c0,1.3,0.8,2.3,2,2.3c0.6,0,1.1-0.2,1.5-0.8l0.6,0.6c-0.4,0.6-1.1,1-2.1,1C562,173.5,560.8,172.2,560.8,170.5z"
				/>
			<path fill="#444444" d="M566.8,170.5c0-1.7,1.1-3.1,2.9-3.1s2.9,1.4,2.9,3.1s-1.1,3.1-2.9,3.1S566.8,172.2,566.8,170.5z
				 M571.6,170.5c0-1.2-0.7-2.3-1.9-2.3s-1.9,1.1-1.9,2.3c0,1.2,0.7,2.3,1.9,2.3S571.6,171.7,571.6,170.5z"/>
			<path fill="#444444" d="M578,173.4v-3.8c0-1-0.5-1.4-1.3-1.4c-0.7,0-1.4,0.4-1.7,0.9v4.3h-0.9v-5.9h0.9v0.8c0.4-0.5,1.2-1,2.1-1
				c1.2,0,1.9,0.6,1.9,1.9v4.1H578z"/>
			<path fill="#444444" d="M584.7,173.4v-3.8c0-1-0.5-1.4-1.3-1.4c-0.7,0-1.4,0.4-1.7,0.9v4.3h-0.9v-5.9h0.9v0.8
				c0.4-0.5,1.2-1,2.1-1c1.2,0,1.9,0.6,1.9,1.9v4.1H584.7z"/>
			<path fill="#444444" d="M587.1,170.5c0-1.7,1.2-3.1,2.9-3.1c1.8,0,2.8,1.4,2.8,3.1v0.2h-4.7c0.1,1.1,0.8,2,2.1,2
				c0.7,0,1.3-0.3,1.8-0.8l0.4,0.6c-0.6,0.6-1.4,0.9-2.3,0.9C588.3,173.5,587.1,172.3,587.1,170.5z M590,168.1
				c-1.2,0-1.9,1.1-1.9,1.9h3.8C591.9,169.2,591.3,168.1,590,168.1z"/>
			<path fill="#444444" d="M593.9,170.5c0-1.7,1.2-3.1,2.9-3.1c1.1,0,1.7,0.4,2.1,1l-0.6,0.5c-0.4-0.5-0.9-0.8-1.5-0.8
				c-1.2,0-2,1-2,2.3c0,1.3,0.8,2.3,2,2.3c0.6,0,1.1-0.2,1.5-0.8l0.6,0.6c-0.4,0.6-1.1,1-2.1,1C595.1,173.5,593.9,172.2,593.9,170.5
				z"/>
			<path fill="#444444" d="M600.4,172.2v-3.8h-1v-0.8h1v-1.6h0.9v1.6h1.2v0.8h-1.2v3.6c0,0.4,0.2,0.8,0.6,0.8c0.3,0,0.5-0.1,0.6-0.3
				l0.3,0.7c-0.2,0.2-0.6,0.4-1.1,0.4C600.9,173.5,600.4,173,600.4,172.2z"/>
			<path fill="#444444" d="M603.7,166.1c0-0.3,0.3-0.6,0.6-0.6s0.6,0.3,0.6,0.6c0,0.3-0.3,0.6-0.6,0.6S603.7,166.4,603.7,166.1z
				 M603.8,173.4v-5.9h0.9v5.9H603.8z"/>
			<path fill="#444444" d="M606.2,170.5c0-1.7,1.1-3.1,2.9-3.1s2.9,1.4,2.9,3.1s-1.1,3.1-2.9,3.1S606.2,172.2,606.2,170.5z
				 M611,170.5c0-1.2-0.7-2.3-1.9-2.3s-1.9,1.1-1.9,2.3c0,1.2,0.7,2.3,1.9,2.3S611,171.7,611,170.5z"/>
			<path fill="#444444" d="M617.4,173.4v-3.8c0-1-0.5-1.4-1.3-1.4c-0.7,0-1.4,0.4-1.7,0.9v4.3h-0.9v-5.9h0.9v0.8
				c0.4-0.5,1.2-1,2.1-1c1.2,0,1.9,0.6,1.9,1.9v4.1H617.4z"/>
			<path fill="#444444" d="M620.4,174.9l-0.5-0.4c0.4-0.3,0.7-0.7,0.8-1.1c0,0-0.1,0-0.2,0c-0.3,0-0.6-0.3-0.6-0.6
				c0-0.4,0.3-0.7,0.6-0.7c0.4,0,0.8,0.3,0.8,0.9C621.4,173.8,621,174.5,620.4,174.9z"/>
			<path fill="#444444" d="M625.9,174.9c0.1,0.1,0.4,0.1,0.5,0.1c0.4,0,0.7-0.1,0.9-0.6l0.4-0.9l-2.4-5.9h1l1.9,4.8l2-4.8h1l-2.9,7
				c-0.4,0.8-0.9,1.2-1.7,1.2c-0.2,0-0.5,0-0.7-0.1L625.9,174.9z"/>
			<path fill="#444444" d="M631.7,170.5c0-1.7,1.1-3.1,2.9-3.1s2.9,1.4,2.9,3.1s-1.1,3.1-2.9,3.1S631.7,172.2,631.7,170.5z
				 M636.5,170.5c0-1.2-0.7-2.3-1.9-2.3s-1.9,1.1-1.9,2.3c0,1.2,0.7,2.3,1.9,2.3S636.5,171.7,636.5,170.5z"/>
			<path fill="#444444" d="M642.9,173.4v-0.8c-0.4,0.5-1.2,1-2.1,1c-1.2,0-1.9-0.6-1.9-1.9v-4.1h0.9v3.9c0,1,0.5,1.3,1.3,1.3
				c0.7,0,1.4-0.4,1.7-0.9v-4.3h0.9v5.9H642.9z"/>
			<path fill="#444444" d="M648.8,173.4v-5.9h0.9v0.9c0.5-0.6,1.2-1.1,2-1.1v0.9c-0.1,0-0.2,0-0.4,0c-0.6,0-1.3,0.5-1.6,0.9v4.1
				H648.8z"/>
			<path fill="#444444" d="M652.4,170.5c0-1.7,1.1-3.1,2.9-3.1s2.9,1.4,2.9,3.1s-1.1,3.1-2.9,3.1S652.4,172.2,652.4,170.5z
				 M657.3,170.5c0-1.2-0.7-2.3-1.9-2.3s-1.9,1.1-1.9,2.3c0,1.2,0.7,2.3,1.9,2.3S657.3,171.7,657.3,170.5z"/>
			<path fill="#444444" d="M659.4,170.5c0-1.7,1.2-3.1,2.9-3.1c1.1,0,1.7,0.4,2.1,1l-0.6,0.5c-0.4-0.5-0.9-0.8-1.5-0.8
				c-1.2,0-2,1-2,2.3c0,1.3,0.8,2.3,2,2.3c0.6,0,1.1-0.2,1.5-0.8l0.6,0.6c-0.4,0.6-1.1,1-2.1,1C660.5,173.5,659.4,172.2,659.4,170.5
				z"/>
			<path fill="#444444" d="M669.7,173.4l-2.1-2.6l-1,1v1.7h-0.9v-8.1h0.9v5.3l3.1-3.1h1.2l-2.6,2.7l2.6,3.2H669.7z"/>
			<path fill="#444444" d="M671.7,172.8c0-0.4,0.3-0.7,0.7-0.7s0.7,0.3,0.7,0.7c0,0.4-0.3,0.7-0.7,0.7S671.7,173.2,671.7,172.8z
				 M672,171.1l-0.2-5.8h1.1l-0.2,5.8H672z"/>
		</g>
	</g>
	<path fill="#21B721" d="M359.8,161.6c-4.3,0-7.7,3.4-7.7,7.7c0,4.3,3.4,7.7,7.7,7.7c4.3,0,7.7-3.4,7.7-7.7
		C367.5,165.1,364.1,161.6,359.8,161.6z M359.5,172.7l-0.5,0.6l-0.5-0.6l-3-2.6l1-1.9l2.5,2.7l4.3-5.3l1.8,1L359.5,172.7z"/>
</g>
<g>
	<path fill="#F9EAED" stroke="#FCD4D4" stroke-miterlimit="10" d="M797.6,130c0,2.7-2.2,4.8-4.8,4.8H345.4c-2.7,0-4.8-2.2-4.8-4.8
		v-22.6c0-2.7,2.2-4.8,4.8-4.8h447.4c2.7,0,4.8,2.2,4.8,4.8V130z"/>
	<g>
		<g>
			<path fill="#444444" d="M384.1,122.5v-3.4l-3.2-4.7h1.2l2.5,3.8l2.5-3.8h1.2l-3.2,4.7v3.4H384.1z"/>
			<path fill="#444444" d="M387.5,119.6c0-1.7,1.1-3.1,2.9-3.1s2.9,1.4,2.9,3.1s-1.1,3.1-2.9,3.1S387.5,121.3,387.5,119.6z
				 M392.3,119.6c0-1.2-0.7-2.3-1.9-2.3s-1.9,1.1-1.9,2.3c0,1.2,0.7,2.3,1.9,2.3S392.3,120.8,392.3,119.6z"/>
			<path fill="#444444" d="M398.7,122.5v-0.8c-0.4,0.5-1.2,1-2.1,1c-1.2,0-1.9-0.6-1.9-1.9v-4.1h0.9v3.9c0,1,0.5,1.3,1.3,1.3
				c0.7,0,1.4-0.4,1.7-0.9v-4.3h0.9v5.9H398.7z"/>
			<path fill="#444444" d="M408.2,122.5v-0.7c-0.5,0.5-1.2,0.8-1.9,0.8c-1,0-2-0.7-2-1.9c0-1.3,1-1.9,2-1.9c0.8,0,1.5,0.3,1.9,0.8
				v-1.1c0-0.8-0.6-1.2-1.5-1.2c-0.7,0-1.3,0.2-1.8,0.8l-0.4-0.6c0.6-0.7,1.4-1,2.3-1c1.2,0,2.3,0.6,2.3,2v4H408.2z M408.2,121.3
				v-1.1c-0.4-0.5-1-0.7-1.6-0.7c-0.9,0-1.5,0.5-1.5,1.3c0,0.8,0.6,1.3,1.5,1.3C407.2,122,407.8,121.8,408.2,121.3z"/>
			<path fill="#444444" d="M410.9,122.5v-5.9h0.9v0.9c0.5-0.6,1.2-1.1,2-1.1v0.9c-0.1,0-0.2,0-0.4,0c-0.6,0-1.3,0.5-1.6,0.9v4.1
				H410.9z"/>
			<path fill="#444444" d="M414.6,119.6c0-1.7,1.2-3.1,2.9-3.1c1.8,0,2.8,1.4,2.8,3.1v0.2h-4.7c0.1,1.1,0.8,2,2.1,2
				c0.7,0,1.3-0.3,1.8-0.8l0.4,0.6c-0.6,0.6-1.4,0.9-2.3,0.9C415.8,122.6,414.6,121.4,414.6,119.6z M417.5,117.3
				c-1.2,0-1.9,1.1-1.9,1.9h3.8C419.4,118.3,418.8,117.3,417.5,117.3z"/>
			<path fill="#444444" d="M428.5,122.5v-0.7c-0.5,0.5-1.2,0.8-1.9,0.8c-1,0-2-0.7-2-1.9c0-1.3,1-1.9,2-1.9c0.8,0,1.5,0.3,1.9,0.8
				v-1.1c0-0.8-0.6-1.2-1.5-1.2c-0.7,0-1.3,0.2-1.8,0.8l-0.4-0.6c0.6-0.7,1.4-1,2.3-1c1.2,0,2.3,0.6,2.3,2v4H428.5z M428.5,121.3
				v-1.1c-0.4-0.5-1-0.7-1.6-0.7c-0.9,0-1.5,0.5-1.5,1.3c0,0.8,0.6,1.3,1.5,1.3C427.6,122,428.2,121.8,428.5,121.3z"/>
			<path fill="#444444" d="M431.3,122.5v-8.1h0.9v3.1c0.5-0.6,1.2-1,2-1c1.5,0,2.6,1.2,2.6,3.1c0,1.9-1.1,3.1-2.6,3.1
				c-0.8,0-1.5-0.4-2-1v0.9H431.3z M434,121.8c1.2,0,1.9-1,1.9-2.3c0-1.3-0.7-2.3-1.9-2.3c-0.7,0-1.4,0.4-1.8,0.9v2.7
				C432.5,121.4,433.2,121.8,434,121.8z"/>
			<path fill="#444444" d="M437.9,119.6c0-1.7,1.1-3.1,2.9-3.1s2.9,1.4,2.9,3.1s-1.1,3.1-2.9,3.1S437.9,121.3,437.9,119.6z
				 M442.7,119.6c0-1.2-0.7-2.3-1.9-2.3s-1.9,1.1-1.9,2.3c0,1.2,0.7,2.3,1.9,2.3S442.7,120.8,442.7,119.6z"/>
			<path fill="#444444" d="M449.1,122.5v-0.8c-0.4,0.5-1.2,1-2.1,1c-1.2,0-1.9-0.6-1.9-1.9v-4.1h0.9v3.9c0,1,0.5,1.3,1.3,1.3
				c0.7,0,1.4-0.4,1.7-0.9v-4.3h0.9v5.9H449.1z"/>
			<path fill="#444444" d="M452,121.3v-3.8h-1v-0.8h1v-1.6h0.9v1.6h1.2v0.8H453v3.6c0,0.4,0.2,0.8,0.6,0.8c0.3,0,0.5-0.1,0.6-0.3
				l0.3,0.7c-0.2,0.2-0.6,0.4-1.1,0.4C452.5,122.6,452,122.2,452,121.3z"/>
			<path fill="#444444" d="M458.7,121.3v-3.8h-1v-0.8h1v-1.6h0.9v1.6h1.2v0.8h-1.2v3.6c0,0.4,0.2,0.8,0.6,0.8c0.3,0,0.5-0.1,0.6-0.3
				l0.3,0.7c-0.2,0.2-0.6,0.4-1.1,0.4C459.2,122.6,458.7,122.2,458.7,121.3z"/>
			<path fill="#444444" d="M461.8,119.6c0-1.7,1.1-3.1,2.9-3.1s2.9,1.4,2.9,3.1s-1.1,3.1-2.9,3.1S461.8,121.3,461.8,119.6z
				 M466.6,119.6c0-1.2-0.7-2.3-1.9-2.3s-1.9,1.1-1.9,2.3c0,1.2,0.7,2.3,1.9,2.3S466.6,120.8,466.6,119.6z"/>
			<path fill="#444444" d="M471.8,119.6c0-1.7,1.2-3.1,2.9-3.1c1.1,0,1.7,0.4,2.1,1l-0.6,0.5c-0.4-0.5-0.9-0.8-1.5-0.8
				c-1.2,0-2,1-2,2.3c0,1.3,0.8,2.3,2,2.3c0.6,0,1.1-0.2,1.5-0.8l0.6,0.6c-0.4,0.6-1.1,1-2.1,1C473,122.6,471.8,121.3,471.8,119.6z"
				/>
			<path fill="#444444" d="M481.8,122.5v-0.7c-0.5,0.5-1.2,0.8-1.9,0.8c-1,0-2-0.7-2-1.9c0-1.3,1-1.9,2-1.9c0.8,0,1.5,0.3,1.9,0.8
				v-1.1c0-0.8-0.6-1.2-1.5-1.2c-0.7,0-1.3,0.2-1.8,0.8l-0.4-0.6c0.6-0.7,1.4-1,2.3-1c1.2,0,2.3,0.6,2.3,2v4H481.8z M481.8,121.3
				v-1.1c-0.4-0.5-1-0.7-1.6-0.7c-0.9,0-1.5,0.5-1.5,1.3c0,0.8,0.6,1.3,1.5,1.3C480.9,122,481.5,121.8,481.8,121.3z"/>
			<path fill="#444444" d="M488.5,122.5v-0.8c-0.4,0.5-1.2,1-2.1,1c-1.2,0-1.9-0.6-1.9-1.9v-4.1h0.9v3.9c0,1,0.5,1.3,1.3,1.3
				c0.7,0,1.4-0.4,1.7-0.9v-4.3h0.9v5.9H488.5z"/>
			<path fill="#444444" d="M490.8,121.7l0.5-0.7c0.4,0.4,1.1,0.8,1.9,0.8c0.9,0,1.4-0.4,1.4-1c0-1.4-3.6-0.5-3.6-2.7
				c0-0.9,0.8-1.7,2.2-1.7c1,0,1.7,0.4,2.2,0.8l-0.4,0.6c-0.4-0.4-1-0.7-1.7-0.7c-0.8,0-1.3,0.4-1.3,0.9c0,1.3,3.6,0.4,3.6,2.7
				c0,1-0.8,1.8-2.3,1.8C492.2,122.6,491.4,122.3,490.8,121.7z"/>
			<path fill="#444444" d="M496.5,119.6c0-1.7,1.2-3.1,2.9-3.1c1.8,0,2.8,1.4,2.8,3.1v0.2h-4.7c0.1,1.1,0.8,2,2.1,2
				c0.7,0,1.3-0.3,1.8-0.8l0.4,0.6c-0.6,0.6-1.4,0.9-2.3,0.9C497.8,122.6,496.5,121.4,496.5,119.6z M499.4,117.3
				c-1.2,0-1.9,1.1-1.9,1.9h3.8C501.3,118.3,500.8,117.3,499.4,117.3z"/>
			<path fill="#444444" d="M510.5,122.5v-0.7c-0.5,0.5-1.2,0.8-1.9,0.8c-1,0-2-0.7-2-1.9c0-1.3,1-1.9,2-1.9c0.8,0,1.5,0.3,1.9,0.8
				v-1.1c0-0.8-0.6-1.2-1.5-1.2c-0.7,0-1.3,0.2-1.8,0.8l-0.4-0.6c0.6-0.7,1.4-1,2.3-1c1.2,0,2.3,0.6,2.3,2v4H510.5z M510.5,121.3
				v-1.1c-0.4-0.5-1-0.7-1.6-0.7c-0.9,0-1.5,0.5-1.5,1.3c0,0.8,0.6,1.3,1.5,1.3C509.5,122,510.1,121.8,510.5,121.3z"/>
			<path fill="#444444" d="M517.3,121.6v3.1h-0.9v-8.1h0.9v0.9c0.4-0.6,1.2-1,2-1c1.5,0,2.6,1.2,2.6,3.1c0,1.9-1.1,3.1-2.6,3.1
				C518.5,122.6,517.8,122.3,517.3,121.6z M520.9,119.6c0-1.3-0.7-2.3-1.9-2.3c-0.7,0-1.4,0.4-1.7,0.9v2.6c0.3,0.5,1,0.9,1.7,0.9
				C520.2,121.8,520.9,120.9,520.9,119.6z"/>
			<path fill="#444444" d="M523.3,122.5v-5.9h0.9v0.9c0.5-0.6,1.2-1.1,2-1.1v0.9c-0.1,0-0.2,0-0.4,0c-0.6,0-1.3,0.5-1.6,0.9v4.1
				H523.3z"/>
			<path fill="#444444" d="M527,119.6c0-1.7,1.1-3.1,2.9-3.1s2.9,1.4,2.9,3.1s-1.1,3.1-2.9,3.1S527,121.3,527,119.6z M531.8,119.6
				c0-1.2-0.7-2.3-1.9-2.3s-1.9,1.1-1.9,2.3c0,1.2,0.7,2.3,1.9,2.3S531.8,120.8,531.8,119.6z"/>
			<path fill="#444444" d="M534.2,122.5v-8.1h0.9v3.1c0.5-0.6,1.2-1,2-1c1.5,0,2.6,1.2,2.6,3.1c0,1.9-1.1,3.1-2.6,3.1
				c-0.8,0-1.5-0.4-2-1v0.9H534.2z M536.9,121.8c1.2,0,1.9-1,1.9-2.3c0-1.3-0.7-2.3-1.9-2.3c-0.7,0-1.4,0.4-1.8,0.9v2.7
				C535.5,121.4,536.2,121.8,536.9,121.8z"/>
			<path fill="#444444" d="M541.2,122.5v-8.1h0.9v8.1H541.2z"/>
			<path fill="#444444" d="M543.6,119.6c0-1.7,1.2-3.1,2.9-3.1c1.8,0,2.8,1.4,2.8,3.1v0.2h-4.7c0.1,1.1,0.8,2,2.1,2
				c0.7,0,1.3-0.3,1.8-0.8l0.4,0.6c-0.6,0.6-1.4,0.9-2.3,0.9C544.8,122.6,543.6,121.4,543.6,119.6z M546.5,117.3
				c-1.2,0-1.9,1.1-1.9,1.9h3.8C548.4,118.3,547.8,117.3,546.5,117.3z"/>
			<path fill="#444444" d="M557.8,122.5v-4c0-0.7-0.3-1.2-1.1-1.2c-0.6,0-1.2,0.4-1.6,0.9v4.3h-0.9v-4c0-0.7-0.3-1.2-1.1-1.2
				c-0.6,0-1.2,0.4-1.5,0.9v4.3h-0.9v-5.9h0.9v0.8c0.3-0.4,1-1,1.9-1c0.9,0,1.4,0.5,1.6,1.1c0.3-0.5,1.1-1.1,2-1.1
				c1.1,0,1.6,0.6,1.6,1.8v4.2H557.8z"/>
			<path fill="#444444" d="M560.8,124l-0.5-0.4c0.4-0.3,0.7-0.7,0.8-1.1c0,0-0.1,0-0.2,0c-0.3,0-0.6-0.3-0.6-0.6
				c0-0.4,0.3-0.7,0.6-0.7c0.4,0,0.8,0.3,0.8,0.9C561.8,123,561.3,123.6,560.8,124z"/>
			<path fill="#444444" d="M566.1,119.6c0-1.7,1.2-3.1,2.9-3.1c1.1,0,1.7,0.4,2.1,1l-0.6,0.5c-0.4-0.5-0.9-0.8-1.5-0.8
				c-1.2,0-2,1-2,2.3c0,1.3,0.8,2.3,2,2.3c0.6,0,1.1-0.2,1.5-0.8l0.6,0.6c-0.4,0.6-1.1,1-2.1,1C567.3,122.6,566.1,121.3,566.1,119.6
				z"/>
			<path fill="#444444" d="M572.1,119.6c0-1.7,1.1-3.1,2.9-3.1s2.9,1.4,2.9,3.1s-1.1,3.1-2.9,3.1S572.1,121.3,572.1,119.6z
				 M577,119.6c0-1.2-0.7-2.3-1.9-2.3s-1.9,1.1-1.9,2.3c0,1.2,0.7,2.3,1.9,2.3S577,120.8,577,119.6z"/>
			<path fill="#444444" d="M583.3,122.5v-3.8c0-1-0.5-1.4-1.3-1.4c-0.7,0-1.4,0.4-1.7,0.9v4.3h-0.9v-5.9h0.9v0.8
				c0.4-0.5,1.2-1,2.1-1c1.2,0,1.9,0.6,1.9,1.9v4.1H583.3z"/>
			<path fill="#444444" d="M585.6,121.7l0.5-0.7c0.4,0.4,1.1,0.8,1.9,0.8c0.9,0,1.4-0.4,1.4-1c0-1.4-3.6-0.5-3.6-2.7
				c0-0.9,0.8-1.7,2.2-1.7c1,0,1.7,0.4,2.2,0.8l-0.4,0.6c-0.4-0.4-1-0.7-1.7-0.7c-0.8,0-1.3,0.4-1.3,0.9c0,1.3,3.6,0.4,3.6,2.7
				c0,1-0.8,1.8-2.3,1.8C587,122.6,586.2,122.3,585.6,121.7z"/>
			<path fill="#444444" d="M591.5,115.2c0-0.3,0.3-0.6,0.6-0.6s0.6,0.3,0.6,0.6c0,0.3-0.3,0.6-0.6,0.6S591.5,115.5,591.5,115.2z
				 M591.7,122.5v-5.9h0.9v5.9H591.7z"/>
			<path fill="#444444" d="M598.7,122.5v-0.9c-0.4,0.6-1.2,1-2,1c-1.5,0-2.6-1.2-2.6-3.1c0-1.9,1.1-3.1,2.6-3.1c0.8,0,1.5,0.4,2,1
				v-3.1h0.9v8.1H598.7z M598.7,120.9v-2.6c-0.3-0.5-1-0.9-1.7-0.9c-1.2,0-1.9,1-1.9,2.3c0,1.3,0.7,2.3,1.9,2.3
				C597.6,121.8,598.4,121.4,598.7,120.9z"/>
			<path fill="#444444" d="M601.1,119.6c0-1.7,1.2-3.1,2.9-3.1c1.8,0,2.8,1.4,2.8,3.1v0.2H602c0.1,1.1,0.8,2,2.1,2
				c0.7,0,1.3-0.3,1.8-0.8l0.4,0.6c-0.6,0.6-1.4,0.9-2.3,0.9C602.3,122.6,601.1,121.4,601.1,119.6z M603.9,117.3
				c-1.2,0-1.9,1.1-1.9,1.9h3.8C605.8,118.3,605.3,117.3,603.9,117.3z"/>
			<path fill="#444444" d="M608.2,122.5v-5.9h0.9v0.9c0.5-0.6,1.2-1.1,2-1.1v0.9c-0.1,0-0.2,0-0.4,0c-0.6,0-1.3,0.5-1.6,0.9v4.1
				H608.2z"/>
			<path fill="#444444" d="M615.3,122.5v-5.9h0.9v0.9c0.5-0.6,1.2-1.1,2-1.1v0.9c-0.1,0-0.2,0-0.4,0c-0.6,0-1.3,0.5-1.6,0.9v4.1
				H615.3z"/>
			<path fill="#444444" d="M619,119.6c0-1.7,1.2-3.1,2.9-3.1c1.8,0,2.8,1.4,2.8,3.1v0.2H620c0.1,1.1,0.8,2,2.1,2
				c0.7,0,1.3-0.3,1.8-0.8l0.4,0.6c-0.6,0.6-1.4,0.9-2.3,0.9C620.3,122.6,619,121.4,619,119.6z M621.9,117.3c-1.2,0-1.9,1.1-1.9,1.9
				h3.8C623.8,118.3,623.2,117.3,621.9,117.3z"/>
			<path fill="#444444" d="M627.7,122.5l-2.4-5.9h1l1.9,4.8l2-4.8h1l-2.4,5.9H627.7z"/>
			<path fill="#444444" d="M631.9,115.2c0-0.3,0.3-0.6,0.6-0.6s0.6,0.3,0.6,0.6c0,0.3-0.3,0.6-0.6,0.6S631.9,115.5,631.9,115.2z
				 M632.1,122.5v-5.9h0.9v5.9H632.1z"/>
			<path fill="#444444" d="M634.3,121.7l0.5-0.7c0.4,0.4,1.1,0.8,1.9,0.8c0.9,0,1.4-0.4,1.4-1c0-1.4-3.6-0.5-3.6-2.7
				c0-0.9,0.8-1.7,2.2-1.7c1,0,1.7,0.4,2.2,0.8l-0.4,0.6c-0.4-0.4-1-0.7-1.7-0.7c-0.8,0-1.3,0.4-1.3,0.9c0,1.3,3.6,0.4,3.6,2.7
				c0,1-0.8,1.8-2.3,1.8C635.7,122.6,634.9,122.3,634.3,121.7z"/>
			<path fill="#444444" d="M640.3,115.2c0-0.3,0.3-0.6,0.6-0.6s0.6,0.3,0.6,0.6c0,0.3-0.3,0.6-0.6,0.6S640.3,115.5,640.3,115.2z
				 M640.5,122.5v-5.9h0.9v5.9H640.5z"/>
			<path fill="#444444" d="M647.1,122.5v-3.8c0-1-0.5-1.4-1.3-1.4c-0.7,0-1.4,0.4-1.7,0.9v4.3h-0.9v-5.9h0.9v0.8
				c0.4-0.5,1.2-1,2.1-1c1.2,0,1.9,0.6,1.9,1.9v4.1H647.1z"/>
			<path fill="#444444" d="M649.9,124l0.5-0.7c0.5,0.6,1.1,0.8,1.9,0.8c1,0,1.9-0.5,1.9-1.7v-0.9c-0.4,0.6-1.2,1-2,1
				c-1.5,0-2.6-1.1-2.6-3c0-1.9,1.1-3,2.6-3c0.8,0,1.5,0.4,2,1v-0.9h0.9v5.8c0,1.9-1.4,2.5-2.8,2.5
				C651.2,124.9,650.6,124.7,649.9,124z M654.1,120.8v-2.6c-0.3-0.5-1-0.9-1.7-0.9c-1.2,0-1.9,0.9-1.9,2.2c0,1.3,0.7,2.2,1.9,2.2
				C653.1,121.8,653.8,121.3,654.1,120.8z"/>
			<path fill="#444444" d="M656.6,122c0-0.4,0.3-0.7,0.7-0.7s0.7,0.3,0.7,0.7c0,0.4-0.3,0.7-0.7,0.7S656.6,122.3,656.6,122z
				 M656.9,120.2l-0.2-5.8h1.1l-0.2,5.8H656.9z"/>
		</g>
	</g>
	<path fill="#D03D2C" d="M359.9,111.3c-4.3,0-7.8,3.5-7.8,7.8c0,4.3,3.5,7.8,7.8,7.8s7.8-3.5,7.8-7.8
		C367.7,114.8,364.2,111.3,359.9,111.3z M363.6,121.4l-1.5,1.5c0,0-0.1,0.1-0.1,0.1c-0.1,0-0.1,0-0.1-0.1l-2-2l-2,2
		c-0.1,0.1-0.2,0.1-0.3,0l-1.4-1.4c-0.1-0.1-0.1-0.2,0-0.3l2-2l-2-2c-0.1-0.1-0.1-0.2,0-0.3l1.5-1.5c0.1-0.1,0.2-0.1,0.3,0l2,2l2-2
		c0.1-0.1,0.2-0.1,0.3,0l1.4,1.4c0,0,0.1,0.1,0.1,0.1c0,0.1,0,0.1-0.1,0.1l-2,2l2,2c0,0,0.1,0.1,0.1,0.1
		C363.7,121.3,363.7,121.3,363.6,121.4z"/>
</g>
</svg>
