<?xml version="1.0" encoding="utf-8"?>
<!-- Generator: Adobe Illustrator 18.1.0, SVG Export Plug-In . SVG Version: 6.00 Build 0)  -->
<svg version="1.1" id="Layer_1" xmlns="http://www.w3.org/2000/svg" xmlns:xlink="http://www.w3.org/1999/xlink" x="0px" y="0px"
	 viewBox="0 0 800 400" enable-background="new 0 0 800 400" xml:space="preserve">
<g>
	<g id="XMLID_30_">
		<g>
			<polygon fill="#24779C" points="499.7,288.7 499.7,92.5 534.6,92.5 534.6,101 510.3,101 510.3,288.7 			"/>
			<rect x="462.1" y="82.2" fill="#2E8BB7" width="72.5" height="8.3"/>
			<polygon fill="#2E8BB7" points="486.8,288.7 486.8,101 462.1,101 462.1,92.5 497.6,92.5 497.6,288.6 498.6,288.7 			"/>
		</g>
		<g>
		</g>
	</g>
	<g id="XMLID_31_">
		<g>
			<polygon fill="#2E8BB7" points="564,90.4 564,280.5 610.1,280.5 610.1,288.7 554.4,288.7 554.4,82.2 610,82.2 610,90.4 			"/>
			<polygon fill="#24779C" points="566,183.4 604.6,183.4 604.6,191.9 576.2,191.9 576.2,269.5 610.1,269.5 610.1,278.4 566,278.4 
							"/>
			<polygon fill="#24779C" points="566,181.3 566,92.5 610,92.5 610,101.2 576.2,101.2 576.2,172 604.6,172 604.6,181.3 			"/>
		</g>
		<g>
		</g>
	</g>
	<g id="XMLID_10_">
		<g>
			<polygon fill="#24779C" points="285.1,277.7 285.1,82.2 295.7,82.2 295.7,269.5 326.9,269.5 326.9,277.7 			"/>
			<polygon fill="#2E8BB7" points="272.8,82.2 283,82.2 283,279.8 326.9,279.8 326.9,289 272.8,289 			"/>
		</g>
		<g>
		</g>
	</g>
	<g id="XMLID_9_">
		<g>
			<path fill="#2E8BB7" d="M211.8,259.5c0.2,2-0.2,9.9,9.7,9.9c9.2,0.1,10.6-7.3,10.6-9.9c0-2.6,0-22,0-22v-7.9c0,0,0-1.3,0-3.8
				c0-3.5-1.3-9.4-4.3-14.6c-1.1-1.9-25.1-42.2-27.4-46.7c-5.5-10.9-9.1-16.3-9-27.2c0.1-10.8,0-30.6,0-34.2
				c0-9.4,9.1-21.3,29.6-21.4c19.6-0.1,29,14.2,29,21.5l-0.2,35.3h-9.5c0-0.7,0-3.5,0-7.1c0-4.2,0-9.6,0-14.1c0-4.5,0-8.2,0-9.1
				c0-0.1,0-0.3,0-0.4c0-1.9-0.3-6.1-2.8-9.9c-2.5-3.9-7.5-7.2-16.1-7.2c-4.9,0-8.5,0.8-11.3,2.2c-4.1,2-6.1,5.1-6.9,7.9
				c-0.4,1.4-0.6,2.7-0.7,3.8c-0.1,1.1,0,1.9-0.1,2.3c0,0.8,0,3.9,0,7.8c0,7.5,0,17.8,0,18.2c0,0.1,0,0.8,0,1.8c0,1.3,0,3.1,0.1,4.8
				c0.1,1.7,0.2,3.4,0.4,4.6c1,4.9,4.4,11.3,4.4,11.4l0,0l0,0c0,0,26.5,43.4,31.1,50.9c4.4,7.3,4,12.5,4.1,17.6
				c0.1,2.5,0.1,6.4,0.1,6.4c0,0,0,1.6,0,4.2c0,4.2,0,10.9,0,16.8c0,2.9,0,5.7,0,7.8c0,2.1,0,3.6-0.1,4c-0.1,1.1-0.5,5.1-3.2,8.8
				c-2.8,3.7-7.9,7.2-18,7.2c-5,0-8.8-0.9-11.5-2.2c-4.1-2-6.1-4.9-7.1-7.6c-0.5-1.3-0.8-2.6-0.9-3.6c-0.1-1-0.1-1.8-0.2-2.2
				c0-0.6,0-4.7,0-9.7c0-5.1,0-11.3,0-16.1c0-3.8,0-6.9,0-8h10C211.8,229.7,211.6,257.5,211.8,259.5z"/>
			<path fill="#24779C" d="M189.3,229.7h10.4c0,2.6,0,15.1,0,24.2c0,5.1,0,9.1,0,9.8c0,0.5,0,1.8,0.4,3.6c0.5,2.6,1.8,6.1,5,9
				c3.2,2.9,8.4,5,16.3,5h0.1c10.5,0,16.4-3.8,19.6-8c3.1-4.2,3.6-8.7,3.6-9.9c0-0.5,0.1-2,0.1-4.1c0.1-6.3,0.1-18.3,0.1-24.6
				c0-2.6,0-4.2,0-4.2c0,0-0.1-3.8-0.1-6.4c-0.2-4.9,0.3-10.9-4.4-18.6c-2.3-3.7-10.1-16.5-17.3-28.3c-3.6-5.9-7.1-11.6-9.6-15.7
				c-2.4-3.9-4-6.6-4.2-6.9c-0.1-0.1-0.2-0.5-0.5-1c-1-2-3-6.5-3.7-9.8c-0.2-0.9-0.3-2.6-0.4-4.3c-0.1-1.7-0.1-3.4-0.1-4.7
				c0-1.1,0-1.8,0-1.8v0c0,0,0-2.6,0-6.2c0-3.6,0-8.2,0-12c0-3.8,0-7,0-7.7c0-0.7,0-1.8,0.1-3.2c0.3-2.2,1.1-4.8,3.4-7
				c2.3-2.2,6.3-3.9,13.3-3.9c8.2,0,12.2,3,14.4,6.3c2.2,3.3,2.5,7.1,2.4,8.8c0,0.2,0,0.3,0,0.4c0,1,0,4.6,0,9.2
				c0,8.4,0,19.6,0,21.2h-9.7v-26.4c0,0,0-9-7.4-8.9c-6.7,0.1-6,9.5-6,9.5v21.5c0,0-0.2,4.6,1.8,10.2c1.7,4.7,6.1,11.2,6.8,12.5
				c0.5,0.9,21.5,38,26.2,46.2c4.8,8.5,4.1,13.9,4.2,19.7c0.1,2.9,0,19.2,0,41.8c0,14.2-12.4,24.8-33.1,24.9
				c-22,0.1-31.7-12.2-31.7-26.7C189.4,251.5,189.3,229.7,189.3,229.7z"/>
		</g>
		<g>
		</g>
	</g>
	<g id="XMLID_29_">
		<g>
			<ellipse fill="#2E8BB7" cx="466.3" cy="220.5" rx="1.6" ry="3.9"/>
			<path fill="#2E8BB7" d="M462.5,294.7c0,0-0.7-4-0.6-4c1.1-0.2,2.1,0.5,2.3,1.6l-1.5,0.2l0.1,0.3l1.5-0.2
				C464.2,293.6,463.5,294.5,462.5,294.7z"/>
			<path fill="#2E8BB7" d="M458.6,216.6h6.3c0,0-1.1,1.3-1.1,4.1c0,2.7,1.2,3.7,1.2,3.7h-6.5c0,0-1.4-1-1.4-3.9
				C457.2,217.7,458.6,216.6,458.6,216.6z"/>
			<path fill="#2E8BB7" d="M462.4,300c0.2,1.1-0.6,2.2-1.7,2.3c-1.1,0.2-2.2-0.6-2.3-1.7l-2.2-14.6c-0.2-1.1,0.6-2.2,1.7-2.3
				c1.1-0.2,2.2,0.6,2.3,1.7L462.4,300z"/>
			<polygon fill="#2E8BB7" points="452.9,353.9 452.5,356.6 449.7,356.8 449.4,353.8 			"/>
			<polygon fill="#2E8BB7" points="451.9,357.3 449.8,361.5 449.8,357.4 			"/>
			<circle fill="#2E8BB7" cx="445" cy="329.2" r="9.4"/>
			<path fill="#2E8BB7" d="M405.8,69.5h8.2l27.2,147.1h15.4c0,0-1.4,1.1-1.4,3.8c0,3,1.4,4,1.4,4h-14.3l12.5,67.7l1.5-0.3l0.5,3.2
				l-1.5,0.3l5,32.1l-4.2,16.8l-1.8,8.7l-5.3,0c0,0-1-4.6-2.5-12c5.9-0.7,10.5-5.7,10.5-11.8c0-4.2-2.2-7.9-5.4-10l0.3-0.1
				l-40.1-215.2c0.5-1.3,0.8-2.7,0.8-4.2c0-5.8-4.1-10.6-9.5-11.7L405.8,69.5z"/>
			<path fill="#24779C" d="M420.7,224.4h-15.6v-7.9h16.1l-18.5-105.2c3.1-0.5,5.7-2.3,7.5-4.7L449.6,318c-1.4-0.6-2.9-0.9-4.5-0.9
				c-1.2,0-2.3,0.2-3.4,0.5c-7.4-35.5-17.7-85.6-18.4-89c0-0.1-0.3-1.9-0.6-3.1C422.4,224.2,420.7,224.4,420.7,224.4z"/>
			<path fill="#2E8BB7" d="M407.4,106.4c-3.5,3.5-9.1,3.7-12.8,0.6L408,93.5C411.1,97.3,410.9,102.9,407.4,106.4z"/>
			<path fill="#2E8BB7" d="M403.1,195.2v49.2c0,1.1-0.9,2-2,2c-1.1,0-2-0.9-2-2v-49.2c0-1.1,0.9-2,2-2
				C402.2,193.2,403.1,194.1,403.1,195.2z"/>
			<path fill="#2E8BB7" d="M393.4,105.9c-3.3-3.8-3.1-9.5,0.4-13.1c3.6-3.6,9.3-3.7,13.1-0.4L393.4,105.9z"/>
			<rect x="395.2" y="61.9" fill="#2E8BB7" width="11.3" height="2.3"/>
			<path fill="#2E8BB7" d="M396.8,43.8c0,0,0.6-1.2,3.9-1.2c3.3,0,3.9,1.2,3.9,1.2v16.9h-7.9V43.8z"/>
			<path fill="#2E8BB7" d="M395,33.7c0,0,1.6-2,5.8-2s5.7,2,5.7,2l-0.7,9.7c0,0-1.1-2-5.1-2c-4.2,0-5.1,1.8-5.1,1.8L395,33.7z"/>
			<polygon fill="#2E8BB7" points="400.3,85.9 398,68 392.5,68 393.4,65.2 408.2,65.2 409.4,67.6 404.6,67.6 401.6,85.9 			"/>
			<path fill="#24779C" d="M351.9,317.7l39.4-210.5c1.8,2.2,4.4,3.8,7.3,4.2l-17.5,105.3h16v7.8h-15.5c0,0-1.3,0.1-2.1,1.1
				c-0.4,0.5-0.9,2.6-1.1,3.5c0-0.1,0.1-0.3,0.1-0.5c0-0.1,0-0.2,0-0.2c-0.1,0.3-11.2,52.7-19,89.5c-1.3-0.5-2.7-0.7-4.1-0.7
				C354.2,317.1,353,317.3,351.9,317.7z"/>
			<path fill="#2E8BB7" d="M378.4,229.3c0,0.1,0,0.2,0,0.2C378.3,229.5,378.3,229.4,378.4,229.3z"/>
			<circle fill="#2E8BB7" cx="355.4" cy="329" r="9.4"/>
			<path fill="#2E8BB7" d="M389.7,104.5l-40.1,214.1c-3.7,2-6.1,5.9-6.1,10.4c0,6.3,4.9,11.5,11.2,11.9c-1.6,7.5-2.6,12.2-2.6,12.2
				l-4.6-0.1l-2.5-8.8l-5.2-16.6l19.1-103.2h-17.6c0,0-1.2-0.6-1.3-3.9c-0.1-3.3,1.8-3.8,1.8-3.8H361l26.7-147.3h8.8l2.7,18.3
				c-5.9,0.7-10.5,5.7-10.5,11.8C388.7,101.4,389,103,389.7,104.5z"/>
			<polygon fill="#2E8BB7" points="351.7,359.4 351.7,361.9 348,354.1 351.7,354.2 			"/>
			<path fill="#2E8BB7" d="M332.9,216.8h6.5c0,0-1.4,1-1.4,3.7c0,2.8,1.2,4.1,1.2,4.1h-6.4c0,0-1.4-1.1-1.4-3.9
				C331.5,217.8,332.9,216.8,332.9,216.8z"/>
		</g>
		<g>
		</g>
	</g>
</g>
</svg>
