<?xml version="1.0" encoding="utf-8"?>
<!-- Generator: Adobe Illustrator 18.1.0, SVG Export Plug-In . SVG Version: 6.00 Build 0)  -->
<svg version="1.1" id="Layer_1" xmlns="http://www.w3.org/2000/svg" xmlns:xlink="http://www.w3.org/1999/xlink" x="0px" y="0px"
	 viewBox="0 0 800 105" enable-background="new 0 0 800 105" xml:space="preserve">
<g id="dropdown_2_1_">
	<g>
		<g>
			<g>
				<g>
					<path fill="#169EF2" d="M166.6,48.3V20.7h11.1c5.5,0,8.6,3.8,8.6,8.3s-3.1,8.3-8.6,8.3H170v10.9H166.6z M182.8,29
						c0-3.1-2.2-5.2-5.5-5.2H170v10.5h7.2C180.5,34.3,182.8,32.1,182.8,29z"/>
					<path fill="#169EF2" d="M190.2,23.4c0-1.2,1-2.1,2.1-2.1s2.1,0.9,2.1,2.1c0,1.2-0.9,2.1-2.1,2.1S190.2,24.6,190.2,23.4z
						 M190.7,48.3V28.3h3.1v19.9H190.7z"/>
					<path fill="#169EF2" d="M203.1,45.3v10.6H200V28.3h3.1v3c1.4-2,3.9-3.5,6.7-3.5c5.2,0,8.9,4,8.9,10.4c0,6.4-3.6,10.5-8.9,10.5
						C207.1,48.8,204.8,47.4,203.1,45.3z M215.5,38.3c0-4.4-2.4-7.7-6.4-7.7c-2.4,0-4.9,1.4-5.9,3.2v9c1.1,1.7,3.5,3.2,5.9,3.2
						C213.1,46,215.5,42.7,215.5,38.3z"/>
					<path fill="#169EF2" d="M222.5,38.3c0-5.8,4.1-10.4,9.8-10.4c6,0,9.6,4.7,9.6,10.7v0.8h-16.1c0.2,3.8,2.8,6.9,7.1,6.9
						c2.3,0,4.6-0.9,6.2-2.6l1.5,2c-2,2-4.7,3.1-7.9,3.1C226.7,48.8,222.5,44.5,222.5,38.3z M232.3,30.4c-4.3,0-6.4,3.6-6.5,6.6
						h13.1C238.8,34.1,236.8,30.4,232.3,30.4z"/>
					<path fill="#169EF2" d="M246.9,48.3V20.7h3.1v27.5H246.9z"/>
					<path fill="#169EF2" d="M255.6,23.4c0-1.2,1-2.1,2.1-2.1s2.1,0.9,2.1,2.1c0,1.2-0.9,2.1-2.1,2.1S255.6,24.6,255.6,23.4z
						 M256.2,48.3V28.3h3.1v19.9H256.2z"/>
					<path fill="#169EF2" d="M278.9,48.3v-13c0-3.5-1.8-4.6-4.5-4.6c-2.4,0-4.7,1.5-5.9,3.1v14.6h-3.1V28.3h3.1v2.9
						c1.4-1.7,4.1-3.4,7.1-3.4c4.1,0,6.3,2.1,6.3,6.4v14H278.9z"/>
					<path fill="#169EF2" d="M287.1,38.3c0-5.8,4.1-10.4,9.8-10.4c6,0,9.6,4.7,9.6,10.7v0.8h-16.1c0.2,3.8,2.8,6.9,7.1,6.9
						c2.3,0,4.6-0.9,6.2-2.6l1.5,2c-2,2-4.7,3.1-7.9,3.1C291.3,48.8,287.1,44.5,287.1,38.3z M296.9,30.4c-4.3,0-6.4,3.6-6.5,6.6
						h13.1C303.4,34.1,301.4,30.4,296.9,30.4z"/>
				</g>
			</g>
		</g>
		<g>
			<g>
				<circle fill="#FFFFFF" cx="90.2" cy="52.4" r="49.3"/>
				<path fill="#D2D0D0" d="M90.2,102.3c-27.5,0-49.9-22.4-49.9-49.9S62.6,2.5,90.2,2.5s49.9,22.4,49.9,49.9S117.7,102.3,90.2,102.3
					z M90.2,3.8c-26.8,0-48.6,21.8-48.6,48.6c0,26.8,21.8,48.6,48.6,48.6c26.8,0,48.6-21.8,48.6-48.6C138.8,25.6,117,3.8,90.2,3.8z"
					/>
			</g>
			<g>
				<g>
					<g>
						<path fill="#169EF2" d="M108.2,67.6H94.3c-5.5,0-10-4.5-10-10v-7.8H72.1V37.2h14.7c5.5,0,10,4.5,10,10V55h11.4V67.6z
							 M73.4,48.4h12.2v9.1c0,4.8,3.9,8.7,8.7,8.7h12.6v-10H95.6v-9.1c0-4.8-3.9-8.7-8.7-8.7H73.4V48.4z"/>
					</g>
				</g>
				<g>
					<path fill="#169EF2" d="M73.2,53h-6.8V34.3h6.8V53z M67.7,51.7h4.2V35.6h-4.2V51.7z"/>
				</g>
				<g>
					<path fill="#169EF2" d="M113.9,70.5h-6.8V51.7h6.8V70.5z M108.4,69.2h4.2V53h-4.2V69.2z"/>
				</g>
			</g>
		</g>
		<g>
			<path fill="#444444" d="M165.1,81.8V67.5h4.9c4.5,0,7.3,3.1,7.3,7.2c0,4.1-2.9,7.1-7.3,7.1H165.1z M175.5,74.6
				c0-3.1-2-5.6-5.5-5.6h-3.1v11.1h3.1C173.4,80.2,175.5,77.7,175.5,74.6z"/>
			<path fill="#444444" d="M186.5,81.8v-1.2c-0.8,0.9-2,1.4-3.4,1.4c-1.7,0-3.6-1.2-3.6-3.4c0-2.3,1.8-3.4,3.6-3.4
				c1.4,0,2.6,0.5,3.4,1.4v-1.9c0-1.4-1.1-2.2-2.6-2.2c-1.2,0-2.3,0.4-3.2,1.4l-0.8-1.1c1.1-1.2,2.4-1.7,4.1-1.7c2.2,0,4,1,4,3.5
				v7.1H186.5z M186.5,79.6v-2c-0.6-0.8-1.7-1.3-2.8-1.3c-1.5,0-2.6,0.9-2.6,2.3c0,1.3,1.1,2.3,2.6,2.3
				C184.8,80.9,185.9,80.5,186.5,79.6z"/>
			<path fill="#444444" d="M191.7,79.6v-6.8H190v-1.4h1.7v-2.8h1.6v2.8h2.1v1.4h-2.1v6.4c0,0.8,0.3,1.3,1,1.3c0.5,0,0.9-0.2,1.1-0.5
				l0.5,1.2c-0.4,0.4-1,0.7-1.9,0.7C192.5,82,191.7,81.2,191.7,79.6z"/>
			<path fill="#444444" d="M204.2,81.8v-1.2c-0.8,0.9-2,1.4-3.4,1.4c-1.7,0-3.6-1.2-3.6-3.4c0-2.3,1.8-3.4,3.6-3.4
				c1.4,0,2.6,0.5,3.4,1.4v-1.9c0-1.4-1.1-2.2-2.6-2.2c-1.2,0-2.3,0.4-3.2,1.4l-0.8-1.1c1.1-1.2,2.4-1.7,4.1-1.7c2.2,0,4,1,4,3.5
				v7.1H204.2z M204.2,79.6v-2c-0.6-0.8-1.7-1.3-2.8-1.3c-1.5,0-2.6,0.9-2.6,2.3c0,1.3,1.1,2.3,2.6,2.3
				C202.4,80.9,203.5,80.5,204.2,79.6z"/>
			<path fill="#444444" d="M214.3,68.9c0-0.6,0.5-1.1,1.1-1.1c0.6,0,1.1,0.5,1.1,1.1c0,0.6-0.5,1.1-1.1,1.1
				C214.8,69.9,214.3,69.5,214.3,68.9z M214.6,81.8V71.4h1.6v10.4H214.6z"/>
			<path fill="#444444" d="M226.4,81.8V75c0-1.8-0.9-2.4-2.3-2.4c-1.3,0-2.4,0.8-3.1,1.6v7.6h-1.6V71.4h1.6v1.5
				c0.7-0.9,2.1-1.8,3.7-1.8c2.1,0,3.3,1.1,3.3,3.3v7.3H226.4z"/>
			<path fill="#444444" d="M231.7,81.8v-9H230v-1.4h1.7v-0.8c0-2.1,1.2-3.4,3-3.4c0.8,0,1.5,0.2,2.2,0.8l-0.7,1
				c-0.3-0.3-0.8-0.5-1.3-0.5c-1.1,0-1.7,0.7-1.7,2v0.8h2.1v1.4h-2.1v9H231.7z"/>
			<path fill="#444444" d="M237.4,81.8V71.4h1.6v1.7c0.8-1.1,2-1.9,3.5-1.9v1.7c-0.2,0-0.4,0-0.6,0c-1,0-2.4,0.8-2.8,1.7v7.3H237.4z
				"/>
			<path fill="#444444" d="M250.9,81.8v-1.2c-0.8,0.9-2,1.4-3.4,1.4c-1.7,0-3.6-1.2-3.6-3.4c0-2.3,1.8-3.4,3.6-3.4
				c1.4,0,2.6,0.5,3.4,1.4v-1.9c0-1.4-1.1-2.2-2.6-2.2c-1.2,0-2.3,0.4-3.2,1.4l-0.8-1.1c1.1-1.2,2.4-1.7,4.1-1.7c2.2,0,4,1,4,3.5
				v7.1H250.9z M250.9,79.6v-2c-0.6-0.8-1.7-1.3-2.8-1.3c-1.5,0-2.6,0.9-2.6,2.3c0,1.3,1.1,2.3,2.6,2.3
				C249.2,80.9,250.3,80.5,250.9,79.6z"/>
			<path fill="#444444" d="M254.9,80.4l0.8-1.2c0.7,0.8,2,1.5,3.4,1.5c1.6,0,2.5-0.8,2.5-1.8c0-2.5-6.4-1-6.4-4.8c0-1.6,1.4-3,3.8-3
				c1.8,0,3,0.7,3.8,1.5l-0.8,1.1c-0.6-0.8-1.7-1.3-3.1-1.3c-1.4,0-2.3,0.7-2.3,1.6c0,2.3,6.4,0.8,6.4,4.8c0,1.7-1.4,3.1-4.1,3.1
				C257.4,82,255.9,81.5,254.9,80.4z"/>
			<path fill="#444444" d="M266.1,79.6v-6.8h-1.7v-1.4h1.7v-2.8h1.6v2.8h2.1v1.4h-2.1v6.4c0,0.8,0.3,1.3,1,1.3
				c0.5,0,0.9-0.2,1.1-0.5l0.5,1.2c-0.4,0.4-1,0.7-1.9,0.7C266.8,82,266.1,81.2,266.1,79.6z"/>
			<path fill="#444444" d="M272.1,81.8V71.4h1.6v1.7c0.8-1.1,2-1.9,3.5-1.9v1.7c-0.2,0-0.4,0-0.6,0c-1,0-2.4,0.8-2.8,1.7v7.3H272.1z
				"/>
			<path fill="#444444" d="M286.1,81.8v-1.5c-0.8,0.9-2.1,1.7-3.7,1.7c-2.2,0-3.3-1.1-3.3-3.3v-7.3h1.6v6.8c0,1.8,0.9,2.4,2.3,2.4
				c1.2,0,2.4-0.7,3-1.6v-7.6h1.6v10.4H286.1z"/>
			<path fill="#444444" d="M290.4,76.6c0-3.1,2.1-5.4,5.2-5.4c1.9,0,3,0.8,3.8,1.8l-1.1,1c-0.7-0.9-1.6-1.3-2.6-1.3
				c-2.2,0-3.6,1.7-3.6,4c0,2.3,1.4,4,3.6,4c1.1,0,2-0.4,2.6-1.4l1.1,1c-0.8,1-1.9,1.8-3.8,1.8C292.5,82,290.4,79.7,290.4,76.6z"/>
			<path fill="#444444" d="M301.9,79.6v-6.8h-1.7v-1.4h1.7v-2.8h1.6v2.8h2.1v1.4h-2.1v6.4c0,0.8,0.3,1.3,1,1.3
				c0.5,0,0.9-0.2,1.1-0.5l0.5,1.2c-0.4,0.4-1,0.7-1.9,0.7C302.7,82,301.9,81.2,301.9,79.6z"/>
			<path fill="#444444" d="M314.9,81.8v-1.5c-0.8,0.9-2.1,1.7-3.7,1.7c-2.2,0-3.3-1.1-3.3-3.3v-7.3h1.6v6.8c0,1.8,0.9,2.4,2.3,2.4
				c1.2,0,2.4-0.7,3-1.6v-7.6h1.6v10.4H314.9z"/>
			<path fill="#444444" d="M319.8,81.8V71.4h1.6v1.7c0.8-1.1,2-1.9,3.5-1.9v1.7c-0.2,0-0.4,0-0.6,0c-1,0-2.4,0.8-2.8,1.7v7.3H319.8z
				"/>
			<path fill="#444444" d="M326.2,76.6c0-3,2.1-5.4,5.1-5.4c3.1,0,5,2.4,5,5.6v0.4H328c0.1,2,1.5,3.6,3.7,3.6c1.2,0,2.4-0.5,3.2-1.3
				l0.8,1.1c-1.1,1-2.4,1.6-4.1,1.6C328.5,82,326.2,79.8,326.2,76.6z M331.3,72.5c-2.2,0-3.3,1.9-3.4,3.4h6.8
				C334.7,74.4,333.7,72.5,331.3,72.5z"/>
		</g>
	</g>
	<g>
		<g>
			<g>
				<circle fill="#FFFFFF" cx="467.7" cy="52.7" r="49.3"/>
				<path fill="#D2D0D0" d="M467.7,102.6c-27.5,0-49.9-22.4-49.9-49.9s22.4-49.9,49.9-49.9s49.9,22.4,49.9,49.9
					S495.2,102.6,467.7,102.6z M467.7,4.1c-26.8,0-48.6,21.8-48.6,48.6c0,26.8,21.8,48.6,48.6,48.6s48.6-21.8,48.6-48.6
					C516.3,25.9,494.5,4.1,467.7,4.1z"/>
			</g>
			<g>
				<g>
					<rect x="446" y="71" fill="#42BC4E" width="43" height="2"/>
				</g>
				<g>
					<path fill="#42BC4E" d="M457.4,66.5h-9.6V52.1h9.6V66.5z M449,65.2h7V53.4h-7V65.2z"/>
				</g>
				<g>
					<path fill="#42BC4E" d="M472.4,66.5h-9.6V41.3h9.6V66.5z M464.1,65.2h7V42.6h-7V65.2z"/>
				</g>
				<g>
					<path fill="#42BC4E" d="M487.5,66.5h-9.6V34.9h9.6V66.5z M479.1,65.2h7V36.2h-7V65.2z"/>
				</g>
			</g>
		</g>
		<g>
			<g>
				<path fill="#42BC4E" d="M543.2,34.9c0-8.5,6.2-14.2,14.2-14.2c4.9,0,8.3,2.3,10.4,5.4l-2.8,1.6c-1.6-2.4-4.5-4-7.6-4
					c-6,0-10.6,4.6-10.6,11.2c0,6.5,4.6,11.2,10.6,11.2c3.1,0,6-1.7,7.6-4l2.9,1.6c-2.3,3.2-5.6,5.5-10.5,5.5
					C549.4,49.1,543.2,43.3,543.2,34.9z"/>
				<path fill="#42BC4E" d="M572.1,48.6V21.1h3.1v27.5H572.1z"/>
				<path fill="#42BC4E" d="M580.2,38.6c0-5.8,3.8-10.4,9.9-10.4s9.9,4.7,9.9,10.4s-3.8,10.5-9.9,10.5S580.2,44.4,580.2,38.6z
					 M596.7,38.6c0-4-2.4-7.7-6.6-7.7s-6.6,3.6-6.6,7.7c0,4.1,2.4,7.7,6.6,7.7S596.7,42.7,596.7,38.6z"/>
				<path fill="#42BC4E" d="M618.4,48.6v-2.8c-1.5,1.7-4.1,3.3-7.1,3.3c-4.2,0-6.4-2.1-6.4-6.4V28.7h3.1v13.1c0,3.5,1.8,4.5,4.5,4.5
					c2.4,0,4.7-1.4,5.9-3V28.7h3.1v19.9H618.4z"/>
				<path fill="#42BC4E" d="M642.2,48.6v-3c-1.5,2-3.9,3.5-6.7,3.5c-5.2,0-8.9-4-8.9-10.4c0-6.4,3.7-10.5,8.9-10.5
					c2.7,0,5.1,1.3,6.7,3.5V21.1h3.1v27.5H642.2z M642.2,43.2v-9c-1.1-1.7-3.5-3.2-5.9-3.2c-4,0-6.4,3.3-6.4,7.7s2.4,7.7,6.4,7.7
					C638.7,46.3,641.1,44.9,642.2,43.2z"/>
				<path fill="#42BC4E" d="M651.6,48.6V21.1h12.3c4.8,0,7.7,2.9,7.7,7c0,3.5-2.3,5.8-4.8,6.3c2.9,0.5,5.4,3.5,5.4,6.8
					c0,4.4-2.9,7.4-8,7.4H651.6z M668,28.6c0-2.5-1.7-4.5-4.7-4.5H655V33h8.3C666.4,33,668,31.1,668,28.6z M668.5,40.8
					c0-2.5-1.7-4.7-5.1-4.7H655v9.5h8.5C666.6,45.6,668.5,43.7,668.5,40.8z"/>
				<path fill="#42BC4E" d="M677.5,48.6V21.1h3.4v27.5H677.5z"/>
			</g>
		</g>
		<g>
			<path fill="#444444" d="M553,82.1l-1.3-3.2h-7.1l-1.3,3.2h-2l5.8-14.3h2.2l5.8,14.3H553z M548.1,69.6l-3,7.7h6.1L548.1,69.6z"/>
			<path fill="#444444" d="M563.8,82.1v-6.8c0-1.8-0.9-2.4-2.3-2.4c-1.3,0-2.4,0.8-3.1,1.6v7.6h-1.6V71.8h1.6v1.5
				c0.7-0.9,2.1-1.8,3.7-1.8c2.1,0,3.3,1.1,3.3,3.3v7.3H563.8z"/>
			<path fill="#444444" d="M575.1,82.1V81c-0.8,0.9-2,1.4-3.4,1.4c-1.7,0-3.6-1.2-3.6-3.4c0-2.3,1.8-3.4,3.6-3.4
				c1.4,0,2.6,0.5,3.4,1.4v-1.9c0-1.4-1.1-2.2-2.6-2.2c-1.2,0-2.3,0.4-3.2,1.4l-0.8-1.1c1.1-1.2,2.4-1.7,4.1-1.7c2.2,0,4,1,4,3.5
				v7.1H575.1z M575.1,79.9v-2c-0.6-0.8-1.7-1.3-2.8-1.3c-1.5,0-2.6,0.9-2.6,2.3c0,1.3,1.1,2.3,2.6,2.3
				C573.4,81.2,574.5,80.8,575.1,79.9z"/>
			<path fill="#444444" d="M580,82.1V67.8h1.6v14.3H580z"/>
			<path fill="#444444" d="M584.5,84.7c0.2,0.1,0.6,0.2,0.9,0.2c0.7,0,1.2-0.2,1.5-1.1l0.7-1.6l-4.3-10.5h1.8l3.4,8.5l3.5-8.5h1.7
				l-5.2,12.5c-0.6,1.5-1.7,2.1-3,2.1c-0.3,0-0.9-0.1-1.2-0.2L584.5,84.7z"/>
			<path fill="#444444" d="M594.5,80.8l0.8-1.2c0.7,0.8,2,1.5,3.4,1.5c1.6,0,2.5-0.8,2.5-1.8c0-2.5-6.4-1-6.4-4.8c0-1.6,1.4-3,3.8-3
				c1.8,0,3,0.7,3.8,1.5l-0.8,1.1c-0.6-0.8-1.7-1.3-3.1-1.3c-1.4,0-2.3,0.7-2.3,1.6c0,2.3,6.4,0.8,6.4,4.8c0,1.7-1.4,3.1-4.1,3.1
				C596.9,82.4,595.5,81.9,594.5,80.8z"/>
			<path fill="#444444" d="M605,69.2c0-0.6,0.5-1.1,1.1-1.1c0.6,0,1.1,0.5,1.1,1.1c0,0.6-0.5,1.1-1.1,1.1
				C605.5,70.3,605,69.8,605,69.2z M605.3,82.1V71.8h1.6v10.4H605.3z"/>
			<path fill="#444444" d="M609.3,80.8l0.8-1.2c0.7,0.8,2,1.5,3.4,1.5c1.6,0,2.5-0.8,2.5-1.8c0-2.5-6.4-1-6.4-4.8c0-1.6,1.4-3,3.8-3
				c1.8,0,3,0.7,3.8,1.5l-0.8,1.1c-0.6-0.8-1.7-1.3-3.1-1.3c-1.4,0-2.3,0.7-2.3,1.6c0,2.3,6.4,0.8,6.4,4.8c0,1.7-1.4,3.1-4.1,3.1
				C611.7,82.4,610.3,81.9,609.3,80.8z"/>
			<path fill="#444444" d="M632.2,82.1V81c-0.8,0.9-2,1.4-3.4,1.4c-1.7,0-3.6-1.2-3.6-3.4c0-2.3,1.8-3.4,3.6-3.4
				c1.4,0,2.6,0.5,3.4,1.4v-1.9c0-1.4-1.1-2.2-2.6-2.2c-1.2,0-2.3,0.4-3.2,1.4l-0.8-1.1c1.1-1.2,2.4-1.7,4.1-1.7c2.2,0,4,1,4,3.5
				v7.1H632.2z M632.2,79.9v-2c-0.6-0.8-1.7-1.3-2.8-1.3c-1.5,0-2.6,0.9-2.6,2.3c0,1.3,1.1,2.3,2.6,2.3
				C630.5,81.2,631.6,80.8,632.2,79.9z"/>
			<path fill="#444444" d="M644,82.1v-6.8c0-1.8-0.9-2.4-2.3-2.4c-1.3,0-2.4,0.8-3.1,1.6v7.6H637V71.8h1.6v1.5
				c0.7-0.9,2.1-1.8,3.7-1.8c2.1,0,3.3,1.1,3.3,3.3v7.3H644z"/>
			<path fill="#444444" d="M656.4,82.1v-1.5c-0.8,1.1-2,1.8-3.5,1.8c-2.7,0-4.6-2.1-4.6-5.4c0-3.3,1.9-5.5,4.6-5.5
				c1.4,0,2.7,0.7,3.5,1.8v-5.5h1.6v14.3H656.4z M656.4,79.3v-4.7c-0.6-0.9-1.8-1.7-3.1-1.7c-2.1,0-3.3,1.7-3.3,4c0,2.3,1.2,4,3.3,4
				C654.6,81,655.8,80.2,656.4,79.3z"/>
			<path fill="#444444" d="M666.2,76.9c0-3.1,2.1-5.4,5.2-5.4c1.9,0,3,0.8,3.8,1.8l-1.1,1c-0.7-0.9-1.6-1.3-2.6-1.3
				c-2.2,0-3.6,1.7-3.6,4c0,2.3,1.4,4,3.6,4c1.1,0,2-0.4,2.6-1.4l1.1,1c-0.8,1-1.9,1.8-3.8,1.8C668.3,82.4,666.2,80,666.2,76.9z"/>
			<path fill="#444444" d="M676.8,76.9c0-3,2-5.4,5.1-5.4c3.2,0,5.1,2.4,5.1,5.4s-2,5.5-5.1,5.5C678.8,82.4,676.8,79.9,676.8,76.9z
				 M685.4,76.9c0-2.1-1.2-4-3.4-4c-2.2,0-3.4,1.9-3.4,4c0,2.1,1.2,4,3.4,4C684.2,81,685.4,79.1,685.4,76.9z"/>
			<path fill="#444444" d="M689.7,82.1V67.8h1.6v14.3H689.7z"/>
			<path fill="#444444" d="M694.5,82.1V67.8h1.6v14.3H694.5z"/>
			<path fill="#444444" d="M705.8,82.1V81c-0.8,0.9-2,1.4-3.4,1.4c-1.7,0-3.6-1.2-3.6-3.4c0-2.3,1.8-3.4,3.6-3.4
				c1.4,0,2.6,0.5,3.4,1.4v-1.9c0-1.4-1.1-2.2-2.6-2.2c-1.2,0-2.3,0.4-3.2,1.4l-0.8-1.1c1.1-1.2,2.4-1.7,4.1-1.7c2.2,0,4,1,4,3.5
				v7.1H705.8z M705.8,79.9v-2c-0.6-0.8-1.7-1.3-2.8-1.3c-1.5,0-2.6,0.9-2.6,2.3c0,1.3,1.1,2.3,2.6,2.3
				C704.1,81.2,705.2,80.8,705.8,79.9z"/>
			<path fill="#444444" d="M710.7,82.1V67.8h1.6v5.5c0.8-1.1,2.1-1.8,3.5-1.8c2.7,0,4.6,2.1,4.6,5.5c0,3.4-1.9,5.4-4.6,5.4
				c-1.5,0-2.7-0.8-3.5-1.8v1.5H710.7z M715.4,81c2.1,0,3.3-1.7,3.3-4c0-2.3-1.2-4-3.3-4c-1.3,0-2.6,0.8-3.1,1.7v4.7
				C712.9,80.2,714.1,81,715.4,81z"/>
			<path fill="#444444" d="M722.4,76.9c0-3,2-5.4,5.1-5.4c3.2,0,5.1,2.4,5.1,5.4s-2,5.5-5.1,5.5C724.4,82.4,722.4,79.9,722.4,76.9z
				 M731,76.9c0-2.1-1.2-4-3.4-4c-2.2,0-3.4,1.9-3.4,4c0,2.1,1.2,4,3.4,4C729.8,81,731,79.1,731,76.9z"/>
			<path fill="#444444" d="M735.3,82.1V71.8h1.6v1.7c0.8-1.1,2-1.9,3.5-1.9v1.7c-0.2,0-0.4,0-0.6,0c-1,0-2.4,0.8-2.8,1.7v7.3H735.3z
				"/>
			<path fill="#444444" d="M748.9,82.1V81c-0.8,0.9-2,1.4-3.4,1.4c-1.7,0-3.6-1.2-3.6-3.4c0-2.3,1.8-3.4,3.6-3.4
				c1.4,0,2.6,0.5,3.4,1.4v-1.9c0-1.4-1.1-2.2-2.6-2.2c-1.2,0-2.3,0.4-3.2,1.4l-0.8-1.1c1.1-1.2,2.4-1.7,4.1-1.7c2.2,0,4,1,4,3.5
				v7.1H748.9z M748.9,79.9v-2c-0.6-0.8-1.7-1.3-2.8-1.3c-1.5,0-2.6,0.9-2.6,2.3c0,1.3,1.1,2.3,2.6,2.3
				C747.2,81.2,748.3,80.8,748.9,79.9z"/>
			<path fill="#444444" d="M754.1,80v-6.8h-1.7v-1.4h1.7v-2.8h1.6v2.8h2.1v1.4h-2.1v6.4c0,0.8,0.3,1.3,1,1.3c0.5,0,0.9-0.2,1.1-0.5
				l0.5,1.2c-0.4,0.4-1,0.7-1.9,0.7C754.8,82.4,754.1,81.5,754.1,80z"/>
			<path fill="#444444" d="M759.8,69.2c0-0.6,0.5-1.1,1.1-1.1c0.6,0,1.1,0.5,1.1,1.1c0,0.6-0.5,1.1-1.1,1.1
				C760.3,70.3,759.8,69.8,759.8,69.2z M760,82.1V71.8h1.6v10.4H760z"/>
			<path fill="#444444" d="M764.3,76.9c0-3,2-5.4,5.1-5.4c3.2,0,5.1,2.4,5.1,5.4s-2,5.5-5.1,5.5C766.3,82.4,764.3,79.9,764.3,76.9z
				 M772.8,76.9c0-2.1-1.2-4-3.4-4c-2.2,0-3.4,1.9-3.4,4c0,2.1,1.2,4,3.4,4C771.6,81,772.8,79.1,772.8,76.9z"/>
			<path fill="#444444" d="M784.2,82.1v-6.8c0-1.8-0.9-2.4-2.3-2.4c-1.3,0-2.4,0.8-3.1,1.6v7.6h-1.6V71.8h1.6v1.5
				c0.7-0.9,2.1-1.8,3.7-1.8c2.1,0,3.3,1.1,3.3,3.3v7.3H784.2z"/>
		</g>
	</g>
</g>
</svg>
